G04 #@! TF.FileFunction,Legend,Top*
%FSLAX46Y46*%
G04 Gerber Fmt 4.6, Leading zero omitted, Abs format (unit mm)*
G04 Created by KiCad (PCBNEW 4.0.7) date Sunday 08 October 2017 21:17:18*
%MOMM*%
%LPD*%
G01*
G04 APERTURE LIST*
%ADD10C,0.100000*%
%ADD11C,0.150000*%
%ADD12C,0.120000*%
%ADD13C,0.075000*%
%ADD14C,0.304800*%
%ADD15C,0.300000*%
G04 APERTURE END LIST*
D10*
D11*
X134345000Y-94075000D02*
X134345000Y-99155000D01*
X134345000Y-99155000D02*
X131805000Y-99155000D01*
X131805000Y-99155000D02*
X131805000Y-94075000D01*
X131805000Y-94075000D02*
X134345000Y-94075000D01*
X149595000Y-94025000D02*
X149595000Y-99105000D01*
X149595000Y-99105000D02*
X147055000Y-99105000D01*
X147055000Y-99105000D02*
X147055000Y-94025000D01*
X147055000Y-94025000D02*
X149595000Y-94025000D01*
X126710000Y-73315000D02*
X127980000Y-73315000D01*
X126710000Y-65965000D02*
X127980000Y-65965000D01*
X138920000Y-65965000D02*
X137650000Y-65965000D01*
X138920000Y-73315000D02*
X137650000Y-73315000D01*
X126710000Y-73315000D02*
X126710000Y-65965000D01*
X138920000Y-73315000D02*
X138920000Y-65965000D01*
X127980000Y-73315000D02*
X127980000Y-74600000D01*
D12*
X111330000Y-99440000D02*
X101050000Y-99440000D01*
X101050000Y-99440000D02*
X101050000Y-102100000D01*
X101050000Y-102100000D02*
X111330000Y-102100000D01*
X111330000Y-102100000D02*
X111330000Y-99440000D01*
X110380000Y-102100000D02*
X110380000Y-108100000D01*
X110380000Y-108100000D02*
X109620000Y-108100000D01*
X109620000Y-108100000D02*
X109620000Y-102100000D01*
X110320000Y-102100000D02*
X110320000Y-108100000D01*
X110200000Y-102100000D02*
X110200000Y-108100000D01*
X110080000Y-102100000D02*
X110080000Y-108100000D01*
X109960000Y-102100000D02*
X109960000Y-108100000D01*
X109840000Y-102100000D02*
X109840000Y-108100000D01*
X109720000Y-102100000D02*
X109720000Y-108100000D01*
X110380000Y-99110000D02*
X110380000Y-99440000D01*
X109620000Y-99110000D02*
X109620000Y-99440000D01*
X108730000Y-99440000D02*
X108730000Y-102100000D01*
X107840000Y-102100000D02*
X107840000Y-108100000D01*
X107840000Y-108100000D02*
X107080000Y-108100000D01*
X107080000Y-108100000D02*
X107080000Y-102100000D01*
X107840000Y-99042929D02*
X107840000Y-99440000D01*
X107080000Y-99042929D02*
X107080000Y-99440000D01*
X106190000Y-99440000D02*
X106190000Y-102100000D01*
X105300000Y-102100000D02*
X105300000Y-108100000D01*
X105300000Y-108100000D02*
X104540000Y-108100000D01*
X104540000Y-108100000D02*
X104540000Y-102100000D01*
X105300000Y-99042929D02*
X105300000Y-99440000D01*
X104540000Y-99042929D02*
X104540000Y-99440000D01*
X103650000Y-99440000D02*
X103650000Y-102100000D01*
X102760000Y-102100000D02*
X102760000Y-108100000D01*
X102760000Y-108100000D02*
X102000000Y-108100000D01*
X102000000Y-108100000D02*
X102000000Y-102100000D01*
X102760000Y-99042929D02*
X102760000Y-99440000D01*
X102000000Y-99042929D02*
X102000000Y-99440000D01*
X110000000Y-96730000D02*
X111270000Y-96730000D01*
X111270000Y-96730000D02*
X111270000Y-98000000D01*
X144330000Y-99440000D02*
X136590000Y-99440000D01*
X136590000Y-99440000D02*
X136590000Y-102100000D01*
X136590000Y-102100000D02*
X144330000Y-102100000D01*
X144330000Y-102100000D02*
X144330000Y-99440000D01*
X143380000Y-102100000D02*
X143380000Y-108100000D01*
X143380000Y-108100000D02*
X142620000Y-108100000D01*
X142620000Y-108100000D02*
X142620000Y-102100000D01*
X143320000Y-102100000D02*
X143320000Y-108100000D01*
X143200000Y-102100000D02*
X143200000Y-108100000D01*
X143080000Y-102100000D02*
X143080000Y-108100000D01*
X142960000Y-102100000D02*
X142960000Y-108100000D01*
X142840000Y-102100000D02*
X142840000Y-108100000D01*
X142720000Y-102100000D02*
X142720000Y-108100000D01*
X143380000Y-99110000D02*
X143380000Y-99440000D01*
X142620000Y-99110000D02*
X142620000Y-99440000D01*
X141730000Y-99440000D02*
X141730000Y-102100000D01*
X140840000Y-102100000D02*
X140840000Y-108100000D01*
X140840000Y-108100000D02*
X140080000Y-108100000D01*
X140080000Y-108100000D02*
X140080000Y-102100000D01*
X140840000Y-99042929D02*
X140840000Y-99440000D01*
X140080000Y-99042929D02*
X140080000Y-99440000D01*
X139190000Y-99440000D02*
X139190000Y-102100000D01*
X138300000Y-102100000D02*
X138300000Y-108100000D01*
X138300000Y-108100000D02*
X137540000Y-108100000D01*
X137540000Y-108100000D02*
X137540000Y-102100000D01*
X138300000Y-99042929D02*
X138300000Y-99440000D01*
X137540000Y-99042929D02*
X137540000Y-99440000D01*
X143000000Y-96730000D02*
X144270000Y-96730000D01*
X144270000Y-96730000D02*
X144270000Y-98000000D01*
X175755000Y-99440000D02*
X168015000Y-99440000D01*
X168015000Y-99440000D02*
X168015000Y-102100000D01*
X168015000Y-102100000D02*
X175755000Y-102100000D01*
X175755000Y-102100000D02*
X175755000Y-99440000D01*
X174805000Y-102100000D02*
X174805000Y-108100000D01*
X174805000Y-108100000D02*
X174045000Y-108100000D01*
X174045000Y-108100000D02*
X174045000Y-102100000D01*
X174745000Y-102100000D02*
X174745000Y-108100000D01*
X174625000Y-102100000D02*
X174625000Y-108100000D01*
X174505000Y-102100000D02*
X174505000Y-108100000D01*
X174385000Y-102100000D02*
X174385000Y-108100000D01*
X174265000Y-102100000D02*
X174265000Y-108100000D01*
X174145000Y-102100000D02*
X174145000Y-108100000D01*
X174805000Y-99110000D02*
X174805000Y-99440000D01*
X174045000Y-99110000D02*
X174045000Y-99440000D01*
X173155000Y-99440000D02*
X173155000Y-102100000D01*
X172265000Y-102100000D02*
X172265000Y-108100000D01*
X172265000Y-108100000D02*
X171505000Y-108100000D01*
X171505000Y-108100000D02*
X171505000Y-102100000D01*
X172265000Y-99042929D02*
X172265000Y-99440000D01*
X171505000Y-99042929D02*
X171505000Y-99440000D01*
X170615000Y-99440000D02*
X170615000Y-102100000D01*
X169725000Y-102100000D02*
X169725000Y-108100000D01*
X169725000Y-108100000D02*
X168965000Y-108100000D01*
X168965000Y-108100000D02*
X168965000Y-102100000D01*
X169725000Y-99042929D02*
X169725000Y-99440000D01*
X168965000Y-99042929D02*
X168965000Y-99440000D01*
X174425000Y-96730000D02*
X175695000Y-96730000D01*
X175695000Y-96730000D02*
X175695000Y-98000000D01*
D13*
X104400000Y-45050000D02*
X124000000Y-45050000D01*
X111200000Y-25050000D02*
X117200000Y-25050000D01*
X117200000Y-38050000D02*
X117200000Y-25050000D01*
X117700000Y-45050000D02*
X117700000Y-38050000D01*
X109450000Y-45050000D02*
X109450000Y-54600000D01*
X118950000Y-45050000D02*
X109450000Y-45050000D01*
X118950000Y-54600000D02*
X109450000Y-54600000D01*
X118950000Y-45050000D02*
X118950000Y-54600000D01*
X110700000Y-45050000D02*
X110700000Y-38050000D01*
X117700000Y-38050000D02*
X110700000Y-38050000D01*
X111200000Y-38050000D02*
X111200000Y-25050000D01*
X147275000Y-45075000D02*
X166875000Y-45075000D01*
X154075000Y-25075000D02*
X160075000Y-25075000D01*
X160075000Y-38075000D02*
X160075000Y-25075000D01*
X160575000Y-45075000D02*
X160575000Y-38075000D01*
X152325000Y-45075000D02*
X152325000Y-54625000D01*
X161825000Y-45075000D02*
X152325000Y-45075000D01*
X161825000Y-54625000D02*
X152325000Y-54625000D01*
X161825000Y-45075000D02*
X161825000Y-54625000D01*
X153575000Y-45075000D02*
X153575000Y-38075000D01*
X160575000Y-38075000D02*
X153575000Y-38075000D01*
X154075000Y-38075000D02*
X154075000Y-25075000D01*
D14*
X129125000Y-89900000D02*
X129125000Y-85700000D01*
X128925000Y-89600000D02*
X128925000Y-86000000D01*
X128725000Y-89200000D02*
X128725000Y-86400000D01*
X128525000Y-88600000D02*
X128525000Y-86900000D01*
X135125000Y-87800000D02*
G75*
G03X135125000Y-87800000I-3400000J0D01*
G01*
D15*
X130525000Y-86400000D02*
X130525000Y-85400000D01*
D14*
X152175000Y-85400000D02*
X152175000Y-89600000D01*
X152375000Y-85700000D02*
X152375000Y-89300000D01*
X152575000Y-86100000D02*
X152575000Y-88900000D01*
X152775000Y-86700000D02*
X152775000Y-88400000D01*
X152975000Y-87500000D02*
G75*
G03X152975000Y-87500000I-3400000J0D01*
G01*
D15*
X150775000Y-88900000D02*
X150775000Y-89900000D01*
D14*
X129350000Y-80750000D02*
X129350000Y-82350000D01*
X129150000Y-80250000D02*
X129150000Y-82850000D01*
X128950000Y-79850000D02*
X128950000Y-83250000D01*
X129550000Y-81550000D02*
G75*
G03X129550000Y-81550000I-2800000J0D01*
G01*
D15*
X127850000Y-82550000D02*
X127850000Y-83550000D01*
D14*
X124325000Y-58400000D02*
X124325000Y-56800000D01*
X124525000Y-58900000D02*
X124525000Y-56300000D01*
X124725000Y-59300000D02*
X124725000Y-55900000D01*
X129725000Y-57600000D02*
G75*
G03X129725000Y-57600000I-2800000J0D01*
G01*
D15*
X125825000Y-56600000D02*
X125825000Y-55600000D01*
D12*
X173072281Y-58372669D02*
X173984448Y-57460501D01*
X173984448Y-57460501D02*
X172994499Y-56470552D01*
X172994499Y-56470552D02*
X172082331Y-57382719D01*
X172082544Y-57382850D02*
G75*
G03X173072281Y-58372669I-1582544J-2572150D01*
G01*
X173747281Y-76947669D02*
X174659448Y-76035501D01*
X174659448Y-76035501D02*
X173669499Y-75045552D01*
X173669499Y-75045552D02*
X172757331Y-75957719D01*
X172757544Y-75957850D02*
G75*
G03X173747281Y-76947669I-1582544J-2572150D01*
G01*
X156147281Y-58022669D02*
X157059448Y-57110501D01*
X157059448Y-57110501D02*
X156069499Y-56120552D01*
X156069499Y-56120552D02*
X155157331Y-57032719D01*
X155157544Y-57032850D02*
G75*
G03X156147281Y-58022669I-1582544J-2572150D01*
G01*
X156922281Y-77062669D02*
X157834448Y-76150501D01*
X157834448Y-76150501D02*
X156844499Y-75160552D01*
X156844499Y-75160552D02*
X155932331Y-76072719D01*
X155932544Y-76072850D02*
G75*
G03X156922281Y-77062669I-1582544J-2572150D01*
G01*
X162540000Y-65570000D02*
X164660000Y-65570000D01*
X164660000Y-65570000D02*
X164660000Y-61450000D01*
X164660000Y-61450000D02*
X162540000Y-61450000D01*
X162540000Y-61450000D02*
X162540000Y-65570000D01*
X163600000Y-66340000D02*
X163600000Y-65570000D01*
X163600000Y-60680000D02*
X163600000Y-61450000D01*
X162540000Y-64910000D02*
X164660000Y-64910000D01*
X162615000Y-76745000D02*
X164735000Y-76745000D01*
X164735000Y-76745000D02*
X164735000Y-72625000D01*
X164735000Y-72625000D02*
X162615000Y-72625000D01*
X162615000Y-72625000D02*
X162615000Y-76745000D01*
X163675000Y-77515000D02*
X163675000Y-76745000D01*
X163675000Y-71855000D02*
X163675000Y-72625000D01*
X162615000Y-76085000D02*
X164735000Y-76085000D01*
X146465000Y-65425000D02*
X148585000Y-65425000D01*
X148585000Y-65425000D02*
X148585000Y-61305000D01*
X148585000Y-61305000D02*
X146465000Y-61305000D01*
X146465000Y-61305000D02*
X146465000Y-65425000D01*
X147525000Y-66195000D02*
X147525000Y-65425000D01*
X147525000Y-60535000D02*
X147525000Y-61305000D01*
X146465000Y-64765000D02*
X148585000Y-64765000D01*
X146465000Y-77050000D02*
X148585000Y-77050000D01*
X148585000Y-77050000D02*
X148585000Y-72930000D01*
X148585000Y-72930000D02*
X146465000Y-72930000D01*
X146465000Y-72930000D02*
X146465000Y-77050000D01*
X147525000Y-77820000D02*
X147525000Y-77050000D01*
X147525000Y-72160000D02*
X147525000Y-72930000D01*
X146465000Y-76390000D02*
X148585000Y-76390000D01*
X130075000Y-78135000D02*
X126355000Y-78135000D01*
X130075000Y-76415000D02*
X126355000Y-76415000D01*
X132300000Y-62760000D02*
X128580000Y-62760000D01*
X132300000Y-61040000D02*
X128580000Y-61040000D01*
X159115000Y-64050000D02*
X159115000Y-60330000D01*
X160835000Y-64050000D02*
X160835000Y-60330000D01*
X159465000Y-77770000D02*
X159465000Y-74050000D01*
X161185000Y-77770000D02*
X161185000Y-74050000D01*
X155625000Y-68035000D02*
X151905000Y-68035000D01*
X155625000Y-66315000D02*
X151905000Y-66315000D01*
X152125000Y-71815000D02*
X155845000Y-71815000D01*
X152125000Y-73535000D02*
X155845000Y-73535000D01*
X169465000Y-91795000D02*
X169465000Y-88075000D01*
X171185000Y-91795000D02*
X171185000Y-88075000D01*
X137275000Y-78110000D02*
X133555000Y-78110000D01*
X137275000Y-76390000D02*
X133555000Y-76390000D01*
X165540000Y-91750000D02*
X165540000Y-88030000D01*
X167260000Y-91750000D02*
X167260000Y-88030000D01*
X157590000Y-91720000D02*
X157590000Y-88000000D01*
X159310000Y-91720000D02*
X159310000Y-88000000D01*
X139775000Y-62760000D02*
X136055000Y-62760000D01*
X139775000Y-61040000D02*
X136055000Y-61040000D01*
X161540000Y-91725000D02*
X161540000Y-88005000D01*
X163260000Y-91725000D02*
X163260000Y-88005000D01*
X100860000Y-75680000D02*
X100860000Y-79400000D01*
X99140000Y-75680000D02*
X99140000Y-79400000D01*
X121860000Y-80680000D02*
X121860000Y-84400000D01*
X120140000Y-80680000D02*
X120140000Y-84400000D01*
X104680000Y-65140000D02*
X108400000Y-65140000D01*
X104680000Y-66860000D02*
X108400000Y-66860000D01*
X112680000Y-65140000D02*
X116400000Y-65140000D01*
X112680000Y-66860000D02*
X116400000Y-66860000D01*
X107860000Y-80680000D02*
X107860000Y-84400000D01*
X106140000Y-80680000D02*
X106140000Y-84400000D01*
X114860000Y-75680000D02*
X114860000Y-79400000D01*
X113140000Y-75680000D02*
X113140000Y-79400000D01*
X104680000Y-60140000D02*
X108400000Y-60140000D01*
X104680000Y-61860000D02*
X108400000Y-61860000D01*
X112680000Y-60140000D02*
X116400000Y-60140000D01*
X112680000Y-61860000D02*
X116400000Y-61860000D01*
X101810000Y-86940000D02*
X101810000Y-94060000D01*
X98190000Y-86940000D02*
X98190000Y-94060000D01*
X101810000Y-86940000D02*
X98190000Y-86940000D01*
X101810000Y-94060000D02*
X98190000Y-94060000D01*
X108810000Y-86940000D02*
X108810000Y-94060000D01*
X105190000Y-86940000D02*
X105190000Y-94060000D01*
X108810000Y-86940000D02*
X105190000Y-86940000D01*
X108810000Y-94060000D02*
X105190000Y-94060000D01*
X115810000Y-86940000D02*
X115810000Y-94060000D01*
X112190000Y-86940000D02*
X112190000Y-94060000D01*
X115810000Y-86940000D02*
X112190000Y-86940000D01*
X115810000Y-94060000D02*
X112190000Y-94060000D01*
X122810000Y-86940000D02*
X122810000Y-94060000D01*
X119190000Y-86940000D02*
X119190000Y-94060000D01*
X122810000Y-86940000D02*
X119190000Y-86940000D01*
X122810000Y-94060000D02*
X119190000Y-94060000D01*
D11*
X135721381Y-96670666D02*
X135245190Y-97004000D01*
X135721381Y-97242095D02*
X134721381Y-97242095D01*
X134721381Y-96861142D01*
X134769000Y-96765904D01*
X134816619Y-96718285D01*
X134911857Y-96670666D01*
X135054714Y-96670666D01*
X135149952Y-96718285D01*
X135197571Y-96765904D01*
X135245190Y-96861142D01*
X135245190Y-97242095D01*
X135149952Y-96099238D02*
X135102333Y-96194476D01*
X135054714Y-96242095D01*
X134959476Y-96289714D01*
X134911857Y-96289714D01*
X134816619Y-96242095D01*
X134769000Y-96194476D01*
X134721381Y-96099238D01*
X134721381Y-95908761D01*
X134769000Y-95813523D01*
X134816619Y-95765904D01*
X134911857Y-95718285D01*
X134959476Y-95718285D01*
X135054714Y-95765904D01*
X135102333Y-95813523D01*
X135149952Y-95908761D01*
X135149952Y-96099238D01*
X135197571Y-96194476D01*
X135245190Y-96242095D01*
X135340429Y-96289714D01*
X135530905Y-96289714D01*
X135626143Y-96242095D01*
X135673762Y-96194476D01*
X135721381Y-96099238D01*
X135721381Y-95908761D01*
X135673762Y-95813523D01*
X135626143Y-95765904D01*
X135530905Y-95718285D01*
X135340429Y-95718285D01*
X135245190Y-95765904D01*
X135197571Y-95813523D01*
X135149952Y-95908761D01*
X148133334Y-103077381D02*
X147800000Y-102601190D01*
X147561905Y-103077381D02*
X147561905Y-102077381D01*
X147942858Y-102077381D01*
X148038096Y-102125000D01*
X148085715Y-102172619D01*
X148133334Y-102267857D01*
X148133334Y-102410714D01*
X148085715Y-102505952D01*
X148038096Y-102553571D01*
X147942858Y-102601190D01*
X147561905Y-102601190D01*
X148609524Y-103077381D02*
X148800000Y-103077381D01*
X148895239Y-103029762D01*
X148942858Y-102982143D01*
X149038096Y-102839286D01*
X149085715Y-102648810D01*
X149085715Y-102267857D01*
X149038096Y-102172619D01*
X148990477Y-102125000D01*
X148895239Y-102077381D01*
X148704762Y-102077381D01*
X148609524Y-102125000D01*
X148561905Y-102172619D01*
X148514286Y-102267857D01*
X148514286Y-102505952D01*
X148561905Y-102601190D01*
X148609524Y-102648810D01*
X148704762Y-102696429D01*
X148895239Y-102696429D01*
X148990477Y-102648810D01*
X149038096Y-102601190D01*
X149085715Y-102505952D01*
X123237381Y-74211905D02*
X124046905Y-74211905D01*
X124142143Y-74164286D01*
X124189762Y-74116667D01*
X124237381Y-74021429D01*
X124237381Y-73830952D01*
X124189762Y-73735714D01*
X124142143Y-73688095D01*
X124046905Y-73640476D01*
X123237381Y-73640476D01*
X124237381Y-72640476D02*
X124237381Y-73211905D01*
X124237381Y-72926191D02*
X123237381Y-72926191D01*
X123380238Y-73021429D01*
X123475476Y-73116667D01*
X123523095Y-73211905D01*
X112722381Y-103123095D02*
X111722381Y-103123095D01*
X111722381Y-102742142D01*
X111770000Y-102646904D01*
X111817619Y-102599285D01*
X111912857Y-102551666D01*
X112055714Y-102551666D01*
X112150952Y-102599285D01*
X112198571Y-102646904D01*
X112246190Y-102742142D01*
X112246190Y-103123095D01*
X112722381Y-101599285D02*
X112722381Y-102170714D01*
X112722381Y-101885000D02*
X111722381Y-101885000D01*
X111865238Y-101980238D01*
X111960476Y-102075476D01*
X112008095Y-102170714D01*
X145722381Y-103123095D02*
X144722381Y-103123095D01*
X144722381Y-102742142D01*
X144770000Y-102646904D01*
X144817619Y-102599285D01*
X144912857Y-102551666D01*
X145055714Y-102551666D01*
X145150952Y-102599285D01*
X145198571Y-102646904D01*
X145246190Y-102742142D01*
X145246190Y-103123095D01*
X144817619Y-102170714D02*
X144770000Y-102123095D01*
X144722381Y-102027857D01*
X144722381Y-101789761D01*
X144770000Y-101694523D01*
X144817619Y-101646904D01*
X144912857Y-101599285D01*
X145008095Y-101599285D01*
X145150952Y-101646904D01*
X145722381Y-102218333D01*
X145722381Y-101599285D01*
X177147381Y-103123095D02*
X176147381Y-103123095D01*
X176147381Y-102742142D01*
X176195000Y-102646904D01*
X176242619Y-102599285D01*
X176337857Y-102551666D01*
X176480714Y-102551666D01*
X176575952Y-102599285D01*
X176623571Y-102646904D01*
X176671190Y-102742142D01*
X176671190Y-103123095D01*
X176147381Y-102218333D02*
X176147381Y-101599285D01*
X176528333Y-101932619D01*
X176528333Y-101789761D01*
X176575952Y-101694523D01*
X176623571Y-101646904D01*
X176718810Y-101599285D01*
X176956905Y-101599285D01*
X177052143Y-101646904D01*
X177099762Y-101694523D01*
X177147381Y-101789761D01*
X177147381Y-102075476D01*
X177099762Y-102170714D01*
X177052143Y-102218333D01*
D10*
X113842857Y-56471429D02*
X113642857Y-56185714D01*
X113500000Y-56471429D02*
X113500000Y-55871429D01*
X113728572Y-55871429D01*
X113785714Y-55900000D01*
X113814286Y-55928571D01*
X113842857Y-55985714D01*
X113842857Y-56071429D01*
X113814286Y-56128571D01*
X113785714Y-56157143D01*
X113728572Y-56185714D01*
X113500000Y-56185714D01*
X114014286Y-55871429D02*
X114214286Y-56471429D01*
X114414286Y-55871429D01*
X114928572Y-56471429D02*
X114585715Y-56471429D01*
X114757143Y-56471429D02*
X114757143Y-55871429D01*
X114700000Y-55957143D01*
X114642858Y-56014286D01*
X114585715Y-56042857D01*
X156717857Y-56496429D02*
X156517857Y-56210714D01*
X156375000Y-56496429D02*
X156375000Y-55896429D01*
X156603572Y-55896429D01*
X156660714Y-55925000D01*
X156689286Y-55953571D01*
X156717857Y-56010714D01*
X156717857Y-56096429D01*
X156689286Y-56153571D01*
X156660714Y-56182143D01*
X156603572Y-56210714D01*
X156375000Y-56210714D01*
X156889286Y-55896429D02*
X157089286Y-56496429D01*
X157289286Y-55896429D01*
X157460715Y-55953571D02*
X157489286Y-55925000D01*
X157546429Y-55896429D01*
X157689286Y-55896429D01*
X157746429Y-55925000D01*
X157775000Y-55953571D01*
X157803572Y-56010714D01*
X157803572Y-56067857D01*
X157775000Y-56153571D01*
X157432143Y-56496429D01*
X157803572Y-56496429D01*
D14*
X127569286Y-88054000D02*
X127641857Y-88126571D01*
X127714429Y-88344285D01*
X127714429Y-88489428D01*
X127641857Y-88707143D01*
X127496714Y-88852285D01*
X127351571Y-88924857D01*
X127061286Y-88997428D01*
X126843571Y-88997428D01*
X126553286Y-88924857D01*
X126408143Y-88852285D01*
X126263000Y-88707143D01*
X126190429Y-88489428D01*
X126190429Y-88344285D01*
X126263000Y-88126571D01*
X126335571Y-88054000D01*
X126190429Y-86747714D02*
X126190429Y-87038000D01*
X126263000Y-87183143D01*
X126335571Y-87255714D01*
X126553286Y-87400857D01*
X126843571Y-87473428D01*
X127424143Y-87473428D01*
X127569286Y-87400857D01*
X127641857Y-87328285D01*
X127714429Y-87183143D01*
X127714429Y-86892857D01*
X127641857Y-86747714D01*
X127569286Y-86675143D01*
X127424143Y-86602571D01*
X127061286Y-86602571D01*
X126916143Y-86675143D01*
X126843571Y-86747714D01*
X126771000Y-86892857D01*
X126771000Y-87183143D01*
X126843571Y-87328285D01*
X126916143Y-87400857D01*
X127061286Y-87473428D01*
X137339429Y-89455429D02*
X137339429Y-90326286D01*
X137339429Y-89890858D02*
X135815429Y-89890858D01*
X136033143Y-90036001D01*
X136178286Y-90181143D01*
X136250857Y-90326286D01*
X135815429Y-88512000D02*
X135815429Y-88366857D01*
X135888000Y-88221714D01*
X135960571Y-88149143D01*
X136105714Y-88076572D01*
X136396000Y-88004000D01*
X136758857Y-88004000D01*
X137049143Y-88076572D01*
X137194286Y-88149143D01*
X137266857Y-88221714D01*
X137339429Y-88366857D01*
X137339429Y-88512000D01*
X137266857Y-88657143D01*
X137194286Y-88729714D01*
X137049143Y-88802286D01*
X136758857Y-88874857D01*
X136396000Y-88874857D01*
X136105714Y-88802286D01*
X135960571Y-88729714D01*
X135888000Y-88657143D01*
X135815429Y-88512000D01*
X135815429Y-87060571D02*
X135815429Y-86915428D01*
X135888000Y-86770285D01*
X135960571Y-86697714D01*
X136105714Y-86625143D01*
X136396000Y-86552571D01*
X136758857Y-86552571D01*
X137049143Y-86625143D01*
X137194286Y-86697714D01*
X137266857Y-86770285D01*
X137339429Y-86915428D01*
X137339429Y-87060571D01*
X137266857Y-87205714D01*
X137194286Y-87278285D01*
X137049143Y-87350857D01*
X136758857Y-87423428D01*
X136396000Y-87423428D01*
X136105714Y-87350857D01*
X135960571Y-87278285D01*
X135888000Y-87205714D01*
X135815429Y-87060571D01*
X136323429Y-85246285D02*
X137339429Y-85246285D01*
X136323429Y-85899428D02*
X137121714Y-85899428D01*
X137266857Y-85826856D01*
X137339429Y-85681714D01*
X137339429Y-85463999D01*
X137266857Y-85318856D01*
X137194286Y-85246285D01*
X154819286Y-87754000D02*
X154891857Y-87826571D01*
X154964429Y-88044285D01*
X154964429Y-88189428D01*
X154891857Y-88407143D01*
X154746714Y-88552285D01*
X154601571Y-88624857D01*
X154311286Y-88697428D01*
X154093571Y-88697428D01*
X153803286Y-88624857D01*
X153658143Y-88552285D01*
X153513000Y-88407143D01*
X153440429Y-88189428D01*
X153440429Y-88044285D01*
X153513000Y-87826571D01*
X153585571Y-87754000D01*
X153440429Y-87246000D02*
X153440429Y-86230000D01*
X154964429Y-86883143D01*
X145614429Y-89380429D02*
X145614429Y-90251286D01*
X145614429Y-89815858D02*
X144090429Y-89815858D01*
X144308143Y-89961001D01*
X144453286Y-90106143D01*
X144525857Y-90251286D01*
X144090429Y-88437000D02*
X144090429Y-88291857D01*
X144163000Y-88146714D01*
X144235571Y-88074143D01*
X144380714Y-88001572D01*
X144671000Y-87929000D01*
X145033857Y-87929000D01*
X145324143Y-88001572D01*
X145469286Y-88074143D01*
X145541857Y-88146714D01*
X145614429Y-88291857D01*
X145614429Y-88437000D01*
X145541857Y-88582143D01*
X145469286Y-88654714D01*
X145324143Y-88727286D01*
X145033857Y-88799857D01*
X144671000Y-88799857D01*
X144380714Y-88727286D01*
X144235571Y-88654714D01*
X144163000Y-88582143D01*
X144090429Y-88437000D01*
X144090429Y-86985571D02*
X144090429Y-86840428D01*
X144163000Y-86695285D01*
X144235571Y-86622714D01*
X144380714Y-86550143D01*
X144671000Y-86477571D01*
X145033857Y-86477571D01*
X145324143Y-86550143D01*
X145469286Y-86622714D01*
X145541857Y-86695285D01*
X145614429Y-86840428D01*
X145614429Y-86985571D01*
X145541857Y-87130714D01*
X145469286Y-87203285D01*
X145324143Y-87275857D01*
X145033857Y-87348428D01*
X144671000Y-87348428D01*
X144380714Y-87275857D01*
X144235571Y-87203285D01*
X144163000Y-87130714D01*
X144090429Y-86985571D01*
X144598429Y-85171285D02*
X145614429Y-85171285D01*
X144598429Y-85824428D02*
X145396714Y-85824428D01*
X145541857Y-85751856D01*
X145614429Y-85606714D01*
X145614429Y-85388999D01*
X145541857Y-85243856D01*
X145469286Y-85171285D01*
X131494286Y-81804000D02*
X131566857Y-81876571D01*
X131639429Y-82094285D01*
X131639429Y-82239428D01*
X131566857Y-82457143D01*
X131421714Y-82602285D01*
X131276571Y-82674857D01*
X130986286Y-82747428D01*
X130768571Y-82747428D01*
X130478286Y-82674857D01*
X130333143Y-82602285D01*
X130188000Y-82457143D01*
X130115429Y-82239428D01*
X130115429Y-82094285D01*
X130188000Y-81876571D01*
X130260571Y-81804000D01*
X131639429Y-80352571D02*
X131639429Y-81223428D01*
X131639429Y-80788000D02*
X130115429Y-80788000D01*
X130333143Y-80933143D01*
X130478286Y-81078285D01*
X130550857Y-81223428D01*
X123239429Y-82529714D02*
X123239429Y-83400571D01*
X123239429Y-82965143D02*
X121715429Y-82965143D01*
X121933143Y-83110286D01*
X122078286Y-83255428D01*
X122150857Y-83400571D01*
X121715429Y-81586285D02*
X121715429Y-81441142D01*
X121788000Y-81295999D01*
X121860571Y-81223428D01*
X122005714Y-81150857D01*
X122296000Y-81078285D01*
X122658857Y-81078285D01*
X122949143Y-81150857D01*
X123094286Y-81223428D01*
X123166857Y-81295999D01*
X123239429Y-81441142D01*
X123239429Y-81586285D01*
X123166857Y-81731428D01*
X123094286Y-81803999D01*
X122949143Y-81876571D01*
X122658857Y-81949142D01*
X122296000Y-81949142D01*
X122005714Y-81876571D01*
X121860571Y-81803999D01*
X121788000Y-81731428D01*
X121715429Y-81586285D01*
X122223429Y-79771999D02*
X123239429Y-79771999D01*
X122223429Y-80425142D02*
X123021714Y-80425142D01*
X123166857Y-80352570D01*
X123239429Y-80207428D01*
X123239429Y-79989713D01*
X123166857Y-79844570D01*
X123094286Y-79771999D01*
X123269286Y-57854000D02*
X123341857Y-57926571D01*
X123414429Y-58144285D01*
X123414429Y-58289428D01*
X123341857Y-58507143D01*
X123196714Y-58652285D01*
X123051571Y-58724857D01*
X122761286Y-58797428D01*
X122543571Y-58797428D01*
X122253286Y-58724857D01*
X122108143Y-58652285D01*
X121963000Y-58507143D01*
X121890429Y-58289428D01*
X121890429Y-58144285D01*
X121963000Y-57926571D01*
X122035571Y-57854000D01*
X122035571Y-57273428D02*
X121963000Y-57200857D01*
X121890429Y-57055714D01*
X121890429Y-56692857D01*
X121963000Y-56547714D01*
X122035571Y-56475143D01*
X122180714Y-56402571D01*
X122325857Y-56402571D01*
X122543571Y-56475143D01*
X123414429Y-57346000D01*
X123414429Y-56402571D01*
X131814429Y-58579714D02*
X131814429Y-59450571D01*
X131814429Y-59015143D02*
X130290429Y-59015143D01*
X130508143Y-59160286D01*
X130653286Y-59305428D01*
X130725857Y-59450571D01*
X130290429Y-57636285D02*
X130290429Y-57491142D01*
X130363000Y-57345999D01*
X130435571Y-57273428D01*
X130580714Y-57200857D01*
X130871000Y-57128285D01*
X131233857Y-57128285D01*
X131524143Y-57200857D01*
X131669286Y-57273428D01*
X131741857Y-57345999D01*
X131814429Y-57491142D01*
X131814429Y-57636285D01*
X131741857Y-57781428D01*
X131669286Y-57853999D01*
X131524143Y-57926571D01*
X131233857Y-57999142D01*
X130871000Y-57999142D01*
X130580714Y-57926571D01*
X130435571Y-57853999D01*
X130363000Y-57781428D01*
X130290429Y-57636285D01*
X130798429Y-55821999D02*
X131814429Y-55821999D01*
X130798429Y-56475142D02*
X131596714Y-56475142D01*
X131741857Y-56402570D01*
X131814429Y-56257428D01*
X131814429Y-56039713D01*
X131741857Y-55894570D01*
X131669286Y-55821999D01*
D11*
X175067619Y-60050238D02*
X175020000Y-60145476D01*
X174924762Y-60240714D01*
X174781905Y-60383571D01*
X174734286Y-60478810D01*
X174734286Y-60574048D01*
X174972381Y-60526429D02*
X174924762Y-60621667D01*
X174829524Y-60716905D01*
X174639048Y-60764524D01*
X174305714Y-60764524D01*
X174115238Y-60716905D01*
X174020000Y-60621667D01*
X173972381Y-60526429D01*
X173972381Y-60335952D01*
X174020000Y-60240714D01*
X174115238Y-60145476D01*
X174305714Y-60097857D01*
X174639048Y-60097857D01*
X174829524Y-60145476D01*
X174924762Y-60240714D01*
X174972381Y-60335952D01*
X174972381Y-60526429D01*
X174972381Y-59145476D02*
X174972381Y-59716905D01*
X174972381Y-59431191D02*
X173972381Y-59431191D01*
X174115238Y-59526429D01*
X174210476Y-59621667D01*
X174258095Y-59716905D01*
X175742619Y-78625238D02*
X175695000Y-78720476D01*
X175599762Y-78815714D01*
X175456905Y-78958571D01*
X175409286Y-79053810D01*
X175409286Y-79149048D01*
X175647381Y-79101429D02*
X175599762Y-79196667D01*
X175504524Y-79291905D01*
X175314048Y-79339524D01*
X174980714Y-79339524D01*
X174790238Y-79291905D01*
X174695000Y-79196667D01*
X174647381Y-79101429D01*
X174647381Y-78910952D01*
X174695000Y-78815714D01*
X174790238Y-78720476D01*
X174980714Y-78672857D01*
X175314048Y-78672857D01*
X175504524Y-78720476D01*
X175599762Y-78815714D01*
X175647381Y-78910952D01*
X175647381Y-79101429D01*
X174742619Y-78291905D02*
X174695000Y-78244286D01*
X174647381Y-78149048D01*
X174647381Y-77910952D01*
X174695000Y-77815714D01*
X174742619Y-77768095D01*
X174837857Y-77720476D01*
X174933095Y-77720476D01*
X175075952Y-77768095D01*
X175647381Y-78339524D01*
X175647381Y-77720476D01*
X158142619Y-59700238D02*
X158095000Y-59795476D01*
X157999762Y-59890714D01*
X157856905Y-60033571D01*
X157809286Y-60128810D01*
X157809286Y-60224048D01*
X158047381Y-60176429D02*
X157999762Y-60271667D01*
X157904524Y-60366905D01*
X157714048Y-60414524D01*
X157380714Y-60414524D01*
X157190238Y-60366905D01*
X157095000Y-60271667D01*
X157047381Y-60176429D01*
X157047381Y-59985952D01*
X157095000Y-59890714D01*
X157190238Y-59795476D01*
X157380714Y-59747857D01*
X157714048Y-59747857D01*
X157904524Y-59795476D01*
X157999762Y-59890714D01*
X158047381Y-59985952D01*
X158047381Y-60176429D01*
X157047381Y-59414524D02*
X157047381Y-58795476D01*
X157428333Y-59128810D01*
X157428333Y-58985952D01*
X157475952Y-58890714D01*
X157523571Y-58843095D01*
X157618810Y-58795476D01*
X157856905Y-58795476D01*
X157952143Y-58843095D01*
X157999762Y-58890714D01*
X158047381Y-58985952D01*
X158047381Y-59271667D01*
X157999762Y-59366905D01*
X157952143Y-59414524D01*
X158917619Y-78740238D02*
X158870000Y-78835476D01*
X158774762Y-78930714D01*
X158631905Y-79073571D01*
X158584286Y-79168810D01*
X158584286Y-79264048D01*
X158822381Y-79216429D02*
X158774762Y-79311667D01*
X158679524Y-79406905D01*
X158489048Y-79454524D01*
X158155714Y-79454524D01*
X157965238Y-79406905D01*
X157870000Y-79311667D01*
X157822381Y-79216429D01*
X157822381Y-79025952D01*
X157870000Y-78930714D01*
X157965238Y-78835476D01*
X158155714Y-78787857D01*
X158489048Y-78787857D01*
X158679524Y-78835476D01*
X158774762Y-78930714D01*
X158822381Y-79025952D01*
X158822381Y-79216429D01*
X158155714Y-77930714D02*
X158822381Y-77930714D01*
X157774762Y-78168810D02*
X158489048Y-78406905D01*
X158489048Y-77787857D01*
X161992381Y-64248095D02*
X160992381Y-64248095D01*
X160992381Y-64010000D01*
X161040000Y-63867142D01*
X161135238Y-63771904D01*
X161230476Y-63724285D01*
X161420952Y-63676666D01*
X161563810Y-63676666D01*
X161754286Y-63724285D01*
X161849524Y-63771904D01*
X161944762Y-63867142D01*
X161992381Y-64010000D01*
X161992381Y-64248095D01*
X161992381Y-62724285D02*
X161992381Y-63295714D01*
X161992381Y-63010000D02*
X160992381Y-63010000D01*
X161135238Y-63105238D01*
X161230476Y-63200476D01*
X161278095Y-63295714D01*
X162067381Y-75423095D02*
X161067381Y-75423095D01*
X161067381Y-75185000D01*
X161115000Y-75042142D01*
X161210238Y-74946904D01*
X161305476Y-74899285D01*
X161495952Y-74851666D01*
X161638810Y-74851666D01*
X161829286Y-74899285D01*
X161924524Y-74946904D01*
X162019762Y-75042142D01*
X162067381Y-75185000D01*
X162067381Y-75423095D01*
X161162619Y-74470714D02*
X161115000Y-74423095D01*
X161067381Y-74327857D01*
X161067381Y-74089761D01*
X161115000Y-73994523D01*
X161162619Y-73946904D01*
X161257857Y-73899285D01*
X161353095Y-73899285D01*
X161495952Y-73946904D01*
X162067381Y-74518333D01*
X162067381Y-73899285D01*
X145917381Y-64103095D02*
X144917381Y-64103095D01*
X144917381Y-63865000D01*
X144965000Y-63722142D01*
X145060238Y-63626904D01*
X145155476Y-63579285D01*
X145345952Y-63531666D01*
X145488810Y-63531666D01*
X145679286Y-63579285D01*
X145774524Y-63626904D01*
X145869762Y-63722142D01*
X145917381Y-63865000D01*
X145917381Y-64103095D01*
X144917381Y-63198333D02*
X144917381Y-62579285D01*
X145298333Y-62912619D01*
X145298333Y-62769761D01*
X145345952Y-62674523D01*
X145393571Y-62626904D01*
X145488810Y-62579285D01*
X145726905Y-62579285D01*
X145822143Y-62626904D01*
X145869762Y-62674523D01*
X145917381Y-62769761D01*
X145917381Y-63055476D01*
X145869762Y-63150714D01*
X145822143Y-63198333D01*
X145917381Y-75728095D02*
X144917381Y-75728095D01*
X144917381Y-75490000D01*
X144965000Y-75347142D01*
X145060238Y-75251904D01*
X145155476Y-75204285D01*
X145345952Y-75156666D01*
X145488810Y-75156666D01*
X145679286Y-75204285D01*
X145774524Y-75251904D01*
X145869762Y-75347142D01*
X145917381Y-75490000D01*
X145917381Y-75728095D01*
X145250714Y-74299523D02*
X145917381Y-74299523D01*
X144869762Y-74537619D02*
X145584048Y-74775714D01*
X145584048Y-74156666D01*
X128048334Y-79587381D02*
X127715000Y-79111190D01*
X127476905Y-79587381D02*
X127476905Y-78587381D01*
X127857858Y-78587381D01*
X127953096Y-78635000D01*
X128000715Y-78682619D01*
X128048334Y-78777857D01*
X128048334Y-78920714D01*
X128000715Y-79015952D01*
X127953096Y-79063571D01*
X127857858Y-79111190D01*
X127476905Y-79111190D01*
X129000715Y-79587381D02*
X128429286Y-79587381D01*
X128715000Y-79587381D02*
X128715000Y-78587381D01*
X128619762Y-78730238D01*
X128524524Y-78825476D01*
X128429286Y-78873095D01*
X130273334Y-64212381D02*
X129940000Y-63736190D01*
X129701905Y-64212381D02*
X129701905Y-63212381D01*
X130082858Y-63212381D01*
X130178096Y-63260000D01*
X130225715Y-63307619D01*
X130273334Y-63402857D01*
X130273334Y-63545714D01*
X130225715Y-63640952D01*
X130178096Y-63688571D01*
X130082858Y-63736190D01*
X129701905Y-63736190D01*
X130654286Y-63307619D02*
X130701905Y-63260000D01*
X130797143Y-63212381D01*
X131035239Y-63212381D01*
X131130477Y-63260000D01*
X131178096Y-63307619D01*
X131225715Y-63402857D01*
X131225715Y-63498095D01*
X131178096Y-63640952D01*
X130606667Y-64212381D01*
X131225715Y-64212381D01*
X158567381Y-62356666D02*
X158091190Y-62690000D01*
X158567381Y-62928095D02*
X157567381Y-62928095D01*
X157567381Y-62547142D01*
X157615000Y-62451904D01*
X157662619Y-62404285D01*
X157757857Y-62356666D01*
X157900714Y-62356666D01*
X157995952Y-62404285D01*
X158043571Y-62451904D01*
X158091190Y-62547142D01*
X158091190Y-62928095D01*
X157567381Y-62023333D02*
X157567381Y-61404285D01*
X157948333Y-61737619D01*
X157948333Y-61594761D01*
X157995952Y-61499523D01*
X158043571Y-61451904D01*
X158138810Y-61404285D01*
X158376905Y-61404285D01*
X158472143Y-61451904D01*
X158519762Y-61499523D01*
X158567381Y-61594761D01*
X158567381Y-61880476D01*
X158519762Y-61975714D01*
X158472143Y-62023333D01*
X158917381Y-76076666D02*
X158441190Y-76410000D01*
X158917381Y-76648095D02*
X157917381Y-76648095D01*
X157917381Y-76267142D01*
X157965000Y-76171904D01*
X158012619Y-76124285D01*
X158107857Y-76076666D01*
X158250714Y-76076666D01*
X158345952Y-76124285D01*
X158393571Y-76171904D01*
X158441190Y-76267142D01*
X158441190Y-76648095D01*
X158250714Y-75219523D02*
X158917381Y-75219523D01*
X157869762Y-75457619D02*
X158584048Y-75695714D01*
X158584048Y-75076666D01*
X153598334Y-69487381D02*
X153265000Y-69011190D01*
X153026905Y-69487381D02*
X153026905Y-68487381D01*
X153407858Y-68487381D01*
X153503096Y-68535000D01*
X153550715Y-68582619D01*
X153598334Y-68677857D01*
X153598334Y-68820714D01*
X153550715Y-68915952D01*
X153503096Y-68963571D01*
X153407858Y-69011190D01*
X153026905Y-69011190D01*
X154503096Y-68487381D02*
X154026905Y-68487381D01*
X153979286Y-68963571D01*
X154026905Y-68915952D01*
X154122143Y-68868333D01*
X154360239Y-68868333D01*
X154455477Y-68915952D01*
X154503096Y-68963571D01*
X154550715Y-69058810D01*
X154550715Y-69296905D01*
X154503096Y-69392143D01*
X154455477Y-69439762D01*
X154360239Y-69487381D01*
X154122143Y-69487381D01*
X154026905Y-69439762D01*
X153979286Y-69392143D01*
X153818334Y-71267381D02*
X153485000Y-70791190D01*
X153246905Y-71267381D02*
X153246905Y-70267381D01*
X153627858Y-70267381D01*
X153723096Y-70315000D01*
X153770715Y-70362619D01*
X153818334Y-70457857D01*
X153818334Y-70600714D01*
X153770715Y-70695952D01*
X153723096Y-70743571D01*
X153627858Y-70791190D01*
X153246905Y-70791190D01*
X154675477Y-70267381D02*
X154485000Y-70267381D01*
X154389762Y-70315000D01*
X154342143Y-70362619D01*
X154246905Y-70505476D01*
X154199286Y-70695952D01*
X154199286Y-71076905D01*
X154246905Y-71172143D01*
X154294524Y-71219762D01*
X154389762Y-71267381D01*
X154580239Y-71267381D01*
X154675477Y-71219762D01*
X154723096Y-71172143D01*
X154770715Y-71076905D01*
X154770715Y-70838810D01*
X154723096Y-70743571D01*
X154675477Y-70695952D01*
X154580239Y-70648333D01*
X154389762Y-70648333D01*
X154294524Y-70695952D01*
X154246905Y-70743571D01*
X154199286Y-70838810D01*
X168917381Y-90101666D02*
X168441190Y-90435000D01*
X168917381Y-90673095D02*
X167917381Y-90673095D01*
X167917381Y-90292142D01*
X167965000Y-90196904D01*
X168012619Y-90149285D01*
X168107857Y-90101666D01*
X168250714Y-90101666D01*
X168345952Y-90149285D01*
X168393571Y-90196904D01*
X168441190Y-90292142D01*
X168441190Y-90673095D01*
X167917381Y-89768333D02*
X167917381Y-89101666D01*
X168917381Y-89530238D01*
X134772143Y-79562381D02*
X134438809Y-79086190D01*
X134200714Y-79562381D02*
X134200714Y-78562381D01*
X134581667Y-78562381D01*
X134676905Y-78610000D01*
X134724524Y-78657619D01*
X134772143Y-78752857D01*
X134772143Y-78895714D01*
X134724524Y-78990952D01*
X134676905Y-79038571D01*
X134581667Y-79086190D01*
X134200714Y-79086190D01*
X135724524Y-79562381D02*
X135153095Y-79562381D01*
X135438809Y-79562381D02*
X135438809Y-78562381D01*
X135343571Y-78705238D01*
X135248333Y-78800476D01*
X135153095Y-78848095D01*
X136105476Y-78657619D02*
X136153095Y-78610000D01*
X136248333Y-78562381D01*
X136486429Y-78562381D01*
X136581667Y-78610000D01*
X136629286Y-78657619D01*
X136676905Y-78752857D01*
X136676905Y-78848095D01*
X136629286Y-78990952D01*
X136057857Y-79562381D01*
X136676905Y-79562381D01*
X164992381Y-90532857D02*
X164516190Y-90866191D01*
X164992381Y-91104286D02*
X163992381Y-91104286D01*
X163992381Y-90723333D01*
X164040000Y-90628095D01*
X164087619Y-90580476D01*
X164182857Y-90532857D01*
X164325714Y-90532857D01*
X164420952Y-90580476D01*
X164468571Y-90628095D01*
X164516190Y-90723333D01*
X164516190Y-91104286D01*
X164992381Y-89580476D02*
X164992381Y-90151905D01*
X164992381Y-89866191D02*
X163992381Y-89866191D01*
X164135238Y-89961429D01*
X164230476Y-90056667D01*
X164278095Y-90151905D01*
X163992381Y-89247143D02*
X163992381Y-88628095D01*
X164373333Y-88961429D01*
X164373333Y-88818571D01*
X164420952Y-88723333D01*
X164468571Y-88675714D01*
X164563810Y-88628095D01*
X164801905Y-88628095D01*
X164897143Y-88675714D01*
X164944762Y-88723333D01*
X164992381Y-88818571D01*
X164992381Y-89104286D01*
X164944762Y-89199524D01*
X164897143Y-89247143D01*
X157042381Y-90502857D02*
X156566190Y-90836191D01*
X157042381Y-91074286D02*
X156042381Y-91074286D01*
X156042381Y-90693333D01*
X156090000Y-90598095D01*
X156137619Y-90550476D01*
X156232857Y-90502857D01*
X156375714Y-90502857D01*
X156470952Y-90550476D01*
X156518571Y-90598095D01*
X156566190Y-90693333D01*
X156566190Y-91074286D01*
X157042381Y-89550476D02*
X157042381Y-90121905D01*
X157042381Y-89836191D02*
X156042381Y-89836191D01*
X156185238Y-89931429D01*
X156280476Y-90026667D01*
X156328095Y-90121905D01*
X156375714Y-88693333D02*
X157042381Y-88693333D01*
X155994762Y-88931429D02*
X156709048Y-89169524D01*
X156709048Y-88550476D01*
X137272143Y-64212381D02*
X136938809Y-63736190D01*
X136700714Y-64212381D02*
X136700714Y-63212381D01*
X137081667Y-63212381D01*
X137176905Y-63260000D01*
X137224524Y-63307619D01*
X137272143Y-63402857D01*
X137272143Y-63545714D01*
X137224524Y-63640952D01*
X137176905Y-63688571D01*
X137081667Y-63736190D01*
X136700714Y-63736190D01*
X138224524Y-64212381D02*
X137653095Y-64212381D01*
X137938809Y-64212381D02*
X137938809Y-63212381D01*
X137843571Y-63355238D01*
X137748333Y-63450476D01*
X137653095Y-63498095D01*
X139129286Y-63212381D02*
X138653095Y-63212381D01*
X138605476Y-63688571D01*
X138653095Y-63640952D01*
X138748333Y-63593333D01*
X138986429Y-63593333D01*
X139081667Y-63640952D01*
X139129286Y-63688571D01*
X139176905Y-63783810D01*
X139176905Y-64021905D01*
X139129286Y-64117143D01*
X139081667Y-64164762D01*
X138986429Y-64212381D01*
X138748333Y-64212381D01*
X138653095Y-64164762D01*
X138605476Y-64117143D01*
X160992381Y-90507857D02*
X160516190Y-90841191D01*
X160992381Y-91079286D02*
X159992381Y-91079286D01*
X159992381Y-90698333D01*
X160040000Y-90603095D01*
X160087619Y-90555476D01*
X160182857Y-90507857D01*
X160325714Y-90507857D01*
X160420952Y-90555476D01*
X160468571Y-90603095D01*
X160516190Y-90698333D01*
X160516190Y-91079286D01*
X160992381Y-89555476D02*
X160992381Y-90126905D01*
X160992381Y-89841191D02*
X159992381Y-89841191D01*
X160135238Y-89936429D01*
X160230476Y-90031667D01*
X160278095Y-90126905D01*
X159992381Y-88698333D02*
X159992381Y-88888810D01*
X160040000Y-88984048D01*
X160087619Y-89031667D01*
X160230476Y-89126905D01*
X160420952Y-89174524D01*
X160801905Y-89174524D01*
X160897143Y-89126905D01*
X160944762Y-89079286D01*
X160992381Y-88984048D01*
X160992381Y-88793571D01*
X160944762Y-88698333D01*
X160897143Y-88650714D01*
X160801905Y-88603095D01*
X160563810Y-88603095D01*
X160468571Y-88650714D01*
X160420952Y-88698333D01*
X160373333Y-88793571D01*
X160373333Y-88984048D01*
X160420952Y-89079286D01*
X160468571Y-89126905D01*
X160563810Y-89174524D01*
X102312381Y-78659047D02*
X101836190Y-78992381D01*
X102312381Y-79230476D02*
X101312381Y-79230476D01*
X101312381Y-78849523D01*
X101360000Y-78754285D01*
X101407619Y-78706666D01*
X101502857Y-78659047D01*
X101645714Y-78659047D01*
X101740952Y-78706666D01*
X101788571Y-78754285D01*
X101836190Y-78849523D01*
X101836190Y-79230476D01*
X102312381Y-77706666D02*
X102312381Y-78278095D01*
X102312381Y-77992381D02*
X101312381Y-77992381D01*
X101455238Y-78087619D01*
X101550476Y-78182857D01*
X101598095Y-78278095D01*
X102312381Y-76754285D02*
X102312381Y-77325714D01*
X102312381Y-77040000D02*
X101312381Y-77040000D01*
X101455238Y-77135238D01*
X101550476Y-77230476D01*
X101598095Y-77325714D01*
X102312381Y-75801904D02*
X102312381Y-76373333D01*
X102312381Y-76087619D02*
X101312381Y-76087619D01*
X101455238Y-76182857D01*
X101550476Y-76278095D01*
X101598095Y-76373333D01*
X123312381Y-83659047D02*
X122836190Y-83992381D01*
X123312381Y-84230476D02*
X122312381Y-84230476D01*
X122312381Y-83849523D01*
X122360000Y-83754285D01*
X122407619Y-83706666D01*
X122502857Y-83659047D01*
X122645714Y-83659047D01*
X122740952Y-83706666D01*
X122788571Y-83754285D01*
X122836190Y-83849523D01*
X122836190Y-84230476D01*
X123312381Y-82706666D02*
X123312381Y-83278095D01*
X123312381Y-82992381D02*
X122312381Y-82992381D01*
X122455238Y-83087619D01*
X122550476Y-83182857D01*
X122598095Y-83278095D01*
X123312381Y-81754285D02*
X123312381Y-82325714D01*
X123312381Y-82040000D02*
X122312381Y-82040000D01*
X122455238Y-82135238D01*
X122550476Y-82230476D01*
X122598095Y-82325714D01*
X122407619Y-81373333D02*
X122360000Y-81325714D01*
X122312381Y-81230476D01*
X122312381Y-80992380D01*
X122360000Y-80897142D01*
X122407619Y-80849523D01*
X122502857Y-80801904D01*
X122598095Y-80801904D01*
X122740952Y-80849523D01*
X123312381Y-81420952D01*
X123312381Y-80801904D01*
X105420953Y-64592381D02*
X105087619Y-64116190D01*
X104849524Y-64592381D02*
X104849524Y-63592381D01*
X105230477Y-63592381D01*
X105325715Y-63640000D01*
X105373334Y-63687619D01*
X105420953Y-63782857D01*
X105420953Y-63925714D01*
X105373334Y-64020952D01*
X105325715Y-64068571D01*
X105230477Y-64116190D01*
X104849524Y-64116190D01*
X106373334Y-64592381D02*
X105801905Y-64592381D01*
X106087619Y-64592381D02*
X106087619Y-63592381D01*
X105992381Y-63735238D01*
X105897143Y-63830476D01*
X105801905Y-63878095D01*
X107325715Y-64592381D02*
X106754286Y-64592381D01*
X107040000Y-64592381D02*
X107040000Y-63592381D01*
X106944762Y-63735238D01*
X106849524Y-63830476D01*
X106754286Y-63878095D01*
X107659048Y-63592381D02*
X108278096Y-63592381D01*
X107944762Y-63973333D01*
X108087620Y-63973333D01*
X108182858Y-64020952D01*
X108230477Y-64068571D01*
X108278096Y-64163810D01*
X108278096Y-64401905D01*
X108230477Y-64497143D01*
X108182858Y-64544762D01*
X108087620Y-64592381D01*
X107801905Y-64592381D01*
X107706667Y-64544762D01*
X107659048Y-64497143D01*
X113420953Y-64592381D02*
X113087619Y-64116190D01*
X112849524Y-64592381D02*
X112849524Y-63592381D01*
X113230477Y-63592381D01*
X113325715Y-63640000D01*
X113373334Y-63687619D01*
X113420953Y-63782857D01*
X113420953Y-63925714D01*
X113373334Y-64020952D01*
X113325715Y-64068571D01*
X113230477Y-64116190D01*
X112849524Y-64116190D01*
X114373334Y-64592381D02*
X113801905Y-64592381D01*
X114087619Y-64592381D02*
X114087619Y-63592381D01*
X113992381Y-63735238D01*
X113897143Y-63830476D01*
X113801905Y-63878095D01*
X115325715Y-64592381D02*
X114754286Y-64592381D01*
X115040000Y-64592381D02*
X115040000Y-63592381D01*
X114944762Y-63735238D01*
X114849524Y-63830476D01*
X114754286Y-63878095D01*
X116182858Y-63925714D02*
X116182858Y-64592381D01*
X115944762Y-63544762D02*
X115706667Y-64259048D01*
X116325715Y-64259048D01*
X109312381Y-83659047D02*
X108836190Y-83992381D01*
X109312381Y-84230476D02*
X108312381Y-84230476D01*
X108312381Y-83849523D01*
X108360000Y-83754285D01*
X108407619Y-83706666D01*
X108502857Y-83659047D01*
X108645714Y-83659047D01*
X108740952Y-83706666D01*
X108788571Y-83754285D01*
X108836190Y-83849523D01*
X108836190Y-84230476D01*
X109312381Y-82706666D02*
X109312381Y-83278095D01*
X109312381Y-82992381D02*
X108312381Y-82992381D01*
X108455238Y-83087619D01*
X108550476Y-83182857D01*
X108598095Y-83278095D01*
X108407619Y-82325714D02*
X108360000Y-82278095D01*
X108312381Y-82182857D01*
X108312381Y-81944761D01*
X108360000Y-81849523D01*
X108407619Y-81801904D01*
X108502857Y-81754285D01*
X108598095Y-81754285D01*
X108740952Y-81801904D01*
X109312381Y-82373333D01*
X109312381Y-81754285D01*
X109312381Y-80801904D02*
X109312381Y-81373333D01*
X109312381Y-81087619D02*
X108312381Y-81087619D01*
X108455238Y-81182857D01*
X108550476Y-81278095D01*
X108598095Y-81373333D01*
X116312381Y-78659047D02*
X115836190Y-78992381D01*
X116312381Y-79230476D02*
X115312381Y-79230476D01*
X115312381Y-78849523D01*
X115360000Y-78754285D01*
X115407619Y-78706666D01*
X115502857Y-78659047D01*
X115645714Y-78659047D01*
X115740952Y-78706666D01*
X115788571Y-78754285D01*
X115836190Y-78849523D01*
X115836190Y-79230476D01*
X116312381Y-77706666D02*
X116312381Y-78278095D01*
X116312381Y-77992381D02*
X115312381Y-77992381D01*
X115455238Y-78087619D01*
X115550476Y-78182857D01*
X115598095Y-78278095D01*
X115407619Y-77325714D02*
X115360000Y-77278095D01*
X115312381Y-77182857D01*
X115312381Y-76944761D01*
X115360000Y-76849523D01*
X115407619Y-76801904D01*
X115502857Y-76754285D01*
X115598095Y-76754285D01*
X115740952Y-76801904D01*
X116312381Y-77373333D01*
X116312381Y-76754285D01*
X115407619Y-76373333D02*
X115360000Y-76325714D01*
X115312381Y-76230476D01*
X115312381Y-75992380D01*
X115360000Y-75897142D01*
X115407619Y-75849523D01*
X115502857Y-75801904D01*
X115598095Y-75801904D01*
X115740952Y-75849523D01*
X116312381Y-76420952D01*
X116312381Y-75801904D01*
X105420953Y-59592381D02*
X105087619Y-59116190D01*
X104849524Y-59592381D02*
X104849524Y-58592381D01*
X105230477Y-58592381D01*
X105325715Y-58640000D01*
X105373334Y-58687619D01*
X105420953Y-58782857D01*
X105420953Y-58925714D01*
X105373334Y-59020952D01*
X105325715Y-59068571D01*
X105230477Y-59116190D01*
X104849524Y-59116190D01*
X106373334Y-59592381D02*
X105801905Y-59592381D01*
X106087619Y-59592381D02*
X106087619Y-58592381D01*
X105992381Y-58735238D01*
X105897143Y-58830476D01*
X105801905Y-58878095D01*
X106754286Y-58687619D02*
X106801905Y-58640000D01*
X106897143Y-58592381D01*
X107135239Y-58592381D01*
X107230477Y-58640000D01*
X107278096Y-58687619D01*
X107325715Y-58782857D01*
X107325715Y-58878095D01*
X107278096Y-59020952D01*
X106706667Y-59592381D01*
X107325715Y-59592381D01*
X107659048Y-58592381D02*
X108278096Y-58592381D01*
X107944762Y-58973333D01*
X108087620Y-58973333D01*
X108182858Y-59020952D01*
X108230477Y-59068571D01*
X108278096Y-59163810D01*
X108278096Y-59401905D01*
X108230477Y-59497143D01*
X108182858Y-59544762D01*
X108087620Y-59592381D01*
X107801905Y-59592381D01*
X107706667Y-59544762D01*
X107659048Y-59497143D01*
X113420953Y-59592381D02*
X113087619Y-59116190D01*
X112849524Y-59592381D02*
X112849524Y-58592381D01*
X113230477Y-58592381D01*
X113325715Y-58640000D01*
X113373334Y-58687619D01*
X113420953Y-58782857D01*
X113420953Y-58925714D01*
X113373334Y-59020952D01*
X113325715Y-59068571D01*
X113230477Y-59116190D01*
X112849524Y-59116190D01*
X114373334Y-59592381D02*
X113801905Y-59592381D01*
X114087619Y-59592381D02*
X114087619Y-58592381D01*
X113992381Y-58735238D01*
X113897143Y-58830476D01*
X113801905Y-58878095D01*
X114754286Y-58687619D02*
X114801905Y-58640000D01*
X114897143Y-58592381D01*
X115135239Y-58592381D01*
X115230477Y-58640000D01*
X115278096Y-58687619D01*
X115325715Y-58782857D01*
X115325715Y-58878095D01*
X115278096Y-59020952D01*
X114706667Y-59592381D01*
X115325715Y-59592381D01*
X116182858Y-58925714D02*
X116182858Y-59592381D01*
X115944762Y-58544762D02*
X115706667Y-59259048D01*
X116325715Y-59259048D01*
X103417143Y-91619047D02*
X103464762Y-91666666D01*
X103512381Y-91809523D01*
X103512381Y-91904761D01*
X103464762Y-92047619D01*
X103369524Y-92142857D01*
X103274286Y-92190476D01*
X103083810Y-92238095D01*
X102940952Y-92238095D01*
X102750476Y-92190476D01*
X102655238Y-92142857D01*
X102560000Y-92047619D01*
X102512381Y-91904761D01*
X102512381Y-91809523D01*
X102560000Y-91666666D01*
X102607619Y-91619047D01*
X103512381Y-90666666D02*
X103512381Y-91238095D01*
X103512381Y-90952381D02*
X102512381Y-90952381D01*
X102655238Y-91047619D01*
X102750476Y-91142857D01*
X102798095Y-91238095D01*
X102512381Y-90047619D02*
X102512381Y-89952380D01*
X102560000Y-89857142D01*
X102607619Y-89809523D01*
X102702857Y-89761904D01*
X102893333Y-89714285D01*
X103131429Y-89714285D01*
X103321905Y-89761904D01*
X103417143Y-89809523D01*
X103464762Y-89857142D01*
X103512381Y-89952380D01*
X103512381Y-90047619D01*
X103464762Y-90142857D01*
X103417143Y-90190476D01*
X103321905Y-90238095D01*
X103131429Y-90285714D01*
X102893333Y-90285714D01*
X102702857Y-90238095D01*
X102607619Y-90190476D01*
X102560000Y-90142857D01*
X102512381Y-90047619D01*
X103512381Y-88761904D02*
X103512381Y-89333333D01*
X103512381Y-89047619D02*
X102512381Y-89047619D01*
X102655238Y-89142857D01*
X102750476Y-89238095D01*
X102798095Y-89333333D01*
X110417143Y-91619047D02*
X110464762Y-91666666D01*
X110512381Y-91809523D01*
X110512381Y-91904761D01*
X110464762Y-92047619D01*
X110369524Y-92142857D01*
X110274286Y-92190476D01*
X110083810Y-92238095D01*
X109940952Y-92238095D01*
X109750476Y-92190476D01*
X109655238Y-92142857D01*
X109560000Y-92047619D01*
X109512381Y-91904761D01*
X109512381Y-91809523D01*
X109560000Y-91666666D01*
X109607619Y-91619047D01*
X110512381Y-90666666D02*
X110512381Y-91238095D01*
X110512381Y-90952381D02*
X109512381Y-90952381D01*
X109655238Y-91047619D01*
X109750476Y-91142857D01*
X109798095Y-91238095D01*
X109512381Y-90047619D02*
X109512381Y-89952380D01*
X109560000Y-89857142D01*
X109607619Y-89809523D01*
X109702857Y-89761904D01*
X109893333Y-89714285D01*
X110131429Y-89714285D01*
X110321905Y-89761904D01*
X110417143Y-89809523D01*
X110464762Y-89857142D01*
X110512381Y-89952380D01*
X110512381Y-90047619D01*
X110464762Y-90142857D01*
X110417143Y-90190476D01*
X110321905Y-90238095D01*
X110131429Y-90285714D01*
X109893333Y-90285714D01*
X109702857Y-90238095D01*
X109607619Y-90190476D01*
X109560000Y-90142857D01*
X109512381Y-90047619D01*
X109607619Y-89333333D02*
X109560000Y-89285714D01*
X109512381Y-89190476D01*
X109512381Y-88952380D01*
X109560000Y-88857142D01*
X109607619Y-88809523D01*
X109702857Y-88761904D01*
X109798095Y-88761904D01*
X109940952Y-88809523D01*
X110512381Y-89380952D01*
X110512381Y-88761904D01*
X117417143Y-91619047D02*
X117464762Y-91666666D01*
X117512381Y-91809523D01*
X117512381Y-91904761D01*
X117464762Y-92047619D01*
X117369524Y-92142857D01*
X117274286Y-92190476D01*
X117083810Y-92238095D01*
X116940952Y-92238095D01*
X116750476Y-92190476D01*
X116655238Y-92142857D01*
X116560000Y-92047619D01*
X116512381Y-91904761D01*
X116512381Y-91809523D01*
X116560000Y-91666666D01*
X116607619Y-91619047D01*
X117512381Y-90666666D02*
X117512381Y-91238095D01*
X117512381Y-90952381D02*
X116512381Y-90952381D01*
X116655238Y-91047619D01*
X116750476Y-91142857D01*
X116798095Y-91238095D01*
X116512381Y-90047619D02*
X116512381Y-89952380D01*
X116560000Y-89857142D01*
X116607619Y-89809523D01*
X116702857Y-89761904D01*
X116893333Y-89714285D01*
X117131429Y-89714285D01*
X117321905Y-89761904D01*
X117417143Y-89809523D01*
X117464762Y-89857142D01*
X117512381Y-89952380D01*
X117512381Y-90047619D01*
X117464762Y-90142857D01*
X117417143Y-90190476D01*
X117321905Y-90238095D01*
X117131429Y-90285714D01*
X116893333Y-90285714D01*
X116702857Y-90238095D01*
X116607619Y-90190476D01*
X116560000Y-90142857D01*
X116512381Y-90047619D01*
X116512381Y-89380952D02*
X116512381Y-88761904D01*
X116893333Y-89095238D01*
X116893333Y-88952380D01*
X116940952Y-88857142D01*
X116988571Y-88809523D01*
X117083810Y-88761904D01*
X117321905Y-88761904D01*
X117417143Y-88809523D01*
X117464762Y-88857142D01*
X117512381Y-88952380D01*
X117512381Y-89238095D01*
X117464762Y-89333333D01*
X117417143Y-89380952D01*
X124417143Y-91619047D02*
X124464762Y-91666666D01*
X124512381Y-91809523D01*
X124512381Y-91904761D01*
X124464762Y-92047619D01*
X124369524Y-92142857D01*
X124274286Y-92190476D01*
X124083810Y-92238095D01*
X123940952Y-92238095D01*
X123750476Y-92190476D01*
X123655238Y-92142857D01*
X123560000Y-92047619D01*
X123512381Y-91904761D01*
X123512381Y-91809523D01*
X123560000Y-91666666D01*
X123607619Y-91619047D01*
X124512381Y-90666666D02*
X124512381Y-91238095D01*
X124512381Y-90952381D02*
X123512381Y-90952381D01*
X123655238Y-91047619D01*
X123750476Y-91142857D01*
X123798095Y-91238095D01*
X123512381Y-90047619D02*
X123512381Y-89952380D01*
X123560000Y-89857142D01*
X123607619Y-89809523D01*
X123702857Y-89761904D01*
X123893333Y-89714285D01*
X124131429Y-89714285D01*
X124321905Y-89761904D01*
X124417143Y-89809523D01*
X124464762Y-89857142D01*
X124512381Y-89952380D01*
X124512381Y-90047619D01*
X124464762Y-90142857D01*
X124417143Y-90190476D01*
X124321905Y-90238095D01*
X124131429Y-90285714D01*
X123893333Y-90285714D01*
X123702857Y-90238095D01*
X123607619Y-90190476D01*
X123560000Y-90142857D01*
X123512381Y-90047619D01*
X123845714Y-88857142D02*
X124512381Y-88857142D01*
X123464762Y-89095238D02*
X124179048Y-89333333D01*
X124179048Y-88714285D01*
M02*
