G04 #@! TF.FileFunction,Copper,L1,Top,Signal*
%FSLAX46Y46*%
G04 Gerber Fmt 4.6, Leading zero omitted, Abs format (unit mm)*
G04 Created by KiCad (PCBNEW 4.0.7) date Sunday 08 October 2017 21:17:18*
%MOMM*%
%LPD*%
G01*
G04 APERTURE LIST*
%ADD10C,0.100000*%
%ADD11C,1.998980*%
%ADD12O,1.600000X2.300000*%
%ADD13R,1.700000X1.700000*%
%ADD14O,1.700000X1.700000*%
%ADD15C,2.000000*%
%ADD16R,1.600000X1.600000*%
%ADD17C,1.600000*%
%ADD18R,1.500000X1.500000*%
%ADD19C,1.500000*%
%ADD20O,1.200000X1.600000*%
%ADD21O,1.200000X1.200000*%
%ADD22O,1.600000X1.600000*%
%ADD23C,1.400000*%
%ADD24O,1.400000X1.400000*%
%ADD25C,1.000000*%
%ADD26C,1.000000*%
%ADD27C,0.254000*%
G04 APERTURE END LIST*
D10*
D11*
X133075000Y-92805000D03*
X133075000Y-100425000D03*
X148325000Y-92755000D03*
X148325000Y-100375000D03*
D12*
X129005000Y-73450000D03*
X131545000Y-73450000D03*
X134085000Y-73450000D03*
X136625000Y-73450000D03*
X136625000Y-65830000D03*
X134085000Y-65830000D03*
X131545000Y-65830000D03*
X129005000Y-65830000D03*
D13*
X110000000Y-98000000D03*
D14*
X107460000Y-98000000D03*
X104920000Y-98000000D03*
X102380000Y-98000000D03*
D13*
X143000000Y-98000000D03*
D14*
X140460000Y-98000000D03*
X137920000Y-98000000D03*
D13*
X174425000Y-98000000D03*
D14*
X171885000Y-98000000D03*
X169345000Y-98000000D03*
D15*
X111700000Y-50050000D03*
X114200000Y-50050000D03*
X116700000Y-50050000D03*
X111700000Y-52550000D03*
X114200000Y-52550000D03*
X116700000Y-52550000D03*
X154575000Y-50075000D03*
X157075000Y-50075000D03*
X159575000Y-50075000D03*
X154575000Y-52575000D03*
X157075000Y-52575000D03*
X159575000Y-52575000D03*
D16*
X132975000Y-87800000D03*
D17*
X130475000Y-87800000D03*
D16*
X148325000Y-87500000D03*
D17*
X150825000Y-87500000D03*
D18*
X125750000Y-81550000D03*
D19*
X127750000Y-81550000D03*
D18*
X127925000Y-57600000D03*
D19*
X125925000Y-57600000D03*
D20*
X170500000Y-58685000D03*
D21*
X169230000Y-59955000D03*
X170500000Y-61225000D03*
D20*
X171175000Y-77260000D03*
D21*
X169905000Y-78530000D03*
X171175000Y-79800000D03*
D20*
X153575000Y-58335000D03*
D21*
X152305000Y-59605000D03*
X153575000Y-60875000D03*
D20*
X154350000Y-77375000D03*
D21*
X153080000Y-78645000D03*
X154350000Y-79915000D03*
D16*
X163600000Y-67320000D03*
D22*
X163600000Y-59700000D03*
D16*
X163675000Y-78495000D03*
D22*
X163675000Y-70875000D03*
D16*
X147525000Y-67175000D03*
D22*
X147525000Y-59555000D03*
D16*
X147525000Y-78800000D03*
D22*
X147525000Y-71180000D03*
D23*
X130755000Y-77275000D03*
D24*
X125675000Y-77275000D03*
D23*
X132980000Y-61900000D03*
D24*
X127900000Y-61900000D03*
D23*
X159975000Y-64730000D03*
D24*
X159975000Y-59650000D03*
D23*
X160325000Y-78450000D03*
D24*
X160325000Y-73370000D03*
D23*
X156305000Y-67175000D03*
D24*
X151225000Y-67175000D03*
D23*
X151445000Y-72675000D03*
D24*
X156525000Y-72675000D03*
D23*
X170325000Y-92475000D03*
D24*
X170325000Y-87395000D03*
D23*
X137955000Y-77250000D03*
D24*
X132875000Y-77250000D03*
D23*
X166400000Y-92430000D03*
D24*
X166400000Y-87350000D03*
D23*
X158450000Y-92400000D03*
D24*
X158450000Y-87320000D03*
D23*
X140455000Y-61900000D03*
D24*
X135375000Y-61900000D03*
D23*
X162400000Y-92405000D03*
D24*
X162400000Y-87325000D03*
D23*
X100000000Y-75000000D03*
D24*
X100000000Y-80080000D03*
D23*
X121000000Y-80000000D03*
D24*
X121000000Y-85080000D03*
D23*
X104000000Y-66000000D03*
D24*
X109080000Y-66000000D03*
D23*
X112000000Y-66000000D03*
D24*
X117080000Y-66000000D03*
D23*
X107000000Y-80000000D03*
D24*
X107000000Y-85080000D03*
D23*
X114000000Y-75000000D03*
D24*
X114000000Y-80080000D03*
D23*
X104000000Y-61000000D03*
D24*
X109080000Y-61000000D03*
D23*
X112000000Y-61000000D03*
D24*
X117080000Y-61000000D03*
D17*
X100000000Y-88000000D03*
X100000000Y-93000000D03*
X107000000Y-88000000D03*
X107000000Y-93000000D03*
X114000000Y-88000000D03*
X114000000Y-93000000D03*
X121000000Y-88000000D03*
X121000000Y-93000000D03*
D25*
X163800000Y-96250000D03*
X142325000Y-91525000D03*
X140350000Y-71325000D03*
X144025000Y-69775000D03*
X143975000Y-65750000D03*
D26*
X149925000Y-90025000D02*
X146950000Y-90025000D01*
X145850000Y-97000000D02*
X145850000Y-91125000D01*
X145850000Y-91125000D02*
X146950000Y-90025000D01*
X143000000Y-98000000D02*
X144850000Y-98000000D01*
X144850000Y-98000000D02*
X145850000Y-97000000D01*
X150825000Y-89125000D02*
X149925000Y-90025000D01*
X150825000Y-89125000D02*
X150825000Y-87500000D01*
X132661998Y-59850000D02*
X141625000Y-59850000D01*
X156305000Y-67175000D02*
X150385001Y-61255001D01*
X150385001Y-61255001D02*
X143030001Y-61255001D01*
X143030001Y-61255001D02*
X141625000Y-59850000D01*
X129005000Y-65830000D02*
X129005000Y-63506998D01*
X129005000Y-63506998D02*
X132661998Y-59850000D01*
X148325000Y-87500000D02*
X148325000Y-80875000D01*
X148325000Y-80875000D02*
X156525000Y-72675000D01*
X163800000Y-96250000D02*
X165050000Y-96250000D01*
X165050000Y-96250000D02*
X166400000Y-94900000D01*
X166400000Y-92430000D02*
X166400000Y-94900000D01*
X140455000Y-61900000D02*
X142375000Y-63820000D01*
X142375000Y-91475000D02*
X142325000Y-91525000D01*
X142375000Y-63820000D02*
X142375000Y-91475000D01*
X140350000Y-71325000D02*
X130830000Y-71325000D01*
X130830000Y-71325000D02*
X130805000Y-71300000D01*
X130805000Y-71300000D02*
X129005000Y-73100000D01*
X129005000Y-73100000D02*
X129005000Y-73450000D01*
X113850010Y-61000000D02*
X116625000Y-58225010D01*
X116625000Y-58225010D02*
X116704902Y-58225010D01*
X116704902Y-58225010D02*
X122354912Y-52575000D01*
X122354912Y-52575000D02*
X125116910Y-52575000D01*
X112000000Y-61000000D02*
X113850010Y-61000000D01*
X125116910Y-52575000D02*
X154575000Y-52575000D01*
X143975000Y-65750000D02*
X143975000Y-69725000D01*
X143975000Y-69725000D02*
X144025000Y-69775000D01*
X126425000Y-50075000D02*
X154575000Y-50075000D01*
X116899999Y-56050001D02*
X122875000Y-50075000D01*
X122875000Y-50075000D02*
X126425000Y-50075000D01*
X116820097Y-56050001D02*
X116899999Y-56050001D01*
X109080000Y-66000000D02*
X106325000Y-63245000D01*
X108175000Y-59125000D02*
X113745098Y-59125000D01*
X106325000Y-63245000D02*
X106325000Y-60975000D01*
X106325000Y-60975000D02*
X108175000Y-59125000D01*
X113745098Y-59125000D02*
X116820097Y-56050001D01*
X174425000Y-81075000D02*
X170325000Y-85175000D01*
X170325000Y-85175000D02*
X170325000Y-87395000D01*
X174425000Y-62810000D02*
X174425000Y-81075000D01*
X170500000Y-58685000D02*
X170500000Y-58885000D01*
X170500000Y-58885000D02*
X174425000Y-62810000D01*
X153575000Y-58335000D02*
X153575000Y-58535000D01*
X158374999Y-63334999D02*
X158374999Y-86255050D01*
X158374999Y-86255050D02*
X158450000Y-86330051D01*
X153575000Y-58535000D02*
X158374999Y-63334999D01*
X158450000Y-86330051D02*
X158450000Y-87320000D01*
D27*
G36*
X178290000Y-103290000D02*
X96710000Y-103290000D01*
X96710000Y-100748694D01*
X131440226Y-100748694D01*
X131688538Y-101349655D01*
X132147927Y-101809846D01*
X132748453Y-102059206D01*
X133398694Y-102059774D01*
X133999655Y-101811462D01*
X134459846Y-101352073D01*
X134709206Y-100751547D01*
X134709252Y-100698694D01*
X146690226Y-100698694D01*
X146938538Y-101299655D01*
X147397927Y-101759846D01*
X147998453Y-102009206D01*
X148648694Y-102009774D01*
X149249655Y-101761462D01*
X149709846Y-101302073D01*
X149959206Y-100701547D01*
X149959774Y-100051306D01*
X149711462Y-99450345D01*
X149252073Y-98990154D01*
X148651547Y-98740794D01*
X148001306Y-98740226D01*
X147400345Y-98988538D01*
X146940154Y-99447927D01*
X146690794Y-100048453D01*
X146690226Y-100698694D01*
X134709252Y-100698694D01*
X134709774Y-100101306D01*
X134461462Y-99500345D01*
X134002073Y-99040154D01*
X133401547Y-98790794D01*
X132751306Y-98790226D01*
X132150345Y-99038538D01*
X131690154Y-99497927D01*
X131440794Y-100098453D01*
X131440226Y-100748694D01*
X96710000Y-100748694D01*
X96710000Y-97970907D01*
X100895000Y-97970907D01*
X100895000Y-98029093D01*
X101008039Y-98597378D01*
X101329946Y-99079147D01*
X101811715Y-99401054D01*
X102380000Y-99514093D01*
X102948285Y-99401054D01*
X103430054Y-99079147D01*
X103650000Y-98749974D01*
X103869946Y-99079147D01*
X104351715Y-99401054D01*
X104920000Y-99514093D01*
X105488285Y-99401054D01*
X105970054Y-99079147D01*
X106190000Y-98749974D01*
X106409946Y-99079147D01*
X106891715Y-99401054D01*
X107460000Y-99514093D01*
X108028285Y-99401054D01*
X108510054Y-99079147D01*
X108537850Y-99037548D01*
X108546838Y-99085317D01*
X108685910Y-99301441D01*
X108898110Y-99446431D01*
X109150000Y-99497440D01*
X110850000Y-99497440D01*
X111085317Y-99453162D01*
X111301441Y-99314090D01*
X111446431Y-99101890D01*
X111497440Y-98850000D01*
X111497440Y-97970907D01*
X136435000Y-97970907D01*
X136435000Y-98029093D01*
X136548039Y-98597378D01*
X136869946Y-99079147D01*
X137351715Y-99401054D01*
X137920000Y-99514093D01*
X138488285Y-99401054D01*
X138970054Y-99079147D01*
X139190000Y-98749974D01*
X139409946Y-99079147D01*
X139891715Y-99401054D01*
X140460000Y-99514093D01*
X141028285Y-99401054D01*
X141510054Y-99079147D01*
X141539403Y-99035223D01*
X141611673Y-99209698D01*
X141790301Y-99388327D01*
X142023690Y-99485000D01*
X142714250Y-99485000D01*
X142873000Y-99326250D01*
X142873000Y-98127000D01*
X143127000Y-98127000D01*
X143127000Y-99326250D01*
X143285750Y-99485000D01*
X143976310Y-99485000D01*
X144209699Y-99388327D01*
X144388327Y-99209698D01*
X144485000Y-98976309D01*
X144485000Y-98356892D01*
X167903514Y-98356892D01*
X168149817Y-98881358D01*
X168578076Y-99271645D01*
X168988110Y-99441476D01*
X169218000Y-99320155D01*
X169218000Y-98127000D01*
X168024181Y-98127000D01*
X167903514Y-98356892D01*
X144485000Y-98356892D01*
X144485000Y-98285750D01*
X144326250Y-98127000D01*
X143127000Y-98127000D01*
X142873000Y-98127000D01*
X142853000Y-98127000D01*
X142853000Y-97873000D01*
X142873000Y-97873000D01*
X142873000Y-96673750D01*
X143127000Y-96673750D01*
X143127000Y-97873000D01*
X144326250Y-97873000D01*
X144485000Y-97714250D01*
X144485000Y-97643108D01*
X167903514Y-97643108D01*
X168024181Y-97873000D01*
X169218000Y-97873000D01*
X169218000Y-96679845D01*
X169472000Y-96679845D01*
X169472000Y-97873000D01*
X169492000Y-97873000D01*
X169492000Y-98127000D01*
X169472000Y-98127000D01*
X169472000Y-99320155D01*
X169701890Y-99441476D01*
X170111924Y-99271645D01*
X170540183Y-98881358D01*
X170607298Y-98738447D01*
X170834946Y-99079147D01*
X171316715Y-99401054D01*
X171885000Y-99514093D01*
X172453285Y-99401054D01*
X172935054Y-99079147D01*
X172962850Y-99037548D01*
X172971838Y-99085317D01*
X173110910Y-99301441D01*
X173323110Y-99446431D01*
X173575000Y-99497440D01*
X175275000Y-99497440D01*
X175510317Y-99453162D01*
X175726441Y-99314090D01*
X175871431Y-99101890D01*
X175922440Y-98850000D01*
X175922440Y-97150000D01*
X175878162Y-96914683D01*
X175739090Y-96698559D01*
X175526890Y-96553569D01*
X175275000Y-96502560D01*
X173575000Y-96502560D01*
X173339683Y-96546838D01*
X173123559Y-96685910D01*
X172978569Y-96898110D01*
X172964914Y-96965541D01*
X172935054Y-96920853D01*
X172453285Y-96598946D01*
X171885000Y-96485907D01*
X171316715Y-96598946D01*
X170834946Y-96920853D01*
X170607298Y-97261553D01*
X170540183Y-97118642D01*
X170111924Y-96728355D01*
X169701890Y-96558524D01*
X169472000Y-96679845D01*
X169218000Y-96679845D01*
X168988110Y-96558524D01*
X168578076Y-96728355D01*
X168149817Y-97118642D01*
X167903514Y-97643108D01*
X144485000Y-97643108D01*
X144485000Y-97023691D01*
X144388327Y-96790302D01*
X144209699Y-96611673D01*
X143976310Y-96515000D01*
X143285750Y-96515000D01*
X143127000Y-96673750D01*
X142873000Y-96673750D01*
X142714250Y-96515000D01*
X142023690Y-96515000D01*
X141790301Y-96611673D01*
X141611673Y-96790302D01*
X141539403Y-96964777D01*
X141510054Y-96920853D01*
X141028285Y-96598946D01*
X140460000Y-96485907D01*
X139891715Y-96598946D01*
X139409946Y-96920853D01*
X139190000Y-97250026D01*
X138970054Y-96920853D01*
X138488285Y-96598946D01*
X137920000Y-96485907D01*
X137351715Y-96598946D01*
X136869946Y-96920853D01*
X136548039Y-97402622D01*
X136435000Y-97970907D01*
X111497440Y-97970907D01*
X111497440Y-97150000D01*
X111453162Y-96914683D01*
X111314090Y-96698559D01*
X111101890Y-96553569D01*
X110850000Y-96502560D01*
X109150000Y-96502560D01*
X108914683Y-96546838D01*
X108698559Y-96685910D01*
X108553569Y-96898110D01*
X108539914Y-96965541D01*
X108510054Y-96920853D01*
X108028285Y-96598946D01*
X107460000Y-96485907D01*
X106891715Y-96598946D01*
X106409946Y-96920853D01*
X106190000Y-97250026D01*
X105970054Y-96920853D01*
X105488285Y-96598946D01*
X104920000Y-96485907D01*
X104351715Y-96598946D01*
X103869946Y-96920853D01*
X103650000Y-97250026D01*
X103430054Y-96920853D01*
X102948285Y-96598946D01*
X102380000Y-96485907D01*
X101811715Y-96598946D01*
X101329946Y-96920853D01*
X101008039Y-97402622D01*
X100895000Y-97970907D01*
X96710000Y-97970907D01*
X96710000Y-96474775D01*
X162664803Y-96474775D01*
X162837233Y-96892086D01*
X163156235Y-97211645D01*
X163573244Y-97384803D01*
X164024775Y-97385197D01*
X164025252Y-97385000D01*
X165050000Y-97385000D01*
X165484346Y-97298603D01*
X165852566Y-97052566D01*
X167202566Y-95702566D01*
X167448603Y-95334346D01*
X167535000Y-94900000D01*
X167535000Y-93177807D01*
X167717049Y-92739383D01*
X168989769Y-92739383D01*
X169192582Y-93230229D01*
X169567796Y-93606098D01*
X170058287Y-93809768D01*
X170589383Y-93810231D01*
X171080229Y-93607418D01*
X171456098Y-93232204D01*
X171659768Y-92741713D01*
X171660231Y-92210617D01*
X171457418Y-91719771D01*
X171082204Y-91343902D01*
X170591713Y-91140232D01*
X170060617Y-91139769D01*
X169569771Y-91342582D01*
X169193902Y-91717796D01*
X168990232Y-92208287D01*
X168989769Y-92739383D01*
X167717049Y-92739383D01*
X167734768Y-92696713D01*
X167735231Y-92165617D01*
X167532418Y-91674771D01*
X167157204Y-91298902D01*
X166666713Y-91095232D01*
X166135617Y-91094769D01*
X165644771Y-91297582D01*
X165268902Y-91672796D01*
X165065232Y-92163287D01*
X165064769Y-92694383D01*
X165265000Y-93178980D01*
X165265000Y-94429868D01*
X164579868Y-95115000D01*
X163800990Y-95115000D01*
X163575225Y-95114803D01*
X163157914Y-95287233D01*
X162838355Y-95606235D01*
X162665197Y-96023244D01*
X162664803Y-96474775D01*
X96710000Y-96474775D01*
X96710000Y-93284187D01*
X98564752Y-93284187D01*
X98782757Y-93811800D01*
X99186077Y-94215824D01*
X99713309Y-94434750D01*
X100284187Y-94435248D01*
X100811800Y-94217243D01*
X101215824Y-93813923D01*
X101434750Y-93286691D01*
X101434752Y-93284187D01*
X105564752Y-93284187D01*
X105782757Y-93811800D01*
X106186077Y-94215824D01*
X106713309Y-94434750D01*
X107284187Y-94435248D01*
X107811800Y-94217243D01*
X108215824Y-93813923D01*
X108434750Y-93286691D01*
X108434752Y-93284187D01*
X112564752Y-93284187D01*
X112782757Y-93811800D01*
X113186077Y-94215824D01*
X113713309Y-94434750D01*
X114284187Y-94435248D01*
X114811800Y-94217243D01*
X115215824Y-93813923D01*
X115434750Y-93286691D01*
X115434752Y-93284187D01*
X119564752Y-93284187D01*
X119782757Y-93811800D01*
X120186077Y-94215824D01*
X120713309Y-94434750D01*
X121284187Y-94435248D01*
X121811800Y-94217243D01*
X122215824Y-93813923D01*
X122434750Y-93286691D01*
X122434887Y-93128694D01*
X131440226Y-93128694D01*
X131688538Y-93729655D01*
X132147927Y-94189846D01*
X132748453Y-94439206D01*
X133398694Y-94439774D01*
X133999655Y-94191462D01*
X134459846Y-93732073D01*
X134709206Y-93131547D01*
X134709252Y-93078694D01*
X146690226Y-93078694D01*
X146938538Y-93679655D01*
X147397927Y-94139846D01*
X147998453Y-94389206D01*
X148648694Y-94389774D01*
X149249655Y-94141462D01*
X149709846Y-93682073D01*
X149959206Y-93081547D01*
X149959570Y-92664383D01*
X157114769Y-92664383D01*
X157317582Y-93155229D01*
X157692796Y-93531098D01*
X158183287Y-93734768D01*
X158714383Y-93735231D01*
X159205229Y-93532418D01*
X159581098Y-93157204D01*
X159783659Y-92669383D01*
X161064769Y-92669383D01*
X161267582Y-93160229D01*
X161642796Y-93536098D01*
X162133287Y-93739768D01*
X162664383Y-93740231D01*
X163155229Y-93537418D01*
X163531098Y-93162204D01*
X163734768Y-92671713D01*
X163735231Y-92140617D01*
X163532418Y-91649771D01*
X163157204Y-91273902D01*
X162666713Y-91070232D01*
X162135617Y-91069769D01*
X161644771Y-91272582D01*
X161268902Y-91647796D01*
X161065232Y-92138287D01*
X161064769Y-92669383D01*
X159783659Y-92669383D01*
X159784768Y-92666713D01*
X159785231Y-92135617D01*
X159582418Y-91644771D01*
X159207204Y-91268902D01*
X158716713Y-91065232D01*
X158185617Y-91064769D01*
X157694771Y-91267582D01*
X157318902Y-91642796D01*
X157115232Y-92133287D01*
X157114769Y-92664383D01*
X149959570Y-92664383D01*
X149959774Y-92431306D01*
X149711462Y-91830345D01*
X149252073Y-91370154D01*
X148651547Y-91120794D01*
X148001306Y-91120226D01*
X147400345Y-91368538D01*
X146940154Y-91827927D01*
X146690794Y-92428453D01*
X146690226Y-93078694D01*
X134709252Y-93078694D01*
X134709774Y-92481306D01*
X134461462Y-91880345D01*
X134002073Y-91420154D01*
X133401547Y-91170794D01*
X132751306Y-91170226D01*
X132150345Y-91418538D01*
X131690154Y-91877927D01*
X131440794Y-92478453D01*
X131440226Y-93128694D01*
X122434887Y-93128694D01*
X122435248Y-92715813D01*
X122217243Y-92188200D01*
X121813923Y-91784176D01*
X121286691Y-91565250D01*
X120715813Y-91564752D01*
X120188200Y-91782757D01*
X119784176Y-92186077D01*
X119565250Y-92713309D01*
X119564752Y-93284187D01*
X115434752Y-93284187D01*
X115435248Y-92715813D01*
X115217243Y-92188200D01*
X114813923Y-91784176D01*
X114286691Y-91565250D01*
X113715813Y-91564752D01*
X113188200Y-91782757D01*
X112784176Y-92186077D01*
X112565250Y-92713309D01*
X112564752Y-93284187D01*
X108434752Y-93284187D01*
X108435248Y-92715813D01*
X108217243Y-92188200D01*
X107813923Y-91784176D01*
X107286691Y-91565250D01*
X106715813Y-91564752D01*
X106188200Y-91782757D01*
X105784176Y-92186077D01*
X105565250Y-92713309D01*
X105564752Y-93284187D01*
X101434752Y-93284187D01*
X101435248Y-92715813D01*
X101217243Y-92188200D01*
X100813923Y-91784176D01*
X100286691Y-91565250D01*
X99715813Y-91564752D01*
X99188200Y-91782757D01*
X98784176Y-92186077D01*
X98565250Y-92713309D01*
X98564752Y-93284187D01*
X96710000Y-93284187D01*
X96710000Y-88284187D01*
X98564752Y-88284187D01*
X98782757Y-88811800D01*
X99186077Y-89215824D01*
X99713309Y-89434750D01*
X100284187Y-89435248D01*
X100811800Y-89217243D01*
X101215824Y-88813923D01*
X101434750Y-88286691D01*
X101434752Y-88284187D01*
X105564752Y-88284187D01*
X105782757Y-88811800D01*
X106186077Y-89215824D01*
X106713309Y-89434750D01*
X107284187Y-89435248D01*
X107811800Y-89217243D01*
X108215824Y-88813923D01*
X108434750Y-88286691D01*
X108434752Y-88284187D01*
X112564752Y-88284187D01*
X112782757Y-88811800D01*
X113186077Y-89215824D01*
X113713309Y-89434750D01*
X114284187Y-89435248D01*
X114811800Y-89217243D01*
X115215824Y-88813923D01*
X115434750Y-88286691D01*
X115434752Y-88284187D01*
X119564752Y-88284187D01*
X119782757Y-88811800D01*
X120186077Y-89215824D01*
X120713309Y-89434750D01*
X121284187Y-89435248D01*
X121811800Y-89217243D01*
X122215824Y-88813923D01*
X122218389Y-88807745D01*
X129646861Y-88807745D01*
X129720995Y-89053864D01*
X130258223Y-89246965D01*
X130828454Y-89219778D01*
X131229005Y-89053864D01*
X131303139Y-88807745D01*
X130475000Y-87979605D01*
X129646861Y-88807745D01*
X122218389Y-88807745D01*
X122434750Y-88286691D01*
X122435248Y-87715813D01*
X122380463Y-87583223D01*
X129028035Y-87583223D01*
X129055222Y-88153454D01*
X129221136Y-88554005D01*
X129467255Y-88628139D01*
X130295395Y-87800000D01*
X130654605Y-87800000D01*
X131482745Y-88628139D01*
X131530167Y-88613855D01*
X131571838Y-88835317D01*
X131710910Y-89051441D01*
X131923110Y-89196431D01*
X132175000Y-89247440D01*
X133775000Y-89247440D01*
X134010317Y-89203162D01*
X134226441Y-89064090D01*
X134371431Y-88851890D01*
X134422440Y-88600000D01*
X134422440Y-87000000D01*
X134378162Y-86764683D01*
X134239090Y-86548559D01*
X134026890Y-86403569D01*
X133775000Y-86352560D01*
X132175000Y-86352560D01*
X131939683Y-86396838D01*
X131723559Y-86535910D01*
X131578569Y-86748110D01*
X131530354Y-86986201D01*
X131482745Y-86971861D01*
X130654605Y-87800000D01*
X130295395Y-87800000D01*
X129467255Y-86971861D01*
X129221136Y-87045995D01*
X129028035Y-87583223D01*
X122380463Y-87583223D01*
X122217243Y-87188200D01*
X121821988Y-86792255D01*
X129646861Y-86792255D01*
X130475000Y-87620395D01*
X131303139Y-86792255D01*
X131229005Y-86546136D01*
X130691777Y-86353035D01*
X130121546Y-86380222D01*
X129720995Y-86546136D01*
X129646861Y-86792255D01*
X121821988Y-86792255D01*
X121813923Y-86784176D01*
X121286691Y-86565250D01*
X120715813Y-86564752D01*
X120188200Y-86782757D01*
X119784176Y-87186077D01*
X119565250Y-87713309D01*
X119564752Y-88284187D01*
X115434752Y-88284187D01*
X115435248Y-87715813D01*
X115217243Y-87188200D01*
X114813923Y-86784176D01*
X114286691Y-86565250D01*
X113715813Y-86564752D01*
X113188200Y-86782757D01*
X112784176Y-87186077D01*
X112565250Y-87713309D01*
X112564752Y-88284187D01*
X108434752Y-88284187D01*
X108435248Y-87715813D01*
X108217243Y-87188200D01*
X107813923Y-86784176D01*
X107286691Y-86565250D01*
X106715813Y-86564752D01*
X106188200Y-86782757D01*
X105784176Y-87186077D01*
X105565250Y-87713309D01*
X105564752Y-88284187D01*
X101434752Y-88284187D01*
X101435248Y-87715813D01*
X101217243Y-87188200D01*
X100813923Y-86784176D01*
X100286691Y-86565250D01*
X99715813Y-86564752D01*
X99188200Y-86782757D01*
X98784176Y-87186077D01*
X98565250Y-87713309D01*
X98564752Y-88284187D01*
X96710000Y-88284187D01*
X96710000Y-85053846D01*
X105665000Y-85053846D01*
X105665000Y-85106154D01*
X105766621Y-85617036D01*
X106056012Y-86050142D01*
X106489118Y-86339533D01*
X107000000Y-86441154D01*
X107510882Y-86339533D01*
X107943988Y-86050142D01*
X108233379Y-85617036D01*
X108335000Y-85106154D01*
X108335000Y-85053846D01*
X119665000Y-85053846D01*
X119665000Y-85106154D01*
X119766621Y-85617036D01*
X120056012Y-86050142D01*
X120489118Y-86339533D01*
X121000000Y-86441154D01*
X121510882Y-86339533D01*
X121943988Y-86050142D01*
X122233379Y-85617036D01*
X122335000Y-85106154D01*
X122335000Y-85053846D01*
X122233379Y-84542964D01*
X121943988Y-84109858D01*
X121510882Y-83820467D01*
X121000000Y-83718846D01*
X120489118Y-83820467D01*
X120056012Y-84109858D01*
X119766621Y-84542964D01*
X119665000Y-85053846D01*
X108335000Y-85053846D01*
X108233379Y-84542964D01*
X107943988Y-84109858D01*
X107510882Y-83820467D01*
X107000000Y-83718846D01*
X106489118Y-83820467D01*
X106056012Y-84109858D01*
X105766621Y-84542964D01*
X105665000Y-85053846D01*
X96710000Y-85053846D01*
X96710000Y-80053846D01*
X98665000Y-80053846D01*
X98665000Y-80106154D01*
X98766621Y-80617036D01*
X99056012Y-81050142D01*
X99489118Y-81339533D01*
X100000000Y-81441154D01*
X100510882Y-81339533D01*
X100943988Y-81050142D01*
X101233379Y-80617036D01*
X101303526Y-80264383D01*
X105664769Y-80264383D01*
X105867582Y-80755229D01*
X106242796Y-81131098D01*
X106733287Y-81334768D01*
X107264383Y-81335231D01*
X107755229Y-81132418D01*
X108131098Y-80757204D01*
X108334768Y-80266713D01*
X108334953Y-80053846D01*
X112665000Y-80053846D01*
X112665000Y-80106154D01*
X112766621Y-80617036D01*
X113056012Y-81050142D01*
X113489118Y-81339533D01*
X114000000Y-81441154D01*
X114510882Y-81339533D01*
X114943988Y-81050142D01*
X115233379Y-80617036D01*
X115303526Y-80264383D01*
X119664769Y-80264383D01*
X119867582Y-80755229D01*
X120242796Y-81131098D01*
X120733287Y-81334768D01*
X121264383Y-81335231D01*
X121755229Y-81132418D01*
X122088227Y-80800000D01*
X124352560Y-80800000D01*
X124352560Y-82300000D01*
X124396838Y-82535317D01*
X124535910Y-82751441D01*
X124748110Y-82896431D01*
X125000000Y-82947440D01*
X126500000Y-82947440D01*
X126735317Y-82903162D01*
X126951441Y-82764090D01*
X127004588Y-82686307D01*
X127026077Y-82762460D01*
X127545171Y-82947201D01*
X128095448Y-82919230D01*
X128473923Y-82762460D01*
X128541912Y-82521517D01*
X127750000Y-81729605D01*
X127735858Y-81743748D01*
X127556253Y-81564143D01*
X127570395Y-81550000D01*
X127929605Y-81550000D01*
X128721517Y-82341912D01*
X128962460Y-82273923D01*
X129147201Y-81754829D01*
X129119230Y-81204552D01*
X128962460Y-80826077D01*
X128721517Y-80758088D01*
X127929605Y-81550000D01*
X127570395Y-81550000D01*
X127556253Y-81535858D01*
X127735858Y-81356253D01*
X127750000Y-81370395D01*
X128541912Y-80578483D01*
X128473923Y-80337540D01*
X127954829Y-80152799D01*
X127404552Y-80180770D01*
X127026077Y-80337540D01*
X127005019Y-80412165D01*
X126964090Y-80348559D01*
X126751890Y-80203569D01*
X126500000Y-80152560D01*
X125000000Y-80152560D01*
X124764683Y-80196838D01*
X124548559Y-80335910D01*
X124403569Y-80548110D01*
X124352560Y-80800000D01*
X122088227Y-80800000D01*
X122131098Y-80757204D01*
X122334768Y-80266713D01*
X122335231Y-79735617D01*
X122132418Y-79244771D01*
X121757204Y-78868902D01*
X121266713Y-78665232D01*
X120735617Y-78664769D01*
X120244771Y-78867582D01*
X119868902Y-79242796D01*
X119665232Y-79733287D01*
X119664769Y-80264383D01*
X115303526Y-80264383D01*
X115335000Y-80106154D01*
X115335000Y-80053846D01*
X115233379Y-79542964D01*
X114943988Y-79109858D01*
X114510882Y-78820467D01*
X114000000Y-78718846D01*
X113489118Y-78820467D01*
X113056012Y-79109858D01*
X112766621Y-79542964D01*
X112665000Y-80053846D01*
X108334953Y-80053846D01*
X108335231Y-79735617D01*
X108132418Y-79244771D01*
X107757204Y-78868902D01*
X107266713Y-78665232D01*
X106735617Y-78664769D01*
X106244771Y-78867582D01*
X105868902Y-79242796D01*
X105665232Y-79733287D01*
X105664769Y-80264383D01*
X101303526Y-80264383D01*
X101335000Y-80106154D01*
X101335000Y-80053846D01*
X101233379Y-79542964D01*
X100943988Y-79109858D01*
X100510882Y-78820467D01*
X100000000Y-78718846D01*
X99489118Y-78820467D01*
X99056012Y-79109858D01*
X98766621Y-79542964D01*
X98665000Y-80053846D01*
X96710000Y-80053846D01*
X96710000Y-77275000D01*
X124313846Y-77275000D01*
X124415467Y-77785882D01*
X124704858Y-78218988D01*
X125137964Y-78508379D01*
X125648846Y-78610000D01*
X125701154Y-78610000D01*
X126212036Y-78508379D01*
X126645142Y-78218988D01*
X126934533Y-77785882D01*
X126983564Y-77539383D01*
X129419769Y-77539383D01*
X129622582Y-78030229D01*
X129997796Y-78406098D01*
X130488287Y-78609768D01*
X131019383Y-78610231D01*
X131510229Y-78407418D01*
X131832505Y-78085704D01*
X131904858Y-78193988D01*
X132337964Y-78483379D01*
X132848846Y-78585000D01*
X132901154Y-78585000D01*
X133412036Y-78483379D01*
X133845142Y-78193988D01*
X134134533Y-77760882D01*
X134183564Y-77514383D01*
X136619769Y-77514383D01*
X136822582Y-78005229D01*
X137197796Y-78381098D01*
X137688287Y-78584768D01*
X138219383Y-78585231D01*
X138710229Y-78382418D01*
X139086098Y-78007204D01*
X139289768Y-77516713D01*
X139290231Y-76985617D01*
X139087418Y-76494771D01*
X138712204Y-76118902D01*
X138221713Y-75915232D01*
X137690617Y-75914769D01*
X137199771Y-76117582D01*
X136823902Y-76492796D01*
X136620232Y-76983287D01*
X136619769Y-77514383D01*
X134183564Y-77514383D01*
X134236154Y-77250000D01*
X134134533Y-76739118D01*
X133845142Y-76306012D01*
X133412036Y-76016621D01*
X132901154Y-75915000D01*
X132848846Y-75915000D01*
X132337964Y-76016621D01*
X131904858Y-76306012D01*
X131812305Y-76444527D01*
X131512204Y-76143902D01*
X131021713Y-75940232D01*
X130490617Y-75939769D01*
X129999771Y-76142582D01*
X129623902Y-76517796D01*
X129420232Y-77008287D01*
X129419769Y-77539383D01*
X126983564Y-77539383D01*
X127036154Y-77275000D01*
X126934533Y-76764118D01*
X126645142Y-76331012D01*
X126212036Y-76041621D01*
X125701154Y-75940000D01*
X125648846Y-75940000D01*
X125137964Y-76041621D01*
X124704858Y-76331012D01*
X124415467Y-76764118D01*
X124313846Y-77275000D01*
X96710000Y-77275000D01*
X96710000Y-75264383D01*
X98664769Y-75264383D01*
X98867582Y-75755229D01*
X99242796Y-76131098D01*
X99733287Y-76334768D01*
X100264383Y-76335231D01*
X100755229Y-76132418D01*
X101131098Y-75757204D01*
X101334768Y-75266713D01*
X101334770Y-75264383D01*
X112664769Y-75264383D01*
X112867582Y-75755229D01*
X113242796Y-76131098D01*
X113733287Y-76334768D01*
X114264383Y-76335231D01*
X114755229Y-76132418D01*
X115131098Y-75757204D01*
X115334768Y-75266713D01*
X115335231Y-74735617D01*
X115132418Y-74244771D01*
X114757204Y-73868902D01*
X114266713Y-73665232D01*
X113735617Y-73664769D01*
X113244771Y-73867582D01*
X112868902Y-74242796D01*
X112665232Y-74733287D01*
X112664769Y-75264383D01*
X101334770Y-75264383D01*
X101335231Y-74735617D01*
X101132418Y-74244771D01*
X100757204Y-73868902D01*
X100266713Y-73665232D01*
X99735617Y-73664769D01*
X99244771Y-73867582D01*
X98868902Y-74242796D01*
X98665232Y-74733287D01*
X98664769Y-75264383D01*
X96710000Y-75264383D01*
X96710000Y-66264383D01*
X102664769Y-66264383D01*
X102867582Y-66755229D01*
X103242796Y-67131098D01*
X103733287Y-67334768D01*
X104264383Y-67335231D01*
X104755229Y-67132418D01*
X105131098Y-66757204D01*
X105334768Y-66266713D01*
X105335231Y-65735617D01*
X105132418Y-65244771D01*
X104757204Y-64868902D01*
X104266713Y-64665232D01*
X103735617Y-64664769D01*
X103244771Y-64867582D01*
X102868902Y-65242796D01*
X102665232Y-65733287D01*
X102664769Y-66264383D01*
X96710000Y-66264383D01*
X96710000Y-61264383D01*
X102664769Y-61264383D01*
X102867582Y-61755229D01*
X103242796Y-62131098D01*
X103733287Y-62334768D01*
X104264383Y-62335231D01*
X104755229Y-62132418D01*
X105131098Y-61757204D01*
X105190000Y-61615352D01*
X105190000Y-63245000D01*
X105276397Y-63679346D01*
X105396173Y-63858603D01*
X105522434Y-64047566D01*
X107779427Y-66304559D01*
X107820467Y-66510882D01*
X108109858Y-66943988D01*
X108542964Y-67233379D01*
X109053846Y-67335000D01*
X109106154Y-67335000D01*
X109617036Y-67233379D01*
X110050142Y-66943988D01*
X110339533Y-66510882D01*
X110388564Y-66264383D01*
X110664769Y-66264383D01*
X110867582Y-66755229D01*
X111242796Y-67131098D01*
X111733287Y-67334768D01*
X112264383Y-67335231D01*
X112755229Y-67132418D01*
X113131098Y-66757204D01*
X113334768Y-66266713D01*
X113335000Y-66000000D01*
X115718846Y-66000000D01*
X115820467Y-66510882D01*
X116109858Y-66943988D01*
X116542964Y-67233379D01*
X117053846Y-67335000D01*
X117106154Y-67335000D01*
X117617036Y-67233379D01*
X118050142Y-66943988D01*
X118339533Y-66510882D01*
X118441154Y-66000000D01*
X118339533Y-65489118D01*
X118050142Y-65056012D01*
X117617036Y-64766621D01*
X117106154Y-64665000D01*
X117053846Y-64665000D01*
X116542964Y-64766621D01*
X116109858Y-65056012D01*
X115820467Y-65489118D01*
X115718846Y-66000000D01*
X113335000Y-66000000D01*
X113335231Y-65735617D01*
X113132418Y-65244771D01*
X112757204Y-64868902D01*
X112266713Y-64665232D01*
X111735617Y-64664769D01*
X111244771Y-64867582D01*
X110868902Y-65242796D01*
X110665232Y-65733287D01*
X110664769Y-66264383D01*
X110388564Y-66264383D01*
X110441154Y-66000000D01*
X110339533Y-65489118D01*
X110050142Y-65056012D01*
X109617036Y-64766621D01*
X109410713Y-64725581D01*
X107460000Y-62774868D01*
X107460000Y-61445132D01*
X107749753Y-61155379D01*
X107820467Y-61510882D01*
X108109858Y-61943988D01*
X108542964Y-62233379D01*
X109053846Y-62335000D01*
X109106154Y-62335000D01*
X109617036Y-62233379D01*
X110050142Y-61943988D01*
X110339533Y-61510882D01*
X110441154Y-61000000D01*
X110339533Y-60489118D01*
X110186442Y-60260000D01*
X110861758Y-60260000D01*
X110665232Y-60733287D01*
X110664769Y-61264383D01*
X110867582Y-61755229D01*
X111242796Y-62131098D01*
X111733287Y-62334768D01*
X112264383Y-62335231D01*
X112748980Y-62135000D01*
X113850010Y-62135000D01*
X114284356Y-62048603D01*
X114652576Y-61802566D01*
X115784325Y-60670818D01*
X115718846Y-61000000D01*
X115820467Y-61510882D01*
X116109858Y-61943988D01*
X116542964Y-62233379D01*
X117053846Y-62335000D01*
X117106154Y-62335000D01*
X117617036Y-62233379D01*
X118050142Y-61943988D01*
X118079533Y-61900000D01*
X126538846Y-61900000D01*
X126640467Y-62410882D01*
X126929858Y-62843988D01*
X127362964Y-63133379D01*
X127873846Y-63235000D01*
X127924104Y-63235000D01*
X127870000Y-63506998D01*
X127870000Y-64610376D01*
X127679233Y-64895879D01*
X127570000Y-65445030D01*
X127570000Y-66214970D01*
X127679233Y-66764121D01*
X127990302Y-67229668D01*
X128455849Y-67540737D01*
X129005000Y-67649970D01*
X129554151Y-67540737D01*
X130019698Y-67229668D01*
X130275000Y-66847582D01*
X130530302Y-67229668D01*
X130995849Y-67540737D01*
X131545000Y-67649970D01*
X132094151Y-67540737D01*
X132559698Y-67229668D01*
X132815000Y-66847582D01*
X133070302Y-67229668D01*
X133535849Y-67540737D01*
X134085000Y-67649970D01*
X134634151Y-67540737D01*
X135099698Y-67229668D01*
X135355000Y-66847582D01*
X135610302Y-67229668D01*
X136075849Y-67540737D01*
X136625000Y-67649970D01*
X137174151Y-67540737D01*
X137639698Y-67229668D01*
X137950767Y-66764121D01*
X138060000Y-66214970D01*
X138060000Y-65445030D01*
X137950767Y-64895879D01*
X137639698Y-64430332D01*
X137174151Y-64119263D01*
X136625000Y-64010030D01*
X136075849Y-64119263D01*
X135610302Y-64430332D01*
X135355000Y-64812418D01*
X135099698Y-64430332D01*
X134634151Y-64119263D01*
X134085000Y-64010030D01*
X133535849Y-64119263D01*
X133070302Y-64430332D01*
X132815000Y-64812418D01*
X132559698Y-64430332D01*
X132094151Y-64119263D01*
X131545000Y-64010030D01*
X130995849Y-64119263D01*
X130530302Y-64430332D01*
X130275000Y-64812418D01*
X130140000Y-64610376D01*
X130140000Y-63977130D01*
X131734816Y-62382314D01*
X131847582Y-62655229D01*
X132222796Y-63031098D01*
X132713287Y-63234768D01*
X133244383Y-63235231D01*
X133735229Y-63032418D01*
X134111098Y-62657204D01*
X134175853Y-62501257D01*
X134404858Y-62843988D01*
X134837964Y-63133379D01*
X135348846Y-63235000D01*
X135401154Y-63235000D01*
X135912036Y-63133379D01*
X136345142Y-62843988D01*
X136634533Y-62410882D01*
X136736154Y-61900000D01*
X136634533Y-61389118D01*
X136364511Y-60985000D01*
X139481973Y-60985000D01*
X139323902Y-61142796D01*
X139120232Y-61633287D01*
X139119769Y-62164383D01*
X139322582Y-62655229D01*
X139697796Y-63031098D01*
X140182043Y-63232175D01*
X141240000Y-64290132D01*
X141240000Y-70610020D01*
X140993765Y-70363355D01*
X140576756Y-70190197D01*
X140125225Y-70189803D01*
X140124748Y-70190000D01*
X130930683Y-70190000D01*
X130805000Y-70165000D01*
X130442717Y-70237063D01*
X130370654Y-70251397D01*
X130002434Y-70497434D01*
X128836277Y-71663591D01*
X128455849Y-71739263D01*
X127990302Y-72050332D01*
X127679233Y-72515879D01*
X127570000Y-73065030D01*
X127570000Y-73834970D01*
X127679233Y-74384121D01*
X127990302Y-74849668D01*
X128455849Y-75160737D01*
X129005000Y-75269970D01*
X129554151Y-75160737D01*
X130019698Y-74849668D01*
X130275000Y-74467582D01*
X130530302Y-74849668D01*
X130995849Y-75160737D01*
X131545000Y-75269970D01*
X132094151Y-75160737D01*
X132559698Y-74849668D01*
X132815000Y-74467582D01*
X133070302Y-74849668D01*
X133535849Y-75160737D01*
X134085000Y-75269970D01*
X134634151Y-75160737D01*
X135099698Y-74849668D01*
X135355000Y-74467582D01*
X135610302Y-74849668D01*
X136075849Y-75160737D01*
X136625000Y-75269970D01*
X137174151Y-75160737D01*
X137639698Y-74849668D01*
X137950767Y-74384121D01*
X138060000Y-73834970D01*
X138060000Y-73065030D01*
X137950767Y-72515879D01*
X137913430Y-72460000D01*
X140349009Y-72460000D01*
X140574775Y-72460197D01*
X140992086Y-72287767D01*
X141240000Y-72040285D01*
X141240000Y-91178306D01*
X141190197Y-91298244D01*
X141189803Y-91749775D01*
X141362233Y-92167086D01*
X141681235Y-92486645D01*
X142098244Y-92659803D01*
X142549775Y-92660197D01*
X142967086Y-92487767D01*
X143286645Y-92168765D01*
X143346368Y-92024936D01*
X143423604Y-91909345D01*
X143450488Y-91774189D01*
X143459803Y-91751756D01*
X143459824Y-91727252D01*
X143510000Y-91475000D01*
X143510000Y-72939383D01*
X150109769Y-72939383D01*
X150312582Y-73430229D01*
X150687796Y-73806098D01*
X151178287Y-74009768D01*
X151709383Y-74010231D01*
X152200229Y-73807418D01*
X152576098Y-73432204D01*
X152779768Y-72941713D01*
X152780231Y-72410617D01*
X152577418Y-71919771D01*
X152202204Y-71543902D01*
X151711713Y-71340232D01*
X151180617Y-71339769D01*
X150689771Y-71542582D01*
X150313902Y-71917796D01*
X150110232Y-72408287D01*
X150109769Y-72939383D01*
X143510000Y-72939383D01*
X143510000Y-71151887D01*
X146090000Y-71151887D01*
X146090000Y-71208113D01*
X146199233Y-71757264D01*
X146510302Y-72222811D01*
X146975849Y-72533880D01*
X147525000Y-72643113D01*
X148074151Y-72533880D01*
X148539698Y-72222811D01*
X148850767Y-71757264D01*
X148960000Y-71208113D01*
X148960000Y-71151887D01*
X148850767Y-70602736D01*
X148539698Y-70137189D01*
X148074151Y-69826120D01*
X147525000Y-69716887D01*
X146975849Y-69826120D01*
X146510302Y-70137189D01*
X146199233Y-70602736D01*
X146090000Y-71151887D01*
X143510000Y-71151887D01*
X143510000Y-70790113D01*
X143798244Y-70909803D01*
X144249775Y-70910197D01*
X144459345Y-70823604D01*
X144459346Y-70823604D01*
X144459347Y-70823603D01*
X144667086Y-70737767D01*
X144986645Y-70418765D01*
X145159803Y-70001756D01*
X145160197Y-69550225D01*
X145110000Y-69428739D01*
X145110000Y-66375000D01*
X146077560Y-66375000D01*
X146077560Y-67975000D01*
X146121838Y-68210317D01*
X146260910Y-68426441D01*
X146473110Y-68571431D01*
X146725000Y-68622440D01*
X148325000Y-68622440D01*
X148560317Y-68578162D01*
X148776441Y-68439090D01*
X148921431Y-68226890D01*
X148972440Y-67975000D01*
X148972440Y-67175000D01*
X149863846Y-67175000D01*
X149965467Y-67685882D01*
X150254858Y-68118988D01*
X150687964Y-68408379D01*
X151198846Y-68510000D01*
X151251154Y-68510000D01*
X151762036Y-68408379D01*
X152195142Y-68118988D01*
X152484533Y-67685882D01*
X152586154Y-67175000D01*
X152484533Y-66664118D01*
X152195142Y-66231012D01*
X151762036Y-65941621D01*
X151251154Y-65840000D01*
X151198846Y-65840000D01*
X150687964Y-65941621D01*
X150254858Y-66231012D01*
X149965467Y-66664118D01*
X149863846Y-67175000D01*
X148972440Y-67175000D01*
X148972440Y-66375000D01*
X148928162Y-66139683D01*
X148789090Y-65923559D01*
X148576890Y-65778569D01*
X148325000Y-65727560D01*
X146725000Y-65727560D01*
X146489683Y-65771838D01*
X146273559Y-65910910D01*
X146128569Y-66123110D01*
X146077560Y-66375000D01*
X145110000Y-66375000D01*
X145110000Y-65750991D01*
X145110197Y-65525225D01*
X144937767Y-65107914D01*
X144618765Y-64788355D01*
X144201756Y-64615197D01*
X143750225Y-64614803D01*
X143510000Y-64714062D01*
X143510000Y-63820000D01*
X143423603Y-63385654D01*
X143177566Y-63017434D01*
X141786346Y-61626214D01*
X141779491Y-61609623D01*
X142227434Y-62057567D01*
X142440599Y-62199999D01*
X142595655Y-62303604D01*
X143030001Y-62390001D01*
X149914869Y-62390001D01*
X154973654Y-67448786D01*
X155172582Y-67930229D01*
X155547796Y-68306098D01*
X156038287Y-68509768D01*
X156569383Y-68510231D01*
X157060229Y-68307418D01*
X157239999Y-68127961D01*
X157239999Y-71560532D01*
X157062036Y-71441621D01*
X156551154Y-71340000D01*
X156498846Y-71340000D01*
X155987964Y-71441621D01*
X155554858Y-71731012D01*
X155265467Y-72164118D01*
X155224427Y-72370441D01*
X148972440Y-78622428D01*
X148972440Y-78000000D01*
X148928162Y-77764683D01*
X148789090Y-77548559D01*
X148576890Y-77403569D01*
X148325000Y-77352560D01*
X146725000Y-77352560D01*
X146489683Y-77396838D01*
X146273559Y-77535910D01*
X146128569Y-77748110D01*
X146077560Y-78000000D01*
X146077560Y-79600000D01*
X146121838Y-79835317D01*
X146260910Y-80051441D01*
X146473110Y-80196431D01*
X146725000Y-80247440D01*
X147405499Y-80247440D01*
X147276397Y-80440654D01*
X147190000Y-80875000D01*
X147190000Y-86160982D01*
X147073559Y-86235910D01*
X146928569Y-86448110D01*
X146877560Y-86700000D01*
X146877560Y-88300000D01*
X146921838Y-88535317D01*
X147060910Y-88751441D01*
X147273110Y-88896431D01*
X147525000Y-88947440D01*
X149125000Y-88947440D01*
X149360317Y-88903162D01*
X149576441Y-88764090D01*
X149721431Y-88551890D01*
X149730370Y-88507745D01*
X149996861Y-88507745D01*
X150070995Y-88753864D01*
X150608223Y-88946965D01*
X151178454Y-88919778D01*
X151579005Y-88753864D01*
X151653139Y-88507745D01*
X150825000Y-87679605D01*
X149996861Y-88507745D01*
X149730370Y-88507745D01*
X149769646Y-88313799D01*
X149817255Y-88328139D01*
X150645395Y-87500000D01*
X151004605Y-87500000D01*
X151832745Y-88328139D01*
X152078864Y-88254005D01*
X152271965Y-87716777D01*
X152244778Y-87146546D01*
X152078864Y-86745995D01*
X151832745Y-86671861D01*
X151004605Y-87500000D01*
X150645395Y-87500000D01*
X149817255Y-86671861D01*
X149769833Y-86686145D01*
X149733351Y-86492255D01*
X149996861Y-86492255D01*
X150825000Y-87320395D01*
X151653139Y-86492255D01*
X151579005Y-86246136D01*
X151041777Y-86053035D01*
X150471546Y-86080222D01*
X150070995Y-86246136D01*
X149996861Y-86492255D01*
X149733351Y-86492255D01*
X149728162Y-86464683D01*
X149589090Y-86248559D01*
X149460000Y-86160356D01*
X149460000Y-81345132D01*
X151893270Y-78911862D01*
X151939009Y-79141809D01*
X152206723Y-79542472D01*
X152607386Y-79810186D01*
X153080000Y-79904195D01*
X153115000Y-79897233D01*
X153115000Y-79939195D01*
X153209009Y-80411809D01*
X153476723Y-80812472D01*
X153877386Y-81080186D01*
X154350000Y-81174195D01*
X154822614Y-81080186D01*
X155223277Y-80812472D01*
X155490991Y-80411809D01*
X155585000Y-79939195D01*
X155585000Y-79890805D01*
X155490991Y-79418191D01*
X155223277Y-79017528D01*
X154822614Y-78749814D01*
X154808261Y-78746959D01*
X154822614Y-78744104D01*
X155223277Y-78476390D01*
X155490991Y-78075727D01*
X155585000Y-77603113D01*
X155585000Y-77146887D01*
X155490991Y-76674273D01*
X155223277Y-76273610D01*
X154822614Y-76005896D01*
X154803115Y-76002017D01*
X156855713Y-73949419D01*
X157062036Y-73908379D01*
X157239999Y-73789468D01*
X157239999Y-86255050D01*
X157315000Y-86632105D01*
X157315000Y-86635729D01*
X157216621Y-86782964D01*
X157115000Y-87293846D01*
X157115000Y-87346154D01*
X157216621Y-87857036D01*
X157506012Y-88290142D01*
X157939118Y-88579533D01*
X158450000Y-88681154D01*
X158960882Y-88579533D01*
X159393988Y-88290142D01*
X159683379Y-87857036D01*
X159785000Y-87346154D01*
X159785000Y-87298846D01*
X161065000Y-87298846D01*
X161065000Y-87351154D01*
X161166621Y-87862036D01*
X161456012Y-88295142D01*
X161889118Y-88584533D01*
X162400000Y-88686154D01*
X162910882Y-88584533D01*
X163343988Y-88295142D01*
X163633379Y-87862036D01*
X163735000Y-87351154D01*
X163735000Y-87323846D01*
X165065000Y-87323846D01*
X165065000Y-87376154D01*
X165166621Y-87887036D01*
X165456012Y-88320142D01*
X165889118Y-88609533D01*
X166400000Y-88711154D01*
X166910882Y-88609533D01*
X167343988Y-88320142D01*
X167633379Y-87887036D01*
X167735000Y-87376154D01*
X167735000Y-87323846D01*
X167633379Y-86812964D01*
X167343988Y-86379858D01*
X166910882Y-86090467D01*
X166400000Y-85988846D01*
X165889118Y-86090467D01*
X165456012Y-86379858D01*
X165166621Y-86812964D01*
X165065000Y-87323846D01*
X163735000Y-87323846D01*
X163735000Y-87298846D01*
X163633379Y-86787964D01*
X163343988Y-86354858D01*
X162910882Y-86065467D01*
X162400000Y-85963846D01*
X161889118Y-86065467D01*
X161456012Y-86354858D01*
X161166621Y-86787964D01*
X161065000Y-87298846D01*
X159785000Y-87298846D01*
X159785000Y-87293846D01*
X159683379Y-86782964D01*
X159585000Y-86635729D01*
X159585000Y-86330051D01*
X159509999Y-85952996D01*
X159509999Y-79523200D01*
X159567796Y-79581098D01*
X160058287Y-79784768D01*
X160589383Y-79785231D01*
X161080229Y-79582418D01*
X161456098Y-79207204D01*
X161659768Y-78716713D01*
X161660231Y-78185617D01*
X161457513Y-77695000D01*
X162227560Y-77695000D01*
X162227560Y-79295000D01*
X162271838Y-79530317D01*
X162410910Y-79746441D01*
X162623110Y-79891431D01*
X162875000Y-79942440D01*
X164475000Y-79942440D01*
X164710317Y-79898162D01*
X164926441Y-79759090D01*
X165071431Y-79546890D01*
X165122440Y-79295000D01*
X165122440Y-78505805D01*
X168670000Y-78505805D01*
X168670000Y-78554195D01*
X168764009Y-79026809D01*
X169031723Y-79427472D01*
X169432386Y-79695186D01*
X169905000Y-79789195D01*
X169940000Y-79782233D01*
X169940000Y-79824195D01*
X170034009Y-80296809D01*
X170301723Y-80697472D01*
X170702386Y-80965186D01*
X171175000Y-81059195D01*
X171647614Y-80965186D01*
X172048277Y-80697472D01*
X172315991Y-80296809D01*
X172410000Y-79824195D01*
X172410000Y-79775805D01*
X172315991Y-79303191D01*
X172048277Y-78902528D01*
X171647614Y-78634814D01*
X171633261Y-78631959D01*
X171647614Y-78629104D01*
X172048277Y-78361390D01*
X172315991Y-77960727D01*
X172410000Y-77488113D01*
X172410000Y-77031887D01*
X172315991Y-76559273D01*
X172048277Y-76158610D01*
X171647614Y-75890896D01*
X171175000Y-75796887D01*
X170702386Y-75890896D01*
X170301723Y-76158610D01*
X170034009Y-76559273D01*
X169940000Y-77031887D01*
X169940000Y-77277767D01*
X169905000Y-77270805D01*
X169432386Y-77364814D01*
X169031723Y-77632528D01*
X168764009Y-78033191D01*
X168670000Y-78505805D01*
X165122440Y-78505805D01*
X165122440Y-77695000D01*
X165078162Y-77459683D01*
X164939090Y-77243559D01*
X164726890Y-77098569D01*
X164475000Y-77047560D01*
X162875000Y-77047560D01*
X162639683Y-77091838D01*
X162423559Y-77230910D01*
X162278569Y-77443110D01*
X162227560Y-77695000D01*
X161457513Y-77695000D01*
X161457418Y-77694771D01*
X161082204Y-77318902D01*
X160591713Y-77115232D01*
X160060617Y-77114769D01*
X159569771Y-77317582D01*
X159509999Y-77377250D01*
X159509999Y-74426328D01*
X159814118Y-74629533D01*
X160325000Y-74731154D01*
X160835882Y-74629533D01*
X161268988Y-74340142D01*
X161558379Y-73907036D01*
X161660000Y-73396154D01*
X161660000Y-73343846D01*
X161558379Y-72832964D01*
X161268988Y-72399858D01*
X160835882Y-72110467D01*
X160325000Y-72008846D01*
X159814118Y-72110467D01*
X159509999Y-72313672D01*
X159509999Y-70846887D01*
X162240000Y-70846887D01*
X162240000Y-70903113D01*
X162349233Y-71452264D01*
X162660302Y-71917811D01*
X163125849Y-72228880D01*
X163675000Y-72338113D01*
X164224151Y-72228880D01*
X164689698Y-71917811D01*
X165000767Y-71452264D01*
X165110000Y-70903113D01*
X165110000Y-70846887D01*
X165000767Y-70297736D01*
X164689698Y-69832189D01*
X164224151Y-69521120D01*
X163675000Y-69411887D01*
X163125849Y-69521120D01*
X162660302Y-69832189D01*
X162349233Y-70297736D01*
X162240000Y-70846887D01*
X159509999Y-70846887D01*
X159509999Y-66520000D01*
X162152560Y-66520000D01*
X162152560Y-68120000D01*
X162196838Y-68355317D01*
X162335910Y-68571441D01*
X162548110Y-68716431D01*
X162800000Y-68767440D01*
X164400000Y-68767440D01*
X164635317Y-68723162D01*
X164851441Y-68584090D01*
X164996431Y-68371890D01*
X165047440Y-68120000D01*
X165047440Y-66520000D01*
X165003162Y-66284683D01*
X164864090Y-66068559D01*
X164651890Y-65923569D01*
X164400000Y-65872560D01*
X162800000Y-65872560D01*
X162564683Y-65916838D01*
X162348559Y-66055910D01*
X162203569Y-66268110D01*
X162152560Y-66520000D01*
X159509999Y-66520000D01*
X159509999Y-65982431D01*
X159708287Y-66064768D01*
X160239383Y-66065231D01*
X160730229Y-65862418D01*
X161106098Y-65487204D01*
X161309768Y-64996713D01*
X161310231Y-64465617D01*
X161107418Y-63974771D01*
X160732204Y-63598902D01*
X160241713Y-63395232D01*
X159710617Y-63394769D01*
X159509999Y-63477662D01*
X159509999Y-63334999D01*
X159490062Y-63234768D01*
X159423603Y-62900654D01*
X159177565Y-62532433D01*
X156268978Y-59623846D01*
X158640000Y-59623846D01*
X158640000Y-59676154D01*
X158741621Y-60187036D01*
X159031012Y-60620142D01*
X159464118Y-60909533D01*
X159975000Y-61011154D01*
X160485882Y-60909533D01*
X160918988Y-60620142D01*
X161208379Y-60187036D01*
X161310000Y-59676154D01*
X161310000Y-59671887D01*
X162165000Y-59671887D01*
X162165000Y-59728113D01*
X162274233Y-60277264D01*
X162585302Y-60742811D01*
X163050849Y-61053880D01*
X163600000Y-61163113D01*
X164149151Y-61053880D01*
X164614698Y-60742811D01*
X164925767Y-60277264D01*
X164994682Y-59930805D01*
X167995000Y-59930805D01*
X167995000Y-59979195D01*
X168089009Y-60451809D01*
X168356723Y-60852472D01*
X168757386Y-61120186D01*
X169230000Y-61214195D01*
X169265000Y-61207233D01*
X169265000Y-61249195D01*
X169359009Y-61721809D01*
X169626723Y-62122472D01*
X170027386Y-62390186D01*
X170500000Y-62484195D01*
X170972614Y-62390186D01*
X171373277Y-62122472D01*
X171640991Y-61721809D01*
X171656037Y-61646169D01*
X173290000Y-63280132D01*
X173290000Y-80604868D01*
X169522434Y-84372434D01*
X169276397Y-84740654D01*
X169190000Y-85175000D01*
X169190000Y-86710729D01*
X169091621Y-86857964D01*
X168990000Y-87368846D01*
X168990000Y-87421154D01*
X169091621Y-87932036D01*
X169381012Y-88365142D01*
X169814118Y-88654533D01*
X170325000Y-88756154D01*
X170835882Y-88654533D01*
X171268988Y-88365142D01*
X171558379Y-87932036D01*
X171660000Y-87421154D01*
X171660000Y-87368846D01*
X171558379Y-86857964D01*
X171460000Y-86710729D01*
X171460000Y-85645132D01*
X175227566Y-81877566D01*
X175473604Y-81509345D01*
X175560000Y-81075000D01*
X175560000Y-62810000D01*
X175473603Y-62375654D01*
X175227566Y-62007434D01*
X171735000Y-58514868D01*
X171735000Y-58456887D01*
X171640991Y-57984273D01*
X171373277Y-57583610D01*
X170972614Y-57315896D01*
X170500000Y-57221887D01*
X170027386Y-57315896D01*
X169626723Y-57583610D01*
X169359009Y-57984273D01*
X169265000Y-58456887D01*
X169265000Y-58702767D01*
X169230000Y-58695805D01*
X168757386Y-58789814D01*
X168356723Y-59057528D01*
X168089009Y-59458191D01*
X167995000Y-59930805D01*
X164994682Y-59930805D01*
X165035000Y-59728113D01*
X165035000Y-59671887D01*
X164925767Y-59122736D01*
X164614698Y-58657189D01*
X164149151Y-58346120D01*
X163600000Y-58236887D01*
X163050849Y-58346120D01*
X162585302Y-58657189D01*
X162274233Y-59122736D01*
X162165000Y-59671887D01*
X161310000Y-59671887D01*
X161310000Y-59623846D01*
X161208379Y-59112964D01*
X160918988Y-58679858D01*
X160485882Y-58390467D01*
X159975000Y-58288846D01*
X159464118Y-58390467D01*
X159031012Y-58679858D01*
X158741621Y-59112964D01*
X158640000Y-59623846D01*
X156268978Y-59623846D01*
X154810000Y-58164868D01*
X154810000Y-58106887D01*
X154715991Y-57634273D01*
X154448277Y-57233610D01*
X154047614Y-56965896D01*
X153575000Y-56871887D01*
X153102386Y-56965896D01*
X152701723Y-57233610D01*
X152434009Y-57634273D01*
X152340000Y-58106887D01*
X152340000Y-58352767D01*
X152305000Y-58345805D01*
X151832386Y-58439814D01*
X151431723Y-58707528D01*
X151164009Y-59108191D01*
X151070000Y-59580805D01*
X151070000Y-59629195D01*
X151164009Y-60101809D01*
X151431723Y-60502472D01*
X151832386Y-60770186D01*
X152305000Y-60864195D01*
X152340000Y-60857233D01*
X152340000Y-60899195D01*
X152434009Y-61371809D01*
X152701723Y-61772472D01*
X153102386Y-62040186D01*
X153575000Y-62134195D01*
X154047614Y-62040186D01*
X154448277Y-61772472D01*
X154715991Y-61371809D01*
X154731037Y-61296169D01*
X157239999Y-63805131D01*
X157239999Y-66222007D01*
X157062204Y-66043902D01*
X156577957Y-65842825D01*
X151187567Y-60452435D01*
X151076453Y-60378191D01*
X150819347Y-60206398D01*
X150385001Y-60120001D01*
X148853206Y-60120001D01*
X148960000Y-59583113D01*
X148960000Y-59526887D01*
X148850767Y-58977736D01*
X148539698Y-58512189D01*
X148074151Y-58201120D01*
X147525000Y-58091887D01*
X146975849Y-58201120D01*
X146510302Y-58512189D01*
X146199233Y-58977736D01*
X146090000Y-59526887D01*
X146090000Y-59583113D01*
X146196794Y-60120001D01*
X143500134Y-60120001D01*
X142427566Y-59047434D01*
X142352387Y-58997201D01*
X142059346Y-58801397D01*
X141625000Y-58715000D01*
X132661998Y-58715000D01*
X132227652Y-58801397D01*
X131934611Y-58997201D01*
X131859432Y-59047434D01*
X129218965Y-61687901D01*
X129159533Y-61389118D01*
X128870142Y-60956012D01*
X128437036Y-60666621D01*
X127926154Y-60565000D01*
X127873846Y-60565000D01*
X127362964Y-60666621D01*
X126929858Y-60956012D01*
X126640467Y-61389118D01*
X126538846Y-61900000D01*
X118079533Y-61900000D01*
X118339533Y-61510882D01*
X118441154Y-61000000D01*
X118339533Y-60489118D01*
X118050142Y-60056012D01*
X117617036Y-59766621D01*
X117106154Y-59665000D01*
X117053846Y-59665000D01*
X116724664Y-59730478D01*
X117266672Y-59188471D01*
X117507468Y-59027576D01*
X119139873Y-57395171D01*
X124527799Y-57395171D01*
X124555770Y-57945448D01*
X124712540Y-58323923D01*
X124953483Y-58391912D01*
X125745395Y-57600000D01*
X124953483Y-56808088D01*
X124712540Y-56876077D01*
X124527799Y-57395171D01*
X119139873Y-57395171D01*
X119906561Y-56628483D01*
X125133088Y-56628483D01*
X125925000Y-57420395D01*
X125939143Y-57406253D01*
X126118748Y-57585858D01*
X126104605Y-57600000D01*
X126118748Y-57614143D01*
X125939143Y-57793748D01*
X125925000Y-57779605D01*
X125133088Y-58571517D01*
X125201077Y-58812460D01*
X125720171Y-58997201D01*
X126270448Y-58969230D01*
X126648923Y-58812460D01*
X126669981Y-58737835D01*
X126710910Y-58801441D01*
X126923110Y-58946431D01*
X127175000Y-58997440D01*
X128675000Y-58997440D01*
X128910317Y-58953162D01*
X129126441Y-58814090D01*
X129271431Y-58601890D01*
X129322440Y-58350000D01*
X129322440Y-56850000D01*
X129278162Y-56614683D01*
X129139090Y-56398559D01*
X128926890Y-56253569D01*
X128675000Y-56202560D01*
X127175000Y-56202560D01*
X126939683Y-56246838D01*
X126723559Y-56385910D01*
X126670412Y-56463693D01*
X126648923Y-56387540D01*
X126129829Y-56202799D01*
X125579552Y-56230770D01*
X125201077Y-56387540D01*
X125133088Y-56628483D01*
X119906561Y-56628483D01*
X122825044Y-53710000D01*
X153397796Y-53710000D01*
X153647637Y-53960278D01*
X154248352Y-54209716D01*
X154898795Y-54210284D01*
X155499943Y-53961894D01*
X155825164Y-53637241D01*
X156147637Y-53960278D01*
X156748352Y-54209716D01*
X157398795Y-54210284D01*
X157999943Y-53961894D01*
X158234715Y-53727532D01*
X158602073Y-53727532D01*
X158700736Y-53994387D01*
X159310461Y-54220908D01*
X159960460Y-54196856D01*
X160449264Y-53994387D01*
X160547927Y-53727532D01*
X159575000Y-52754605D01*
X158602073Y-53727532D01*
X158234715Y-53727532D01*
X158416752Y-53545813D01*
X158422468Y-53547927D01*
X159395395Y-52575000D01*
X159754605Y-52575000D01*
X160727532Y-53547927D01*
X160994387Y-53449264D01*
X161220908Y-52839539D01*
X161196856Y-52189540D01*
X160994387Y-51700736D01*
X160727532Y-51602073D01*
X159754605Y-52575000D01*
X159395395Y-52575000D01*
X158422468Y-51602073D01*
X158416278Y-51604361D01*
X158137241Y-51324836D01*
X158234715Y-51227532D01*
X158602073Y-51227532D01*
X158638109Y-51325000D01*
X158602073Y-51422468D01*
X159575000Y-52395395D01*
X160547927Y-51422468D01*
X160511891Y-51325000D01*
X160547927Y-51227532D01*
X159575000Y-50254605D01*
X158602073Y-51227532D01*
X158234715Y-51227532D01*
X158416752Y-51045813D01*
X158422468Y-51047927D01*
X159395395Y-50075000D01*
X159754605Y-50075000D01*
X160727532Y-51047927D01*
X160994387Y-50949264D01*
X161220908Y-50339539D01*
X161196856Y-49689540D01*
X160994387Y-49200736D01*
X160727532Y-49102073D01*
X159754605Y-50075000D01*
X159395395Y-50075000D01*
X158422468Y-49102073D01*
X158416278Y-49104361D01*
X158234703Y-48922468D01*
X158602073Y-48922468D01*
X159575000Y-49895395D01*
X160547927Y-48922468D01*
X160449264Y-48655613D01*
X159839539Y-48429092D01*
X159189540Y-48453144D01*
X158700736Y-48655613D01*
X158602073Y-48922468D01*
X158234703Y-48922468D01*
X158002363Y-48689722D01*
X157401648Y-48440284D01*
X156751205Y-48439716D01*
X156150057Y-48688106D01*
X155824836Y-49012759D01*
X155502363Y-48689722D01*
X154901648Y-48440284D01*
X154251205Y-48439716D01*
X153650057Y-48688106D01*
X153397722Y-48940000D01*
X122875000Y-48940000D01*
X122440654Y-49026397D01*
X122072433Y-49272434D01*
X118239917Y-53104951D01*
X118334716Y-52876648D01*
X118335284Y-52226205D01*
X118086894Y-51625057D01*
X117762241Y-51299836D01*
X118085278Y-50977363D01*
X118334716Y-50376648D01*
X118335284Y-49726205D01*
X118086894Y-49125057D01*
X117627363Y-48664722D01*
X117026648Y-48415284D01*
X116376205Y-48414716D01*
X115775057Y-48663106D01*
X115358248Y-49079187D01*
X115352532Y-49077073D01*
X114379605Y-50050000D01*
X115352532Y-51022927D01*
X115358722Y-51020639D01*
X115637759Y-51300164D01*
X115358248Y-51579187D01*
X115352532Y-51577073D01*
X114379605Y-52550000D01*
X115352532Y-53522927D01*
X115358722Y-53520639D01*
X115772637Y-53935278D01*
X116373352Y-54184716D01*
X117023795Y-54185284D01*
X117255198Y-54089670D01*
X116258330Y-55086538D01*
X116017531Y-55247435D01*
X113274966Y-57990000D01*
X108175000Y-57990000D01*
X107740654Y-58076397D01*
X107422702Y-58288846D01*
X107372434Y-58322434D01*
X105522434Y-60172434D01*
X105276397Y-60540654D01*
X105269338Y-60576143D01*
X105132418Y-60244771D01*
X104757204Y-59868902D01*
X104266713Y-59665232D01*
X103735617Y-59664769D01*
X103244771Y-59867582D01*
X102868902Y-60242796D01*
X102665232Y-60733287D01*
X102664769Y-61264383D01*
X96710000Y-61264383D01*
X96710000Y-50373795D01*
X110064716Y-50373795D01*
X110313106Y-50974943D01*
X110637759Y-51300164D01*
X110314722Y-51622637D01*
X110065284Y-52223352D01*
X110064716Y-52873795D01*
X110313106Y-53474943D01*
X110772637Y-53935278D01*
X111373352Y-54184716D01*
X112023795Y-54185284D01*
X112624943Y-53936894D01*
X112859715Y-53702532D01*
X113227073Y-53702532D01*
X113325736Y-53969387D01*
X113935461Y-54195908D01*
X114585460Y-54171856D01*
X115074264Y-53969387D01*
X115172927Y-53702532D01*
X114200000Y-52729605D01*
X113227073Y-53702532D01*
X112859715Y-53702532D01*
X113041752Y-53520813D01*
X113047468Y-53522927D01*
X114020395Y-52550000D01*
X113047468Y-51577073D01*
X113041278Y-51579361D01*
X112762241Y-51299836D01*
X112859715Y-51202532D01*
X113227073Y-51202532D01*
X113263109Y-51300000D01*
X113227073Y-51397468D01*
X114200000Y-52370395D01*
X115172927Y-51397468D01*
X115136891Y-51300000D01*
X115172927Y-51202532D01*
X114200000Y-50229605D01*
X113227073Y-51202532D01*
X112859715Y-51202532D01*
X113041752Y-51020813D01*
X113047468Y-51022927D01*
X114020395Y-50050000D01*
X113047468Y-49077073D01*
X113041278Y-49079361D01*
X112859703Y-48897468D01*
X113227073Y-48897468D01*
X114200000Y-49870395D01*
X115172927Y-48897468D01*
X115074264Y-48630613D01*
X114464539Y-48404092D01*
X113814540Y-48428144D01*
X113325736Y-48630613D01*
X113227073Y-48897468D01*
X112859703Y-48897468D01*
X112627363Y-48664722D01*
X112026648Y-48415284D01*
X111376205Y-48414716D01*
X110775057Y-48663106D01*
X110314722Y-49122637D01*
X110065284Y-49723352D01*
X110064716Y-50373795D01*
X96710000Y-50373795D01*
X96710000Y-45710000D01*
X178290000Y-45710000D01*
X178290000Y-103290000D01*
X178290000Y-103290000D01*
G37*
X178290000Y-103290000D02*
X96710000Y-103290000D01*
X96710000Y-100748694D01*
X131440226Y-100748694D01*
X131688538Y-101349655D01*
X132147927Y-101809846D01*
X132748453Y-102059206D01*
X133398694Y-102059774D01*
X133999655Y-101811462D01*
X134459846Y-101352073D01*
X134709206Y-100751547D01*
X134709252Y-100698694D01*
X146690226Y-100698694D01*
X146938538Y-101299655D01*
X147397927Y-101759846D01*
X147998453Y-102009206D01*
X148648694Y-102009774D01*
X149249655Y-101761462D01*
X149709846Y-101302073D01*
X149959206Y-100701547D01*
X149959774Y-100051306D01*
X149711462Y-99450345D01*
X149252073Y-98990154D01*
X148651547Y-98740794D01*
X148001306Y-98740226D01*
X147400345Y-98988538D01*
X146940154Y-99447927D01*
X146690794Y-100048453D01*
X146690226Y-100698694D01*
X134709252Y-100698694D01*
X134709774Y-100101306D01*
X134461462Y-99500345D01*
X134002073Y-99040154D01*
X133401547Y-98790794D01*
X132751306Y-98790226D01*
X132150345Y-99038538D01*
X131690154Y-99497927D01*
X131440794Y-100098453D01*
X131440226Y-100748694D01*
X96710000Y-100748694D01*
X96710000Y-97970907D01*
X100895000Y-97970907D01*
X100895000Y-98029093D01*
X101008039Y-98597378D01*
X101329946Y-99079147D01*
X101811715Y-99401054D01*
X102380000Y-99514093D01*
X102948285Y-99401054D01*
X103430054Y-99079147D01*
X103650000Y-98749974D01*
X103869946Y-99079147D01*
X104351715Y-99401054D01*
X104920000Y-99514093D01*
X105488285Y-99401054D01*
X105970054Y-99079147D01*
X106190000Y-98749974D01*
X106409946Y-99079147D01*
X106891715Y-99401054D01*
X107460000Y-99514093D01*
X108028285Y-99401054D01*
X108510054Y-99079147D01*
X108537850Y-99037548D01*
X108546838Y-99085317D01*
X108685910Y-99301441D01*
X108898110Y-99446431D01*
X109150000Y-99497440D01*
X110850000Y-99497440D01*
X111085317Y-99453162D01*
X111301441Y-99314090D01*
X111446431Y-99101890D01*
X111497440Y-98850000D01*
X111497440Y-97970907D01*
X136435000Y-97970907D01*
X136435000Y-98029093D01*
X136548039Y-98597378D01*
X136869946Y-99079147D01*
X137351715Y-99401054D01*
X137920000Y-99514093D01*
X138488285Y-99401054D01*
X138970054Y-99079147D01*
X139190000Y-98749974D01*
X139409946Y-99079147D01*
X139891715Y-99401054D01*
X140460000Y-99514093D01*
X141028285Y-99401054D01*
X141510054Y-99079147D01*
X141539403Y-99035223D01*
X141611673Y-99209698D01*
X141790301Y-99388327D01*
X142023690Y-99485000D01*
X142714250Y-99485000D01*
X142873000Y-99326250D01*
X142873000Y-98127000D01*
X143127000Y-98127000D01*
X143127000Y-99326250D01*
X143285750Y-99485000D01*
X143976310Y-99485000D01*
X144209699Y-99388327D01*
X144388327Y-99209698D01*
X144485000Y-98976309D01*
X144485000Y-98356892D01*
X167903514Y-98356892D01*
X168149817Y-98881358D01*
X168578076Y-99271645D01*
X168988110Y-99441476D01*
X169218000Y-99320155D01*
X169218000Y-98127000D01*
X168024181Y-98127000D01*
X167903514Y-98356892D01*
X144485000Y-98356892D01*
X144485000Y-98285750D01*
X144326250Y-98127000D01*
X143127000Y-98127000D01*
X142873000Y-98127000D01*
X142853000Y-98127000D01*
X142853000Y-97873000D01*
X142873000Y-97873000D01*
X142873000Y-96673750D01*
X143127000Y-96673750D01*
X143127000Y-97873000D01*
X144326250Y-97873000D01*
X144485000Y-97714250D01*
X144485000Y-97643108D01*
X167903514Y-97643108D01*
X168024181Y-97873000D01*
X169218000Y-97873000D01*
X169218000Y-96679845D01*
X169472000Y-96679845D01*
X169472000Y-97873000D01*
X169492000Y-97873000D01*
X169492000Y-98127000D01*
X169472000Y-98127000D01*
X169472000Y-99320155D01*
X169701890Y-99441476D01*
X170111924Y-99271645D01*
X170540183Y-98881358D01*
X170607298Y-98738447D01*
X170834946Y-99079147D01*
X171316715Y-99401054D01*
X171885000Y-99514093D01*
X172453285Y-99401054D01*
X172935054Y-99079147D01*
X172962850Y-99037548D01*
X172971838Y-99085317D01*
X173110910Y-99301441D01*
X173323110Y-99446431D01*
X173575000Y-99497440D01*
X175275000Y-99497440D01*
X175510317Y-99453162D01*
X175726441Y-99314090D01*
X175871431Y-99101890D01*
X175922440Y-98850000D01*
X175922440Y-97150000D01*
X175878162Y-96914683D01*
X175739090Y-96698559D01*
X175526890Y-96553569D01*
X175275000Y-96502560D01*
X173575000Y-96502560D01*
X173339683Y-96546838D01*
X173123559Y-96685910D01*
X172978569Y-96898110D01*
X172964914Y-96965541D01*
X172935054Y-96920853D01*
X172453285Y-96598946D01*
X171885000Y-96485907D01*
X171316715Y-96598946D01*
X170834946Y-96920853D01*
X170607298Y-97261553D01*
X170540183Y-97118642D01*
X170111924Y-96728355D01*
X169701890Y-96558524D01*
X169472000Y-96679845D01*
X169218000Y-96679845D01*
X168988110Y-96558524D01*
X168578076Y-96728355D01*
X168149817Y-97118642D01*
X167903514Y-97643108D01*
X144485000Y-97643108D01*
X144485000Y-97023691D01*
X144388327Y-96790302D01*
X144209699Y-96611673D01*
X143976310Y-96515000D01*
X143285750Y-96515000D01*
X143127000Y-96673750D01*
X142873000Y-96673750D01*
X142714250Y-96515000D01*
X142023690Y-96515000D01*
X141790301Y-96611673D01*
X141611673Y-96790302D01*
X141539403Y-96964777D01*
X141510054Y-96920853D01*
X141028285Y-96598946D01*
X140460000Y-96485907D01*
X139891715Y-96598946D01*
X139409946Y-96920853D01*
X139190000Y-97250026D01*
X138970054Y-96920853D01*
X138488285Y-96598946D01*
X137920000Y-96485907D01*
X137351715Y-96598946D01*
X136869946Y-96920853D01*
X136548039Y-97402622D01*
X136435000Y-97970907D01*
X111497440Y-97970907D01*
X111497440Y-97150000D01*
X111453162Y-96914683D01*
X111314090Y-96698559D01*
X111101890Y-96553569D01*
X110850000Y-96502560D01*
X109150000Y-96502560D01*
X108914683Y-96546838D01*
X108698559Y-96685910D01*
X108553569Y-96898110D01*
X108539914Y-96965541D01*
X108510054Y-96920853D01*
X108028285Y-96598946D01*
X107460000Y-96485907D01*
X106891715Y-96598946D01*
X106409946Y-96920853D01*
X106190000Y-97250026D01*
X105970054Y-96920853D01*
X105488285Y-96598946D01*
X104920000Y-96485907D01*
X104351715Y-96598946D01*
X103869946Y-96920853D01*
X103650000Y-97250026D01*
X103430054Y-96920853D01*
X102948285Y-96598946D01*
X102380000Y-96485907D01*
X101811715Y-96598946D01*
X101329946Y-96920853D01*
X101008039Y-97402622D01*
X100895000Y-97970907D01*
X96710000Y-97970907D01*
X96710000Y-96474775D01*
X162664803Y-96474775D01*
X162837233Y-96892086D01*
X163156235Y-97211645D01*
X163573244Y-97384803D01*
X164024775Y-97385197D01*
X164025252Y-97385000D01*
X165050000Y-97385000D01*
X165484346Y-97298603D01*
X165852566Y-97052566D01*
X167202566Y-95702566D01*
X167448603Y-95334346D01*
X167535000Y-94900000D01*
X167535000Y-93177807D01*
X167717049Y-92739383D01*
X168989769Y-92739383D01*
X169192582Y-93230229D01*
X169567796Y-93606098D01*
X170058287Y-93809768D01*
X170589383Y-93810231D01*
X171080229Y-93607418D01*
X171456098Y-93232204D01*
X171659768Y-92741713D01*
X171660231Y-92210617D01*
X171457418Y-91719771D01*
X171082204Y-91343902D01*
X170591713Y-91140232D01*
X170060617Y-91139769D01*
X169569771Y-91342582D01*
X169193902Y-91717796D01*
X168990232Y-92208287D01*
X168989769Y-92739383D01*
X167717049Y-92739383D01*
X167734768Y-92696713D01*
X167735231Y-92165617D01*
X167532418Y-91674771D01*
X167157204Y-91298902D01*
X166666713Y-91095232D01*
X166135617Y-91094769D01*
X165644771Y-91297582D01*
X165268902Y-91672796D01*
X165065232Y-92163287D01*
X165064769Y-92694383D01*
X165265000Y-93178980D01*
X165265000Y-94429868D01*
X164579868Y-95115000D01*
X163800990Y-95115000D01*
X163575225Y-95114803D01*
X163157914Y-95287233D01*
X162838355Y-95606235D01*
X162665197Y-96023244D01*
X162664803Y-96474775D01*
X96710000Y-96474775D01*
X96710000Y-93284187D01*
X98564752Y-93284187D01*
X98782757Y-93811800D01*
X99186077Y-94215824D01*
X99713309Y-94434750D01*
X100284187Y-94435248D01*
X100811800Y-94217243D01*
X101215824Y-93813923D01*
X101434750Y-93286691D01*
X101434752Y-93284187D01*
X105564752Y-93284187D01*
X105782757Y-93811800D01*
X106186077Y-94215824D01*
X106713309Y-94434750D01*
X107284187Y-94435248D01*
X107811800Y-94217243D01*
X108215824Y-93813923D01*
X108434750Y-93286691D01*
X108434752Y-93284187D01*
X112564752Y-93284187D01*
X112782757Y-93811800D01*
X113186077Y-94215824D01*
X113713309Y-94434750D01*
X114284187Y-94435248D01*
X114811800Y-94217243D01*
X115215824Y-93813923D01*
X115434750Y-93286691D01*
X115434752Y-93284187D01*
X119564752Y-93284187D01*
X119782757Y-93811800D01*
X120186077Y-94215824D01*
X120713309Y-94434750D01*
X121284187Y-94435248D01*
X121811800Y-94217243D01*
X122215824Y-93813923D01*
X122434750Y-93286691D01*
X122434887Y-93128694D01*
X131440226Y-93128694D01*
X131688538Y-93729655D01*
X132147927Y-94189846D01*
X132748453Y-94439206D01*
X133398694Y-94439774D01*
X133999655Y-94191462D01*
X134459846Y-93732073D01*
X134709206Y-93131547D01*
X134709252Y-93078694D01*
X146690226Y-93078694D01*
X146938538Y-93679655D01*
X147397927Y-94139846D01*
X147998453Y-94389206D01*
X148648694Y-94389774D01*
X149249655Y-94141462D01*
X149709846Y-93682073D01*
X149959206Y-93081547D01*
X149959570Y-92664383D01*
X157114769Y-92664383D01*
X157317582Y-93155229D01*
X157692796Y-93531098D01*
X158183287Y-93734768D01*
X158714383Y-93735231D01*
X159205229Y-93532418D01*
X159581098Y-93157204D01*
X159783659Y-92669383D01*
X161064769Y-92669383D01*
X161267582Y-93160229D01*
X161642796Y-93536098D01*
X162133287Y-93739768D01*
X162664383Y-93740231D01*
X163155229Y-93537418D01*
X163531098Y-93162204D01*
X163734768Y-92671713D01*
X163735231Y-92140617D01*
X163532418Y-91649771D01*
X163157204Y-91273902D01*
X162666713Y-91070232D01*
X162135617Y-91069769D01*
X161644771Y-91272582D01*
X161268902Y-91647796D01*
X161065232Y-92138287D01*
X161064769Y-92669383D01*
X159783659Y-92669383D01*
X159784768Y-92666713D01*
X159785231Y-92135617D01*
X159582418Y-91644771D01*
X159207204Y-91268902D01*
X158716713Y-91065232D01*
X158185617Y-91064769D01*
X157694771Y-91267582D01*
X157318902Y-91642796D01*
X157115232Y-92133287D01*
X157114769Y-92664383D01*
X149959570Y-92664383D01*
X149959774Y-92431306D01*
X149711462Y-91830345D01*
X149252073Y-91370154D01*
X148651547Y-91120794D01*
X148001306Y-91120226D01*
X147400345Y-91368538D01*
X146940154Y-91827927D01*
X146690794Y-92428453D01*
X146690226Y-93078694D01*
X134709252Y-93078694D01*
X134709774Y-92481306D01*
X134461462Y-91880345D01*
X134002073Y-91420154D01*
X133401547Y-91170794D01*
X132751306Y-91170226D01*
X132150345Y-91418538D01*
X131690154Y-91877927D01*
X131440794Y-92478453D01*
X131440226Y-93128694D01*
X122434887Y-93128694D01*
X122435248Y-92715813D01*
X122217243Y-92188200D01*
X121813923Y-91784176D01*
X121286691Y-91565250D01*
X120715813Y-91564752D01*
X120188200Y-91782757D01*
X119784176Y-92186077D01*
X119565250Y-92713309D01*
X119564752Y-93284187D01*
X115434752Y-93284187D01*
X115435248Y-92715813D01*
X115217243Y-92188200D01*
X114813923Y-91784176D01*
X114286691Y-91565250D01*
X113715813Y-91564752D01*
X113188200Y-91782757D01*
X112784176Y-92186077D01*
X112565250Y-92713309D01*
X112564752Y-93284187D01*
X108434752Y-93284187D01*
X108435248Y-92715813D01*
X108217243Y-92188200D01*
X107813923Y-91784176D01*
X107286691Y-91565250D01*
X106715813Y-91564752D01*
X106188200Y-91782757D01*
X105784176Y-92186077D01*
X105565250Y-92713309D01*
X105564752Y-93284187D01*
X101434752Y-93284187D01*
X101435248Y-92715813D01*
X101217243Y-92188200D01*
X100813923Y-91784176D01*
X100286691Y-91565250D01*
X99715813Y-91564752D01*
X99188200Y-91782757D01*
X98784176Y-92186077D01*
X98565250Y-92713309D01*
X98564752Y-93284187D01*
X96710000Y-93284187D01*
X96710000Y-88284187D01*
X98564752Y-88284187D01*
X98782757Y-88811800D01*
X99186077Y-89215824D01*
X99713309Y-89434750D01*
X100284187Y-89435248D01*
X100811800Y-89217243D01*
X101215824Y-88813923D01*
X101434750Y-88286691D01*
X101434752Y-88284187D01*
X105564752Y-88284187D01*
X105782757Y-88811800D01*
X106186077Y-89215824D01*
X106713309Y-89434750D01*
X107284187Y-89435248D01*
X107811800Y-89217243D01*
X108215824Y-88813923D01*
X108434750Y-88286691D01*
X108434752Y-88284187D01*
X112564752Y-88284187D01*
X112782757Y-88811800D01*
X113186077Y-89215824D01*
X113713309Y-89434750D01*
X114284187Y-89435248D01*
X114811800Y-89217243D01*
X115215824Y-88813923D01*
X115434750Y-88286691D01*
X115434752Y-88284187D01*
X119564752Y-88284187D01*
X119782757Y-88811800D01*
X120186077Y-89215824D01*
X120713309Y-89434750D01*
X121284187Y-89435248D01*
X121811800Y-89217243D01*
X122215824Y-88813923D01*
X122218389Y-88807745D01*
X129646861Y-88807745D01*
X129720995Y-89053864D01*
X130258223Y-89246965D01*
X130828454Y-89219778D01*
X131229005Y-89053864D01*
X131303139Y-88807745D01*
X130475000Y-87979605D01*
X129646861Y-88807745D01*
X122218389Y-88807745D01*
X122434750Y-88286691D01*
X122435248Y-87715813D01*
X122380463Y-87583223D01*
X129028035Y-87583223D01*
X129055222Y-88153454D01*
X129221136Y-88554005D01*
X129467255Y-88628139D01*
X130295395Y-87800000D01*
X130654605Y-87800000D01*
X131482745Y-88628139D01*
X131530167Y-88613855D01*
X131571838Y-88835317D01*
X131710910Y-89051441D01*
X131923110Y-89196431D01*
X132175000Y-89247440D01*
X133775000Y-89247440D01*
X134010317Y-89203162D01*
X134226441Y-89064090D01*
X134371431Y-88851890D01*
X134422440Y-88600000D01*
X134422440Y-87000000D01*
X134378162Y-86764683D01*
X134239090Y-86548559D01*
X134026890Y-86403569D01*
X133775000Y-86352560D01*
X132175000Y-86352560D01*
X131939683Y-86396838D01*
X131723559Y-86535910D01*
X131578569Y-86748110D01*
X131530354Y-86986201D01*
X131482745Y-86971861D01*
X130654605Y-87800000D01*
X130295395Y-87800000D01*
X129467255Y-86971861D01*
X129221136Y-87045995D01*
X129028035Y-87583223D01*
X122380463Y-87583223D01*
X122217243Y-87188200D01*
X121821988Y-86792255D01*
X129646861Y-86792255D01*
X130475000Y-87620395D01*
X131303139Y-86792255D01*
X131229005Y-86546136D01*
X130691777Y-86353035D01*
X130121546Y-86380222D01*
X129720995Y-86546136D01*
X129646861Y-86792255D01*
X121821988Y-86792255D01*
X121813923Y-86784176D01*
X121286691Y-86565250D01*
X120715813Y-86564752D01*
X120188200Y-86782757D01*
X119784176Y-87186077D01*
X119565250Y-87713309D01*
X119564752Y-88284187D01*
X115434752Y-88284187D01*
X115435248Y-87715813D01*
X115217243Y-87188200D01*
X114813923Y-86784176D01*
X114286691Y-86565250D01*
X113715813Y-86564752D01*
X113188200Y-86782757D01*
X112784176Y-87186077D01*
X112565250Y-87713309D01*
X112564752Y-88284187D01*
X108434752Y-88284187D01*
X108435248Y-87715813D01*
X108217243Y-87188200D01*
X107813923Y-86784176D01*
X107286691Y-86565250D01*
X106715813Y-86564752D01*
X106188200Y-86782757D01*
X105784176Y-87186077D01*
X105565250Y-87713309D01*
X105564752Y-88284187D01*
X101434752Y-88284187D01*
X101435248Y-87715813D01*
X101217243Y-87188200D01*
X100813923Y-86784176D01*
X100286691Y-86565250D01*
X99715813Y-86564752D01*
X99188200Y-86782757D01*
X98784176Y-87186077D01*
X98565250Y-87713309D01*
X98564752Y-88284187D01*
X96710000Y-88284187D01*
X96710000Y-85053846D01*
X105665000Y-85053846D01*
X105665000Y-85106154D01*
X105766621Y-85617036D01*
X106056012Y-86050142D01*
X106489118Y-86339533D01*
X107000000Y-86441154D01*
X107510882Y-86339533D01*
X107943988Y-86050142D01*
X108233379Y-85617036D01*
X108335000Y-85106154D01*
X108335000Y-85053846D01*
X119665000Y-85053846D01*
X119665000Y-85106154D01*
X119766621Y-85617036D01*
X120056012Y-86050142D01*
X120489118Y-86339533D01*
X121000000Y-86441154D01*
X121510882Y-86339533D01*
X121943988Y-86050142D01*
X122233379Y-85617036D01*
X122335000Y-85106154D01*
X122335000Y-85053846D01*
X122233379Y-84542964D01*
X121943988Y-84109858D01*
X121510882Y-83820467D01*
X121000000Y-83718846D01*
X120489118Y-83820467D01*
X120056012Y-84109858D01*
X119766621Y-84542964D01*
X119665000Y-85053846D01*
X108335000Y-85053846D01*
X108233379Y-84542964D01*
X107943988Y-84109858D01*
X107510882Y-83820467D01*
X107000000Y-83718846D01*
X106489118Y-83820467D01*
X106056012Y-84109858D01*
X105766621Y-84542964D01*
X105665000Y-85053846D01*
X96710000Y-85053846D01*
X96710000Y-80053846D01*
X98665000Y-80053846D01*
X98665000Y-80106154D01*
X98766621Y-80617036D01*
X99056012Y-81050142D01*
X99489118Y-81339533D01*
X100000000Y-81441154D01*
X100510882Y-81339533D01*
X100943988Y-81050142D01*
X101233379Y-80617036D01*
X101303526Y-80264383D01*
X105664769Y-80264383D01*
X105867582Y-80755229D01*
X106242796Y-81131098D01*
X106733287Y-81334768D01*
X107264383Y-81335231D01*
X107755229Y-81132418D01*
X108131098Y-80757204D01*
X108334768Y-80266713D01*
X108334953Y-80053846D01*
X112665000Y-80053846D01*
X112665000Y-80106154D01*
X112766621Y-80617036D01*
X113056012Y-81050142D01*
X113489118Y-81339533D01*
X114000000Y-81441154D01*
X114510882Y-81339533D01*
X114943988Y-81050142D01*
X115233379Y-80617036D01*
X115303526Y-80264383D01*
X119664769Y-80264383D01*
X119867582Y-80755229D01*
X120242796Y-81131098D01*
X120733287Y-81334768D01*
X121264383Y-81335231D01*
X121755229Y-81132418D01*
X122088227Y-80800000D01*
X124352560Y-80800000D01*
X124352560Y-82300000D01*
X124396838Y-82535317D01*
X124535910Y-82751441D01*
X124748110Y-82896431D01*
X125000000Y-82947440D01*
X126500000Y-82947440D01*
X126735317Y-82903162D01*
X126951441Y-82764090D01*
X127004588Y-82686307D01*
X127026077Y-82762460D01*
X127545171Y-82947201D01*
X128095448Y-82919230D01*
X128473923Y-82762460D01*
X128541912Y-82521517D01*
X127750000Y-81729605D01*
X127735858Y-81743748D01*
X127556253Y-81564143D01*
X127570395Y-81550000D01*
X127929605Y-81550000D01*
X128721517Y-82341912D01*
X128962460Y-82273923D01*
X129147201Y-81754829D01*
X129119230Y-81204552D01*
X128962460Y-80826077D01*
X128721517Y-80758088D01*
X127929605Y-81550000D01*
X127570395Y-81550000D01*
X127556253Y-81535858D01*
X127735858Y-81356253D01*
X127750000Y-81370395D01*
X128541912Y-80578483D01*
X128473923Y-80337540D01*
X127954829Y-80152799D01*
X127404552Y-80180770D01*
X127026077Y-80337540D01*
X127005019Y-80412165D01*
X126964090Y-80348559D01*
X126751890Y-80203569D01*
X126500000Y-80152560D01*
X125000000Y-80152560D01*
X124764683Y-80196838D01*
X124548559Y-80335910D01*
X124403569Y-80548110D01*
X124352560Y-80800000D01*
X122088227Y-80800000D01*
X122131098Y-80757204D01*
X122334768Y-80266713D01*
X122335231Y-79735617D01*
X122132418Y-79244771D01*
X121757204Y-78868902D01*
X121266713Y-78665232D01*
X120735617Y-78664769D01*
X120244771Y-78867582D01*
X119868902Y-79242796D01*
X119665232Y-79733287D01*
X119664769Y-80264383D01*
X115303526Y-80264383D01*
X115335000Y-80106154D01*
X115335000Y-80053846D01*
X115233379Y-79542964D01*
X114943988Y-79109858D01*
X114510882Y-78820467D01*
X114000000Y-78718846D01*
X113489118Y-78820467D01*
X113056012Y-79109858D01*
X112766621Y-79542964D01*
X112665000Y-80053846D01*
X108334953Y-80053846D01*
X108335231Y-79735617D01*
X108132418Y-79244771D01*
X107757204Y-78868902D01*
X107266713Y-78665232D01*
X106735617Y-78664769D01*
X106244771Y-78867582D01*
X105868902Y-79242796D01*
X105665232Y-79733287D01*
X105664769Y-80264383D01*
X101303526Y-80264383D01*
X101335000Y-80106154D01*
X101335000Y-80053846D01*
X101233379Y-79542964D01*
X100943988Y-79109858D01*
X100510882Y-78820467D01*
X100000000Y-78718846D01*
X99489118Y-78820467D01*
X99056012Y-79109858D01*
X98766621Y-79542964D01*
X98665000Y-80053846D01*
X96710000Y-80053846D01*
X96710000Y-77275000D01*
X124313846Y-77275000D01*
X124415467Y-77785882D01*
X124704858Y-78218988D01*
X125137964Y-78508379D01*
X125648846Y-78610000D01*
X125701154Y-78610000D01*
X126212036Y-78508379D01*
X126645142Y-78218988D01*
X126934533Y-77785882D01*
X126983564Y-77539383D01*
X129419769Y-77539383D01*
X129622582Y-78030229D01*
X129997796Y-78406098D01*
X130488287Y-78609768D01*
X131019383Y-78610231D01*
X131510229Y-78407418D01*
X131832505Y-78085704D01*
X131904858Y-78193988D01*
X132337964Y-78483379D01*
X132848846Y-78585000D01*
X132901154Y-78585000D01*
X133412036Y-78483379D01*
X133845142Y-78193988D01*
X134134533Y-77760882D01*
X134183564Y-77514383D01*
X136619769Y-77514383D01*
X136822582Y-78005229D01*
X137197796Y-78381098D01*
X137688287Y-78584768D01*
X138219383Y-78585231D01*
X138710229Y-78382418D01*
X139086098Y-78007204D01*
X139289768Y-77516713D01*
X139290231Y-76985617D01*
X139087418Y-76494771D01*
X138712204Y-76118902D01*
X138221713Y-75915232D01*
X137690617Y-75914769D01*
X137199771Y-76117582D01*
X136823902Y-76492796D01*
X136620232Y-76983287D01*
X136619769Y-77514383D01*
X134183564Y-77514383D01*
X134236154Y-77250000D01*
X134134533Y-76739118D01*
X133845142Y-76306012D01*
X133412036Y-76016621D01*
X132901154Y-75915000D01*
X132848846Y-75915000D01*
X132337964Y-76016621D01*
X131904858Y-76306012D01*
X131812305Y-76444527D01*
X131512204Y-76143902D01*
X131021713Y-75940232D01*
X130490617Y-75939769D01*
X129999771Y-76142582D01*
X129623902Y-76517796D01*
X129420232Y-77008287D01*
X129419769Y-77539383D01*
X126983564Y-77539383D01*
X127036154Y-77275000D01*
X126934533Y-76764118D01*
X126645142Y-76331012D01*
X126212036Y-76041621D01*
X125701154Y-75940000D01*
X125648846Y-75940000D01*
X125137964Y-76041621D01*
X124704858Y-76331012D01*
X124415467Y-76764118D01*
X124313846Y-77275000D01*
X96710000Y-77275000D01*
X96710000Y-75264383D01*
X98664769Y-75264383D01*
X98867582Y-75755229D01*
X99242796Y-76131098D01*
X99733287Y-76334768D01*
X100264383Y-76335231D01*
X100755229Y-76132418D01*
X101131098Y-75757204D01*
X101334768Y-75266713D01*
X101334770Y-75264383D01*
X112664769Y-75264383D01*
X112867582Y-75755229D01*
X113242796Y-76131098D01*
X113733287Y-76334768D01*
X114264383Y-76335231D01*
X114755229Y-76132418D01*
X115131098Y-75757204D01*
X115334768Y-75266713D01*
X115335231Y-74735617D01*
X115132418Y-74244771D01*
X114757204Y-73868902D01*
X114266713Y-73665232D01*
X113735617Y-73664769D01*
X113244771Y-73867582D01*
X112868902Y-74242796D01*
X112665232Y-74733287D01*
X112664769Y-75264383D01*
X101334770Y-75264383D01*
X101335231Y-74735617D01*
X101132418Y-74244771D01*
X100757204Y-73868902D01*
X100266713Y-73665232D01*
X99735617Y-73664769D01*
X99244771Y-73867582D01*
X98868902Y-74242796D01*
X98665232Y-74733287D01*
X98664769Y-75264383D01*
X96710000Y-75264383D01*
X96710000Y-66264383D01*
X102664769Y-66264383D01*
X102867582Y-66755229D01*
X103242796Y-67131098D01*
X103733287Y-67334768D01*
X104264383Y-67335231D01*
X104755229Y-67132418D01*
X105131098Y-66757204D01*
X105334768Y-66266713D01*
X105335231Y-65735617D01*
X105132418Y-65244771D01*
X104757204Y-64868902D01*
X104266713Y-64665232D01*
X103735617Y-64664769D01*
X103244771Y-64867582D01*
X102868902Y-65242796D01*
X102665232Y-65733287D01*
X102664769Y-66264383D01*
X96710000Y-66264383D01*
X96710000Y-61264383D01*
X102664769Y-61264383D01*
X102867582Y-61755229D01*
X103242796Y-62131098D01*
X103733287Y-62334768D01*
X104264383Y-62335231D01*
X104755229Y-62132418D01*
X105131098Y-61757204D01*
X105190000Y-61615352D01*
X105190000Y-63245000D01*
X105276397Y-63679346D01*
X105396173Y-63858603D01*
X105522434Y-64047566D01*
X107779427Y-66304559D01*
X107820467Y-66510882D01*
X108109858Y-66943988D01*
X108542964Y-67233379D01*
X109053846Y-67335000D01*
X109106154Y-67335000D01*
X109617036Y-67233379D01*
X110050142Y-66943988D01*
X110339533Y-66510882D01*
X110388564Y-66264383D01*
X110664769Y-66264383D01*
X110867582Y-66755229D01*
X111242796Y-67131098D01*
X111733287Y-67334768D01*
X112264383Y-67335231D01*
X112755229Y-67132418D01*
X113131098Y-66757204D01*
X113334768Y-66266713D01*
X113335000Y-66000000D01*
X115718846Y-66000000D01*
X115820467Y-66510882D01*
X116109858Y-66943988D01*
X116542964Y-67233379D01*
X117053846Y-67335000D01*
X117106154Y-67335000D01*
X117617036Y-67233379D01*
X118050142Y-66943988D01*
X118339533Y-66510882D01*
X118441154Y-66000000D01*
X118339533Y-65489118D01*
X118050142Y-65056012D01*
X117617036Y-64766621D01*
X117106154Y-64665000D01*
X117053846Y-64665000D01*
X116542964Y-64766621D01*
X116109858Y-65056012D01*
X115820467Y-65489118D01*
X115718846Y-66000000D01*
X113335000Y-66000000D01*
X113335231Y-65735617D01*
X113132418Y-65244771D01*
X112757204Y-64868902D01*
X112266713Y-64665232D01*
X111735617Y-64664769D01*
X111244771Y-64867582D01*
X110868902Y-65242796D01*
X110665232Y-65733287D01*
X110664769Y-66264383D01*
X110388564Y-66264383D01*
X110441154Y-66000000D01*
X110339533Y-65489118D01*
X110050142Y-65056012D01*
X109617036Y-64766621D01*
X109410713Y-64725581D01*
X107460000Y-62774868D01*
X107460000Y-61445132D01*
X107749753Y-61155379D01*
X107820467Y-61510882D01*
X108109858Y-61943988D01*
X108542964Y-62233379D01*
X109053846Y-62335000D01*
X109106154Y-62335000D01*
X109617036Y-62233379D01*
X110050142Y-61943988D01*
X110339533Y-61510882D01*
X110441154Y-61000000D01*
X110339533Y-60489118D01*
X110186442Y-60260000D01*
X110861758Y-60260000D01*
X110665232Y-60733287D01*
X110664769Y-61264383D01*
X110867582Y-61755229D01*
X111242796Y-62131098D01*
X111733287Y-62334768D01*
X112264383Y-62335231D01*
X112748980Y-62135000D01*
X113850010Y-62135000D01*
X114284356Y-62048603D01*
X114652576Y-61802566D01*
X115784325Y-60670818D01*
X115718846Y-61000000D01*
X115820467Y-61510882D01*
X116109858Y-61943988D01*
X116542964Y-62233379D01*
X117053846Y-62335000D01*
X117106154Y-62335000D01*
X117617036Y-62233379D01*
X118050142Y-61943988D01*
X118079533Y-61900000D01*
X126538846Y-61900000D01*
X126640467Y-62410882D01*
X126929858Y-62843988D01*
X127362964Y-63133379D01*
X127873846Y-63235000D01*
X127924104Y-63235000D01*
X127870000Y-63506998D01*
X127870000Y-64610376D01*
X127679233Y-64895879D01*
X127570000Y-65445030D01*
X127570000Y-66214970D01*
X127679233Y-66764121D01*
X127990302Y-67229668D01*
X128455849Y-67540737D01*
X129005000Y-67649970D01*
X129554151Y-67540737D01*
X130019698Y-67229668D01*
X130275000Y-66847582D01*
X130530302Y-67229668D01*
X130995849Y-67540737D01*
X131545000Y-67649970D01*
X132094151Y-67540737D01*
X132559698Y-67229668D01*
X132815000Y-66847582D01*
X133070302Y-67229668D01*
X133535849Y-67540737D01*
X134085000Y-67649970D01*
X134634151Y-67540737D01*
X135099698Y-67229668D01*
X135355000Y-66847582D01*
X135610302Y-67229668D01*
X136075849Y-67540737D01*
X136625000Y-67649970D01*
X137174151Y-67540737D01*
X137639698Y-67229668D01*
X137950767Y-66764121D01*
X138060000Y-66214970D01*
X138060000Y-65445030D01*
X137950767Y-64895879D01*
X137639698Y-64430332D01*
X137174151Y-64119263D01*
X136625000Y-64010030D01*
X136075849Y-64119263D01*
X135610302Y-64430332D01*
X135355000Y-64812418D01*
X135099698Y-64430332D01*
X134634151Y-64119263D01*
X134085000Y-64010030D01*
X133535849Y-64119263D01*
X133070302Y-64430332D01*
X132815000Y-64812418D01*
X132559698Y-64430332D01*
X132094151Y-64119263D01*
X131545000Y-64010030D01*
X130995849Y-64119263D01*
X130530302Y-64430332D01*
X130275000Y-64812418D01*
X130140000Y-64610376D01*
X130140000Y-63977130D01*
X131734816Y-62382314D01*
X131847582Y-62655229D01*
X132222796Y-63031098D01*
X132713287Y-63234768D01*
X133244383Y-63235231D01*
X133735229Y-63032418D01*
X134111098Y-62657204D01*
X134175853Y-62501257D01*
X134404858Y-62843988D01*
X134837964Y-63133379D01*
X135348846Y-63235000D01*
X135401154Y-63235000D01*
X135912036Y-63133379D01*
X136345142Y-62843988D01*
X136634533Y-62410882D01*
X136736154Y-61900000D01*
X136634533Y-61389118D01*
X136364511Y-60985000D01*
X139481973Y-60985000D01*
X139323902Y-61142796D01*
X139120232Y-61633287D01*
X139119769Y-62164383D01*
X139322582Y-62655229D01*
X139697796Y-63031098D01*
X140182043Y-63232175D01*
X141240000Y-64290132D01*
X141240000Y-70610020D01*
X140993765Y-70363355D01*
X140576756Y-70190197D01*
X140125225Y-70189803D01*
X140124748Y-70190000D01*
X130930683Y-70190000D01*
X130805000Y-70165000D01*
X130442717Y-70237063D01*
X130370654Y-70251397D01*
X130002434Y-70497434D01*
X128836277Y-71663591D01*
X128455849Y-71739263D01*
X127990302Y-72050332D01*
X127679233Y-72515879D01*
X127570000Y-73065030D01*
X127570000Y-73834970D01*
X127679233Y-74384121D01*
X127990302Y-74849668D01*
X128455849Y-75160737D01*
X129005000Y-75269970D01*
X129554151Y-75160737D01*
X130019698Y-74849668D01*
X130275000Y-74467582D01*
X130530302Y-74849668D01*
X130995849Y-75160737D01*
X131545000Y-75269970D01*
X132094151Y-75160737D01*
X132559698Y-74849668D01*
X132815000Y-74467582D01*
X133070302Y-74849668D01*
X133535849Y-75160737D01*
X134085000Y-75269970D01*
X134634151Y-75160737D01*
X135099698Y-74849668D01*
X135355000Y-74467582D01*
X135610302Y-74849668D01*
X136075849Y-75160737D01*
X136625000Y-75269970D01*
X137174151Y-75160737D01*
X137639698Y-74849668D01*
X137950767Y-74384121D01*
X138060000Y-73834970D01*
X138060000Y-73065030D01*
X137950767Y-72515879D01*
X137913430Y-72460000D01*
X140349009Y-72460000D01*
X140574775Y-72460197D01*
X140992086Y-72287767D01*
X141240000Y-72040285D01*
X141240000Y-91178306D01*
X141190197Y-91298244D01*
X141189803Y-91749775D01*
X141362233Y-92167086D01*
X141681235Y-92486645D01*
X142098244Y-92659803D01*
X142549775Y-92660197D01*
X142967086Y-92487767D01*
X143286645Y-92168765D01*
X143346368Y-92024936D01*
X143423604Y-91909345D01*
X143450488Y-91774189D01*
X143459803Y-91751756D01*
X143459824Y-91727252D01*
X143510000Y-91475000D01*
X143510000Y-72939383D01*
X150109769Y-72939383D01*
X150312582Y-73430229D01*
X150687796Y-73806098D01*
X151178287Y-74009768D01*
X151709383Y-74010231D01*
X152200229Y-73807418D01*
X152576098Y-73432204D01*
X152779768Y-72941713D01*
X152780231Y-72410617D01*
X152577418Y-71919771D01*
X152202204Y-71543902D01*
X151711713Y-71340232D01*
X151180617Y-71339769D01*
X150689771Y-71542582D01*
X150313902Y-71917796D01*
X150110232Y-72408287D01*
X150109769Y-72939383D01*
X143510000Y-72939383D01*
X143510000Y-71151887D01*
X146090000Y-71151887D01*
X146090000Y-71208113D01*
X146199233Y-71757264D01*
X146510302Y-72222811D01*
X146975849Y-72533880D01*
X147525000Y-72643113D01*
X148074151Y-72533880D01*
X148539698Y-72222811D01*
X148850767Y-71757264D01*
X148960000Y-71208113D01*
X148960000Y-71151887D01*
X148850767Y-70602736D01*
X148539698Y-70137189D01*
X148074151Y-69826120D01*
X147525000Y-69716887D01*
X146975849Y-69826120D01*
X146510302Y-70137189D01*
X146199233Y-70602736D01*
X146090000Y-71151887D01*
X143510000Y-71151887D01*
X143510000Y-70790113D01*
X143798244Y-70909803D01*
X144249775Y-70910197D01*
X144459345Y-70823604D01*
X144459346Y-70823604D01*
X144459347Y-70823603D01*
X144667086Y-70737767D01*
X144986645Y-70418765D01*
X145159803Y-70001756D01*
X145160197Y-69550225D01*
X145110000Y-69428739D01*
X145110000Y-66375000D01*
X146077560Y-66375000D01*
X146077560Y-67975000D01*
X146121838Y-68210317D01*
X146260910Y-68426441D01*
X146473110Y-68571431D01*
X146725000Y-68622440D01*
X148325000Y-68622440D01*
X148560317Y-68578162D01*
X148776441Y-68439090D01*
X148921431Y-68226890D01*
X148972440Y-67975000D01*
X148972440Y-67175000D01*
X149863846Y-67175000D01*
X149965467Y-67685882D01*
X150254858Y-68118988D01*
X150687964Y-68408379D01*
X151198846Y-68510000D01*
X151251154Y-68510000D01*
X151762036Y-68408379D01*
X152195142Y-68118988D01*
X152484533Y-67685882D01*
X152586154Y-67175000D01*
X152484533Y-66664118D01*
X152195142Y-66231012D01*
X151762036Y-65941621D01*
X151251154Y-65840000D01*
X151198846Y-65840000D01*
X150687964Y-65941621D01*
X150254858Y-66231012D01*
X149965467Y-66664118D01*
X149863846Y-67175000D01*
X148972440Y-67175000D01*
X148972440Y-66375000D01*
X148928162Y-66139683D01*
X148789090Y-65923559D01*
X148576890Y-65778569D01*
X148325000Y-65727560D01*
X146725000Y-65727560D01*
X146489683Y-65771838D01*
X146273559Y-65910910D01*
X146128569Y-66123110D01*
X146077560Y-66375000D01*
X145110000Y-66375000D01*
X145110000Y-65750991D01*
X145110197Y-65525225D01*
X144937767Y-65107914D01*
X144618765Y-64788355D01*
X144201756Y-64615197D01*
X143750225Y-64614803D01*
X143510000Y-64714062D01*
X143510000Y-63820000D01*
X143423603Y-63385654D01*
X143177566Y-63017434D01*
X141786346Y-61626214D01*
X141779491Y-61609623D01*
X142227434Y-62057567D01*
X142440599Y-62199999D01*
X142595655Y-62303604D01*
X143030001Y-62390001D01*
X149914869Y-62390001D01*
X154973654Y-67448786D01*
X155172582Y-67930229D01*
X155547796Y-68306098D01*
X156038287Y-68509768D01*
X156569383Y-68510231D01*
X157060229Y-68307418D01*
X157239999Y-68127961D01*
X157239999Y-71560532D01*
X157062036Y-71441621D01*
X156551154Y-71340000D01*
X156498846Y-71340000D01*
X155987964Y-71441621D01*
X155554858Y-71731012D01*
X155265467Y-72164118D01*
X155224427Y-72370441D01*
X148972440Y-78622428D01*
X148972440Y-78000000D01*
X148928162Y-77764683D01*
X148789090Y-77548559D01*
X148576890Y-77403569D01*
X148325000Y-77352560D01*
X146725000Y-77352560D01*
X146489683Y-77396838D01*
X146273559Y-77535910D01*
X146128569Y-77748110D01*
X146077560Y-78000000D01*
X146077560Y-79600000D01*
X146121838Y-79835317D01*
X146260910Y-80051441D01*
X146473110Y-80196431D01*
X146725000Y-80247440D01*
X147405499Y-80247440D01*
X147276397Y-80440654D01*
X147190000Y-80875000D01*
X147190000Y-86160982D01*
X147073559Y-86235910D01*
X146928569Y-86448110D01*
X146877560Y-86700000D01*
X146877560Y-88300000D01*
X146921838Y-88535317D01*
X147060910Y-88751441D01*
X147273110Y-88896431D01*
X147525000Y-88947440D01*
X149125000Y-88947440D01*
X149360317Y-88903162D01*
X149576441Y-88764090D01*
X149721431Y-88551890D01*
X149730370Y-88507745D01*
X149996861Y-88507745D01*
X150070995Y-88753864D01*
X150608223Y-88946965D01*
X151178454Y-88919778D01*
X151579005Y-88753864D01*
X151653139Y-88507745D01*
X150825000Y-87679605D01*
X149996861Y-88507745D01*
X149730370Y-88507745D01*
X149769646Y-88313799D01*
X149817255Y-88328139D01*
X150645395Y-87500000D01*
X151004605Y-87500000D01*
X151832745Y-88328139D01*
X152078864Y-88254005D01*
X152271965Y-87716777D01*
X152244778Y-87146546D01*
X152078864Y-86745995D01*
X151832745Y-86671861D01*
X151004605Y-87500000D01*
X150645395Y-87500000D01*
X149817255Y-86671861D01*
X149769833Y-86686145D01*
X149733351Y-86492255D01*
X149996861Y-86492255D01*
X150825000Y-87320395D01*
X151653139Y-86492255D01*
X151579005Y-86246136D01*
X151041777Y-86053035D01*
X150471546Y-86080222D01*
X150070995Y-86246136D01*
X149996861Y-86492255D01*
X149733351Y-86492255D01*
X149728162Y-86464683D01*
X149589090Y-86248559D01*
X149460000Y-86160356D01*
X149460000Y-81345132D01*
X151893270Y-78911862D01*
X151939009Y-79141809D01*
X152206723Y-79542472D01*
X152607386Y-79810186D01*
X153080000Y-79904195D01*
X153115000Y-79897233D01*
X153115000Y-79939195D01*
X153209009Y-80411809D01*
X153476723Y-80812472D01*
X153877386Y-81080186D01*
X154350000Y-81174195D01*
X154822614Y-81080186D01*
X155223277Y-80812472D01*
X155490991Y-80411809D01*
X155585000Y-79939195D01*
X155585000Y-79890805D01*
X155490991Y-79418191D01*
X155223277Y-79017528D01*
X154822614Y-78749814D01*
X154808261Y-78746959D01*
X154822614Y-78744104D01*
X155223277Y-78476390D01*
X155490991Y-78075727D01*
X155585000Y-77603113D01*
X155585000Y-77146887D01*
X155490991Y-76674273D01*
X155223277Y-76273610D01*
X154822614Y-76005896D01*
X154803115Y-76002017D01*
X156855713Y-73949419D01*
X157062036Y-73908379D01*
X157239999Y-73789468D01*
X157239999Y-86255050D01*
X157315000Y-86632105D01*
X157315000Y-86635729D01*
X157216621Y-86782964D01*
X157115000Y-87293846D01*
X157115000Y-87346154D01*
X157216621Y-87857036D01*
X157506012Y-88290142D01*
X157939118Y-88579533D01*
X158450000Y-88681154D01*
X158960882Y-88579533D01*
X159393988Y-88290142D01*
X159683379Y-87857036D01*
X159785000Y-87346154D01*
X159785000Y-87298846D01*
X161065000Y-87298846D01*
X161065000Y-87351154D01*
X161166621Y-87862036D01*
X161456012Y-88295142D01*
X161889118Y-88584533D01*
X162400000Y-88686154D01*
X162910882Y-88584533D01*
X163343988Y-88295142D01*
X163633379Y-87862036D01*
X163735000Y-87351154D01*
X163735000Y-87323846D01*
X165065000Y-87323846D01*
X165065000Y-87376154D01*
X165166621Y-87887036D01*
X165456012Y-88320142D01*
X165889118Y-88609533D01*
X166400000Y-88711154D01*
X166910882Y-88609533D01*
X167343988Y-88320142D01*
X167633379Y-87887036D01*
X167735000Y-87376154D01*
X167735000Y-87323846D01*
X167633379Y-86812964D01*
X167343988Y-86379858D01*
X166910882Y-86090467D01*
X166400000Y-85988846D01*
X165889118Y-86090467D01*
X165456012Y-86379858D01*
X165166621Y-86812964D01*
X165065000Y-87323846D01*
X163735000Y-87323846D01*
X163735000Y-87298846D01*
X163633379Y-86787964D01*
X163343988Y-86354858D01*
X162910882Y-86065467D01*
X162400000Y-85963846D01*
X161889118Y-86065467D01*
X161456012Y-86354858D01*
X161166621Y-86787964D01*
X161065000Y-87298846D01*
X159785000Y-87298846D01*
X159785000Y-87293846D01*
X159683379Y-86782964D01*
X159585000Y-86635729D01*
X159585000Y-86330051D01*
X159509999Y-85952996D01*
X159509999Y-79523200D01*
X159567796Y-79581098D01*
X160058287Y-79784768D01*
X160589383Y-79785231D01*
X161080229Y-79582418D01*
X161456098Y-79207204D01*
X161659768Y-78716713D01*
X161660231Y-78185617D01*
X161457513Y-77695000D01*
X162227560Y-77695000D01*
X162227560Y-79295000D01*
X162271838Y-79530317D01*
X162410910Y-79746441D01*
X162623110Y-79891431D01*
X162875000Y-79942440D01*
X164475000Y-79942440D01*
X164710317Y-79898162D01*
X164926441Y-79759090D01*
X165071431Y-79546890D01*
X165122440Y-79295000D01*
X165122440Y-78505805D01*
X168670000Y-78505805D01*
X168670000Y-78554195D01*
X168764009Y-79026809D01*
X169031723Y-79427472D01*
X169432386Y-79695186D01*
X169905000Y-79789195D01*
X169940000Y-79782233D01*
X169940000Y-79824195D01*
X170034009Y-80296809D01*
X170301723Y-80697472D01*
X170702386Y-80965186D01*
X171175000Y-81059195D01*
X171647614Y-80965186D01*
X172048277Y-80697472D01*
X172315991Y-80296809D01*
X172410000Y-79824195D01*
X172410000Y-79775805D01*
X172315991Y-79303191D01*
X172048277Y-78902528D01*
X171647614Y-78634814D01*
X171633261Y-78631959D01*
X171647614Y-78629104D01*
X172048277Y-78361390D01*
X172315991Y-77960727D01*
X172410000Y-77488113D01*
X172410000Y-77031887D01*
X172315991Y-76559273D01*
X172048277Y-76158610D01*
X171647614Y-75890896D01*
X171175000Y-75796887D01*
X170702386Y-75890896D01*
X170301723Y-76158610D01*
X170034009Y-76559273D01*
X169940000Y-77031887D01*
X169940000Y-77277767D01*
X169905000Y-77270805D01*
X169432386Y-77364814D01*
X169031723Y-77632528D01*
X168764009Y-78033191D01*
X168670000Y-78505805D01*
X165122440Y-78505805D01*
X165122440Y-77695000D01*
X165078162Y-77459683D01*
X164939090Y-77243559D01*
X164726890Y-77098569D01*
X164475000Y-77047560D01*
X162875000Y-77047560D01*
X162639683Y-77091838D01*
X162423559Y-77230910D01*
X162278569Y-77443110D01*
X162227560Y-77695000D01*
X161457513Y-77695000D01*
X161457418Y-77694771D01*
X161082204Y-77318902D01*
X160591713Y-77115232D01*
X160060617Y-77114769D01*
X159569771Y-77317582D01*
X159509999Y-77377250D01*
X159509999Y-74426328D01*
X159814118Y-74629533D01*
X160325000Y-74731154D01*
X160835882Y-74629533D01*
X161268988Y-74340142D01*
X161558379Y-73907036D01*
X161660000Y-73396154D01*
X161660000Y-73343846D01*
X161558379Y-72832964D01*
X161268988Y-72399858D01*
X160835882Y-72110467D01*
X160325000Y-72008846D01*
X159814118Y-72110467D01*
X159509999Y-72313672D01*
X159509999Y-70846887D01*
X162240000Y-70846887D01*
X162240000Y-70903113D01*
X162349233Y-71452264D01*
X162660302Y-71917811D01*
X163125849Y-72228880D01*
X163675000Y-72338113D01*
X164224151Y-72228880D01*
X164689698Y-71917811D01*
X165000767Y-71452264D01*
X165110000Y-70903113D01*
X165110000Y-70846887D01*
X165000767Y-70297736D01*
X164689698Y-69832189D01*
X164224151Y-69521120D01*
X163675000Y-69411887D01*
X163125849Y-69521120D01*
X162660302Y-69832189D01*
X162349233Y-70297736D01*
X162240000Y-70846887D01*
X159509999Y-70846887D01*
X159509999Y-66520000D01*
X162152560Y-66520000D01*
X162152560Y-68120000D01*
X162196838Y-68355317D01*
X162335910Y-68571441D01*
X162548110Y-68716431D01*
X162800000Y-68767440D01*
X164400000Y-68767440D01*
X164635317Y-68723162D01*
X164851441Y-68584090D01*
X164996431Y-68371890D01*
X165047440Y-68120000D01*
X165047440Y-66520000D01*
X165003162Y-66284683D01*
X164864090Y-66068559D01*
X164651890Y-65923569D01*
X164400000Y-65872560D01*
X162800000Y-65872560D01*
X162564683Y-65916838D01*
X162348559Y-66055910D01*
X162203569Y-66268110D01*
X162152560Y-66520000D01*
X159509999Y-66520000D01*
X159509999Y-65982431D01*
X159708287Y-66064768D01*
X160239383Y-66065231D01*
X160730229Y-65862418D01*
X161106098Y-65487204D01*
X161309768Y-64996713D01*
X161310231Y-64465617D01*
X161107418Y-63974771D01*
X160732204Y-63598902D01*
X160241713Y-63395232D01*
X159710617Y-63394769D01*
X159509999Y-63477662D01*
X159509999Y-63334999D01*
X159490062Y-63234768D01*
X159423603Y-62900654D01*
X159177565Y-62532433D01*
X156268978Y-59623846D01*
X158640000Y-59623846D01*
X158640000Y-59676154D01*
X158741621Y-60187036D01*
X159031012Y-60620142D01*
X159464118Y-60909533D01*
X159975000Y-61011154D01*
X160485882Y-60909533D01*
X160918988Y-60620142D01*
X161208379Y-60187036D01*
X161310000Y-59676154D01*
X161310000Y-59671887D01*
X162165000Y-59671887D01*
X162165000Y-59728113D01*
X162274233Y-60277264D01*
X162585302Y-60742811D01*
X163050849Y-61053880D01*
X163600000Y-61163113D01*
X164149151Y-61053880D01*
X164614698Y-60742811D01*
X164925767Y-60277264D01*
X164994682Y-59930805D01*
X167995000Y-59930805D01*
X167995000Y-59979195D01*
X168089009Y-60451809D01*
X168356723Y-60852472D01*
X168757386Y-61120186D01*
X169230000Y-61214195D01*
X169265000Y-61207233D01*
X169265000Y-61249195D01*
X169359009Y-61721809D01*
X169626723Y-62122472D01*
X170027386Y-62390186D01*
X170500000Y-62484195D01*
X170972614Y-62390186D01*
X171373277Y-62122472D01*
X171640991Y-61721809D01*
X171656037Y-61646169D01*
X173290000Y-63280132D01*
X173290000Y-80604868D01*
X169522434Y-84372434D01*
X169276397Y-84740654D01*
X169190000Y-85175000D01*
X169190000Y-86710729D01*
X169091621Y-86857964D01*
X168990000Y-87368846D01*
X168990000Y-87421154D01*
X169091621Y-87932036D01*
X169381012Y-88365142D01*
X169814118Y-88654533D01*
X170325000Y-88756154D01*
X170835882Y-88654533D01*
X171268988Y-88365142D01*
X171558379Y-87932036D01*
X171660000Y-87421154D01*
X171660000Y-87368846D01*
X171558379Y-86857964D01*
X171460000Y-86710729D01*
X171460000Y-85645132D01*
X175227566Y-81877566D01*
X175473604Y-81509345D01*
X175560000Y-81075000D01*
X175560000Y-62810000D01*
X175473603Y-62375654D01*
X175227566Y-62007434D01*
X171735000Y-58514868D01*
X171735000Y-58456887D01*
X171640991Y-57984273D01*
X171373277Y-57583610D01*
X170972614Y-57315896D01*
X170500000Y-57221887D01*
X170027386Y-57315896D01*
X169626723Y-57583610D01*
X169359009Y-57984273D01*
X169265000Y-58456887D01*
X169265000Y-58702767D01*
X169230000Y-58695805D01*
X168757386Y-58789814D01*
X168356723Y-59057528D01*
X168089009Y-59458191D01*
X167995000Y-59930805D01*
X164994682Y-59930805D01*
X165035000Y-59728113D01*
X165035000Y-59671887D01*
X164925767Y-59122736D01*
X164614698Y-58657189D01*
X164149151Y-58346120D01*
X163600000Y-58236887D01*
X163050849Y-58346120D01*
X162585302Y-58657189D01*
X162274233Y-59122736D01*
X162165000Y-59671887D01*
X161310000Y-59671887D01*
X161310000Y-59623846D01*
X161208379Y-59112964D01*
X160918988Y-58679858D01*
X160485882Y-58390467D01*
X159975000Y-58288846D01*
X159464118Y-58390467D01*
X159031012Y-58679858D01*
X158741621Y-59112964D01*
X158640000Y-59623846D01*
X156268978Y-59623846D01*
X154810000Y-58164868D01*
X154810000Y-58106887D01*
X154715991Y-57634273D01*
X154448277Y-57233610D01*
X154047614Y-56965896D01*
X153575000Y-56871887D01*
X153102386Y-56965896D01*
X152701723Y-57233610D01*
X152434009Y-57634273D01*
X152340000Y-58106887D01*
X152340000Y-58352767D01*
X152305000Y-58345805D01*
X151832386Y-58439814D01*
X151431723Y-58707528D01*
X151164009Y-59108191D01*
X151070000Y-59580805D01*
X151070000Y-59629195D01*
X151164009Y-60101809D01*
X151431723Y-60502472D01*
X151832386Y-60770186D01*
X152305000Y-60864195D01*
X152340000Y-60857233D01*
X152340000Y-60899195D01*
X152434009Y-61371809D01*
X152701723Y-61772472D01*
X153102386Y-62040186D01*
X153575000Y-62134195D01*
X154047614Y-62040186D01*
X154448277Y-61772472D01*
X154715991Y-61371809D01*
X154731037Y-61296169D01*
X157239999Y-63805131D01*
X157239999Y-66222007D01*
X157062204Y-66043902D01*
X156577957Y-65842825D01*
X151187567Y-60452435D01*
X151076453Y-60378191D01*
X150819347Y-60206398D01*
X150385001Y-60120001D01*
X148853206Y-60120001D01*
X148960000Y-59583113D01*
X148960000Y-59526887D01*
X148850767Y-58977736D01*
X148539698Y-58512189D01*
X148074151Y-58201120D01*
X147525000Y-58091887D01*
X146975849Y-58201120D01*
X146510302Y-58512189D01*
X146199233Y-58977736D01*
X146090000Y-59526887D01*
X146090000Y-59583113D01*
X146196794Y-60120001D01*
X143500134Y-60120001D01*
X142427566Y-59047434D01*
X142352387Y-58997201D01*
X142059346Y-58801397D01*
X141625000Y-58715000D01*
X132661998Y-58715000D01*
X132227652Y-58801397D01*
X131934611Y-58997201D01*
X131859432Y-59047434D01*
X129218965Y-61687901D01*
X129159533Y-61389118D01*
X128870142Y-60956012D01*
X128437036Y-60666621D01*
X127926154Y-60565000D01*
X127873846Y-60565000D01*
X127362964Y-60666621D01*
X126929858Y-60956012D01*
X126640467Y-61389118D01*
X126538846Y-61900000D01*
X118079533Y-61900000D01*
X118339533Y-61510882D01*
X118441154Y-61000000D01*
X118339533Y-60489118D01*
X118050142Y-60056012D01*
X117617036Y-59766621D01*
X117106154Y-59665000D01*
X117053846Y-59665000D01*
X116724664Y-59730478D01*
X117266672Y-59188471D01*
X117507468Y-59027576D01*
X119139873Y-57395171D01*
X124527799Y-57395171D01*
X124555770Y-57945448D01*
X124712540Y-58323923D01*
X124953483Y-58391912D01*
X125745395Y-57600000D01*
X124953483Y-56808088D01*
X124712540Y-56876077D01*
X124527799Y-57395171D01*
X119139873Y-57395171D01*
X119906561Y-56628483D01*
X125133088Y-56628483D01*
X125925000Y-57420395D01*
X125939143Y-57406253D01*
X126118748Y-57585858D01*
X126104605Y-57600000D01*
X126118748Y-57614143D01*
X125939143Y-57793748D01*
X125925000Y-57779605D01*
X125133088Y-58571517D01*
X125201077Y-58812460D01*
X125720171Y-58997201D01*
X126270448Y-58969230D01*
X126648923Y-58812460D01*
X126669981Y-58737835D01*
X126710910Y-58801441D01*
X126923110Y-58946431D01*
X127175000Y-58997440D01*
X128675000Y-58997440D01*
X128910317Y-58953162D01*
X129126441Y-58814090D01*
X129271431Y-58601890D01*
X129322440Y-58350000D01*
X129322440Y-56850000D01*
X129278162Y-56614683D01*
X129139090Y-56398559D01*
X128926890Y-56253569D01*
X128675000Y-56202560D01*
X127175000Y-56202560D01*
X126939683Y-56246838D01*
X126723559Y-56385910D01*
X126670412Y-56463693D01*
X126648923Y-56387540D01*
X126129829Y-56202799D01*
X125579552Y-56230770D01*
X125201077Y-56387540D01*
X125133088Y-56628483D01*
X119906561Y-56628483D01*
X122825044Y-53710000D01*
X153397796Y-53710000D01*
X153647637Y-53960278D01*
X154248352Y-54209716D01*
X154898795Y-54210284D01*
X155499943Y-53961894D01*
X155825164Y-53637241D01*
X156147637Y-53960278D01*
X156748352Y-54209716D01*
X157398795Y-54210284D01*
X157999943Y-53961894D01*
X158234715Y-53727532D01*
X158602073Y-53727532D01*
X158700736Y-53994387D01*
X159310461Y-54220908D01*
X159960460Y-54196856D01*
X160449264Y-53994387D01*
X160547927Y-53727532D01*
X159575000Y-52754605D01*
X158602073Y-53727532D01*
X158234715Y-53727532D01*
X158416752Y-53545813D01*
X158422468Y-53547927D01*
X159395395Y-52575000D01*
X159754605Y-52575000D01*
X160727532Y-53547927D01*
X160994387Y-53449264D01*
X161220908Y-52839539D01*
X161196856Y-52189540D01*
X160994387Y-51700736D01*
X160727532Y-51602073D01*
X159754605Y-52575000D01*
X159395395Y-52575000D01*
X158422468Y-51602073D01*
X158416278Y-51604361D01*
X158137241Y-51324836D01*
X158234715Y-51227532D01*
X158602073Y-51227532D01*
X158638109Y-51325000D01*
X158602073Y-51422468D01*
X159575000Y-52395395D01*
X160547927Y-51422468D01*
X160511891Y-51325000D01*
X160547927Y-51227532D01*
X159575000Y-50254605D01*
X158602073Y-51227532D01*
X158234715Y-51227532D01*
X158416752Y-51045813D01*
X158422468Y-51047927D01*
X159395395Y-50075000D01*
X159754605Y-50075000D01*
X160727532Y-51047927D01*
X160994387Y-50949264D01*
X161220908Y-50339539D01*
X161196856Y-49689540D01*
X160994387Y-49200736D01*
X160727532Y-49102073D01*
X159754605Y-50075000D01*
X159395395Y-50075000D01*
X158422468Y-49102073D01*
X158416278Y-49104361D01*
X158234703Y-48922468D01*
X158602073Y-48922468D01*
X159575000Y-49895395D01*
X160547927Y-48922468D01*
X160449264Y-48655613D01*
X159839539Y-48429092D01*
X159189540Y-48453144D01*
X158700736Y-48655613D01*
X158602073Y-48922468D01*
X158234703Y-48922468D01*
X158002363Y-48689722D01*
X157401648Y-48440284D01*
X156751205Y-48439716D01*
X156150057Y-48688106D01*
X155824836Y-49012759D01*
X155502363Y-48689722D01*
X154901648Y-48440284D01*
X154251205Y-48439716D01*
X153650057Y-48688106D01*
X153397722Y-48940000D01*
X122875000Y-48940000D01*
X122440654Y-49026397D01*
X122072433Y-49272434D01*
X118239917Y-53104951D01*
X118334716Y-52876648D01*
X118335284Y-52226205D01*
X118086894Y-51625057D01*
X117762241Y-51299836D01*
X118085278Y-50977363D01*
X118334716Y-50376648D01*
X118335284Y-49726205D01*
X118086894Y-49125057D01*
X117627363Y-48664722D01*
X117026648Y-48415284D01*
X116376205Y-48414716D01*
X115775057Y-48663106D01*
X115358248Y-49079187D01*
X115352532Y-49077073D01*
X114379605Y-50050000D01*
X115352532Y-51022927D01*
X115358722Y-51020639D01*
X115637759Y-51300164D01*
X115358248Y-51579187D01*
X115352532Y-51577073D01*
X114379605Y-52550000D01*
X115352532Y-53522927D01*
X115358722Y-53520639D01*
X115772637Y-53935278D01*
X116373352Y-54184716D01*
X117023795Y-54185284D01*
X117255198Y-54089670D01*
X116258330Y-55086538D01*
X116017531Y-55247435D01*
X113274966Y-57990000D01*
X108175000Y-57990000D01*
X107740654Y-58076397D01*
X107422702Y-58288846D01*
X107372434Y-58322434D01*
X105522434Y-60172434D01*
X105276397Y-60540654D01*
X105269338Y-60576143D01*
X105132418Y-60244771D01*
X104757204Y-59868902D01*
X104266713Y-59665232D01*
X103735617Y-59664769D01*
X103244771Y-59867582D01*
X102868902Y-60242796D01*
X102665232Y-60733287D01*
X102664769Y-61264383D01*
X96710000Y-61264383D01*
X96710000Y-50373795D01*
X110064716Y-50373795D01*
X110313106Y-50974943D01*
X110637759Y-51300164D01*
X110314722Y-51622637D01*
X110065284Y-52223352D01*
X110064716Y-52873795D01*
X110313106Y-53474943D01*
X110772637Y-53935278D01*
X111373352Y-54184716D01*
X112023795Y-54185284D01*
X112624943Y-53936894D01*
X112859715Y-53702532D01*
X113227073Y-53702532D01*
X113325736Y-53969387D01*
X113935461Y-54195908D01*
X114585460Y-54171856D01*
X115074264Y-53969387D01*
X115172927Y-53702532D01*
X114200000Y-52729605D01*
X113227073Y-53702532D01*
X112859715Y-53702532D01*
X113041752Y-53520813D01*
X113047468Y-53522927D01*
X114020395Y-52550000D01*
X113047468Y-51577073D01*
X113041278Y-51579361D01*
X112762241Y-51299836D01*
X112859715Y-51202532D01*
X113227073Y-51202532D01*
X113263109Y-51300000D01*
X113227073Y-51397468D01*
X114200000Y-52370395D01*
X115172927Y-51397468D01*
X115136891Y-51300000D01*
X115172927Y-51202532D01*
X114200000Y-50229605D01*
X113227073Y-51202532D01*
X112859715Y-51202532D01*
X113041752Y-51020813D01*
X113047468Y-51022927D01*
X114020395Y-50050000D01*
X113047468Y-49077073D01*
X113041278Y-49079361D01*
X112859703Y-48897468D01*
X113227073Y-48897468D01*
X114200000Y-49870395D01*
X115172927Y-48897468D01*
X115074264Y-48630613D01*
X114464539Y-48404092D01*
X113814540Y-48428144D01*
X113325736Y-48630613D01*
X113227073Y-48897468D01*
X112859703Y-48897468D01*
X112627363Y-48664722D01*
X112026648Y-48415284D01*
X111376205Y-48414716D01*
X110775057Y-48663106D01*
X110314722Y-49122637D01*
X110065284Y-49723352D01*
X110064716Y-50373795D01*
X96710000Y-50373795D01*
X96710000Y-45710000D01*
X178290000Y-45710000D01*
X178290000Y-103290000D01*
M02*
