%FSLAX45Y45*%
G04 Gerber Fmt 4.5, Leading zero omitted, Abs format (unit mm)*
G04 Created by KiCad (PCBNEW 4.0.7) date Sunday 08 October 2017 21:17:22*
%MOMM*%
%LPD*%
G01*
G04 APERTURE LIST*
%ADD10C,0.127000*%
%ADD11C,0.150000*%
%ADD12C,0.200000*%
%ADD13C,0.300000*%
G04 APERTURE END LIST*
D10*
D11*
X9600000Y-10400000D02*
X9600000Y-4500000D01*
X9600000Y-4500000D02*
X17900000Y-4500000D01*
X17900000Y-10400000D02*
X9600000Y-10400000D01*
X17900000Y-4500000D02*
X17900000Y-10400000D01*
D12*
X14015000Y-7112500D02*
X14055000Y-7152500D01*
X14055000Y-7112500D02*
X14015000Y-7152500D01*
X14212500Y-9132500D02*
X14252500Y-9172500D01*
X14252500Y-9132500D02*
X14212500Y-9172500D01*
X14377500Y-6555000D02*
X14417500Y-6595000D01*
X14417500Y-6555000D02*
X14377500Y-6595000D01*
X14382500Y-6957500D02*
X14422500Y-6997500D01*
X14422500Y-6957500D02*
X14382500Y-6997500D01*
X16360000Y-9605000D02*
X16400000Y-9645000D01*
X16400000Y-9605000D02*
X16360000Y-9645000D01*
X12607500Y-8155000D02*
G75*
G03X12607500Y-8155000I-32500J0D01*
G01*
X12625000Y-5760000D02*
G75*
G03X12625000Y-5760000I-32500J0D01*
G01*
X12807500Y-8155000D02*
G75*
G03X12807500Y-8155000I-32500J0D01*
G01*
X12825000Y-5760000D02*
G75*
G03X12825000Y-5760000I-32500J0D01*
G01*
X13080000Y-8780000D02*
G75*
G03X13080000Y-8780000I-32500J0D01*
G01*
X13330000Y-8780000D02*
G75*
G03X13330000Y-8780000I-32500J0D01*
G01*
X14865000Y-8750000D02*
G75*
G03X14865000Y-8750000I-32500J0D01*
G01*
X15115000Y-8750000D02*
G75*
G03X15115000Y-8750000I-32500J0D01*
G01*
X10000000Y-7465000D02*
X10000000Y-7535000D01*
X9965000Y-7500000D02*
X10035000Y-7500000D01*
X10000000Y-7973000D02*
X10000000Y-8043000D01*
X9965000Y-8008000D02*
X10035000Y-8008000D01*
X10400000Y-6065000D02*
X10400000Y-6135000D01*
X10365000Y-6100000D02*
X10435000Y-6100000D01*
X10400000Y-6565000D02*
X10400000Y-6635000D01*
X10365000Y-6600000D02*
X10435000Y-6600000D01*
X10700000Y-7965000D02*
X10700000Y-8035000D01*
X10665000Y-8000000D02*
X10735000Y-8000000D01*
X10700000Y-8473000D02*
X10700000Y-8543000D01*
X10665000Y-8508000D02*
X10735000Y-8508000D01*
X10908000Y-6065000D02*
X10908000Y-6135000D01*
X10873000Y-6100000D02*
X10943000Y-6100000D01*
X10908000Y-6565000D02*
X10908000Y-6635000D01*
X10873000Y-6600000D02*
X10943000Y-6600000D01*
X11200000Y-6065000D02*
X11200000Y-6135000D01*
X11165000Y-6100000D02*
X11235000Y-6100000D01*
X11200000Y-6565000D02*
X11200000Y-6635000D01*
X11165000Y-6600000D02*
X11235000Y-6600000D01*
X11400000Y-7465000D02*
X11400000Y-7535000D01*
X11365000Y-7500000D02*
X11435000Y-7500000D01*
X11400000Y-7973000D02*
X11400000Y-8043000D01*
X11365000Y-8008000D02*
X11435000Y-8008000D01*
X11708000Y-6065000D02*
X11708000Y-6135000D01*
X11673000Y-6100000D02*
X11743000Y-6100000D01*
X11708000Y-6565000D02*
X11708000Y-6635000D01*
X11673000Y-6600000D02*
X11743000Y-6600000D01*
X12100000Y-7965000D02*
X12100000Y-8035000D01*
X12065000Y-8000000D02*
X12135000Y-8000000D01*
X12100000Y-8473000D02*
X12100000Y-8543000D01*
X12065000Y-8508000D02*
X12135000Y-8508000D01*
X12567500Y-7692500D02*
X12567500Y-7762500D01*
X12532500Y-7727500D02*
X12602500Y-7727500D01*
X12790000Y-6155000D02*
X12790000Y-6225000D01*
X12755000Y-6190000D02*
X12825000Y-6190000D01*
X13075500Y-7692500D02*
X13075500Y-7762500D01*
X13040500Y-7727500D02*
X13110500Y-7727500D01*
X13287500Y-7690000D02*
X13287500Y-7760000D01*
X13252500Y-7725000D02*
X13322500Y-7725000D01*
X13298000Y-6155000D02*
X13298000Y-6225000D01*
X13263000Y-6190000D02*
X13333000Y-6190000D01*
X13537500Y-6155000D02*
X13537500Y-6225000D01*
X13502500Y-6190000D02*
X13572500Y-6190000D01*
X13795500Y-7690000D02*
X13795500Y-7760000D01*
X13760500Y-7725000D02*
X13830500Y-7725000D01*
X14045500Y-6155000D02*
X14045500Y-6225000D01*
X14010500Y-6190000D02*
X14080500Y-6190000D01*
X15122500Y-6682500D02*
X15122500Y-6752500D01*
X15087500Y-6717500D02*
X15157500Y-6717500D01*
X15144500Y-7232500D02*
X15144500Y-7302500D01*
X15109500Y-7267500D02*
X15179500Y-7267500D01*
X15230500Y-5925500D02*
X15230500Y-5995500D01*
X15195500Y-5960500D02*
X15265500Y-5960500D01*
X15308000Y-7829500D02*
X15308000Y-7899500D01*
X15273000Y-7864500D02*
X15343000Y-7864500D01*
X15357500Y-5798500D02*
X15357500Y-5868500D01*
X15322500Y-5833500D02*
X15392500Y-5833500D01*
X15357500Y-6052500D02*
X15357500Y-6122500D01*
X15322500Y-6087500D02*
X15392500Y-6087500D01*
X15435000Y-7702500D02*
X15435000Y-7772500D01*
X15400000Y-7737500D02*
X15470000Y-7737500D01*
X15435000Y-7956500D02*
X15435000Y-8026500D01*
X15400000Y-7991500D02*
X15470000Y-7991500D01*
X15630500Y-6682500D02*
X15630500Y-6752500D01*
X15595500Y-6717500D02*
X15665500Y-6717500D01*
X15652500Y-7232500D02*
X15652500Y-7302500D01*
X15617500Y-7267500D02*
X15687500Y-7267500D01*
X15845000Y-8697000D02*
X15845000Y-8767000D01*
X15810000Y-8732000D02*
X15880000Y-8732000D01*
X15845000Y-9205000D02*
X15845000Y-9275000D01*
X15810000Y-9240000D02*
X15880000Y-9240000D01*
X15997500Y-5930000D02*
X15997500Y-6000000D01*
X15962500Y-5965000D02*
X16032500Y-5965000D01*
X15997500Y-6438000D02*
X15997500Y-6508000D01*
X15962500Y-6473000D02*
X16032500Y-6473000D01*
X16032500Y-7302000D02*
X16032500Y-7372000D01*
X15997500Y-7337000D02*
X16067500Y-7337000D01*
X16032500Y-7810000D02*
X16032500Y-7880000D01*
X15997500Y-7845000D02*
X16067500Y-7845000D01*
X16240000Y-8697500D02*
X16240000Y-8767500D01*
X16205000Y-8732500D02*
X16275000Y-8732500D01*
X16240000Y-9205500D02*
X16240000Y-9275500D01*
X16205000Y-9240500D02*
X16275000Y-9240500D01*
X16640000Y-8700000D02*
X16640000Y-8770000D01*
X16605000Y-8735000D02*
X16675000Y-8735000D01*
X16640000Y-9208000D02*
X16640000Y-9278000D01*
X16605000Y-9243000D02*
X16675000Y-9243000D01*
X16923000Y-5960500D02*
X16923000Y-6030500D01*
X16888000Y-5995500D02*
X16958000Y-5995500D01*
X16990500Y-7818000D02*
X16990500Y-7888000D01*
X16955500Y-7853000D02*
X17025500Y-7853000D01*
X17032500Y-8704500D02*
X17032500Y-8774500D01*
X16997500Y-8739500D02*
X17067500Y-8739500D01*
X17032500Y-9212500D02*
X17032500Y-9282500D01*
X16997500Y-9247500D02*
X17067500Y-9247500D01*
X17050000Y-5833500D02*
X17050000Y-5903500D01*
X17015000Y-5868500D02*
X17085000Y-5868500D01*
X17050000Y-6087500D02*
X17050000Y-6157500D01*
X17015000Y-6122500D02*
X17085000Y-6122500D01*
X17117500Y-7691000D02*
X17117500Y-7761000D01*
X17082500Y-7726000D02*
X17152500Y-7726000D01*
X17117500Y-7945000D02*
X17117500Y-8015000D01*
X17082500Y-7980000D02*
X17152500Y-7980000D01*
X10028285Y-8828285D02*
X10028285Y-8771716D01*
X9971716Y-8771716D01*
X9971716Y-8828285D01*
X10028285Y-8828285D01*
X10028285Y-9328285D02*
X10028285Y-9271716D01*
X9971716Y-9271716D01*
X9971716Y-9328285D01*
X10028285Y-9328285D01*
X10728285Y-8828285D02*
X10728285Y-8771716D01*
X10671716Y-8771716D01*
X10671716Y-8828285D01*
X10728285Y-8828285D01*
X10728285Y-9328285D02*
X10728285Y-9271716D01*
X10671716Y-9271716D01*
X10671716Y-9328285D01*
X10728285Y-9328285D01*
X11428284Y-8828285D02*
X11428284Y-8771716D01*
X11371715Y-8771716D01*
X11371715Y-8828285D01*
X11428284Y-8828285D01*
X11428284Y-9328285D02*
X11428284Y-9271716D01*
X11371715Y-9271716D01*
X11371715Y-9328285D01*
X11428284Y-9328285D01*
X12128284Y-8828285D02*
X12128284Y-8771716D01*
X12071715Y-8771716D01*
X12071715Y-8828285D01*
X12128284Y-8828285D01*
X12128284Y-9328285D02*
X12128284Y-9271716D01*
X12071715Y-9271716D01*
X12071715Y-9328285D01*
X12128284Y-9328285D01*
X12928784Y-6611284D02*
X12928784Y-6554715D01*
X12872215Y-6554715D01*
X12872215Y-6611284D01*
X12928784Y-6611284D01*
X12928784Y-7373284D02*
X12928784Y-7316715D01*
X12872215Y-7316715D01*
X12872215Y-7373284D01*
X12928784Y-7373284D01*
X13182784Y-6611284D02*
X13182784Y-6554715D01*
X13126215Y-6554715D01*
X13126215Y-6611284D01*
X13182784Y-6611284D01*
X13182784Y-7373284D02*
X13182784Y-7316715D01*
X13126215Y-7316715D01*
X13126215Y-7373284D01*
X13182784Y-7373284D01*
X13436784Y-6611284D02*
X13436784Y-6554715D01*
X13380215Y-6554715D01*
X13380215Y-6611284D01*
X13436784Y-6611284D01*
X13436784Y-7373284D02*
X13436784Y-7316715D01*
X13380215Y-7316715D01*
X13380215Y-7373284D01*
X13436784Y-7373284D01*
X13690784Y-6611284D02*
X13690784Y-6554715D01*
X13634215Y-6554715D01*
X13634215Y-6611284D01*
X13690784Y-6611284D01*
X13690784Y-7373284D02*
X13690784Y-7316715D01*
X13634215Y-7316715D01*
X13634215Y-7373284D01*
X13690784Y-7373284D01*
X14780784Y-5983784D02*
X14780784Y-5927215D01*
X14724215Y-5927215D01*
X14724215Y-5983784D01*
X14780784Y-5983784D01*
X14780784Y-6745784D02*
X14780784Y-6689215D01*
X14724215Y-6689215D01*
X14724215Y-6745784D01*
X14780784Y-6745784D01*
X14780784Y-7146284D02*
X14780784Y-7089715D01*
X14724215Y-7089715D01*
X14724215Y-7146284D01*
X14780784Y-7146284D01*
X14780784Y-7908284D02*
X14780784Y-7851715D01*
X14724215Y-7851715D01*
X14724215Y-7908284D01*
X14780784Y-7908284D01*
X16388284Y-5998284D02*
X16388284Y-5941715D01*
X16331715Y-5941715D01*
X16331715Y-5998284D01*
X16388284Y-5998284D01*
X16388284Y-6760284D02*
X16388284Y-6703715D01*
X16331715Y-6703715D01*
X16331715Y-6760284D01*
X16388284Y-6760284D01*
X16395784Y-7115784D02*
X16395784Y-7059215D01*
X16339215Y-7059215D01*
X16339215Y-7115784D01*
X16395784Y-7115784D01*
X16395784Y-7877784D02*
X16395784Y-7821215D01*
X16339215Y-7821215D01*
X16339215Y-7877784D01*
X16395784Y-7877784D01*
X10238000Y-9850000D02*
X10288000Y-9800000D01*
X10238000Y-9750000D01*
X10188000Y-9800000D01*
X10238000Y-9850000D01*
X10492000Y-9850000D02*
X10542000Y-9800000D01*
X10492000Y-9750000D01*
X10442000Y-9800000D01*
X10492000Y-9850000D01*
X10746000Y-9850000D02*
X10796000Y-9800000D01*
X10746000Y-9750000D01*
X10696000Y-9800000D01*
X10746000Y-9850000D01*
X11000000Y-9850000D02*
X11050000Y-9800000D01*
X11000000Y-9750000D01*
X10950000Y-9800000D01*
X11000000Y-9850000D01*
X11170000Y-5055000D02*
X11220000Y-5005000D01*
X11170000Y-4955000D01*
X11120000Y-5005000D01*
X11170000Y-5055000D01*
X11170000Y-5305000D02*
X11220000Y-5255000D01*
X11170000Y-5205000D01*
X11120000Y-5255000D01*
X11170000Y-5305000D01*
X11420000Y-5055000D02*
X11470000Y-5005000D01*
X11420000Y-4955000D01*
X11370000Y-5005000D01*
X11420000Y-5055000D01*
X11420000Y-5305000D02*
X11470000Y-5255000D01*
X11420000Y-5205000D01*
X11370000Y-5255000D01*
X11420000Y-5305000D01*
X11670000Y-5055000D02*
X11720000Y-5005000D01*
X11670000Y-4955000D01*
X11620000Y-5005000D01*
X11670000Y-5055000D01*
X11670000Y-5305000D02*
X11720000Y-5255000D01*
X11670000Y-5205000D01*
X11620000Y-5255000D01*
X11670000Y-5305000D01*
X13792000Y-9850000D02*
X13842000Y-9800000D01*
X13792000Y-9750000D01*
X13742000Y-9800000D01*
X13792000Y-9850000D01*
X14046000Y-9850000D02*
X14096000Y-9800000D01*
X14046000Y-9750000D01*
X13996000Y-9800000D01*
X14046000Y-9850000D01*
X14300000Y-9850000D02*
X14350000Y-9800000D01*
X14300000Y-9750000D01*
X14250000Y-9800000D01*
X14300000Y-9850000D01*
X15457500Y-5057500D02*
X15507500Y-5007500D01*
X15457500Y-4957500D01*
X15407500Y-5007500D01*
X15457500Y-5057500D01*
X15457500Y-5307500D02*
X15507500Y-5257500D01*
X15457500Y-5207500D01*
X15407500Y-5257500D01*
X15457500Y-5307500D01*
X15707500Y-5057500D02*
X15757500Y-5007500D01*
X15707500Y-4957500D01*
X15657500Y-5007500D01*
X15707500Y-5057500D01*
X15707500Y-5307500D02*
X15757500Y-5257500D01*
X15707500Y-5207500D01*
X15657500Y-5257500D01*
X15707500Y-5307500D01*
X15957500Y-5057500D02*
X16007500Y-5007500D01*
X15957500Y-4957500D01*
X15907500Y-5007500D01*
X15957500Y-5057500D01*
X15957500Y-5307500D02*
X16007500Y-5257500D01*
X15957500Y-5207500D01*
X15907500Y-5257500D01*
X15957500Y-5307500D01*
X16934500Y-9850000D02*
X16984500Y-9800000D01*
X16934500Y-9750000D01*
X16884500Y-9800000D01*
X16934500Y-9850000D01*
X17188500Y-9850000D02*
X17238500Y-9800000D01*
X17188500Y-9750000D01*
X17138500Y-9800000D01*
X17188500Y-9850000D01*
X17442500Y-9850000D02*
X17492500Y-9800000D01*
X17442500Y-9750000D01*
X17392500Y-9800000D01*
X17442500Y-9850000D01*
X13257462Y-9230462D02*
X13357538Y-9330538D01*
X13357538Y-9230462D02*
X13257462Y-9330538D01*
X13357538Y-9280500D02*
G75*
G03X13357538Y-9280500I-50038J0D01*
G01*
X13257462Y-9992462D02*
X13357538Y-10092538D01*
X13357538Y-9992462D02*
X13257462Y-10092538D01*
X13357538Y-10042500D02*
G75*
G03X13357538Y-10042500I-50038J0D01*
G01*
X14782462Y-9225462D02*
X14882538Y-9325538D01*
X14882538Y-9225462D02*
X14782462Y-9325538D01*
X14882538Y-9275500D02*
G75*
G03X14882538Y-9275500I-50038J0D01*
G01*
X14782462Y-9987462D02*
X14882538Y-10087538D01*
X14882538Y-9987462D02*
X14782462Y-10087538D01*
X14882538Y-10037500D02*
G75*
G03X14882538Y-10037500I-50038J0D01*
G01*
D13*
X9863929Y-10873214D02*
X9863929Y-10573214D01*
X9935357Y-10573214D01*
X9978214Y-10587500D01*
X10006786Y-10616072D01*
X10021071Y-10644643D01*
X10035357Y-10701786D01*
X10035357Y-10744643D01*
X10021071Y-10801786D01*
X10006786Y-10830357D01*
X9978214Y-10858929D01*
X9935357Y-10873214D01*
X9863929Y-10873214D01*
X10163929Y-10873214D02*
X10163929Y-10673214D01*
X10163929Y-10730357D02*
X10178214Y-10701786D01*
X10192500Y-10687500D01*
X10221071Y-10673214D01*
X10249643Y-10673214D01*
X10349643Y-10873214D02*
X10349643Y-10673214D01*
X10349643Y-10573214D02*
X10335357Y-10587500D01*
X10349643Y-10601786D01*
X10363929Y-10587500D01*
X10349643Y-10573214D01*
X10349643Y-10601786D01*
X10535357Y-10873214D02*
X10506786Y-10858929D01*
X10492500Y-10830357D01*
X10492500Y-10573214D01*
X10692500Y-10873214D02*
X10663929Y-10858929D01*
X10649643Y-10830357D01*
X10649643Y-10573214D01*
X11035357Y-10873214D02*
X11035357Y-10573214D01*
X11135357Y-10787500D01*
X11235357Y-10573214D01*
X11235357Y-10873214D01*
X11506786Y-10873214D02*
X11506786Y-10716072D01*
X11492500Y-10687500D01*
X11463928Y-10673214D01*
X11406786Y-10673214D01*
X11378214Y-10687500D01*
X11506786Y-10858929D02*
X11478214Y-10873214D01*
X11406786Y-10873214D01*
X11378214Y-10858929D01*
X11363928Y-10830357D01*
X11363928Y-10801786D01*
X11378214Y-10773214D01*
X11406786Y-10758929D01*
X11478214Y-10758929D01*
X11506786Y-10744643D01*
X11649643Y-10673214D02*
X11649643Y-10973214D01*
X11649643Y-10687500D02*
X11678214Y-10673214D01*
X11735357Y-10673214D01*
X11763928Y-10687500D01*
X11778214Y-10701786D01*
X11792500Y-10730357D01*
X11792500Y-10816072D01*
X11778214Y-10844643D01*
X11763928Y-10858929D01*
X11735357Y-10873214D01*
X11678214Y-10873214D01*
X11649643Y-10858929D01*
X11921071Y-10844643D02*
X11935357Y-10858929D01*
X11921071Y-10873214D01*
X11906786Y-10858929D01*
X11921071Y-10844643D01*
X11921071Y-10873214D01*
X11921071Y-10687500D02*
X11935357Y-10701786D01*
X11921071Y-10716072D01*
X11906786Y-10701786D01*
X11921071Y-10687500D01*
X11921071Y-10716072D01*
X9552500Y-11347500D02*
X9592500Y-11387500D01*
X9592500Y-11347500D02*
X9552500Y-11387500D01*
X9921071Y-11203214D02*
X9949643Y-11203214D01*
X9978214Y-11217500D01*
X9992500Y-11231786D01*
X10006786Y-11260357D01*
X10021071Y-11317500D01*
X10021071Y-11388929D01*
X10006786Y-11446071D01*
X9992500Y-11474643D01*
X9978214Y-11488929D01*
X9949643Y-11503214D01*
X9921071Y-11503214D01*
X9892500Y-11488929D01*
X9878214Y-11474643D01*
X9863929Y-11446071D01*
X9849643Y-11388929D01*
X9849643Y-11317500D01*
X9863929Y-11260357D01*
X9878214Y-11231786D01*
X9892500Y-11217500D01*
X9921071Y-11203214D01*
X10149643Y-11474643D02*
X10163929Y-11488929D01*
X10149643Y-11503214D01*
X10135357Y-11488929D01*
X10149643Y-11474643D01*
X10149643Y-11503214D01*
X10421071Y-11303214D02*
X10421071Y-11503214D01*
X10349643Y-11188929D02*
X10278214Y-11403214D01*
X10463928Y-11403214D01*
X10635357Y-11203214D02*
X10663929Y-11203214D01*
X10692500Y-11217500D01*
X10706786Y-11231786D01*
X10721071Y-11260357D01*
X10735357Y-11317500D01*
X10735357Y-11388929D01*
X10721071Y-11446071D01*
X10706786Y-11474643D01*
X10692500Y-11488929D01*
X10663929Y-11503214D01*
X10635357Y-11503214D01*
X10606786Y-11488929D01*
X10592500Y-11474643D01*
X10578214Y-11446071D01*
X10563929Y-11388929D01*
X10563929Y-11317500D01*
X10578214Y-11260357D01*
X10592500Y-11231786D01*
X10606786Y-11217500D01*
X10635357Y-11203214D01*
X10863929Y-11503214D02*
X10863929Y-11303214D01*
X10863929Y-11331786D02*
X10878214Y-11317500D01*
X10906786Y-11303214D01*
X10949643Y-11303214D01*
X10978214Y-11317500D01*
X10992500Y-11346071D01*
X10992500Y-11503214D01*
X10992500Y-11346071D02*
X11006786Y-11317500D01*
X11035357Y-11303214D01*
X11078214Y-11303214D01*
X11106786Y-11317500D01*
X11121071Y-11346071D01*
X11121071Y-11503214D01*
X11263928Y-11503214D02*
X11263928Y-11303214D01*
X11263928Y-11331786D02*
X11278214Y-11317500D01*
X11306786Y-11303214D01*
X11349643Y-11303214D01*
X11378214Y-11317500D01*
X11392500Y-11346071D01*
X11392500Y-11503214D01*
X11392500Y-11346071D02*
X11406786Y-11317500D01*
X11435357Y-11303214D01*
X11478214Y-11303214D01*
X11506786Y-11317500D01*
X11521071Y-11346071D01*
X11521071Y-11503214D01*
X12106786Y-11188929D02*
X11849643Y-11574643D01*
X12492500Y-11203214D02*
X12521071Y-11203214D01*
X12549643Y-11217500D01*
X12563928Y-11231786D01*
X12578214Y-11260357D01*
X12592500Y-11317500D01*
X12592500Y-11388929D01*
X12578214Y-11446071D01*
X12563928Y-11474643D01*
X12549643Y-11488929D01*
X12521071Y-11503214D01*
X12492500Y-11503214D01*
X12463928Y-11488929D01*
X12449643Y-11474643D01*
X12435357Y-11446071D01*
X12421071Y-11388929D01*
X12421071Y-11317500D01*
X12435357Y-11260357D01*
X12449643Y-11231786D01*
X12463928Y-11217500D01*
X12492500Y-11203214D01*
X12721071Y-11474643D02*
X12735357Y-11488929D01*
X12721071Y-11503214D01*
X12706786Y-11488929D01*
X12721071Y-11474643D01*
X12721071Y-11503214D01*
X12921071Y-11203214D02*
X12949643Y-11203214D01*
X12978214Y-11217500D01*
X12992500Y-11231786D01*
X13006785Y-11260357D01*
X13021071Y-11317500D01*
X13021071Y-11388929D01*
X13006785Y-11446071D01*
X12992500Y-11474643D01*
X12978214Y-11488929D01*
X12949643Y-11503214D01*
X12921071Y-11503214D01*
X12892500Y-11488929D01*
X12878214Y-11474643D01*
X12863928Y-11446071D01*
X12849643Y-11388929D01*
X12849643Y-11317500D01*
X12863928Y-11260357D01*
X12878214Y-11231786D01*
X12892500Y-11217500D01*
X12921071Y-11203214D01*
X13306785Y-11503214D02*
X13135357Y-11503214D01*
X13221071Y-11503214D02*
X13221071Y-11203214D01*
X13192500Y-11246071D01*
X13163928Y-11274643D01*
X13135357Y-11288929D01*
X13563928Y-11203214D02*
X13506785Y-11203214D01*
X13478214Y-11217500D01*
X13463928Y-11231786D01*
X13435357Y-11274643D01*
X13421071Y-11331786D01*
X13421071Y-11446071D01*
X13435357Y-11474643D01*
X13449643Y-11488929D01*
X13478214Y-11503214D01*
X13535357Y-11503214D01*
X13563928Y-11488929D01*
X13578214Y-11474643D01*
X13592500Y-11446071D01*
X13592500Y-11374643D01*
X13578214Y-11346071D01*
X13563928Y-11331786D01*
X13535357Y-11317500D01*
X13478214Y-11317500D01*
X13449643Y-11331786D01*
X13435357Y-11346071D01*
X13421071Y-11374643D01*
X13706786Y-11203214D02*
X13706786Y-11260357D01*
X13821071Y-11203214D02*
X13821071Y-11260357D01*
X14263928Y-11617500D02*
X14249643Y-11603214D01*
X14221071Y-11560357D01*
X14206785Y-11531786D01*
X14192500Y-11488929D01*
X14178214Y-11417500D01*
X14178214Y-11360357D01*
X14192500Y-11288929D01*
X14206785Y-11246071D01*
X14221071Y-11217500D01*
X14249643Y-11174643D01*
X14263928Y-11160357D01*
X14521071Y-11203214D02*
X14378214Y-11203214D01*
X14363928Y-11346071D01*
X14378214Y-11331786D01*
X14406785Y-11317500D01*
X14478214Y-11317500D01*
X14506785Y-11331786D01*
X14521071Y-11346071D01*
X14535357Y-11374643D01*
X14535357Y-11446071D01*
X14521071Y-11474643D01*
X14506785Y-11488929D01*
X14478214Y-11503214D01*
X14406785Y-11503214D01*
X14378214Y-11488929D01*
X14363928Y-11474643D01*
X14892500Y-11503214D02*
X14892500Y-11203214D01*
X15021071Y-11503214D02*
X15021071Y-11346071D01*
X15006785Y-11317500D01*
X14978214Y-11303214D01*
X14935357Y-11303214D01*
X14906785Y-11317500D01*
X14892500Y-11331786D01*
X15206785Y-11503214D02*
X15178214Y-11488929D01*
X15163928Y-11474643D01*
X15149643Y-11446071D01*
X15149643Y-11360357D01*
X15163928Y-11331786D01*
X15178214Y-11317500D01*
X15206785Y-11303214D01*
X15249643Y-11303214D01*
X15278214Y-11317500D01*
X15292500Y-11331786D01*
X15306785Y-11360357D01*
X15306785Y-11446071D01*
X15292500Y-11474643D01*
X15278214Y-11488929D01*
X15249643Y-11503214D01*
X15206785Y-11503214D01*
X15478214Y-11503214D02*
X15449643Y-11488929D01*
X15435357Y-11460357D01*
X15435357Y-11203214D01*
X15706786Y-11488929D02*
X15678214Y-11503214D01*
X15621071Y-11503214D01*
X15592500Y-11488929D01*
X15578214Y-11460357D01*
X15578214Y-11346071D01*
X15592500Y-11317500D01*
X15621071Y-11303214D01*
X15678214Y-11303214D01*
X15706786Y-11317500D01*
X15721071Y-11346071D01*
X15721071Y-11374643D01*
X15578214Y-11403214D01*
X15835357Y-11488929D02*
X15863928Y-11503214D01*
X15921071Y-11503214D01*
X15949643Y-11488929D01*
X15963928Y-11460357D01*
X15963928Y-11446071D01*
X15949643Y-11417500D01*
X15921071Y-11403214D01*
X15878214Y-11403214D01*
X15849643Y-11388929D01*
X15835357Y-11360357D01*
X15835357Y-11346071D01*
X15849643Y-11317500D01*
X15878214Y-11303214D01*
X15921071Y-11303214D01*
X15949643Y-11317500D01*
X16063928Y-11617500D02*
X16078214Y-11603214D01*
X16106786Y-11560357D01*
X16121071Y-11531786D01*
X16135357Y-11488929D01*
X16149643Y-11417500D01*
X16149643Y-11360357D01*
X16135357Y-11288929D01*
X16121071Y-11246071D01*
X16106786Y-11217500D01*
X16078214Y-11174643D01*
X16063928Y-11160357D01*
X9592500Y-11763500D02*
G75*
G03X9592500Y-11763500I-32500J0D01*
G01*
X9921071Y-11599214D02*
X9949643Y-11599214D01*
X9978214Y-11613500D01*
X9992500Y-11627786D01*
X10006786Y-11656357D01*
X10021071Y-11713500D01*
X10021071Y-11784929D01*
X10006786Y-11842071D01*
X9992500Y-11870643D01*
X9978214Y-11884929D01*
X9949643Y-11899214D01*
X9921071Y-11899214D01*
X9892500Y-11884929D01*
X9878214Y-11870643D01*
X9863929Y-11842071D01*
X9849643Y-11784929D01*
X9849643Y-11713500D01*
X9863929Y-11656357D01*
X9878214Y-11627786D01*
X9892500Y-11613500D01*
X9921071Y-11599214D01*
X10149643Y-11870643D02*
X10163929Y-11884929D01*
X10149643Y-11899214D01*
X10135357Y-11884929D01*
X10149643Y-11870643D01*
X10149643Y-11899214D01*
X10421071Y-11599214D02*
X10363928Y-11599214D01*
X10335357Y-11613500D01*
X10321071Y-11627786D01*
X10292500Y-11670643D01*
X10278214Y-11727786D01*
X10278214Y-11842071D01*
X10292500Y-11870643D01*
X10306786Y-11884929D01*
X10335357Y-11899214D01*
X10392500Y-11899214D01*
X10421071Y-11884929D01*
X10435357Y-11870643D01*
X10449643Y-11842071D01*
X10449643Y-11770643D01*
X10435357Y-11742071D01*
X10421071Y-11727786D01*
X10392500Y-11713500D01*
X10335357Y-11713500D01*
X10306786Y-11727786D01*
X10292500Y-11742071D01*
X10278214Y-11770643D01*
X10721071Y-11599214D02*
X10578214Y-11599214D01*
X10563929Y-11742071D01*
X10578214Y-11727786D01*
X10606786Y-11713500D01*
X10678214Y-11713500D01*
X10706786Y-11727786D01*
X10721071Y-11742071D01*
X10735357Y-11770643D01*
X10735357Y-11842071D01*
X10721071Y-11870643D01*
X10706786Y-11884929D01*
X10678214Y-11899214D01*
X10606786Y-11899214D01*
X10578214Y-11884929D01*
X10563929Y-11870643D01*
X10863929Y-11899214D02*
X10863929Y-11699214D01*
X10863929Y-11727786D02*
X10878214Y-11713500D01*
X10906786Y-11699214D01*
X10949643Y-11699214D01*
X10978214Y-11713500D01*
X10992500Y-11742071D01*
X10992500Y-11899214D01*
X10992500Y-11742071D02*
X11006786Y-11713500D01*
X11035357Y-11699214D01*
X11078214Y-11699214D01*
X11106786Y-11713500D01*
X11121071Y-11742071D01*
X11121071Y-11899214D01*
X11263928Y-11899214D02*
X11263928Y-11699214D01*
X11263928Y-11727786D02*
X11278214Y-11713500D01*
X11306786Y-11699214D01*
X11349643Y-11699214D01*
X11378214Y-11713500D01*
X11392500Y-11742071D01*
X11392500Y-11899214D01*
X11392500Y-11742071D02*
X11406786Y-11713500D01*
X11435357Y-11699214D01*
X11478214Y-11699214D01*
X11506786Y-11713500D01*
X11521071Y-11742071D01*
X11521071Y-11899214D01*
X12106786Y-11584929D02*
X11849643Y-11970643D01*
X12492500Y-11599214D02*
X12521071Y-11599214D01*
X12549643Y-11613500D01*
X12563928Y-11627786D01*
X12578214Y-11656357D01*
X12592500Y-11713500D01*
X12592500Y-11784929D01*
X12578214Y-11842071D01*
X12563928Y-11870643D01*
X12549643Y-11884929D01*
X12521071Y-11899214D01*
X12492500Y-11899214D01*
X12463928Y-11884929D01*
X12449643Y-11870643D01*
X12435357Y-11842071D01*
X12421071Y-11784929D01*
X12421071Y-11713500D01*
X12435357Y-11656357D01*
X12449643Y-11627786D01*
X12463928Y-11613500D01*
X12492500Y-11599214D01*
X12721071Y-11870643D02*
X12735357Y-11884929D01*
X12721071Y-11899214D01*
X12706786Y-11884929D01*
X12721071Y-11870643D01*
X12721071Y-11899214D01*
X12921071Y-11599214D02*
X12949643Y-11599214D01*
X12978214Y-11613500D01*
X12992500Y-11627786D01*
X13006785Y-11656357D01*
X13021071Y-11713500D01*
X13021071Y-11784929D01*
X13006785Y-11842071D01*
X12992500Y-11870643D01*
X12978214Y-11884929D01*
X12949643Y-11899214D01*
X12921071Y-11899214D01*
X12892500Y-11884929D01*
X12878214Y-11870643D01*
X12863928Y-11842071D01*
X12849643Y-11784929D01*
X12849643Y-11713500D01*
X12863928Y-11656357D01*
X12878214Y-11627786D01*
X12892500Y-11613500D01*
X12921071Y-11599214D01*
X13135357Y-11627786D02*
X13149643Y-11613500D01*
X13178214Y-11599214D01*
X13249643Y-11599214D01*
X13278214Y-11613500D01*
X13292500Y-11627786D01*
X13306785Y-11656357D01*
X13306785Y-11684929D01*
X13292500Y-11727786D01*
X13121071Y-11899214D01*
X13306785Y-11899214D01*
X13563928Y-11599214D02*
X13506785Y-11599214D01*
X13478214Y-11613500D01*
X13463928Y-11627786D01*
X13435357Y-11670643D01*
X13421071Y-11727786D01*
X13421071Y-11842071D01*
X13435357Y-11870643D01*
X13449643Y-11884929D01*
X13478214Y-11899214D01*
X13535357Y-11899214D01*
X13563928Y-11884929D01*
X13578214Y-11870643D01*
X13592500Y-11842071D01*
X13592500Y-11770643D01*
X13578214Y-11742071D01*
X13563928Y-11727786D01*
X13535357Y-11713500D01*
X13478214Y-11713500D01*
X13449643Y-11727786D01*
X13435357Y-11742071D01*
X13421071Y-11770643D01*
X13706786Y-11599214D02*
X13706786Y-11656357D01*
X13821071Y-11599214D02*
X13821071Y-11656357D01*
X14263928Y-12013500D02*
X14249643Y-11999214D01*
X14221071Y-11956357D01*
X14206785Y-11927786D01*
X14192500Y-11884929D01*
X14178214Y-11813500D01*
X14178214Y-11756357D01*
X14192500Y-11684929D01*
X14206785Y-11642071D01*
X14221071Y-11613500D01*
X14249643Y-11570643D01*
X14263928Y-11556357D01*
X14421071Y-11727786D02*
X14392500Y-11713500D01*
X14378214Y-11699214D01*
X14363928Y-11670643D01*
X14363928Y-11656357D01*
X14378214Y-11627786D01*
X14392500Y-11613500D01*
X14421071Y-11599214D01*
X14478214Y-11599214D01*
X14506785Y-11613500D01*
X14521071Y-11627786D01*
X14535357Y-11656357D01*
X14535357Y-11670643D01*
X14521071Y-11699214D01*
X14506785Y-11713500D01*
X14478214Y-11727786D01*
X14421071Y-11727786D01*
X14392500Y-11742071D01*
X14378214Y-11756357D01*
X14363928Y-11784929D01*
X14363928Y-11842071D01*
X14378214Y-11870643D01*
X14392500Y-11884929D01*
X14421071Y-11899214D01*
X14478214Y-11899214D01*
X14506785Y-11884929D01*
X14521071Y-11870643D01*
X14535357Y-11842071D01*
X14535357Y-11784929D01*
X14521071Y-11756357D01*
X14506785Y-11742071D01*
X14478214Y-11727786D01*
X14892500Y-11899214D02*
X14892500Y-11599214D01*
X15021071Y-11899214D02*
X15021071Y-11742071D01*
X15006785Y-11713500D01*
X14978214Y-11699214D01*
X14935357Y-11699214D01*
X14906785Y-11713500D01*
X14892500Y-11727786D01*
X15206785Y-11899214D02*
X15178214Y-11884929D01*
X15163928Y-11870643D01*
X15149643Y-11842071D01*
X15149643Y-11756357D01*
X15163928Y-11727786D01*
X15178214Y-11713500D01*
X15206785Y-11699214D01*
X15249643Y-11699214D01*
X15278214Y-11713500D01*
X15292500Y-11727786D01*
X15306785Y-11756357D01*
X15306785Y-11842071D01*
X15292500Y-11870643D01*
X15278214Y-11884929D01*
X15249643Y-11899214D01*
X15206785Y-11899214D01*
X15478214Y-11899214D02*
X15449643Y-11884929D01*
X15435357Y-11856357D01*
X15435357Y-11599214D01*
X15706786Y-11884929D02*
X15678214Y-11899214D01*
X15621071Y-11899214D01*
X15592500Y-11884929D01*
X15578214Y-11856357D01*
X15578214Y-11742071D01*
X15592500Y-11713500D01*
X15621071Y-11699214D01*
X15678214Y-11699214D01*
X15706786Y-11713500D01*
X15721071Y-11742071D01*
X15721071Y-11770643D01*
X15578214Y-11799214D01*
X15835357Y-11884929D02*
X15863928Y-11899214D01*
X15921071Y-11899214D01*
X15949643Y-11884929D01*
X15963928Y-11856357D01*
X15963928Y-11842071D01*
X15949643Y-11813500D01*
X15921071Y-11799214D01*
X15878214Y-11799214D01*
X15849643Y-11784929D01*
X15835357Y-11756357D01*
X15835357Y-11742071D01*
X15849643Y-11713500D01*
X15878214Y-11699214D01*
X15921071Y-11699214D01*
X15949643Y-11713500D01*
X16063928Y-12013500D02*
X16078214Y-11999214D01*
X16106786Y-11956357D01*
X16121071Y-11927786D01*
X16135357Y-11884929D01*
X16149643Y-11813500D01*
X16149643Y-11756357D01*
X16135357Y-11684929D01*
X16121071Y-11642071D01*
X16106786Y-11613500D01*
X16078214Y-11570643D01*
X16063928Y-11556357D01*
X9557500Y-12124500D02*
X9557500Y-12194500D01*
X9522500Y-12159500D02*
X9592500Y-12159500D01*
X9921071Y-11995214D02*
X9949643Y-11995214D01*
X9978214Y-12009500D01*
X9992500Y-12023786D01*
X10006786Y-12052357D01*
X10021071Y-12109500D01*
X10021071Y-12180929D01*
X10006786Y-12238071D01*
X9992500Y-12266643D01*
X9978214Y-12280929D01*
X9949643Y-12295214D01*
X9921071Y-12295214D01*
X9892500Y-12280929D01*
X9878214Y-12266643D01*
X9863929Y-12238071D01*
X9849643Y-12180929D01*
X9849643Y-12109500D01*
X9863929Y-12052357D01*
X9878214Y-12023786D01*
X9892500Y-12009500D01*
X9921071Y-11995214D01*
X10149643Y-12266643D02*
X10163929Y-12280929D01*
X10149643Y-12295214D01*
X10135357Y-12280929D01*
X10149643Y-12266643D01*
X10149643Y-12295214D01*
X10263928Y-11995214D02*
X10463928Y-11995214D01*
X10335357Y-12295214D01*
X10635357Y-11995214D02*
X10663929Y-11995214D01*
X10692500Y-12009500D01*
X10706786Y-12023786D01*
X10721071Y-12052357D01*
X10735357Y-12109500D01*
X10735357Y-12180929D01*
X10721071Y-12238071D01*
X10706786Y-12266643D01*
X10692500Y-12280929D01*
X10663929Y-12295214D01*
X10635357Y-12295214D01*
X10606786Y-12280929D01*
X10592500Y-12266643D01*
X10578214Y-12238071D01*
X10563929Y-12180929D01*
X10563929Y-12109500D01*
X10578214Y-12052357D01*
X10592500Y-12023786D01*
X10606786Y-12009500D01*
X10635357Y-11995214D01*
X10863929Y-12295214D02*
X10863929Y-12095214D01*
X10863929Y-12123786D02*
X10878214Y-12109500D01*
X10906786Y-12095214D01*
X10949643Y-12095214D01*
X10978214Y-12109500D01*
X10992500Y-12138071D01*
X10992500Y-12295214D01*
X10992500Y-12138071D02*
X11006786Y-12109500D01*
X11035357Y-12095214D01*
X11078214Y-12095214D01*
X11106786Y-12109500D01*
X11121071Y-12138071D01*
X11121071Y-12295214D01*
X11263928Y-12295214D02*
X11263928Y-12095214D01*
X11263928Y-12123786D02*
X11278214Y-12109500D01*
X11306786Y-12095214D01*
X11349643Y-12095214D01*
X11378214Y-12109500D01*
X11392500Y-12138071D01*
X11392500Y-12295214D01*
X11392500Y-12138071D02*
X11406786Y-12109500D01*
X11435357Y-12095214D01*
X11478214Y-12095214D01*
X11506786Y-12109500D01*
X11521071Y-12138071D01*
X11521071Y-12295214D01*
X12106786Y-11980929D02*
X11849643Y-12366643D01*
X12492500Y-11995214D02*
X12521071Y-11995214D01*
X12549643Y-12009500D01*
X12563928Y-12023786D01*
X12578214Y-12052357D01*
X12592500Y-12109500D01*
X12592500Y-12180929D01*
X12578214Y-12238071D01*
X12563928Y-12266643D01*
X12549643Y-12280929D01*
X12521071Y-12295214D01*
X12492500Y-12295214D01*
X12463928Y-12280929D01*
X12449643Y-12266643D01*
X12435357Y-12238071D01*
X12421071Y-12180929D01*
X12421071Y-12109500D01*
X12435357Y-12052357D01*
X12449643Y-12023786D01*
X12463928Y-12009500D01*
X12492500Y-11995214D01*
X12721071Y-12266643D02*
X12735357Y-12280929D01*
X12721071Y-12295214D01*
X12706786Y-12280929D01*
X12721071Y-12266643D01*
X12721071Y-12295214D01*
X12921071Y-11995214D02*
X12949643Y-11995214D01*
X12978214Y-12009500D01*
X12992500Y-12023786D01*
X13006785Y-12052357D01*
X13021071Y-12109500D01*
X13021071Y-12180929D01*
X13006785Y-12238071D01*
X12992500Y-12266643D01*
X12978214Y-12280929D01*
X12949643Y-12295214D01*
X12921071Y-12295214D01*
X12892500Y-12280929D01*
X12878214Y-12266643D01*
X12863928Y-12238071D01*
X12849643Y-12180929D01*
X12849643Y-12109500D01*
X12863928Y-12052357D01*
X12878214Y-12023786D01*
X12892500Y-12009500D01*
X12921071Y-11995214D01*
X13135357Y-12023786D02*
X13149643Y-12009500D01*
X13178214Y-11995214D01*
X13249643Y-11995214D01*
X13278214Y-12009500D01*
X13292500Y-12023786D01*
X13306785Y-12052357D01*
X13306785Y-12080929D01*
X13292500Y-12123786D01*
X13121071Y-12295214D01*
X13306785Y-12295214D01*
X13478214Y-12123786D02*
X13449643Y-12109500D01*
X13435357Y-12095214D01*
X13421071Y-12066643D01*
X13421071Y-12052357D01*
X13435357Y-12023786D01*
X13449643Y-12009500D01*
X13478214Y-11995214D01*
X13535357Y-11995214D01*
X13563928Y-12009500D01*
X13578214Y-12023786D01*
X13592500Y-12052357D01*
X13592500Y-12066643D01*
X13578214Y-12095214D01*
X13563928Y-12109500D01*
X13535357Y-12123786D01*
X13478214Y-12123786D01*
X13449643Y-12138071D01*
X13435357Y-12152357D01*
X13421071Y-12180929D01*
X13421071Y-12238071D01*
X13435357Y-12266643D01*
X13449643Y-12280929D01*
X13478214Y-12295214D01*
X13535357Y-12295214D01*
X13563928Y-12280929D01*
X13578214Y-12266643D01*
X13592500Y-12238071D01*
X13592500Y-12180929D01*
X13578214Y-12152357D01*
X13563928Y-12138071D01*
X13535357Y-12123786D01*
X13706786Y-11995214D02*
X13706786Y-12052357D01*
X13821071Y-11995214D02*
X13821071Y-12052357D01*
X14263928Y-12409500D02*
X14249643Y-12395214D01*
X14221071Y-12352357D01*
X14206785Y-12323786D01*
X14192500Y-12280929D01*
X14178214Y-12209500D01*
X14178214Y-12152357D01*
X14192500Y-12080929D01*
X14206785Y-12038071D01*
X14221071Y-12009500D01*
X14249643Y-11966643D01*
X14263928Y-11952357D01*
X14521071Y-11995214D02*
X14378214Y-11995214D01*
X14363928Y-12138071D01*
X14378214Y-12123786D01*
X14406785Y-12109500D01*
X14478214Y-12109500D01*
X14506785Y-12123786D01*
X14521071Y-12138071D01*
X14535357Y-12166643D01*
X14535357Y-12238071D01*
X14521071Y-12266643D01*
X14506785Y-12280929D01*
X14478214Y-12295214D01*
X14406785Y-12295214D01*
X14378214Y-12280929D01*
X14363928Y-12266643D01*
X14649643Y-12023786D02*
X14663928Y-12009500D01*
X14692500Y-11995214D01*
X14763928Y-11995214D01*
X14792500Y-12009500D01*
X14806785Y-12023786D01*
X14821071Y-12052357D01*
X14821071Y-12080929D01*
X14806785Y-12123786D01*
X14635357Y-12295214D01*
X14821071Y-12295214D01*
X15178214Y-12295214D02*
X15178214Y-11995214D01*
X15306785Y-12295214D02*
X15306785Y-12138071D01*
X15292500Y-12109500D01*
X15263928Y-12095214D01*
X15221071Y-12095214D01*
X15192500Y-12109500D01*
X15178214Y-12123786D01*
X15492500Y-12295214D02*
X15463928Y-12280929D01*
X15449643Y-12266643D01*
X15435357Y-12238071D01*
X15435357Y-12152357D01*
X15449643Y-12123786D01*
X15463928Y-12109500D01*
X15492500Y-12095214D01*
X15535357Y-12095214D01*
X15563928Y-12109500D01*
X15578214Y-12123786D01*
X15592500Y-12152357D01*
X15592500Y-12238071D01*
X15578214Y-12266643D01*
X15563928Y-12280929D01*
X15535357Y-12295214D01*
X15492500Y-12295214D01*
X15763928Y-12295214D02*
X15735357Y-12280929D01*
X15721071Y-12252357D01*
X15721071Y-11995214D01*
X15992500Y-12280929D02*
X15963928Y-12295214D01*
X15906786Y-12295214D01*
X15878214Y-12280929D01*
X15863928Y-12252357D01*
X15863928Y-12138071D01*
X15878214Y-12109500D01*
X15906786Y-12095214D01*
X15963928Y-12095214D01*
X15992500Y-12109500D01*
X16006786Y-12138071D01*
X16006786Y-12166643D01*
X15863928Y-12195214D01*
X16121071Y-12280929D02*
X16149643Y-12295214D01*
X16206786Y-12295214D01*
X16235357Y-12280929D01*
X16249643Y-12252357D01*
X16249643Y-12238071D01*
X16235357Y-12209500D01*
X16206786Y-12195214D01*
X16163928Y-12195214D01*
X16135357Y-12180929D01*
X16121071Y-12152357D01*
X16121071Y-12138071D01*
X16135357Y-12109500D01*
X16163928Y-12095214D01*
X16206786Y-12095214D01*
X16235357Y-12109500D01*
X16349643Y-12409500D02*
X16363928Y-12395214D01*
X16392500Y-12352357D01*
X16406786Y-12323786D01*
X16421071Y-12280929D01*
X16435357Y-12209500D01*
X16435357Y-12152357D01*
X16421071Y-12080929D01*
X16406786Y-12038071D01*
X16392500Y-12009500D01*
X16363928Y-11966643D01*
X16349643Y-11952357D01*
X9580784Y-12583785D02*
X9580784Y-12527216D01*
X9524215Y-12527216D01*
X9524215Y-12583785D01*
X9580784Y-12583785D01*
X9921071Y-12391214D02*
X9949643Y-12391214D01*
X9978214Y-12405500D01*
X9992500Y-12419786D01*
X10006786Y-12448357D01*
X10021071Y-12505500D01*
X10021071Y-12576929D01*
X10006786Y-12634071D01*
X9992500Y-12662643D01*
X9978214Y-12676929D01*
X9949643Y-12691214D01*
X9921071Y-12691214D01*
X9892500Y-12676929D01*
X9878214Y-12662643D01*
X9863929Y-12634071D01*
X9849643Y-12576929D01*
X9849643Y-12505500D01*
X9863929Y-12448357D01*
X9878214Y-12419786D01*
X9892500Y-12405500D01*
X9921071Y-12391214D01*
X10149643Y-12662643D02*
X10163929Y-12676929D01*
X10149643Y-12691214D01*
X10135357Y-12676929D01*
X10149643Y-12662643D01*
X10149643Y-12691214D01*
X10335357Y-12519786D02*
X10306786Y-12505500D01*
X10292500Y-12491214D01*
X10278214Y-12462643D01*
X10278214Y-12448357D01*
X10292500Y-12419786D01*
X10306786Y-12405500D01*
X10335357Y-12391214D01*
X10392500Y-12391214D01*
X10421071Y-12405500D01*
X10435357Y-12419786D01*
X10449643Y-12448357D01*
X10449643Y-12462643D01*
X10435357Y-12491214D01*
X10421071Y-12505500D01*
X10392500Y-12519786D01*
X10335357Y-12519786D01*
X10306786Y-12534071D01*
X10292500Y-12548357D01*
X10278214Y-12576929D01*
X10278214Y-12634071D01*
X10292500Y-12662643D01*
X10306786Y-12676929D01*
X10335357Y-12691214D01*
X10392500Y-12691214D01*
X10421071Y-12676929D01*
X10435357Y-12662643D01*
X10449643Y-12634071D01*
X10449643Y-12576929D01*
X10435357Y-12548357D01*
X10421071Y-12534071D01*
X10392500Y-12519786D01*
X10635357Y-12391214D02*
X10663929Y-12391214D01*
X10692500Y-12405500D01*
X10706786Y-12419786D01*
X10721071Y-12448357D01*
X10735357Y-12505500D01*
X10735357Y-12576929D01*
X10721071Y-12634071D01*
X10706786Y-12662643D01*
X10692500Y-12676929D01*
X10663929Y-12691214D01*
X10635357Y-12691214D01*
X10606786Y-12676929D01*
X10592500Y-12662643D01*
X10578214Y-12634071D01*
X10563929Y-12576929D01*
X10563929Y-12505500D01*
X10578214Y-12448357D01*
X10592500Y-12419786D01*
X10606786Y-12405500D01*
X10635357Y-12391214D01*
X10863929Y-12691214D02*
X10863929Y-12491214D01*
X10863929Y-12519786D02*
X10878214Y-12505500D01*
X10906786Y-12491214D01*
X10949643Y-12491214D01*
X10978214Y-12505500D01*
X10992500Y-12534071D01*
X10992500Y-12691214D01*
X10992500Y-12534071D02*
X11006786Y-12505500D01*
X11035357Y-12491214D01*
X11078214Y-12491214D01*
X11106786Y-12505500D01*
X11121071Y-12534071D01*
X11121071Y-12691214D01*
X11263928Y-12691214D02*
X11263928Y-12491214D01*
X11263928Y-12519786D02*
X11278214Y-12505500D01*
X11306786Y-12491214D01*
X11349643Y-12491214D01*
X11378214Y-12505500D01*
X11392500Y-12534071D01*
X11392500Y-12691214D01*
X11392500Y-12534071D02*
X11406786Y-12505500D01*
X11435357Y-12491214D01*
X11478214Y-12491214D01*
X11506786Y-12505500D01*
X11521071Y-12534071D01*
X11521071Y-12691214D01*
X12106786Y-12376929D02*
X11849643Y-12762643D01*
X12492500Y-12391214D02*
X12521071Y-12391214D01*
X12549643Y-12405500D01*
X12563928Y-12419786D01*
X12578214Y-12448357D01*
X12592500Y-12505500D01*
X12592500Y-12576929D01*
X12578214Y-12634071D01*
X12563928Y-12662643D01*
X12549643Y-12676929D01*
X12521071Y-12691214D01*
X12492500Y-12691214D01*
X12463928Y-12676929D01*
X12449643Y-12662643D01*
X12435357Y-12634071D01*
X12421071Y-12576929D01*
X12421071Y-12505500D01*
X12435357Y-12448357D01*
X12449643Y-12419786D01*
X12463928Y-12405500D01*
X12492500Y-12391214D01*
X12721071Y-12662643D02*
X12735357Y-12676929D01*
X12721071Y-12691214D01*
X12706786Y-12676929D01*
X12721071Y-12662643D01*
X12721071Y-12691214D01*
X12921071Y-12391214D02*
X12949643Y-12391214D01*
X12978214Y-12405500D01*
X12992500Y-12419786D01*
X13006785Y-12448357D01*
X13021071Y-12505500D01*
X13021071Y-12576929D01*
X13006785Y-12634071D01*
X12992500Y-12662643D01*
X12978214Y-12676929D01*
X12949643Y-12691214D01*
X12921071Y-12691214D01*
X12892500Y-12676929D01*
X12878214Y-12662643D01*
X12863928Y-12634071D01*
X12849643Y-12576929D01*
X12849643Y-12505500D01*
X12863928Y-12448357D01*
X12878214Y-12419786D01*
X12892500Y-12405500D01*
X12921071Y-12391214D01*
X13121071Y-12391214D02*
X13306785Y-12391214D01*
X13206785Y-12505500D01*
X13249643Y-12505500D01*
X13278214Y-12519786D01*
X13292500Y-12534071D01*
X13306785Y-12562643D01*
X13306785Y-12634071D01*
X13292500Y-12662643D01*
X13278214Y-12676929D01*
X13249643Y-12691214D01*
X13163928Y-12691214D01*
X13135357Y-12676929D01*
X13121071Y-12662643D01*
X13592500Y-12691214D02*
X13421071Y-12691214D01*
X13506785Y-12691214D02*
X13506785Y-12391214D01*
X13478214Y-12434071D01*
X13449643Y-12462643D01*
X13421071Y-12476929D01*
X13706786Y-12391214D02*
X13706786Y-12448357D01*
X13821071Y-12391214D02*
X13821071Y-12448357D01*
X14263928Y-12805500D02*
X14249643Y-12791214D01*
X14221071Y-12748357D01*
X14206785Y-12719786D01*
X14192500Y-12676929D01*
X14178214Y-12605500D01*
X14178214Y-12548357D01*
X14192500Y-12476929D01*
X14206785Y-12434071D01*
X14221071Y-12405500D01*
X14249643Y-12362643D01*
X14263928Y-12348357D01*
X14363928Y-12419786D02*
X14378214Y-12405500D01*
X14406785Y-12391214D01*
X14478214Y-12391214D01*
X14506785Y-12405500D01*
X14521071Y-12419786D01*
X14535357Y-12448357D01*
X14535357Y-12476929D01*
X14521071Y-12519786D01*
X14349643Y-12691214D01*
X14535357Y-12691214D01*
X14792500Y-12491214D02*
X14792500Y-12691214D01*
X14721071Y-12376929D02*
X14649643Y-12591214D01*
X14835357Y-12591214D01*
X15178214Y-12691214D02*
X15178214Y-12391214D01*
X15306785Y-12691214D02*
X15306785Y-12534071D01*
X15292500Y-12505500D01*
X15263928Y-12491214D01*
X15221071Y-12491214D01*
X15192500Y-12505500D01*
X15178214Y-12519786D01*
X15492500Y-12691214D02*
X15463928Y-12676929D01*
X15449643Y-12662643D01*
X15435357Y-12634071D01*
X15435357Y-12548357D01*
X15449643Y-12519786D01*
X15463928Y-12505500D01*
X15492500Y-12491214D01*
X15535357Y-12491214D01*
X15563928Y-12505500D01*
X15578214Y-12519786D01*
X15592500Y-12548357D01*
X15592500Y-12634071D01*
X15578214Y-12662643D01*
X15563928Y-12676929D01*
X15535357Y-12691214D01*
X15492500Y-12691214D01*
X15763928Y-12691214D02*
X15735357Y-12676929D01*
X15721071Y-12648357D01*
X15721071Y-12391214D01*
X15992500Y-12676929D02*
X15963928Y-12691214D01*
X15906786Y-12691214D01*
X15878214Y-12676929D01*
X15863928Y-12648357D01*
X15863928Y-12534071D01*
X15878214Y-12505500D01*
X15906786Y-12491214D01*
X15963928Y-12491214D01*
X15992500Y-12505500D01*
X16006786Y-12534071D01*
X16006786Y-12562643D01*
X15863928Y-12591214D01*
X16121071Y-12676929D02*
X16149643Y-12691214D01*
X16206786Y-12691214D01*
X16235357Y-12676929D01*
X16249643Y-12648357D01*
X16249643Y-12634071D01*
X16235357Y-12605500D01*
X16206786Y-12591214D01*
X16163928Y-12591214D01*
X16135357Y-12576929D01*
X16121071Y-12548357D01*
X16121071Y-12534071D01*
X16135357Y-12505500D01*
X16163928Y-12491214D01*
X16206786Y-12491214D01*
X16235357Y-12505500D01*
X16349643Y-12805500D02*
X16363928Y-12791214D01*
X16392500Y-12748357D01*
X16406786Y-12719786D01*
X16421071Y-12676929D01*
X16435357Y-12605500D01*
X16435357Y-12548357D01*
X16421071Y-12476929D01*
X16406786Y-12434071D01*
X16392500Y-12405500D01*
X16363928Y-12362643D01*
X16349643Y-12348357D01*
X9542500Y-13001500D02*
X9592500Y-12951500D01*
X9542500Y-12901500D01*
X9492500Y-12951500D01*
X9542500Y-13001500D01*
X10021071Y-13087214D02*
X9849643Y-13087214D01*
X9935357Y-13087214D02*
X9935357Y-12787214D01*
X9906786Y-12830071D01*
X9878214Y-12858643D01*
X9849643Y-12872929D01*
X10149643Y-13058643D02*
X10163929Y-13072929D01*
X10149643Y-13087214D01*
X10135357Y-13072929D01*
X10149643Y-13058643D01*
X10149643Y-13087214D01*
X10349643Y-12787214D02*
X10378214Y-12787214D01*
X10406786Y-12801500D01*
X10421071Y-12815786D01*
X10435357Y-12844357D01*
X10449643Y-12901500D01*
X10449643Y-12972929D01*
X10435357Y-13030071D01*
X10421071Y-13058643D01*
X10406786Y-13072929D01*
X10378214Y-13087214D01*
X10349643Y-13087214D01*
X10321071Y-13072929D01*
X10306786Y-13058643D01*
X10292500Y-13030071D01*
X10278214Y-12972929D01*
X10278214Y-12901500D01*
X10292500Y-12844357D01*
X10306786Y-12815786D01*
X10321071Y-12801500D01*
X10349643Y-12787214D01*
X10635357Y-12787214D02*
X10663929Y-12787214D01*
X10692500Y-12801500D01*
X10706786Y-12815786D01*
X10721071Y-12844357D01*
X10735357Y-12901500D01*
X10735357Y-12972929D01*
X10721071Y-13030071D01*
X10706786Y-13058643D01*
X10692500Y-13072929D01*
X10663929Y-13087214D01*
X10635357Y-13087214D01*
X10606786Y-13072929D01*
X10592500Y-13058643D01*
X10578214Y-13030071D01*
X10563929Y-12972929D01*
X10563929Y-12901500D01*
X10578214Y-12844357D01*
X10592500Y-12815786D01*
X10606786Y-12801500D01*
X10635357Y-12787214D01*
X10863929Y-13087214D02*
X10863929Y-12887214D01*
X10863929Y-12915786D02*
X10878214Y-12901500D01*
X10906786Y-12887214D01*
X10949643Y-12887214D01*
X10978214Y-12901500D01*
X10992500Y-12930071D01*
X10992500Y-13087214D01*
X10992500Y-12930071D02*
X11006786Y-12901500D01*
X11035357Y-12887214D01*
X11078214Y-12887214D01*
X11106786Y-12901500D01*
X11121071Y-12930071D01*
X11121071Y-13087214D01*
X11263928Y-13087214D02*
X11263928Y-12887214D01*
X11263928Y-12915786D02*
X11278214Y-12901500D01*
X11306786Y-12887214D01*
X11349643Y-12887214D01*
X11378214Y-12901500D01*
X11392500Y-12930071D01*
X11392500Y-13087214D01*
X11392500Y-12930071D02*
X11406786Y-12901500D01*
X11435357Y-12887214D01*
X11478214Y-12887214D01*
X11506786Y-12901500D01*
X11521071Y-12930071D01*
X11521071Y-13087214D01*
X12106786Y-12772929D02*
X11849643Y-13158643D01*
X12492500Y-12787214D02*
X12521071Y-12787214D01*
X12549643Y-12801500D01*
X12563928Y-12815786D01*
X12578214Y-12844357D01*
X12592500Y-12901500D01*
X12592500Y-12972929D01*
X12578214Y-13030071D01*
X12563928Y-13058643D01*
X12549643Y-13072929D01*
X12521071Y-13087214D01*
X12492500Y-13087214D01*
X12463928Y-13072929D01*
X12449643Y-13058643D01*
X12435357Y-13030071D01*
X12421071Y-12972929D01*
X12421071Y-12901500D01*
X12435357Y-12844357D01*
X12449643Y-12815786D01*
X12463928Y-12801500D01*
X12492500Y-12787214D01*
X12721071Y-13058643D02*
X12735357Y-13072929D01*
X12721071Y-13087214D01*
X12706786Y-13072929D01*
X12721071Y-13058643D01*
X12721071Y-13087214D01*
X12921071Y-12787214D02*
X12949643Y-12787214D01*
X12978214Y-12801500D01*
X12992500Y-12815786D01*
X13006785Y-12844357D01*
X13021071Y-12901500D01*
X13021071Y-12972929D01*
X13006785Y-13030071D01*
X12992500Y-13058643D01*
X12978214Y-13072929D01*
X12949643Y-13087214D01*
X12921071Y-13087214D01*
X12892500Y-13072929D01*
X12878214Y-13058643D01*
X12863928Y-13030071D01*
X12849643Y-12972929D01*
X12849643Y-12901500D01*
X12863928Y-12844357D01*
X12878214Y-12815786D01*
X12892500Y-12801500D01*
X12921071Y-12787214D01*
X13121071Y-12787214D02*
X13306785Y-12787214D01*
X13206785Y-12901500D01*
X13249643Y-12901500D01*
X13278214Y-12915786D01*
X13292500Y-12930071D01*
X13306785Y-12958643D01*
X13306785Y-13030071D01*
X13292500Y-13058643D01*
X13278214Y-13072929D01*
X13249643Y-13087214D01*
X13163928Y-13087214D01*
X13135357Y-13072929D01*
X13121071Y-13058643D01*
X13449643Y-13087214D02*
X13506785Y-13087214D01*
X13535357Y-13072929D01*
X13549643Y-13058643D01*
X13578214Y-13015786D01*
X13592500Y-12958643D01*
X13592500Y-12844357D01*
X13578214Y-12815786D01*
X13563928Y-12801500D01*
X13535357Y-12787214D01*
X13478214Y-12787214D01*
X13449643Y-12801500D01*
X13435357Y-12815786D01*
X13421071Y-12844357D01*
X13421071Y-12915786D01*
X13435357Y-12944357D01*
X13449643Y-12958643D01*
X13478214Y-12972929D01*
X13535357Y-12972929D01*
X13563928Y-12958643D01*
X13578214Y-12944357D01*
X13592500Y-12915786D01*
X13706786Y-12787214D02*
X13706786Y-12844357D01*
X13821071Y-12787214D02*
X13821071Y-12844357D01*
X14263928Y-13201500D02*
X14249643Y-13187214D01*
X14221071Y-13144357D01*
X14206785Y-13115786D01*
X14192500Y-13072929D01*
X14178214Y-13001500D01*
X14178214Y-12944357D01*
X14192500Y-12872929D01*
X14206785Y-12830071D01*
X14221071Y-12801500D01*
X14249643Y-12758643D01*
X14263928Y-12744357D01*
X14363928Y-12815786D02*
X14378214Y-12801500D01*
X14406785Y-12787214D01*
X14478214Y-12787214D01*
X14506785Y-12801500D01*
X14521071Y-12815786D01*
X14535357Y-12844357D01*
X14535357Y-12872929D01*
X14521071Y-12915786D01*
X14349643Y-13087214D01*
X14535357Y-13087214D01*
X14649643Y-12815786D02*
X14663928Y-12801500D01*
X14692500Y-12787214D01*
X14763928Y-12787214D01*
X14792500Y-12801500D01*
X14806785Y-12815786D01*
X14821071Y-12844357D01*
X14821071Y-12872929D01*
X14806785Y-12915786D01*
X14635357Y-13087214D01*
X14821071Y-13087214D01*
X15178214Y-13087214D02*
X15178214Y-12787214D01*
X15306785Y-13087214D02*
X15306785Y-12930071D01*
X15292500Y-12901500D01*
X15263928Y-12887214D01*
X15221071Y-12887214D01*
X15192500Y-12901500D01*
X15178214Y-12915786D01*
X15492500Y-13087214D02*
X15463928Y-13072929D01*
X15449643Y-13058643D01*
X15435357Y-13030071D01*
X15435357Y-12944357D01*
X15449643Y-12915786D01*
X15463928Y-12901500D01*
X15492500Y-12887214D01*
X15535357Y-12887214D01*
X15563928Y-12901500D01*
X15578214Y-12915786D01*
X15592500Y-12944357D01*
X15592500Y-13030071D01*
X15578214Y-13058643D01*
X15563928Y-13072929D01*
X15535357Y-13087214D01*
X15492500Y-13087214D01*
X15763928Y-13087214D02*
X15735357Y-13072929D01*
X15721071Y-13044357D01*
X15721071Y-12787214D01*
X15992500Y-13072929D02*
X15963928Y-13087214D01*
X15906786Y-13087214D01*
X15878214Y-13072929D01*
X15863928Y-13044357D01*
X15863928Y-12930071D01*
X15878214Y-12901500D01*
X15906786Y-12887214D01*
X15963928Y-12887214D01*
X15992500Y-12901500D01*
X16006786Y-12930071D01*
X16006786Y-12958643D01*
X15863928Y-12987214D01*
X16121071Y-13072929D02*
X16149643Y-13087214D01*
X16206786Y-13087214D01*
X16235357Y-13072929D01*
X16249643Y-13044357D01*
X16249643Y-13030071D01*
X16235357Y-13001500D01*
X16206786Y-12987214D01*
X16163928Y-12987214D01*
X16135357Y-12972929D01*
X16121071Y-12944357D01*
X16121071Y-12930071D01*
X16135357Y-12901500D01*
X16163928Y-12887214D01*
X16206786Y-12887214D01*
X16235357Y-12901500D01*
X16349643Y-13201500D02*
X16363928Y-13187214D01*
X16392500Y-13144357D01*
X16406786Y-13115786D01*
X16421071Y-13072929D01*
X16435357Y-13001500D01*
X16435357Y-12944357D01*
X16421071Y-12872929D01*
X16406786Y-12830071D01*
X16392500Y-12801500D01*
X16363928Y-12758643D01*
X16349643Y-12744357D01*
X9492424Y-13297462D02*
X9592500Y-13397538D01*
X9592500Y-13297462D02*
X9492424Y-13397538D01*
X9592500Y-13347500D02*
G75*
G03X9592500Y-13347500I-50038J0D01*
G01*
X10021071Y-13483214D02*
X9849643Y-13483214D01*
X9935357Y-13483214D02*
X9935357Y-13183214D01*
X9906786Y-13226071D01*
X9878214Y-13254643D01*
X9849643Y-13268929D01*
X10149643Y-13454643D02*
X10163929Y-13468929D01*
X10149643Y-13483214D01*
X10135357Y-13468929D01*
X10149643Y-13454643D01*
X10149643Y-13483214D01*
X10349643Y-13183214D02*
X10378214Y-13183214D01*
X10406786Y-13197500D01*
X10421071Y-13211786D01*
X10435357Y-13240357D01*
X10449643Y-13297500D01*
X10449643Y-13368929D01*
X10435357Y-13426071D01*
X10421071Y-13454643D01*
X10406786Y-13468929D01*
X10378214Y-13483214D01*
X10349643Y-13483214D01*
X10321071Y-13468929D01*
X10306786Y-13454643D01*
X10292500Y-13426071D01*
X10278214Y-13368929D01*
X10278214Y-13297500D01*
X10292500Y-13240357D01*
X10306786Y-13211786D01*
X10321071Y-13197500D01*
X10349643Y-13183214D01*
X10635357Y-13183214D02*
X10663929Y-13183214D01*
X10692500Y-13197500D01*
X10706786Y-13211786D01*
X10721071Y-13240357D01*
X10735357Y-13297500D01*
X10735357Y-13368929D01*
X10721071Y-13426071D01*
X10706786Y-13454643D01*
X10692500Y-13468929D01*
X10663929Y-13483214D01*
X10635357Y-13483214D01*
X10606786Y-13468929D01*
X10592500Y-13454643D01*
X10578214Y-13426071D01*
X10563929Y-13368929D01*
X10563929Y-13297500D01*
X10578214Y-13240357D01*
X10592500Y-13211786D01*
X10606786Y-13197500D01*
X10635357Y-13183214D01*
X10863929Y-13483214D02*
X10863929Y-13283214D01*
X10863929Y-13311786D02*
X10878214Y-13297500D01*
X10906786Y-13283214D01*
X10949643Y-13283214D01*
X10978214Y-13297500D01*
X10992500Y-13326071D01*
X10992500Y-13483214D01*
X10992500Y-13326071D02*
X11006786Y-13297500D01*
X11035357Y-13283214D01*
X11078214Y-13283214D01*
X11106786Y-13297500D01*
X11121071Y-13326071D01*
X11121071Y-13483214D01*
X11263928Y-13483214D02*
X11263928Y-13283214D01*
X11263928Y-13311786D02*
X11278214Y-13297500D01*
X11306786Y-13283214D01*
X11349643Y-13283214D01*
X11378214Y-13297500D01*
X11392500Y-13326071D01*
X11392500Y-13483214D01*
X11392500Y-13326071D02*
X11406786Y-13297500D01*
X11435357Y-13283214D01*
X11478214Y-13283214D01*
X11506786Y-13297500D01*
X11521071Y-13326071D01*
X11521071Y-13483214D01*
X12106786Y-13168929D02*
X11849643Y-13554643D01*
X12492500Y-13183214D02*
X12521071Y-13183214D01*
X12549643Y-13197500D01*
X12563928Y-13211786D01*
X12578214Y-13240357D01*
X12592500Y-13297500D01*
X12592500Y-13368929D01*
X12578214Y-13426071D01*
X12563928Y-13454643D01*
X12549643Y-13468929D01*
X12521071Y-13483214D01*
X12492500Y-13483214D01*
X12463928Y-13468929D01*
X12449643Y-13454643D01*
X12435357Y-13426071D01*
X12421071Y-13368929D01*
X12421071Y-13297500D01*
X12435357Y-13240357D01*
X12449643Y-13211786D01*
X12463928Y-13197500D01*
X12492500Y-13183214D01*
X12721071Y-13454643D02*
X12735357Y-13468929D01*
X12721071Y-13483214D01*
X12706786Y-13468929D01*
X12721071Y-13454643D01*
X12721071Y-13483214D01*
X12921071Y-13183214D02*
X12949643Y-13183214D01*
X12978214Y-13197500D01*
X12992500Y-13211786D01*
X13006785Y-13240357D01*
X13021071Y-13297500D01*
X13021071Y-13368929D01*
X13006785Y-13426071D01*
X12992500Y-13454643D01*
X12978214Y-13468929D01*
X12949643Y-13483214D01*
X12921071Y-13483214D01*
X12892500Y-13468929D01*
X12878214Y-13454643D01*
X12863928Y-13426071D01*
X12849643Y-13368929D01*
X12849643Y-13297500D01*
X12863928Y-13240357D01*
X12878214Y-13211786D01*
X12892500Y-13197500D01*
X12921071Y-13183214D01*
X13121071Y-13183214D02*
X13306785Y-13183214D01*
X13206785Y-13297500D01*
X13249643Y-13297500D01*
X13278214Y-13311786D01*
X13292500Y-13326071D01*
X13306785Y-13354643D01*
X13306785Y-13426071D01*
X13292500Y-13454643D01*
X13278214Y-13468929D01*
X13249643Y-13483214D01*
X13163928Y-13483214D01*
X13135357Y-13468929D01*
X13121071Y-13454643D01*
X13449643Y-13483214D02*
X13506785Y-13483214D01*
X13535357Y-13468929D01*
X13549643Y-13454643D01*
X13578214Y-13411786D01*
X13592500Y-13354643D01*
X13592500Y-13240357D01*
X13578214Y-13211786D01*
X13563928Y-13197500D01*
X13535357Y-13183214D01*
X13478214Y-13183214D01*
X13449643Y-13197500D01*
X13435357Y-13211786D01*
X13421071Y-13240357D01*
X13421071Y-13311786D01*
X13435357Y-13340357D01*
X13449643Y-13354643D01*
X13478214Y-13368929D01*
X13535357Y-13368929D01*
X13563928Y-13354643D01*
X13578214Y-13340357D01*
X13592500Y-13311786D01*
X13706786Y-13183214D02*
X13706786Y-13240357D01*
X13821071Y-13183214D02*
X13821071Y-13240357D01*
X14263928Y-13597500D02*
X14249643Y-13583214D01*
X14221071Y-13540357D01*
X14206785Y-13511786D01*
X14192500Y-13468929D01*
X14178214Y-13397500D01*
X14178214Y-13340357D01*
X14192500Y-13268929D01*
X14206785Y-13226071D01*
X14221071Y-13197500D01*
X14249643Y-13154643D01*
X14263928Y-13140357D01*
X14506785Y-13283214D02*
X14506785Y-13483214D01*
X14435357Y-13168929D02*
X14363928Y-13383214D01*
X14549643Y-13383214D01*
X14892500Y-13483214D02*
X14892500Y-13183214D01*
X15021071Y-13483214D02*
X15021071Y-13326071D01*
X15006785Y-13297500D01*
X14978214Y-13283214D01*
X14935357Y-13283214D01*
X14906785Y-13297500D01*
X14892500Y-13311786D01*
X15206785Y-13483214D02*
X15178214Y-13468929D01*
X15163928Y-13454643D01*
X15149643Y-13426071D01*
X15149643Y-13340357D01*
X15163928Y-13311786D01*
X15178214Y-13297500D01*
X15206785Y-13283214D01*
X15249643Y-13283214D01*
X15278214Y-13297500D01*
X15292500Y-13311786D01*
X15306785Y-13340357D01*
X15306785Y-13426071D01*
X15292500Y-13454643D01*
X15278214Y-13468929D01*
X15249643Y-13483214D01*
X15206785Y-13483214D01*
X15478214Y-13483214D02*
X15449643Y-13468929D01*
X15435357Y-13440357D01*
X15435357Y-13183214D01*
X15706786Y-13468929D02*
X15678214Y-13483214D01*
X15621071Y-13483214D01*
X15592500Y-13468929D01*
X15578214Y-13440357D01*
X15578214Y-13326071D01*
X15592500Y-13297500D01*
X15621071Y-13283214D01*
X15678214Y-13283214D01*
X15706786Y-13297500D01*
X15721071Y-13326071D01*
X15721071Y-13354643D01*
X15578214Y-13383214D01*
X15835357Y-13468929D02*
X15863928Y-13483214D01*
X15921071Y-13483214D01*
X15949643Y-13468929D01*
X15963928Y-13440357D01*
X15963928Y-13426071D01*
X15949643Y-13397500D01*
X15921071Y-13383214D01*
X15878214Y-13383214D01*
X15849643Y-13368929D01*
X15835357Y-13340357D01*
X15835357Y-13326071D01*
X15849643Y-13297500D01*
X15878214Y-13283214D01*
X15921071Y-13283214D01*
X15949643Y-13297500D01*
X16063928Y-13597500D02*
X16078214Y-13583214D01*
X16106786Y-13540357D01*
X16121071Y-13511786D01*
X16135357Y-13468929D01*
X16149643Y-13397500D01*
X16149643Y-13340357D01*
X16135357Y-13268929D01*
X16121071Y-13226071D01*
X16106786Y-13197500D01*
X16078214Y-13154643D01*
X16063928Y-13140357D01*
M02*
