G04 #@! TF.FileFunction,Soldermask,Bot*
%FSLAX46Y46*%
G04 Gerber Fmt 4.6, Leading zero omitted, Abs format (unit mm)*
G04 Created by KiCad (PCBNEW 4.0.7) date Sunday 08 October 2017 21:17:18*
%MOMM*%
%LPD*%
G01*
G04 APERTURE LIST*
%ADD10C,0.100000*%
%ADD11C,2.398980*%
%ADD12O,2.000000X2.700000*%
%ADD13R,2.100000X2.100000*%
%ADD14O,2.100000X2.100000*%
%ADD15C,2.400000*%
%ADD16R,2.000000X2.000000*%
%ADD17C,2.000000*%
%ADD18R,1.900000X1.900000*%
%ADD19C,1.900000*%
%ADD20O,1.600000X2.000000*%
%ADD21O,1.600000X1.600000*%
%ADD22O,2.000000X2.000000*%
%ADD23C,1.800000*%
%ADD24O,1.800000X1.800000*%
G04 APERTURE END LIST*
D10*
D11*
X133075000Y-92805000D03*
X133075000Y-100425000D03*
X148325000Y-92755000D03*
X148325000Y-100375000D03*
D12*
X129005000Y-73450000D03*
X131545000Y-73450000D03*
X134085000Y-73450000D03*
X136625000Y-73450000D03*
X136625000Y-65830000D03*
X134085000Y-65830000D03*
X131545000Y-65830000D03*
X129005000Y-65830000D03*
D13*
X110000000Y-98000000D03*
D14*
X107460000Y-98000000D03*
X104920000Y-98000000D03*
X102380000Y-98000000D03*
D13*
X143000000Y-98000000D03*
D14*
X140460000Y-98000000D03*
X137920000Y-98000000D03*
D13*
X174425000Y-98000000D03*
D14*
X171885000Y-98000000D03*
X169345000Y-98000000D03*
D15*
X111700000Y-50050000D03*
X114200000Y-50050000D03*
X116700000Y-50050000D03*
X111700000Y-52550000D03*
X114200000Y-52550000D03*
X116700000Y-52550000D03*
X154575000Y-50075000D03*
X157075000Y-50075000D03*
X159575000Y-50075000D03*
X154575000Y-52575000D03*
X157075000Y-52575000D03*
X159575000Y-52575000D03*
D16*
X132975000Y-87800000D03*
D17*
X130475000Y-87800000D03*
D16*
X148325000Y-87500000D03*
D17*
X150825000Y-87500000D03*
D18*
X125750000Y-81550000D03*
D19*
X127750000Y-81550000D03*
D18*
X127925000Y-57600000D03*
D19*
X125925000Y-57600000D03*
D20*
X170500000Y-58685000D03*
D21*
X169230000Y-59955000D03*
X170500000Y-61225000D03*
D20*
X171175000Y-77260000D03*
D21*
X169905000Y-78530000D03*
X171175000Y-79800000D03*
D20*
X153575000Y-58335000D03*
D21*
X152305000Y-59605000D03*
X153575000Y-60875000D03*
D20*
X154350000Y-77375000D03*
D21*
X153080000Y-78645000D03*
X154350000Y-79915000D03*
D16*
X163600000Y-67320000D03*
D22*
X163600000Y-59700000D03*
D16*
X163675000Y-78495000D03*
D22*
X163675000Y-70875000D03*
D16*
X147525000Y-67175000D03*
D22*
X147525000Y-59555000D03*
D16*
X147525000Y-78800000D03*
D22*
X147525000Y-71180000D03*
D23*
X130755000Y-77275000D03*
D24*
X125675000Y-77275000D03*
D23*
X132980000Y-61900000D03*
D24*
X127900000Y-61900000D03*
D23*
X159975000Y-64730000D03*
D24*
X159975000Y-59650000D03*
D23*
X160325000Y-78450000D03*
D24*
X160325000Y-73370000D03*
D23*
X156305000Y-67175000D03*
D24*
X151225000Y-67175000D03*
D23*
X151445000Y-72675000D03*
D24*
X156525000Y-72675000D03*
D23*
X170325000Y-92475000D03*
D24*
X170325000Y-87395000D03*
D23*
X137955000Y-77250000D03*
D24*
X132875000Y-77250000D03*
D23*
X166400000Y-92430000D03*
D24*
X166400000Y-87350000D03*
D23*
X158450000Y-92400000D03*
D24*
X158450000Y-87320000D03*
D23*
X140455000Y-61900000D03*
D24*
X135375000Y-61900000D03*
D23*
X162400000Y-92405000D03*
D24*
X162400000Y-87325000D03*
D23*
X100000000Y-75000000D03*
D24*
X100000000Y-80080000D03*
D23*
X121000000Y-80000000D03*
D24*
X121000000Y-85080000D03*
D23*
X104000000Y-66000000D03*
D24*
X109080000Y-66000000D03*
D23*
X112000000Y-66000000D03*
D24*
X117080000Y-66000000D03*
D23*
X107000000Y-80000000D03*
D24*
X107000000Y-85080000D03*
D23*
X114000000Y-75000000D03*
D24*
X114000000Y-80080000D03*
D23*
X104000000Y-61000000D03*
D24*
X109080000Y-61000000D03*
D23*
X112000000Y-61000000D03*
D24*
X117080000Y-61000000D03*
D17*
X100000000Y-88000000D03*
X100000000Y-93000000D03*
X107000000Y-88000000D03*
X107000000Y-93000000D03*
X114000000Y-88000000D03*
X114000000Y-93000000D03*
X121000000Y-88000000D03*
X121000000Y-93000000D03*
M02*
