M48
;DRILL file {KiCad 4.0.7} date Sunday 08 October 2017 21:17:21
;FORMAT={-:-/ absolute / metric / decimal}
FMAT,2
METRIC,TZ
T1C0.400
T2C0.650
T3C0.700
T4C0.800
T5C1.000
T6C1.001
%
G90
G05
M71
T1
X140.35Y-71.325
X142.325Y-91.525
X143.975Y-65.75
X144.025Y-69.775
X163.8Y-96.25
T2
X125.75Y-81.55
X125.925Y-57.6
X127.75Y-81.55
X127.925Y-57.6
X130.475Y-87.8
X132.975Y-87.8
X148.325Y-87.5
X150.825Y-87.5
T3
X100.Y-75.
X100.Y-80.08
X104.Y-61.
X104.Y-66.
X107.Y-80.
X107.Y-85.08
X109.08Y-61.
X109.08Y-66.
X112.Y-61.
X112.Y-66.
X114.Y-75.
X114.Y-80.08
X117.08Y-61.
X117.08Y-66.
X121.Y-80.
X121.Y-85.08
X125.675Y-77.275
X127.9Y-61.9
X130.755Y-77.275
X132.875Y-77.25
X132.98Y-61.9
X135.375Y-61.9
X137.955Y-77.25
X140.455Y-61.9
X151.225Y-67.175
X151.445Y-72.675
X152.305Y-59.605
X153.08Y-78.645
X153.575Y-58.335
X153.575Y-60.875
X154.35Y-77.375
X154.35Y-79.915
X156.305Y-67.175
X156.525Y-72.675
X158.45Y-87.32
X158.45Y-92.4
X159.975Y-59.65
X159.975Y-64.73
X160.325Y-73.37
X160.325Y-78.45
X162.4Y-87.325
X162.4Y-92.405
X166.4Y-87.35
X166.4Y-92.43
X169.23Y-59.955
X169.905Y-78.53
X170.325Y-87.395
X170.325Y-92.475
X170.5Y-58.685
X170.5Y-61.225
X171.175Y-77.26
X171.175Y-79.8
T4
X100.Y-88.
X100.Y-93.
X107.Y-88.
X107.Y-93.
X114.Y-88.
X114.Y-93.
X121.Y-88.
X121.Y-93.
X129.005Y-65.83
X129.005Y-73.45
X131.545Y-65.83
X131.545Y-73.45
X134.085Y-65.83
X134.085Y-73.45
X136.625Y-65.83
X136.625Y-73.45
X147.525Y-59.555
X147.525Y-67.175
X147.525Y-71.18
X147.525Y-78.8
X163.6Y-59.7
X163.6Y-67.32
X163.675Y-70.875
X163.675Y-78.495
T5
X102.38Y-98.
X104.92Y-98.
X107.46Y-98.
X110.Y-98.
X111.7Y-50.05
X111.7Y-52.55
X114.2Y-50.05
X114.2Y-52.55
X116.7Y-50.05
X116.7Y-52.55
X137.92Y-98.
X140.46Y-98.
X143.Y-98.
X154.575Y-50.075
X154.575Y-52.575
X157.075Y-50.075
X157.075Y-52.575
X159.575Y-50.075
X159.575Y-52.575
X169.345Y-98.
X171.885Y-98.
X174.425Y-98.
T6
X133.075Y-92.805
X133.075Y-100.425
X148.325Y-92.755
X148.325Y-100.375
T0
M30
