G04 #@! TF.FileFunction,Copper,L2,Bot,Signal*
%FSLAX46Y46*%
G04 Gerber Fmt 4.6, Leading zero omitted, Abs format (unit mm)*
G04 Created by KiCad (PCBNEW 4.0.7) date Sunday 08 October 2017 21:17:18*
%MOMM*%
%LPD*%
G01*
G04 APERTURE LIST*
%ADD10C,0.100000*%
%ADD11C,1.998980*%
%ADD12O,1.600000X2.300000*%
%ADD13R,1.700000X1.700000*%
%ADD14O,1.700000X1.700000*%
%ADD15C,2.000000*%
%ADD16R,1.600000X1.600000*%
%ADD17C,1.600000*%
%ADD18R,1.500000X1.500000*%
%ADD19C,1.500000*%
%ADD20O,1.200000X1.600000*%
%ADD21O,1.200000X1.200000*%
%ADD22O,1.600000X1.600000*%
%ADD23C,1.400000*%
%ADD24O,1.400000X1.400000*%
%ADD25C,1.000000*%
%ADD26C,1.000000*%
%ADD27C,0.254000*%
G04 APERTURE END LIST*
D10*
D11*
X133075000Y-92805000D03*
X133075000Y-100425000D03*
X148325000Y-92755000D03*
X148325000Y-100375000D03*
D12*
X129005000Y-73450000D03*
X131545000Y-73450000D03*
X134085000Y-73450000D03*
X136625000Y-73450000D03*
X136625000Y-65830000D03*
X134085000Y-65830000D03*
X131545000Y-65830000D03*
X129005000Y-65830000D03*
D13*
X110000000Y-98000000D03*
D14*
X107460000Y-98000000D03*
X104920000Y-98000000D03*
X102380000Y-98000000D03*
D13*
X143000000Y-98000000D03*
D14*
X140460000Y-98000000D03*
X137920000Y-98000000D03*
D13*
X174425000Y-98000000D03*
D14*
X171885000Y-98000000D03*
X169345000Y-98000000D03*
D15*
X111700000Y-50050000D03*
X114200000Y-50050000D03*
X116700000Y-50050000D03*
X111700000Y-52550000D03*
X114200000Y-52550000D03*
X116700000Y-52550000D03*
X154575000Y-50075000D03*
X157075000Y-50075000D03*
X159575000Y-50075000D03*
X154575000Y-52575000D03*
X157075000Y-52575000D03*
X159575000Y-52575000D03*
D16*
X132975000Y-87800000D03*
D17*
X130475000Y-87800000D03*
D16*
X148325000Y-87500000D03*
D17*
X150825000Y-87500000D03*
D18*
X125750000Y-81550000D03*
D19*
X127750000Y-81550000D03*
D18*
X127925000Y-57600000D03*
D19*
X125925000Y-57600000D03*
D20*
X170500000Y-58685000D03*
D21*
X169230000Y-59955000D03*
X170500000Y-61225000D03*
D20*
X171175000Y-77260000D03*
D21*
X169905000Y-78530000D03*
X171175000Y-79800000D03*
D20*
X153575000Y-58335000D03*
D21*
X152305000Y-59605000D03*
X153575000Y-60875000D03*
D20*
X154350000Y-77375000D03*
D21*
X153080000Y-78645000D03*
X154350000Y-79915000D03*
D16*
X163600000Y-67320000D03*
D22*
X163600000Y-59700000D03*
D16*
X163675000Y-78495000D03*
D22*
X163675000Y-70875000D03*
D16*
X147525000Y-67175000D03*
D22*
X147525000Y-59555000D03*
D16*
X147525000Y-78800000D03*
D22*
X147525000Y-71180000D03*
D23*
X130755000Y-77275000D03*
D24*
X125675000Y-77275000D03*
D23*
X132980000Y-61900000D03*
D24*
X127900000Y-61900000D03*
D23*
X159975000Y-64730000D03*
D24*
X159975000Y-59650000D03*
D23*
X160325000Y-78450000D03*
D24*
X160325000Y-73370000D03*
D23*
X156305000Y-67175000D03*
D24*
X151225000Y-67175000D03*
D23*
X151445000Y-72675000D03*
D24*
X156525000Y-72675000D03*
D23*
X170325000Y-92475000D03*
D24*
X170325000Y-87395000D03*
D23*
X137955000Y-77250000D03*
D24*
X132875000Y-77250000D03*
D23*
X166400000Y-92430000D03*
D24*
X166400000Y-87350000D03*
D23*
X158450000Y-92400000D03*
D24*
X158450000Y-87320000D03*
D23*
X140455000Y-61900000D03*
D24*
X135375000Y-61900000D03*
D23*
X162400000Y-92405000D03*
D24*
X162400000Y-87325000D03*
D23*
X100000000Y-75000000D03*
D24*
X100000000Y-80080000D03*
D23*
X121000000Y-80000000D03*
D24*
X121000000Y-85080000D03*
D23*
X104000000Y-66000000D03*
D24*
X109080000Y-66000000D03*
D23*
X112000000Y-66000000D03*
D24*
X117080000Y-66000000D03*
D23*
X107000000Y-80000000D03*
D24*
X107000000Y-85080000D03*
D23*
X114000000Y-75000000D03*
D24*
X114000000Y-80080000D03*
D23*
X104000000Y-61000000D03*
D24*
X109080000Y-61000000D03*
D23*
X112000000Y-61000000D03*
D24*
X117080000Y-61000000D03*
D17*
X100000000Y-88000000D03*
X100000000Y-93000000D03*
X107000000Y-88000000D03*
X107000000Y-93000000D03*
X114000000Y-88000000D03*
X114000000Y-93000000D03*
X121000000Y-88000000D03*
X121000000Y-93000000D03*
D25*
X163800000Y-96250000D03*
X142325000Y-91525000D03*
X140350000Y-71325000D03*
X144025000Y-69775000D03*
X143975000Y-65750000D03*
D26*
X130475000Y-87800000D02*
X130475000Y-84275000D01*
X130475000Y-84275000D02*
X127750000Y-81550000D01*
X143000000Y-98000000D02*
X169345000Y-98000000D01*
X130475000Y-87800000D02*
X130475000Y-94050000D01*
X130475000Y-94050000D02*
X131900000Y-95475000D01*
X131900000Y-95475000D02*
X140525002Y-95475000D01*
X140525002Y-95475000D02*
X143000000Y-97949998D01*
X143000000Y-97949998D02*
X143000000Y-98000000D01*
X123550000Y-47650000D02*
X115185787Y-47650000D01*
X115185787Y-47650000D02*
X114200000Y-48635787D01*
X114200000Y-48635787D02*
X114200000Y-50050000D01*
X125925000Y-50025000D02*
X123550000Y-47650000D01*
X125925000Y-57600000D02*
X125925000Y-50025000D01*
X159575000Y-50075000D02*
X159575000Y-52575000D01*
X114200000Y-50050000D02*
X114200000Y-52550000D01*
X125675000Y-77275000D02*
X125675000Y-81475000D01*
X125675000Y-81475000D02*
X125750000Y-81550000D01*
X127925000Y-57600000D02*
X127925000Y-61875000D01*
X127925000Y-61875000D02*
X127900000Y-61900000D01*
X129005000Y-65830000D02*
X127205000Y-65830000D01*
X127205000Y-65830000D02*
X126525000Y-66510000D01*
X126525000Y-66510000D02*
X126525000Y-73725000D01*
X128250000Y-75449177D02*
X128250000Y-78800000D01*
X126525000Y-73725000D02*
X126525823Y-73725000D01*
X126525823Y-73725000D02*
X128250000Y-75449177D01*
X128250000Y-78800000D02*
X132975000Y-83525000D01*
X132975000Y-83525000D02*
X132975000Y-83825000D01*
X132975000Y-83825000D02*
X132975000Y-87800000D01*
X159975000Y-64730000D02*
X160674999Y-64030001D01*
X160674999Y-64030001D02*
X167694999Y-64030001D01*
X167694999Y-64030001D02*
X169900001Y-61824999D01*
X169900001Y-61824999D02*
X170500000Y-61225000D01*
X153575000Y-60875000D02*
X153575000Y-64445000D01*
X153575000Y-64445000D02*
X156305000Y-67175000D01*
X156305000Y-67175000D02*
X157530000Y-67175000D01*
X157530000Y-67175000D02*
X159975000Y-64730000D01*
X132975000Y-87800000D02*
X132975000Y-92705000D01*
X132975000Y-92705000D02*
X133075000Y-92805000D01*
X136625000Y-73450000D02*
X140450000Y-73450000D01*
X140450000Y-73450000D02*
X144300000Y-77300000D01*
X148325000Y-87500000D02*
X146525000Y-87500000D01*
X146525000Y-87500000D02*
X144300000Y-85275000D01*
X144300000Y-85275000D02*
X144300000Y-77300000D01*
X154350000Y-77375000D02*
X154350000Y-74850000D01*
X154350000Y-74850000D02*
X156525000Y-72675000D01*
X160325000Y-73370000D02*
X167485000Y-73370000D01*
X167485000Y-73370000D02*
X171175000Y-77060000D01*
X171175000Y-77060000D02*
X171175000Y-77260000D01*
X156525000Y-72675000D02*
X159630000Y-72675000D01*
X159630000Y-72675000D02*
X160325000Y-73370000D01*
X148325000Y-92755000D02*
X148325000Y-87500000D01*
X144995097Y-96175010D02*
X163725010Y-96175010D01*
X163725010Y-96175010D02*
X163800000Y-96250000D01*
X144995097Y-96175010D02*
X163024990Y-96175010D01*
X163024990Y-96175010D02*
X163025000Y-96175000D01*
X139054990Y-90234903D02*
X144995097Y-96175010D01*
X174425000Y-98000000D02*
X174425000Y-96575000D01*
X174425000Y-96575000D02*
X170325000Y-92475000D01*
X166400000Y-92430000D02*
X170280000Y-92430000D01*
X170280000Y-92430000D02*
X170325000Y-92475000D01*
X137955000Y-77250000D02*
X139054990Y-78349990D01*
X139054990Y-78349990D02*
X139054990Y-90234903D01*
X146000000Y-94654491D02*
X156175000Y-94654491D01*
X156175000Y-94654491D02*
X168539491Y-94654491D01*
X158450000Y-92400000D02*
X157750001Y-93099999D01*
X157750001Y-93099999D02*
X157729492Y-93099999D01*
X157729492Y-93099999D02*
X156175000Y-94654491D01*
X146000000Y-94654491D02*
X145454491Y-94654491D01*
X145454491Y-94654491D02*
X142325000Y-91525000D01*
X168539491Y-94654491D02*
X168660000Y-94775000D01*
X168660000Y-94775000D02*
X171885000Y-98000000D01*
X160225000Y-92400000D02*
X162395000Y-92400000D01*
X158450000Y-92400000D02*
X160225000Y-92400000D01*
X171885000Y-98000000D02*
X169510000Y-95625000D01*
X162395000Y-92400000D02*
X162400000Y-92405000D01*
X163600000Y-59700000D02*
X160025000Y-59700000D01*
X160025000Y-59700000D02*
X159975000Y-59650000D01*
X163600000Y-59700000D02*
X168975000Y-59700000D01*
X168975000Y-59700000D02*
X169230000Y-59955000D01*
X140350000Y-71325000D02*
X143725000Y-71325000D01*
X143725000Y-71325000D02*
X145450000Y-73050000D01*
X145450000Y-73050000D02*
X148701998Y-73050000D01*
X148701998Y-73050000D02*
X150876998Y-70875000D01*
X150876998Y-70875000D02*
X163675000Y-70875000D01*
X163675000Y-70875000D02*
X163675000Y-67395000D01*
X163675000Y-67395000D02*
X163600000Y-67320000D01*
X163675000Y-78495000D02*
X169870000Y-78495000D01*
X169870000Y-78495000D02*
X169905000Y-78530000D01*
X160325000Y-78450000D02*
X163630000Y-78450000D01*
X163630000Y-78450000D02*
X163675000Y-78495000D01*
X147525000Y-59555000D02*
X152255000Y-59555000D01*
X152255000Y-59555000D02*
X152305000Y-59605000D01*
X152305000Y-59605000D02*
X151225000Y-60685000D01*
X151225000Y-60685000D02*
X151225000Y-67175000D01*
X131545000Y-65830000D02*
X131545000Y-67980000D01*
X146850000Y-68250000D02*
X147525000Y-68925000D01*
X131545000Y-67980000D02*
X131815000Y-68250000D01*
X131815000Y-68250000D02*
X146850000Y-68250000D01*
X147525000Y-67175000D02*
X147525000Y-68925000D01*
X147525000Y-68925000D02*
X147525000Y-71180000D01*
X147525000Y-78800000D02*
X152925000Y-78800000D01*
X152925000Y-78800000D02*
X153080000Y-78645000D01*
X153080000Y-78645000D02*
X151445000Y-77010000D01*
X151445000Y-77010000D02*
X151445000Y-72675000D01*
X166400000Y-87350000D02*
X166400000Y-85650000D01*
X171175000Y-79800000D02*
X171175000Y-80875000D01*
X171175000Y-80875000D02*
X166400000Y-85650000D01*
X159015000Y-79915000D02*
X162400000Y-83300000D01*
X162400000Y-83300000D02*
X162400000Y-87325000D01*
X154350000Y-79915000D02*
X159015000Y-79915000D01*
X130755000Y-77275000D02*
X131425000Y-77275000D01*
X131545000Y-77155000D02*
X131425000Y-77275000D01*
X131425000Y-77275000D02*
X132850000Y-77275000D01*
X131545000Y-73450000D02*
X131545000Y-77155000D01*
X132850000Y-77275000D02*
X132875000Y-77250000D01*
X134225000Y-61900000D02*
X135375000Y-61900000D01*
X132980000Y-61900000D02*
X134225000Y-61900000D01*
X134225000Y-61900000D02*
X134085000Y-62040000D01*
X134085000Y-62040000D02*
X134085000Y-65830000D01*
X114000000Y-82000000D02*
X114000000Y-80080000D01*
X114700000Y-82700000D02*
X114000000Y-82000000D01*
X122300000Y-82700000D02*
X114700000Y-82700000D01*
X123600000Y-84000000D02*
X122300000Y-82700000D01*
X123600000Y-86750000D02*
X123600000Y-84000000D01*
X122350000Y-88000000D02*
X123600000Y-86750000D01*
X121000000Y-88000000D02*
X122350000Y-88000000D01*
X114630000Y-85080000D02*
X114000000Y-85710000D01*
X114000000Y-85710000D02*
X114000000Y-86868630D01*
X121000000Y-85080000D02*
X114630000Y-85080000D01*
X114000000Y-88000000D02*
X114000000Y-86868630D01*
X100000000Y-80080000D02*
X100000000Y-85080000D01*
X100000000Y-88000000D02*
X100000000Y-85080000D01*
X107000000Y-85080000D02*
X107000000Y-88000000D01*
X155237002Y-54725000D02*
X142075000Y-54725000D01*
X142075000Y-54725000D02*
X139500000Y-57300000D01*
X157075000Y-52575000D02*
X157075000Y-52887002D01*
X157075000Y-52887002D02*
X155237002Y-54725000D01*
X136625000Y-63361998D02*
X136625000Y-65830000D01*
X139500000Y-57300000D02*
X139500000Y-60486998D01*
X139500000Y-60486998D02*
X136625000Y-63361998D01*
X109080000Y-61000000D02*
X112000000Y-61000000D01*
X144025000Y-69775000D02*
X134975000Y-69775000D01*
X134975000Y-69775000D02*
X134085000Y-70665000D01*
X143975000Y-57350000D02*
X143975000Y-65750000D01*
X144690010Y-56634990D02*
X143975000Y-57350000D01*
X163425000Y-54400000D02*
X161190010Y-56634990D01*
X161190010Y-56634990D02*
X144690010Y-56634990D01*
X163425000Y-48450000D02*
X163425000Y-54400000D01*
X162400000Y-47425000D02*
X163425000Y-48450000D01*
X158310787Y-47425000D02*
X162400000Y-47425000D01*
X157075000Y-50075000D02*
X157075000Y-48660787D01*
X157075000Y-48660787D02*
X158310787Y-47425000D01*
X134085000Y-73450000D02*
X134085000Y-70665000D01*
X134085000Y-73450000D02*
X134085000Y-73100000D01*
X109080000Y-66000000D02*
X112000000Y-66000000D01*
X100000000Y-68500000D02*
X100000000Y-67675000D01*
X100000000Y-53250000D02*
X103200000Y-50050000D01*
X100000000Y-75000000D02*
X100000000Y-68500000D01*
X100000000Y-68500000D02*
X100000000Y-53250000D01*
X103200000Y-50050000D02*
X101625000Y-51625000D01*
X111700000Y-50050000D02*
X103200000Y-50050000D01*
X100000000Y-67675000D02*
X101675000Y-66000000D01*
X101675000Y-66000000D02*
X104000000Y-66000000D01*
X116700000Y-50050000D02*
X118114213Y-50050000D01*
X118114213Y-50050000D02*
X121000000Y-52935787D01*
X121000000Y-52935787D02*
X121000000Y-67775000D01*
X121000000Y-80000000D02*
X121000000Y-67775000D01*
X121000000Y-67775000D02*
X119225000Y-66000000D01*
X119225000Y-66000000D02*
X117080000Y-66000000D01*
X111700000Y-52550000D02*
X105700000Y-52550000D01*
X105700000Y-52550000D02*
X104000000Y-54250000D01*
X104000000Y-61000000D02*
X104000000Y-54250000D01*
X104000000Y-61000000D02*
X107000000Y-64000000D01*
X107000000Y-64000000D02*
X107000000Y-80000000D01*
X116700000Y-52550000D02*
X116700000Y-60620000D01*
X116700000Y-60620000D02*
X117080000Y-61000000D01*
X114000000Y-75000000D02*
X114000000Y-64080000D01*
X114000000Y-64080000D02*
X117080000Y-61000000D01*
X140460000Y-98000000D02*
X140460000Y-99202081D01*
X140460000Y-99202081D02*
X141632919Y-100375000D01*
X146911508Y-100375000D02*
X148325000Y-100375000D01*
X141632919Y-100375000D02*
X146911508Y-100375000D01*
X137920000Y-100080000D02*
X137575000Y-100425000D01*
X137575000Y-100425000D02*
X133075000Y-100425000D01*
X137920000Y-98000000D02*
X137920000Y-100080000D01*
X100000000Y-93000000D02*
X100000000Y-95620000D01*
X100000000Y-95620000D02*
X102380000Y-98000000D01*
X104920000Y-98000000D02*
X104920000Y-95080000D01*
X104920000Y-95080000D02*
X107000000Y-93000000D01*
X107460000Y-98000000D02*
X107460000Y-96797919D01*
X107460000Y-96797919D02*
X111257919Y-93000000D01*
X111257919Y-93000000D02*
X112868630Y-93000000D01*
X112868630Y-93000000D02*
X114000000Y-93000000D01*
X110000000Y-98000000D02*
X116000000Y-98000000D01*
X116000000Y-98000000D02*
X121000000Y-93000000D01*
D27*
G36*
X178290000Y-103290000D02*
X96710000Y-103290000D01*
X96710000Y-100748694D01*
X131440226Y-100748694D01*
X131688538Y-101349655D01*
X132147927Y-101809846D01*
X132748453Y-102059206D01*
X133398694Y-102059774D01*
X133999655Y-101811462D01*
X134251556Y-101560000D01*
X137575000Y-101560000D01*
X138009346Y-101473603D01*
X138377566Y-101227566D01*
X138722566Y-100882566D01*
X138968604Y-100514345D01*
X139055000Y-100080000D01*
X139055000Y-98952016D01*
X139190000Y-98749974D01*
X139325000Y-98952016D01*
X139325000Y-99202081D01*
X139411397Y-99636427D01*
X139614675Y-99940654D01*
X139657434Y-100004647D01*
X140830353Y-101177566D01*
X141198573Y-101423603D01*
X141632919Y-101510000D01*
X147148516Y-101510000D01*
X147397927Y-101759846D01*
X147998453Y-102009206D01*
X148648694Y-102009774D01*
X149249655Y-101761462D01*
X149709846Y-101302073D01*
X149959206Y-100701547D01*
X149959774Y-100051306D01*
X149711462Y-99450345D01*
X149252073Y-98990154D01*
X148651547Y-98740794D01*
X148001306Y-98740226D01*
X147400345Y-98988538D01*
X147148444Y-99240000D01*
X144358025Y-99240000D01*
X144388327Y-99209698D01*
X144485000Y-98976309D01*
X144485000Y-98356892D01*
X167903514Y-98356892D01*
X168149817Y-98881358D01*
X168578076Y-99271645D01*
X168988110Y-99441476D01*
X169218000Y-99320155D01*
X169218000Y-98127000D01*
X168024181Y-98127000D01*
X167903514Y-98356892D01*
X144485000Y-98356892D01*
X144485000Y-98285750D01*
X144326250Y-98127000D01*
X143127000Y-98127000D01*
X143127000Y-98147000D01*
X142873000Y-98147000D01*
X142873000Y-98127000D01*
X142853000Y-98127000D01*
X142853000Y-97873000D01*
X142873000Y-97873000D01*
X142873000Y-96673750D01*
X142714250Y-96515000D01*
X142023690Y-96515000D01*
X141790301Y-96611673D01*
X141611673Y-96790302D01*
X141539403Y-96964777D01*
X141510054Y-96920853D01*
X141028285Y-96598946D01*
X140460000Y-96485907D01*
X139891715Y-96598946D01*
X139409946Y-96920853D01*
X139190000Y-97250026D01*
X138970054Y-96920853D01*
X138488285Y-96598946D01*
X137920000Y-96485907D01*
X137351715Y-96598946D01*
X136869946Y-96920853D01*
X136548039Y-97402622D01*
X136435000Y-97970907D01*
X136435000Y-98029093D01*
X136548039Y-98597378D01*
X136785000Y-98952016D01*
X136785000Y-99290000D01*
X134251484Y-99290000D01*
X134002073Y-99040154D01*
X133401547Y-98790794D01*
X132751306Y-98790226D01*
X132150345Y-99038538D01*
X131690154Y-99497927D01*
X131440794Y-100098453D01*
X131440226Y-100748694D01*
X96710000Y-100748694D01*
X96710000Y-93284187D01*
X98564752Y-93284187D01*
X98782757Y-93811800D01*
X98865000Y-93894187D01*
X98865000Y-95620000D01*
X98951397Y-96054346D01*
X99058743Y-96215000D01*
X99197434Y-96422566D01*
X100917605Y-98142737D01*
X101008039Y-98597378D01*
X101329946Y-99079147D01*
X101811715Y-99401054D01*
X102380000Y-99514093D01*
X102948285Y-99401054D01*
X103430054Y-99079147D01*
X103650000Y-98749974D01*
X103869946Y-99079147D01*
X104351715Y-99401054D01*
X104920000Y-99514093D01*
X105488285Y-99401054D01*
X105970054Y-99079147D01*
X106190000Y-98749974D01*
X106409946Y-99079147D01*
X106891715Y-99401054D01*
X107460000Y-99514093D01*
X108028285Y-99401054D01*
X108510054Y-99079147D01*
X108537850Y-99037548D01*
X108546838Y-99085317D01*
X108685910Y-99301441D01*
X108898110Y-99446431D01*
X109150000Y-99497440D01*
X110850000Y-99497440D01*
X111085317Y-99453162D01*
X111301441Y-99314090D01*
X111423808Y-99135000D01*
X116000000Y-99135000D01*
X116434346Y-99048603D01*
X116802566Y-98802566D01*
X121169984Y-94435148D01*
X121284187Y-94435248D01*
X121811800Y-94217243D01*
X122215824Y-93813923D01*
X122434750Y-93286691D01*
X122435248Y-92715813D01*
X122217243Y-92188200D01*
X121813923Y-91784176D01*
X121286691Y-91565250D01*
X120715813Y-91564752D01*
X120188200Y-91782757D01*
X119784176Y-92186077D01*
X119565250Y-92713309D01*
X119565148Y-92829720D01*
X115529868Y-96865000D01*
X111421192Y-96865000D01*
X111314090Y-96698559D01*
X111101890Y-96553569D01*
X110850000Y-96502560D01*
X109360491Y-96502560D01*
X111728052Y-94135000D01*
X113105394Y-94135000D01*
X113186077Y-94215824D01*
X113713309Y-94434750D01*
X114284187Y-94435248D01*
X114811800Y-94217243D01*
X115215824Y-93813923D01*
X115434750Y-93286691D01*
X115435248Y-92715813D01*
X115217243Y-92188200D01*
X114813923Y-91784176D01*
X114286691Y-91565250D01*
X113715813Y-91564752D01*
X113188200Y-91782757D01*
X113105813Y-91865000D01*
X111257919Y-91865000D01*
X110823574Y-91951396D01*
X110455353Y-92197433D01*
X106657434Y-95995353D01*
X106411397Y-96363573D01*
X106325000Y-96797919D01*
X106325000Y-97047984D01*
X106190000Y-97250026D01*
X106055000Y-97047984D01*
X106055000Y-95550132D01*
X107169984Y-94435148D01*
X107284187Y-94435248D01*
X107811800Y-94217243D01*
X108215824Y-93813923D01*
X108434750Y-93286691D01*
X108435248Y-92715813D01*
X108217243Y-92188200D01*
X107813923Y-91784176D01*
X107286691Y-91565250D01*
X106715813Y-91564752D01*
X106188200Y-91782757D01*
X105784176Y-92186077D01*
X105565250Y-92713309D01*
X105565148Y-92829720D01*
X104117434Y-94277434D01*
X103871397Y-94645654D01*
X103785000Y-95080000D01*
X103785000Y-97047984D01*
X103650000Y-97250026D01*
X103430054Y-96920853D01*
X102948285Y-96598946D01*
X102493644Y-96508512D01*
X101135000Y-95149868D01*
X101135000Y-93894606D01*
X101215824Y-93813923D01*
X101434750Y-93286691D01*
X101435248Y-92715813D01*
X101217243Y-92188200D01*
X100813923Y-91784176D01*
X100286691Y-91565250D01*
X99715813Y-91564752D01*
X99188200Y-91782757D01*
X98784176Y-92186077D01*
X98565250Y-92713309D01*
X98564752Y-93284187D01*
X96710000Y-93284187D01*
X96710000Y-88284187D01*
X98564752Y-88284187D01*
X98782757Y-88811800D01*
X99186077Y-89215824D01*
X99713309Y-89434750D01*
X100284187Y-89435248D01*
X100811800Y-89217243D01*
X101215824Y-88813923D01*
X101434750Y-88286691D01*
X101434752Y-88284187D01*
X105564752Y-88284187D01*
X105782757Y-88811800D01*
X106186077Y-89215824D01*
X106713309Y-89434750D01*
X107284187Y-89435248D01*
X107811800Y-89217243D01*
X108215824Y-88813923D01*
X108434750Y-88286691D01*
X108434752Y-88284187D01*
X112564752Y-88284187D01*
X112782757Y-88811800D01*
X113186077Y-89215824D01*
X113713309Y-89434750D01*
X114284187Y-89435248D01*
X114811800Y-89217243D01*
X115215824Y-88813923D01*
X115434750Y-88286691D01*
X115435248Y-87715813D01*
X115217243Y-87188200D01*
X115135000Y-87105813D01*
X115135000Y-86215000D01*
X120302740Y-86215000D01*
X120489118Y-86339533D01*
X121000000Y-86441154D01*
X121510882Y-86339533D01*
X121943988Y-86050142D01*
X122233379Y-85617036D01*
X122335000Y-85106154D01*
X122335000Y-85053846D01*
X122233379Y-84542964D01*
X121943988Y-84109858D01*
X121532632Y-83835000D01*
X121829868Y-83835000D01*
X122465000Y-84470132D01*
X122465000Y-86279868D01*
X121887244Y-86857624D01*
X121813923Y-86784176D01*
X121286691Y-86565250D01*
X120715813Y-86564752D01*
X120188200Y-86782757D01*
X119784176Y-87186077D01*
X119565250Y-87713309D01*
X119564752Y-88284187D01*
X119782757Y-88811800D01*
X120186077Y-89215824D01*
X120713309Y-89434750D01*
X121284187Y-89435248D01*
X121811800Y-89217243D01*
X121894187Y-89135000D01*
X122350000Y-89135000D01*
X122784346Y-89048603D01*
X123144815Y-88807745D01*
X129646861Y-88807745D01*
X129720995Y-89053864D01*
X130258223Y-89246965D01*
X130828454Y-89219778D01*
X131229005Y-89053864D01*
X131303139Y-88807745D01*
X130475000Y-87979605D01*
X129646861Y-88807745D01*
X123144815Y-88807745D01*
X123152566Y-88802566D01*
X124371909Y-87583223D01*
X129028035Y-87583223D01*
X129055222Y-88153454D01*
X129221136Y-88554005D01*
X129467255Y-88628139D01*
X130295395Y-87800000D01*
X129467255Y-86971861D01*
X129221136Y-87045995D01*
X129028035Y-87583223D01*
X124371909Y-87583223D01*
X124402566Y-87552566D01*
X124648603Y-87184346D01*
X124726594Y-86792255D01*
X129646861Y-86792255D01*
X130475000Y-87620395D01*
X131303139Y-86792255D01*
X131229005Y-86546136D01*
X130691777Y-86353035D01*
X130121546Y-86380222D01*
X129720995Y-86546136D01*
X129646861Y-86792255D01*
X124726594Y-86792255D01*
X124735000Y-86750000D01*
X124735000Y-84000000D01*
X124724060Y-83945000D01*
X124648604Y-83565655D01*
X124402566Y-83197434D01*
X123102566Y-81897434D01*
X123099594Y-81895448D01*
X122734346Y-81651397D01*
X122300000Y-81565000D01*
X115170133Y-81565000D01*
X115135000Y-81529868D01*
X115135000Y-80764271D01*
X115233379Y-80617036D01*
X115335000Y-80106154D01*
X115335000Y-80053846D01*
X115233379Y-79542964D01*
X114943988Y-79109858D01*
X114510882Y-78820467D01*
X114000000Y-78718846D01*
X113489118Y-78820467D01*
X113056012Y-79109858D01*
X112766621Y-79542964D01*
X112665000Y-80053846D01*
X112665000Y-80106154D01*
X112766621Y-80617036D01*
X112865000Y-80764271D01*
X112865000Y-82000000D01*
X112951397Y-82434346D01*
X113163273Y-82751441D01*
X113197434Y-82802566D01*
X113897433Y-83502566D01*
X114244315Y-83734345D01*
X114265654Y-83748603D01*
X114700000Y-83835000D01*
X120467368Y-83835000D01*
X120302740Y-83945000D01*
X114630000Y-83945000D01*
X114195655Y-84031396D01*
X113827434Y-84277433D01*
X113197434Y-84907434D01*
X112951397Y-85275654D01*
X112865000Y-85710000D01*
X112865000Y-87105394D01*
X112784176Y-87186077D01*
X112565250Y-87713309D01*
X112564752Y-88284187D01*
X108434752Y-88284187D01*
X108435248Y-87715813D01*
X108217243Y-87188200D01*
X108135000Y-87105813D01*
X108135000Y-85764271D01*
X108233379Y-85617036D01*
X108335000Y-85106154D01*
X108335000Y-85053846D01*
X108233379Y-84542964D01*
X107943988Y-84109858D01*
X107510882Y-83820467D01*
X107000000Y-83718846D01*
X106489118Y-83820467D01*
X106056012Y-84109858D01*
X105766621Y-84542964D01*
X105665000Y-85053846D01*
X105665000Y-85106154D01*
X105766621Y-85617036D01*
X105865000Y-85764271D01*
X105865000Y-87105394D01*
X105784176Y-87186077D01*
X105565250Y-87713309D01*
X105564752Y-88284187D01*
X101434752Y-88284187D01*
X101435248Y-87715813D01*
X101217243Y-87188200D01*
X101135000Y-87105813D01*
X101135000Y-80764271D01*
X101233379Y-80617036D01*
X101335000Y-80106154D01*
X101335000Y-80053846D01*
X101233379Y-79542964D01*
X100943988Y-79109858D01*
X100510882Y-78820467D01*
X100000000Y-78718846D01*
X99489118Y-78820467D01*
X99056012Y-79109858D01*
X98766621Y-79542964D01*
X98665000Y-80053846D01*
X98665000Y-80106154D01*
X98766621Y-80617036D01*
X98865000Y-80764271D01*
X98865000Y-87105394D01*
X98784176Y-87186077D01*
X98565250Y-87713309D01*
X98564752Y-88284187D01*
X96710000Y-88284187D01*
X96710000Y-75264383D01*
X98664769Y-75264383D01*
X98867582Y-75755229D01*
X99242796Y-76131098D01*
X99733287Y-76334768D01*
X100264383Y-76335231D01*
X100755229Y-76132418D01*
X101131098Y-75757204D01*
X101334768Y-75266713D01*
X101335231Y-74735617D01*
X101135000Y-74251020D01*
X101135000Y-68145132D01*
X102145132Y-67135000D01*
X103252193Y-67135000D01*
X103733287Y-67334768D01*
X104264383Y-67335231D01*
X104755229Y-67132418D01*
X105131098Y-66757204D01*
X105334768Y-66266713D01*
X105335231Y-65735617D01*
X105132418Y-65244771D01*
X104757204Y-64868902D01*
X104266713Y-64665232D01*
X103735617Y-64664769D01*
X103251020Y-64865000D01*
X101675000Y-64865000D01*
X101240654Y-64951397D01*
X101135000Y-65021993D01*
X101135000Y-53720132D01*
X103670132Y-51185000D01*
X110522796Y-51185000D01*
X110637759Y-51300164D01*
X110522722Y-51415000D01*
X105700000Y-51415000D01*
X105265654Y-51501397D01*
X104953883Y-51709716D01*
X104897434Y-51747434D01*
X103197434Y-53447434D01*
X102951397Y-53815654D01*
X102865000Y-54250000D01*
X102865000Y-60252193D01*
X102665232Y-60733287D01*
X102664769Y-61264383D01*
X102867582Y-61755229D01*
X103242796Y-62131098D01*
X103727043Y-62332175D01*
X105865000Y-64470132D01*
X105865000Y-79252193D01*
X105665232Y-79733287D01*
X105664769Y-80264383D01*
X105867582Y-80755229D01*
X106242796Y-81131098D01*
X106733287Y-81334768D01*
X107264383Y-81335231D01*
X107755229Y-81132418D01*
X108131098Y-80757204D01*
X108334768Y-80266713D01*
X108335231Y-79735617D01*
X108135000Y-79251020D01*
X108135000Y-66960787D01*
X108542964Y-67233379D01*
X109053846Y-67335000D01*
X109106154Y-67335000D01*
X109617036Y-67233379D01*
X109764271Y-67135000D01*
X111252193Y-67135000D01*
X111733287Y-67334768D01*
X112264383Y-67335231D01*
X112755229Y-67132418D01*
X112865000Y-67022838D01*
X112865000Y-74252193D01*
X112665232Y-74733287D01*
X112664769Y-75264383D01*
X112867582Y-75755229D01*
X113242796Y-76131098D01*
X113733287Y-76334768D01*
X114264383Y-76335231D01*
X114755229Y-76132418D01*
X115131098Y-75757204D01*
X115334768Y-75266713D01*
X115335231Y-74735617D01*
X115135000Y-74251020D01*
X115135000Y-64550132D01*
X117410713Y-62274419D01*
X117617036Y-62233379D01*
X118050142Y-61943988D01*
X118339533Y-61510882D01*
X118441154Y-61000000D01*
X118339533Y-60489118D01*
X118050142Y-60056012D01*
X117835000Y-59912259D01*
X117835000Y-53727204D01*
X118085278Y-53477363D01*
X118334716Y-52876648D01*
X118335284Y-52226205D01*
X118088835Y-51629754D01*
X119865000Y-53405919D01*
X119865000Y-65088811D01*
X119659346Y-64951397D01*
X119225000Y-64865000D01*
X117764271Y-64865000D01*
X117617036Y-64766621D01*
X117106154Y-64665000D01*
X117053846Y-64665000D01*
X116542964Y-64766621D01*
X116109858Y-65056012D01*
X115820467Y-65489118D01*
X115718846Y-66000000D01*
X115820467Y-66510882D01*
X116109858Y-66943988D01*
X116542964Y-67233379D01*
X117053846Y-67335000D01*
X117106154Y-67335000D01*
X117617036Y-67233379D01*
X117764271Y-67135000D01*
X118754868Y-67135000D01*
X119865000Y-68245132D01*
X119865000Y-79252193D01*
X119665232Y-79733287D01*
X119664769Y-80264383D01*
X119867582Y-80755229D01*
X120242796Y-81131098D01*
X120733287Y-81334768D01*
X121264383Y-81335231D01*
X121755229Y-81132418D01*
X122131098Y-80757204D01*
X122334768Y-80266713D01*
X122335231Y-79735617D01*
X122135000Y-79251020D01*
X122135000Y-77275000D01*
X124313846Y-77275000D01*
X124415467Y-77785882D01*
X124540000Y-77972260D01*
X124540000Y-80348437D01*
X124403569Y-80548110D01*
X124352560Y-80800000D01*
X124352560Y-82300000D01*
X124396838Y-82535317D01*
X124535910Y-82751441D01*
X124748110Y-82896431D01*
X125000000Y-82947440D01*
X126500000Y-82947440D01*
X126735317Y-82903162D01*
X126951441Y-82764090D01*
X127004588Y-82686307D01*
X127026077Y-82762460D01*
X127545171Y-82947201D01*
X128095448Y-82919230D01*
X128473923Y-82762460D01*
X128541912Y-82521517D01*
X127750000Y-81729605D01*
X127735858Y-81743748D01*
X127556253Y-81564143D01*
X127570395Y-81550000D01*
X127556253Y-81535858D01*
X127735858Y-81356253D01*
X127750000Y-81370395D01*
X127764143Y-81356253D01*
X127943748Y-81535858D01*
X127929605Y-81550000D01*
X128721517Y-82341912D01*
X128962460Y-82273923D01*
X129147201Y-81754829D01*
X129122969Y-81278101D01*
X131840000Y-83995132D01*
X131840000Y-86460982D01*
X131723559Y-86535910D01*
X131578569Y-86748110D01*
X131530354Y-86986201D01*
X131482745Y-86971861D01*
X130654605Y-87800000D01*
X131482745Y-88628139D01*
X131530167Y-88613855D01*
X131571838Y-88835317D01*
X131710910Y-89051441D01*
X131840000Y-89139644D01*
X131840000Y-91728342D01*
X131690154Y-91877927D01*
X131440794Y-92478453D01*
X131440226Y-93128694D01*
X131688538Y-93729655D01*
X132147927Y-94189846D01*
X132748453Y-94439206D01*
X133398694Y-94439774D01*
X133999655Y-94191462D01*
X134459846Y-93732073D01*
X134709206Y-93131547D01*
X134709774Y-92481306D01*
X134461462Y-91880345D01*
X134110000Y-91528269D01*
X134110000Y-89139018D01*
X134226441Y-89064090D01*
X134371431Y-88851890D01*
X134422440Y-88600000D01*
X134422440Y-87000000D01*
X134378162Y-86764683D01*
X134239090Y-86548559D01*
X134110000Y-86460356D01*
X134110000Y-83525000D01*
X134023603Y-83090654D01*
X133777566Y-82722434D01*
X129385000Y-78329868D01*
X129385000Y-75449177D01*
X129336247Y-75204081D01*
X129554151Y-75160737D01*
X130019698Y-74849668D01*
X130275000Y-74467582D01*
X130410000Y-74669624D01*
X130410000Y-75973079D01*
X129999771Y-76142582D01*
X129623902Y-76517796D01*
X129420232Y-77008287D01*
X129419769Y-77539383D01*
X129622582Y-78030229D01*
X129997796Y-78406098D01*
X130488287Y-78609768D01*
X131019383Y-78610231D01*
X131503980Y-78410000D01*
X132228144Y-78410000D01*
X132337964Y-78483379D01*
X132848846Y-78585000D01*
X132901154Y-78585000D01*
X133412036Y-78483379D01*
X133845142Y-78193988D01*
X134134533Y-77760882D01*
X134236154Y-77250000D01*
X134134533Y-76739118D01*
X133845142Y-76306012D01*
X133412036Y-76016621D01*
X132901154Y-75915000D01*
X132848846Y-75915000D01*
X132680000Y-75948586D01*
X132680000Y-74669624D01*
X132815000Y-74467582D01*
X133070302Y-74849668D01*
X133535849Y-75160737D01*
X134085000Y-75269970D01*
X134634151Y-75160737D01*
X135099698Y-74849668D01*
X135355000Y-74467582D01*
X135610302Y-74849668D01*
X136075849Y-75160737D01*
X136625000Y-75269970D01*
X137174151Y-75160737D01*
X137639698Y-74849668D01*
X137816544Y-74585000D01*
X139979868Y-74585000D01*
X143165000Y-77770132D01*
X143165000Y-85275000D01*
X143251397Y-85709346D01*
X143418108Y-85958846D01*
X143497434Y-86077566D01*
X145722434Y-88302566D01*
X146090654Y-88548603D01*
X146525000Y-88635000D01*
X146985982Y-88635000D01*
X147060910Y-88751441D01*
X147190000Y-88839644D01*
X147190000Y-91578516D01*
X146940154Y-91827927D01*
X146690794Y-92428453D01*
X146690226Y-93078694D01*
X146872360Y-93519491D01*
X145924623Y-93519491D01*
X143127980Y-90722848D01*
X142968765Y-90563355D01*
X142551756Y-90390197D01*
X142100225Y-90389803D01*
X141682914Y-90562233D01*
X141363355Y-90881235D01*
X141346660Y-90921441D01*
X140189990Y-89764771D01*
X140189990Y-78349990D01*
X140103593Y-77915644D01*
X139857556Y-77547424D01*
X139286346Y-76976214D01*
X139087418Y-76494771D01*
X138712204Y-76118902D01*
X138221713Y-75915232D01*
X137690617Y-75914769D01*
X137199771Y-76117582D01*
X136823902Y-76492796D01*
X136620232Y-76983287D01*
X136619769Y-77514383D01*
X136822582Y-78005229D01*
X137197796Y-78381098D01*
X137682043Y-78582175D01*
X137919990Y-78820122D01*
X137919990Y-90234903D01*
X138006387Y-90669249D01*
X138148032Y-90881235D01*
X138252424Y-91037469D01*
X143729955Y-96515000D01*
X143285750Y-96515000D01*
X143127000Y-96673750D01*
X143127000Y-97873000D01*
X144326250Y-97873000D01*
X144485000Y-97714250D01*
X144485000Y-97172998D01*
X144560751Y-97223613D01*
X144995097Y-97310010D01*
X163393123Y-97310010D01*
X163573244Y-97384803D01*
X164024775Y-97385197D01*
X164442086Y-97212767D01*
X164761645Y-96893765D01*
X164934803Y-96476756D01*
X164935197Y-96025225D01*
X164837793Y-95789491D01*
X168069359Y-95789491D01*
X168882241Y-96602373D01*
X168578076Y-96728355D01*
X168149817Y-97118642D01*
X167903514Y-97643108D01*
X168024181Y-97873000D01*
X169218000Y-97873000D01*
X169218000Y-97853000D01*
X169472000Y-97853000D01*
X169472000Y-97873000D01*
X169492000Y-97873000D01*
X169492000Y-98127000D01*
X169472000Y-98127000D01*
X169472000Y-99320155D01*
X169701890Y-99441476D01*
X170111924Y-99271645D01*
X170540183Y-98881358D01*
X170607298Y-98738447D01*
X170834946Y-99079147D01*
X171316715Y-99401054D01*
X171885000Y-99514093D01*
X172453285Y-99401054D01*
X172935054Y-99079147D01*
X172962850Y-99037548D01*
X172971838Y-99085317D01*
X173110910Y-99301441D01*
X173323110Y-99446431D01*
X173575000Y-99497440D01*
X175275000Y-99497440D01*
X175510317Y-99453162D01*
X175726441Y-99314090D01*
X175871431Y-99101890D01*
X175922440Y-98850000D01*
X175922440Y-97150000D01*
X175878162Y-96914683D01*
X175739090Y-96698559D01*
X175560000Y-96576192D01*
X175560000Y-96575000D01*
X175540064Y-96474775D01*
X175473604Y-96140655D01*
X175227566Y-95772434D01*
X171656346Y-92201214D01*
X171457418Y-91719771D01*
X171082204Y-91343902D01*
X170591713Y-91140232D01*
X170060617Y-91139769D01*
X169684928Y-91295000D01*
X167147807Y-91295000D01*
X166666713Y-91095232D01*
X166135617Y-91094769D01*
X165644771Y-91297582D01*
X165268902Y-91672796D01*
X165065232Y-92163287D01*
X165064769Y-92694383D01*
X165267582Y-93185229D01*
X165601262Y-93519491D01*
X163173187Y-93519491D01*
X163531098Y-93162204D01*
X163734768Y-92671713D01*
X163735231Y-92140617D01*
X163532418Y-91649771D01*
X163157204Y-91273902D01*
X162666713Y-91070232D01*
X162135617Y-91069769D01*
X161663121Y-91265000D01*
X159197807Y-91265000D01*
X158716713Y-91065232D01*
X158185617Y-91064769D01*
X157694771Y-91267582D01*
X157318902Y-91642796D01*
X157117825Y-92127043D01*
X156988734Y-92256134D01*
X156926926Y-92297433D01*
X155704868Y-93519491D01*
X149777356Y-93519491D01*
X149959206Y-93081547D01*
X149959774Y-92431306D01*
X149711462Y-91830345D01*
X149460000Y-91578444D01*
X149460000Y-88839018D01*
X149576441Y-88764090D01*
X149721431Y-88551890D01*
X149730370Y-88507745D01*
X149996861Y-88507745D01*
X150070995Y-88753864D01*
X150608223Y-88946965D01*
X151178454Y-88919778D01*
X151579005Y-88753864D01*
X151653139Y-88507745D01*
X150825000Y-87679605D01*
X149996861Y-88507745D01*
X149730370Y-88507745D01*
X149769646Y-88313799D01*
X149817255Y-88328139D01*
X150645395Y-87500000D01*
X151004605Y-87500000D01*
X151832745Y-88328139D01*
X152078864Y-88254005D01*
X152271965Y-87716777D01*
X152251801Y-87293846D01*
X157115000Y-87293846D01*
X157115000Y-87346154D01*
X157216621Y-87857036D01*
X157506012Y-88290142D01*
X157939118Y-88579533D01*
X158450000Y-88681154D01*
X158960882Y-88579533D01*
X159393988Y-88290142D01*
X159683379Y-87857036D01*
X159785000Y-87346154D01*
X159785000Y-87293846D01*
X159683379Y-86782964D01*
X159393988Y-86349858D01*
X158960882Y-86060467D01*
X158450000Y-85958846D01*
X157939118Y-86060467D01*
X157506012Y-86349858D01*
X157216621Y-86782964D01*
X157115000Y-87293846D01*
X152251801Y-87293846D01*
X152244778Y-87146546D01*
X152078864Y-86745995D01*
X151832745Y-86671861D01*
X151004605Y-87500000D01*
X150645395Y-87500000D01*
X149817255Y-86671861D01*
X149769833Y-86686145D01*
X149733351Y-86492255D01*
X149996861Y-86492255D01*
X150825000Y-87320395D01*
X151653139Y-86492255D01*
X151579005Y-86246136D01*
X151041777Y-86053035D01*
X150471546Y-86080222D01*
X150070995Y-86246136D01*
X149996861Y-86492255D01*
X149733351Y-86492255D01*
X149728162Y-86464683D01*
X149589090Y-86248559D01*
X149376890Y-86103569D01*
X149125000Y-86052560D01*
X147525000Y-86052560D01*
X147289683Y-86096838D01*
X147073559Y-86235910D01*
X146989324Y-86359192D01*
X145435000Y-84804868D01*
X145435000Y-77300000D01*
X145348603Y-76865654D01*
X145102566Y-76497434D01*
X141252566Y-72647434D01*
X141166610Y-72590000D01*
X140972051Y-72460000D01*
X143254868Y-72460000D01*
X144647434Y-73852566D01*
X145015654Y-74098603D01*
X145450000Y-74185000D01*
X148701998Y-74185000D01*
X149136344Y-74098603D01*
X149504564Y-73852566D01*
X150199816Y-73157314D01*
X150310000Y-73423980D01*
X150310000Y-77010000D01*
X150396397Y-77444346D01*
X150543833Y-77665000D01*
X148864018Y-77665000D01*
X148789090Y-77548559D01*
X148576890Y-77403569D01*
X148325000Y-77352560D01*
X146725000Y-77352560D01*
X146489683Y-77396838D01*
X146273559Y-77535910D01*
X146128569Y-77748110D01*
X146077560Y-78000000D01*
X146077560Y-79600000D01*
X146121838Y-79835317D01*
X146260910Y-80051441D01*
X146473110Y-80196431D01*
X146725000Y-80247440D01*
X148325000Y-80247440D01*
X148560317Y-80203162D01*
X148776441Y-80064090D01*
X148864644Y-79935000D01*
X152925000Y-79935000D01*
X153079933Y-79904182D01*
X153080000Y-79904195D01*
X153115000Y-79897233D01*
X153115000Y-79939195D01*
X153209009Y-80411809D01*
X153476723Y-80812472D01*
X153877386Y-81080186D01*
X154350000Y-81174195D01*
X154822614Y-81080186D01*
X154867791Y-81050000D01*
X158544868Y-81050000D01*
X161265000Y-83770132D01*
X161265000Y-86640729D01*
X161166621Y-86787964D01*
X161065000Y-87298846D01*
X161065000Y-87351154D01*
X161166621Y-87862036D01*
X161456012Y-88295142D01*
X161889118Y-88584533D01*
X162400000Y-88686154D01*
X162910882Y-88584533D01*
X163343988Y-88295142D01*
X163633379Y-87862036D01*
X163735000Y-87351154D01*
X163735000Y-87298846D01*
X163633379Y-86787964D01*
X163535000Y-86640729D01*
X163535000Y-83300000D01*
X163448603Y-82865654D01*
X163202566Y-82497434D01*
X160490277Y-79785145D01*
X160589383Y-79785231D01*
X161073980Y-79585000D01*
X162307026Y-79585000D01*
X162410910Y-79746441D01*
X162623110Y-79891431D01*
X162875000Y-79942440D01*
X164475000Y-79942440D01*
X164710317Y-79898162D01*
X164926441Y-79759090D01*
X165014644Y-79630000D01*
X169334828Y-79630000D01*
X169432386Y-79695186D01*
X169905000Y-79789195D01*
X169940000Y-79782233D01*
X169940000Y-79824195D01*
X170034009Y-80296809D01*
X170040000Y-80305775D01*
X170040000Y-80404868D01*
X165597434Y-84847434D01*
X165351397Y-85215654D01*
X165265000Y-85650000D01*
X165265000Y-86665729D01*
X165166621Y-86812964D01*
X165065000Y-87323846D01*
X165065000Y-87376154D01*
X165166621Y-87887036D01*
X165456012Y-88320142D01*
X165889118Y-88609533D01*
X166400000Y-88711154D01*
X166910882Y-88609533D01*
X167343988Y-88320142D01*
X167633379Y-87887036D01*
X167735000Y-87376154D01*
X167735000Y-87368846D01*
X168990000Y-87368846D01*
X168990000Y-87421154D01*
X169091621Y-87932036D01*
X169381012Y-88365142D01*
X169814118Y-88654533D01*
X170325000Y-88756154D01*
X170835882Y-88654533D01*
X171268988Y-88365142D01*
X171558379Y-87932036D01*
X171660000Y-87421154D01*
X171660000Y-87368846D01*
X171558379Y-86857964D01*
X171268988Y-86424858D01*
X170835882Y-86135467D01*
X170325000Y-86033846D01*
X169814118Y-86135467D01*
X169381012Y-86424858D01*
X169091621Y-86857964D01*
X168990000Y-87368846D01*
X167735000Y-87368846D01*
X167735000Y-87323846D01*
X167633379Y-86812964D01*
X167535000Y-86665729D01*
X167535000Y-86120132D01*
X171977566Y-81677566D01*
X171995052Y-81651397D01*
X172223603Y-81309346D01*
X172310000Y-80875000D01*
X172310000Y-80305775D01*
X172315991Y-80296809D01*
X172410000Y-79824195D01*
X172410000Y-79775805D01*
X172315991Y-79303191D01*
X172048277Y-78902528D01*
X171647614Y-78634814D01*
X171633261Y-78631959D01*
X171647614Y-78629104D01*
X172048277Y-78361390D01*
X172315991Y-77960727D01*
X172410000Y-77488113D01*
X172410000Y-77031887D01*
X172315991Y-76559273D01*
X172048277Y-76158610D01*
X171647614Y-75890896D01*
X171601944Y-75881812D01*
X168287566Y-72567434D01*
X168237349Y-72533880D01*
X167919346Y-72321397D01*
X167485000Y-72235000D01*
X164193384Y-72235000D01*
X164224151Y-72228880D01*
X164689698Y-71917811D01*
X165000767Y-71452264D01*
X165110000Y-70903113D01*
X165110000Y-70846887D01*
X165000767Y-70297736D01*
X164810000Y-70012233D01*
X164810000Y-68610757D01*
X164851441Y-68584090D01*
X164996431Y-68371890D01*
X165047440Y-68120000D01*
X165047440Y-66520000D01*
X165003162Y-66284683D01*
X164864090Y-66068559D01*
X164651890Y-65923569D01*
X164400000Y-65872560D01*
X162800000Y-65872560D01*
X162564683Y-65916838D01*
X162348559Y-66055910D01*
X162203569Y-66268110D01*
X162152560Y-66520000D01*
X162152560Y-68120000D01*
X162196838Y-68355317D01*
X162335910Y-68571441D01*
X162540000Y-68710890D01*
X162540000Y-69740000D01*
X150876998Y-69740000D01*
X150444045Y-69826120D01*
X150442652Y-69826397D01*
X150074431Y-70072434D01*
X148960000Y-71186866D01*
X148960000Y-71151887D01*
X148850767Y-70602736D01*
X148660000Y-70317233D01*
X148660000Y-68514018D01*
X148776441Y-68439090D01*
X148921431Y-68226890D01*
X148972440Y-67975000D01*
X148972440Y-66375000D01*
X148928162Y-66139683D01*
X148789090Y-65923559D01*
X148576890Y-65778569D01*
X148325000Y-65727560D01*
X146725000Y-65727560D01*
X146489683Y-65771838D01*
X146273559Y-65910910D01*
X146128569Y-66123110D01*
X146077560Y-66375000D01*
X146077560Y-67115000D01*
X137716317Y-67115000D01*
X137950767Y-66764121D01*
X138060000Y-66214970D01*
X138060000Y-65445030D01*
X137950767Y-64895879D01*
X137760000Y-64610376D01*
X137760000Y-63832130D01*
X139209816Y-62382314D01*
X139322582Y-62655229D01*
X139697796Y-63031098D01*
X140188287Y-63234768D01*
X140719383Y-63235231D01*
X141210229Y-63032418D01*
X141586098Y-62657204D01*
X141789768Y-62166713D01*
X141790231Y-61635617D01*
X141587418Y-61144771D01*
X141212204Y-60768902D01*
X140721713Y-60565232D01*
X140619456Y-60565143D01*
X140635000Y-60486998D01*
X140635000Y-57770132D01*
X142545132Y-55860000D01*
X143859868Y-55860000D01*
X143172434Y-56547434D01*
X142926397Y-56915654D01*
X142840000Y-57350000D01*
X142840000Y-65749010D01*
X142839803Y-65974775D01*
X143012233Y-66392086D01*
X143331235Y-66711645D01*
X143748244Y-66884803D01*
X144199775Y-66885197D01*
X144617086Y-66712767D01*
X144936645Y-66393765D01*
X145109803Y-65976756D01*
X145110197Y-65525225D01*
X145110000Y-65524748D01*
X145110000Y-57820132D01*
X145160142Y-57769990D01*
X152407013Y-57769990D01*
X152340000Y-58106887D01*
X152340000Y-58352767D01*
X152305000Y-58345805D01*
X151931997Y-58420000D01*
X148401728Y-58420000D01*
X148074151Y-58201120D01*
X147525000Y-58091887D01*
X146975849Y-58201120D01*
X146510302Y-58512189D01*
X146199233Y-58977736D01*
X146090000Y-59526887D01*
X146090000Y-59583113D01*
X146199233Y-60132264D01*
X146510302Y-60597811D01*
X146975849Y-60908880D01*
X147525000Y-61018113D01*
X148074151Y-60908880D01*
X148401728Y-60690000D01*
X150090000Y-60690000D01*
X150090000Y-66477740D01*
X149965467Y-66664118D01*
X149863846Y-67175000D01*
X149965467Y-67685882D01*
X150254858Y-68118988D01*
X150687964Y-68408379D01*
X151198846Y-68510000D01*
X151251154Y-68510000D01*
X151762036Y-68408379D01*
X152195142Y-68118988D01*
X152484533Y-67685882D01*
X152586154Y-67175000D01*
X152484533Y-66664118D01*
X152360000Y-66477740D01*
X152360000Y-61155132D01*
X152385781Y-61129351D01*
X152434009Y-61371809D01*
X152440000Y-61380775D01*
X152440000Y-64445000D01*
X152526397Y-64879346D01*
X152717266Y-65165001D01*
X152772434Y-65247566D01*
X154973654Y-67448786D01*
X155172582Y-67930229D01*
X155547796Y-68306098D01*
X156038287Y-68509768D01*
X156569383Y-68510231D01*
X157053980Y-68310000D01*
X157530000Y-68310000D01*
X157964346Y-68223603D01*
X158332566Y-67977566D01*
X160248786Y-66061346D01*
X160730229Y-65862418D01*
X161106098Y-65487204D01*
X161239889Y-65165001D01*
X167694999Y-65165001D01*
X168129345Y-65078604D01*
X168497565Y-64832567D01*
X170931834Y-62398298D01*
X170972614Y-62390186D01*
X171373277Y-62122472D01*
X171640991Y-61721809D01*
X171735000Y-61249195D01*
X171735000Y-61200805D01*
X171640991Y-60728191D01*
X171373277Y-60327528D01*
X170972614Y-60059814D01*
X170958261Y-60056959D01*
X170972614Y-60054104D01*
X171373277Y-59786390D01*
X171640991Y-59385727D01*
X171735000Y-58913113D01*
X171735000Y-58456887D01*
X171640991Y-57984273D01*
X171373277Y-57583610D01*
X170972614Y-57315896D01*
X170500000Y-57221887D01*
X170027386Y-57315896D01*
X169626723Y-57583610D01*
X169359009Y-57984273D01*
X169265000Y-58456887D01*
X169265000Y-58622685D01*
X168975000Y-58565000D01*
X164476728Y-58565000D01*
X164149151Y-58346120D01*
X163600000Y-58236887D01*
X163050849Y-58346120D01*
X162723272Y-58565000D01*
X160747090Y-58565000D01*
X160485882Y-58390467D01*
X159975000Y-58288846D01*
X159464118Y-58390467D01*
X159031012Y-58679858D01*
X158741621Y-59112964D01*
X158640000Y-59623846D01*
X158640000Y-59676154D01*
X158741621Y-60187036D01*
X159031012Y-60620142D01*
X159464118Y-60909533D01*
X159975000Y-61011154D01*
X160485882Y-60909533D01*
X160597429Y-60835000D01*
X162723272Y-60835000D01*
X163050849Y-61053880D01*
X163600000Y-61163113D01*
X164149151Y-61053880D01*
X164476728Y-60835000D01*
X168345049Y-60835000D01*
X168356723Y-60852472D01*
X168757386Y-61120186D01*
X168959482Y-61160386D01*
X167224867Y-62895001D01*
X160674999Y-62895001D01*
X160240653Y-62981398D01*
X159917333Y-63197434D01*
X159872433Y-63227435D01*
X159701214Y-63398654D01*
X159219771Y-63597582D01*
X158843902Y-63972796D01*
X158642825Y-64457043D01*
X157059868Y-66040000D01*
X157052807Y-66040000D01*
X156577957Y-65842825D01*
X154710000Y-63974868D01*
X154710000Y-61380775D01*
X154715991Y-61371809D01*
X154810000Y-60899195D01*
X154810000Y-60850805D01*
X154715991Y-60378191D01*
X154448277Y-59977528D01*
X154047614Y-59709814D01*
X154033261Y-59706959D01*
X154047614Y-59704104D01*
X154448277Y-59436390D01*
X154715991Y-59035727D01*
X154810000Y-58563113D01*
X154810000Y-58106887D01*
X154742987Y-57769990D01*
X161190010Y-57769990D01*
X161624356Y-57683593D01*
X161992576Y-57437556D01*
X164227566Y-55202566D01*
X164327793Y-55052566D01*
X164473603Y-54834346D01*
X164560000Y-54400000D01*
X164560000Y-48450000D01*
X164473603Y-48015654D01*
X164227566Y-47647434D01*
X163202566Y-46622434D01*
X162834346Y-46376397D01*
X162400000Y-46290000D01*
X158310787Y-46290000D01*
X157876441Y-46376397D01*
X157508221Y-46622434D01*
X156272434Y-47858221D01*
X156026397Y-48226441D01*
X155940000Y-48660787D01*
X155940000Y-48897796D01*
X155824836Y-49012759D01*
X155502363Y-48689722D01*
X154901648Y-48440284D01*
X154251205Y-48439716D01*
X153650057Y-48688106D01*
X153189722Y-49147637D01*
X152940284Y-49748352D01*
X152939716Y-50398795D01*
X153188106Y-50999943D01*
X153512759Y-51325164D01*
X153189722Y-51647637D01*
X152940284Y-52248352D01*
X152939716Y-52898795D01*
X153188106Y-53499943D01*
X153278006Y-53590000D01*
X142075000Y-53590000D01*
X141640654Y-53676397D01*
X141432240Y-53815655D01*
X141272434Y-53922434D01*
X138697434Y-56497434D01*
X138451397Y-56865654D01*
X138365000Y-57300000D01*
X138365000Y-60016866D01*
X136693965Y-61687901D01*
X136634533Y-61389118D01*
X136345142Y-60956012D01*
X135912036Y-60666621D01*
X135401154Y-60565000D01*
X135348846Y-60565000D01*
X134837964Y-60666621D01*
X134690729Y-60765000D01*
X133727807Y-60765000D01*
X133246713Y-60565232D01*
X132715617Y-60564769D01*
X132224771Y-60767582D01*
X131848902Y-61142796D01*
X131645232Y-61633287D01*
X131644769Y-62164383D01*
X131847582Y-62655229D01*
X132222796Y-63031098D01*
X132713287Y-63234768D01*
X132950000Y-63234974D01*
X132950000Y-64610376D01*
X132815000Y-64812418D01*
X132559698Y-64430332D01*
X132094151Y-64119263D01*
X131545000Y-64010030D01*
X130995849Y-64119263D01*
X130530302Y-64430332D01*
X130275000Y-64812418D01*
X130019698Y-64430332D01*
X129554151Y-64119263D01*
X129005000Y-64010030D01*
X128455849Y-64119263D01*
X127990302Y-64430332D01*
X127813456Y-64695000D01*
X127205000Y-64695000D01*
X126770654Y-64781397D01*
X126451898Y-64994383D01*
X126402434Y-65027434D01*
X125722434Y-65707434D01*
X125476397Y-66075654D01*
X125390000Y-66510000D01*
X125390000Y-73725000D01*
X125476397Y-74159346D01*
X125722434Y-74527566D01*
X125724914Y-74529223D01*
X127115000Y-75919310D01*
X127115000Y-78800000D01*
X127201397Y-79234346D01*
X127431422Y-79578603D01*
X127447434Y-79602566D01*
X128021336Y-80176468D01*
X127954829Y-80152799D01*
X127404552Y-80180770D01*
X127026077Y-80337540D01*
X127005019Y-80412165D01*
X126964090Y-80348559D01*
X126810000Y-80243274D01*
X126810000Y-77972260D01*
X126934533Y-77785882D01*
X127036154Y-77275000D01*
X126934533Y-76764118D01*
X126645142Y-76331012D01*
X126212036Y-76041621D01*
X125701154Y-75940000D01*
X125648846Y-75940000D01*
X125137964Y-76041621D01*
X124704858Y-76331012D01*
X124415467Y-76764118D01*
X124313846Y-77275000D01*
X122135000Y-77275000D01*
X122135000Y-57395171D01*
X124527799Y-57395171D01*
X124555770Y-57945448D01*
X124712540Y-58323923D01*
X124953483Y-58391912D01*
X125745395Y-57600000D01*
X124953483Y-56808088D01*
X124712540Y-56876077D01*
X124527799Y-57395171D01*
X122135000Y-57395171D01*
X122135000Y-56628483D01*
X125133088Y-56628483D01*
X125925000Y-57420395D01*
X125939143Y-57406253D01*
X126118748Y-57585858D01*
X126104605Y-57600000D01*
X126118748Y-57614143D01*
X125939143Y-57793748D01*
X125925000Y-57779605D01*
X125133088Y-58571517D01*
X125201077Y-58812460D01*
X125720171Y-58997201D01*
X126270448Y-58969230D01*
X126648923Y-58812460D01*
X126669981Y-58737835D01*
X126710910Y-58801441D01*
X126790000Y-58855481D01*
X126790000Y-61165325D01*
X126640467Y-61389118D01*
X126538846Y-61900000D01*
X126640467Y-62410882D01*
X126929858Y-62843988D01*
X127362964Y-63133379D01*
X127873846Y-63235000D01*
X127926154Y-63235000D01*
X128437036Y-63133379D01*
X128870142Y-62843988D01*
X129159533Y-62410882D01*
X129261154Y-61900000D01*
X129159533Y-61389118D01*
X129060000Y-61240156D01*
X129060000Y-58856844D01*
X129126441Y-58814090D01*
X129271431Y-58601890D01*
X129322440Y-58350000D01*
X129322440Y-56850000D01*
X129278162Y-56614683D01*
X129139090Y-56398559D01*
X128926890Y-56253569D01*
X128675000Y-56202560D01*
X127175000Y-56202560D01*
X126939683Y-56246838D01*
X126723559Y-56385910D01*
X126670412Y-56463693D01*
X126648923Y-56387540D01*
X126129829Y-56202799D01*
X125579552Y-56230770D01*
X125201077Y-56387540D01*
X125133088Y-56628483D01*
X122135000Y-56628483D01*
X122135000Y-52935787D01*
X122048603Y-52501441D01*
X121802566Y-52133221D01*
X118916779Y-49247434D01*
X118548559Y-49001397D01*
X118114213Y-48915000D01*
X117877204Y-48915000D01*
X117627363Y-48664722D01*
X117026648Y-48415284D01*
X116376205Y-48414716D01*
X115775057Y-48663106D01*
X115358248Y-49079187D01*
X115352532Y-49077073D01*
X114379605Y-50050000D01*
X115352532Y-51022927D01*
X115358722Y-51020639D01*
X115637759Y-51300164D01*
X115358248Y-51579187D01*
X115352532Y-51577073D01*
X114379605Y-52550000D01*
X115352532Y-53522927D01*
X115358722Y-53520639D01*
X115565000Y-53727278D01*
X115565000Y-60620000D01*
X115613092Y-60861776D01*
X113197434Y-63277434D01*
X112951397Y-63645654D01*
X112865000Y-64080000D01*
X112865000Y-64976886D01*
X112757204Y-64868902D01*
X112266713Y-64665232D01*
X111735617Y-64664769D01*
X111251020Y-64865000D01*
X109764271Y-64865000D01*
X109617036Y-64766621D01*
X109106154Y-64665000D01*
X109053846Y-64665000D01*
X108542964Y-64766621D01*
X108135000Y-65039213D01*
X108135000Y-64000000D01*
X108071626Y-63681397D01*
X108048604Y-63565655D01*
X107802566Y-63197434D01*
X105605132Y-61000000D01*
X107718846Y-61000000D01*
X107820467Y-61510882D01*
X108109858Y-61943988D01*
X108542964Y-62233379D01*
X109053846Y-62335000D01*
X109106154Y-62335000D01*
X109617036Y-62233379D01*
X109764271Y-62135000D01*
X111252193Y-62135000D01*
X111733287Y-62334768D01*
X112264383Y-62335231D01*
X112755229Y-62132418D01*
X113131098Y-61757204D01*
X113334768Y-61266713D01*
X113335231Y-60735617D01*
X113132418Y-60244771D01*
X112757204Y-59868902D01*
X112266713Y-59665232D01*
X111735617Y-59664769D01*
X111251020Y-59865000D01*
X109764271Y-59865000D01*
X109617036Y-59766621D01*
X109106154Y-59665000D01*
X109053846Y-59665000D01*
X108542964Y-59766621D01*
X108109858Y-60056012D01*
X107820467Y-60489118D01*
X107718846Y-61000000D01*
X105605132Y-61000000D01*
X105331346Y-60726214D01*
X105135000Y-60251020D01*
X105135000Y-54720132D01*
X106170132Y-53685000D01*
X110522796Y-53685000D01*
X110772637Y-53935278D01*
X111373352Y-54184716D01*
X112023795Y-54185284D01*
X112624943Y-53936894D01*
X112859715Y-53702532D01*
X113227073Y-53702532D01*
X113325736Y-53969387D01*
X113935461Y-54195908D01*
X114585460Y-54171856D01*
X115074264Y-53969387D01*
X115172927Y-53702532D01*
X114200000Y-52729605D01*
X113227073Y-53702532D01*
X112859715Y-53702532D01*
X113041752Y-53520813D01*
X113047468Y-53522927D01*
X114020395Y-52550000D01*
X113047468Y-51577073D01*
X113041278Y-51579361D01*
X112762241Y-51299836D01*
X112859715Y-51202532D01*
X113227073Y-51202532D01*
X113263109Y-51300000D01*
X113227073Y-51397468D01*
X114200000Y-52370395D01*
X115172927Y-51397468D01*
X115136891Y-51300000D01*
X115172927Y-51202532D01*
X114200000Y-50229605D01*
X113227073Y-51202532D01*
X112859715Y-51202532D01*
X113041752Y-51020813D01*
X113047468Y-51022927D01*
X114020395Y-50050000D01*
X113047468Y-49077073D01*
X113041278Y-49079361D01*
X112859703Y-48897468D01*
X113227073Y-48897468D01*
X114200000Y-49870395D01*
X115172927Y-48897468D01*
X115074264Y-48630613D01*
X114464539Y-48404092D01*
X113814540Y-48428144D01*
X113325736Y-48630613D01*
X113227073Y-48897468D01*
X112859703Y-48897468D01*
X112627363Y-48664722D01*
X112026648Y-48415284D01*
X111376205Y-48414716D01*
X110775057Y-48663106D01*
X110522722Y-48915000D01*
X103200000Y-48915000D01*
X102765654Y-49001397D01*
X102397434Y-49247434D01*
X99197434Y-52447434D01*
X98951397Y-52815654D01*
X98865000Y-53250000D01*
X98865000Y-74252193D01*
X98665232Y-74733287D01*
X98664769Y-75264383D01*
X96710000Y-75264383D01*
X96710000Y-45710000D01*
X178290000Y-45710000D01*
X178290000Y-103290000D01*
X178290000Y-103290000D01*
G37*
X178290000Y-103290000D02*
X96710000Y-103290000D01*
X96710000Y-100748694D01*
X131440226Y-100748694D01*
X131688538Y-101349655D01*
X132147927Y-101809846D01*
X132748453Y-102059206D01*
X133398694Y-102059774D01*
X133999655Y-101811462D01*
X134251556Y-101560000D01*
X137575000Y-101560000D01*
X138009346Y-101473603D01*
X138377566Y-101227566D01*
X138722566Y-100882566D01*
X138968604Y-100514345D01*
X139055000Y-100080000D01*
X139055000Y-98952016D01*
X139190000Y-98749974D01*
X139325000Y-98952016D01*
X139325000Y-99202081D01*
X139411397Y-99636427D01*
X139614675Y-99940654D01*
X139657434Y-100004647D01*
X140830353Y-101177566D01*
X141198573Y-101423603D01*
X141632919Y-101510000D01*
X147148516Y-101510000D01*
X147397927Y-101759846D01*
X147998453Y-102009206D01*
X148648694Y-102009774D01*
X149249655Y-101761462D01*
X149709846Y-101302073D01*
X149959206Y-100701547D01*
X149959774Y-100051306D01*
X149711462Y-99450345D01*
X149252073Y-98990154D01*
X148651547Y-98740794D01*
X148001306Y-98740226D01*
X147400345Y-98988538D01*
X147148444Y-99240000D01*
X144358025Y-99240000D01*
X144388327Y-99209698D01*
X144485000Y-98976309D01*
X144485000Y-98356892D01*
X167903514Y-98356892D01*
X168149817Y-98881358D01*
X168578076Y-99271645D01*
X168988110Y-99441476D01*
X169218000Y-99320155D01*
X169218000Y-98127000D01*
X168024181Y-98127000D01*
X167903514Y-98356892D01*
X144485000Y-98356892D01*
X144485000Y-98285750D01*
X144326250Y-98127000D01*
X143127000Y-98127000D01*
X143127000Y-98147000D01*
X142873000Y-98147000D01*
X142873000Y-98127000D01*
X142853000Y-98127000D01*
X142853000Y-97873000D01*
X142873000Y-97873000D01*
X142873000Y-96673750D01*
X142714250Y-96515000D01*
X142023690Y-96515000D01*
X141790301Y-96611673D01*
X141611673Y-96790302D01*
X141539403Y-96964777D01*
X141510054Y-96920853D01*
X141028285Y-96598946D01*
X140460000Y-96485907D01*
X139891715Y-96598946D01*
X139409946Y-96920853D01*
X139190000Y-97250026D01*
X138970054Y-96920853D01*
X138488285Y-96598946D01*
X137920000Y-96485907D01*
X137351715Y-96598946D01*
X136869946Y-96920853D01*
X136548039Y-97402622D01*
X136435000Y-97970907D01*
X136435000Y-98029093D01*
X136548039Y-98597378D01*
X136785000Y-98952016D01*
X136785000Y-99290000D01*
X134251484Y-99290000D01*
X134002073Y-99040154D01*
X133401547Y-98790794D01*
X132751306Y-98790226D01*
X132150345Y-99038538D01*
X131690154Y-99497927D01*
X131440794Y-100098453D01*
X131440226Y-100748694D01*
X96710000Y-100748694D01*
X96710000Y-93284187D01*
X98564752Y-93284187D01*
X98782757Y-93811800D01*
X98865000Y-93894187D01*
X98865000Y-95620000D01*
X98951397Y-96054346D01*
X99058743Y-96215000D01*
X99197434Y-96422566D01*
X100917605Y-98142737D01*
X101008039Y-98597378D01*
X101329946Y-99079147D01*
X101811715Y-99401054D01*
X102380000Y-99514093D01*
X102948285Y-99401054D01*
X103430054Y-99079147D01*
X103650000Y-98749974D01*
X103869946Y-99079147D01*
X104351715Y-99401054D01*
X104920000Y-99514093D01*
X105488285Y-99401054D01*
X105970054Y-99079147D01*
X106190000Y-98749974D01*
X106409946Y-99079147D01*
X106891715Y-99401054D01*
X107460000Y-99514093D01*
X108028285Y-99401054D01*
X108510054Y-99079147D01*
X108537850Y-99037548D01*
X108546838Y-99085317D01*
X108685910Y-99301441D01*
X108898110Y-99446431D01*
X109150000Y-99497440D01*
X110850000Y-99497440D01*
X111085317Y-99453162D01*
X111301441Y-99314090D01*
X111423808Y-99135000D01*
X116000000Y-99135000D01*
X116434346Y-99048603D01*
X116802566Y-98802566D01*
X121169984Y-94435148D01*
X121284187Y-94435248D01*
X121811800Y-94217243D01*
X122215824Y-93813923D01*
X122434750Y-93286691D01*
X122435248Y-92715813D01*
X122217243Y-92188200D01*
X121813923Y-91784176D01*
X121286691Y-91565250D01*
X120715813Y-91564752D01*
X120188200Y-91782757D01*
X119784176Y-92186077D01*
X119565250Y-92713309D01*
X119565148Y-92829720D01*
X115529868Y-96865000D01*
X111421192Y-96865000D01*
X111314090Y-96698559D01*
X111101890Y-96553569D01*
X110850000Y-96502560D01*
X109360491Y-96502560D01*
X111728052Y-94135000D01*
X113105394Y-94135000D01*
X113186077Y-94215824D01*
X113713309Y-94434750D01*
X114284187Y-94435248D01*
X114811800Y-94217243D01*
X115215824Y-93813923D01*
X115434750Y-93286691D01*
X115435248Y-92715813D01*
X115217243Y-92188200D01*
X114813923Y-91784176D01*
X114286691Y-91565250D01*
X113715813Y-91564752D01*
X113188200Y-91782757D01*
X113105813Y-91865000D01*
X111257919Y-91865000D01*
X110823574Y-91951396D01*
X110455353Y-92197433D01*
X106657434Y-95995353D01*
X106411397Y-96363573D01*
X106325000Y-96797919D01*
X106325000Y-97047984D01*
X106190000Y-97250026D01*
X106055000Y-97047984D01*
X106055000Y-95550132D01*
X107169984Y-94435148D01*
X107284187Y-94435248D01*
X107811800Y-94217243D01*
X108215824Y-93813923D01*
X108434750Y-93286691D01*
X108435248Y-92715813D01*
X108217243Y-92188200D01*
X107813923Y-91784176D01*
X107286691Y-91565250D01*
X106715813Y-91564752D01*
X106188200Y-91782757D01*
X105784176Y-92186077D01*
X105565250Y-92713309D01*
X105565148Y-92829720D01*
X104117434Y-94277434D01*
X103871397Y-94645654D01*
X103785000Y-95080000D01*
X103785000Y-97047984D01*
X103650000Y-97250026D01*
X103430054Y-96920853D01*
X102948285Y-96598946D01*
X102493644Y-96508512D01*
X101135000Y-95149868D01*
X101135000Y-93894606D01*
X101215824Y-93813923D01*
X101434750Y-93286691D01*
X101435248Y-92715813D01*
X101217243Y-92188200D01*
X100813923Y-91784176D01*
X100286691Y-91565250D01*
X99715813Y-91564752D01*
X99188200Y-91782757D01*
X98784176Y-92186077D01*
X98565250Y-92713309D01*
X98564752Y-93284187D01*
X96710000Y-93284187D01*
X96710000Y-88284187D01*
X98564752Y-88284187D01*
X98782757Y-88811800D01*
X99186077Y-89215824D01*
X99713309Y-89434750D01*
X100284187Y-89435248D01*
X100811800Y-89217243D01*
X101215824Y-88813923D01*
X101434750Y-88286691D01*
X101434752Y-88284187D01*
X105564752Y-88284187D01*
X105782757Y-88811800D01*
X106186077Y-89215824D01*
X106713309Y-89434750D01*
X107284187Y-89435248D01*
X107811800Y-89217243D01*
X108215824Y-88813923D01*
X108434750Y-88286691D01*
X108434752Y-88284187D01*
X112564752Y-88284187D01*
X112782757Y-88811800D01*
X113186077Y-89215824D01*
X113713309Y-89434750D01*
X114284187Y-89435248D01*
X114811800Y-89217243D01*
X115215824Y-88813923D01*
X115434750Y-88286691D01*
X115435248Y-87715813D01*
X115217243Y-87188200D01*
X115135000Y-87105813D01*
X115135000Y-86215000D01*
X120302740Y-86215000D01*
X120489118Y-86339533D01*
X121000000Y-86441154D01*
X121510882Y-86339533D01*
X121943988Y-86050142D01*
X122233379Y-85617036D01*
X122335000Y-85106154D01*
X122335000Y-85053846D01*
X122233379Y-84542964D01*
X121943988Y-84109858D01*
X121532632Y-83835000D01*
X121829868Y-83835000D01*
X122465000Y-84470132D01*
X122465000Y-86279868D01*
X121887244Y-86857624D01*
X121813923Y-86784176D01*
X121286691Y-86565250D01*
X120715813Y-86564752D01*
X120188200Y-86782757D01*
X119784176Y-87186077D01*
X119565250Y-87713309D01*
X119564752Y-88284187D01*
X119782757Y-88811800D01*
X120186077Y-89215824D01*
X120713309Y-89434750D01*
X121284187Y-89435248D01*
X121811800Y-89217243D01*
X121894187Y-89135000D01*
X122350000Y-89135000D01*
X122784346Y-89048603D01*
X123144815Y-88807745D01*
X129646861Y-88807745D01*
X129720995Y-89053864D01*
X130258223Y-89246965D01*
X130828454Y-89219778D01*
X131229005Y-89053864D01*
X131303139Y-88807745D01*
X130475000Y-87979605D01*
X129646861Y-88807745D01*
X123144815Y-88807745D01*
X123152566Y-88802566D01*
X124371909Y-87583223D01*
X129028035Y-87583223D01*
X129055222Y-88153454D01*
X129221136Y-88554005D01*
X129467255Y-88628139D01*
X130295395Y-87800000D01*
X129467255Y-86971861D01*
X129221136Y-87045995D01*
X129028035Y-87583223D01*
X124371909Y-87583223D01*
X124402566Y-87552566D01*
X124648603Y-87184346D01*
X124726594Y-86792255D01*
X129646861Y-86792255D01*
X130475000Y-87620395D01*
X131303139Y-86792255D01*
X131229005Y-86546136D01*
X130691777Y-86353035D01*
X130121546Y-86380222D01*
X129720995Y-86546136D01*
X129646861Y-86792255D01*
X124726594Y-86792255D01*
X124735000Y-86750000D01*
X124735000Y-84000000D01*
X124724060Y-83945000D01*
X124648604Y-83565655D01*
X124402566Y-83197434D01*
X123102566Y-81897434D01*
X123099594Y-81895448D01*
X122734346Y-81651397D01*
X122300000Y-81565000D01*
X115170133Y-81565000D01*
X115135000Y-81529868D01*
X115135000Y-80764271D01*
X115233379Y-80617036D01*
X115335000Y-80106154D01*
X115335000Y-80053846D01*
X115233379Y-79542964D01*
X114943988Y-79109858D01*
X114510882Y-78820467D01*
X114000000Y-78718846D01*
X113489118Y-78820467D01*
X113056012Y-79109858D01*
X112766621Y-79542964D01*
X112665000Y-80053846D01*
X112665000Y-80106154D01*
X112766621Y-80617036D01*
X112865000Y-80764271D01*
X112865000Y-82000000D01*
X112951397Y-82434346D01*
X113163273Y-82751441D01*
X113197434Y-82802566D01*
X113897433Y-83502566D01*
X114244315Y-83734345D01*
X114265654Y-83748603D01*
X114700000Y-83835000D01*
X120467368Y-83835000D01*
X120302740Y-83945000D01*
X114630000Y-83945000D01*
X114195655Y-84031396D01*
X113827434Y-84277433D01*
X113197434Y-84907434D01*
X112951397Y-85275654D01*
X112865000Y-85710000D01*
X112865000Y-87105394D01*
X112784176Y-87186077D01*
X112565250Y-87713309D01*
X112564752Y-88284187D01*
X108434752Y-88284187D01*
X108435248Y-87715813D01*
X108217243Y-87188200D01*
X108135000Y-87105813D01*
X108135000Y-85764271D01*
X108233379Y-85617036D01*
X108335000Y-85106154D01*
X108335000Y-85053846D01*
X108233379Y-84542964D01*
X107943988Y-84109858D01*
X107510882Y-83820467D01*
X107000000Y-83718846D01*
X106489118Y-83820467D01*
X106056012Y-84109858D01*
X105766621Y-84542964D01*
X105665000Y-85053846D01*
X105665000Y-85106154D01*
X105766621Y-85617036D01*
X105865000Y-85764271D01*
X105865000Y-87105394D01*
X105784176Y-87186077D01*
X105565250Y-87713309D01*
X105564752Y-88284187D01*
X101434752Y-88284187D01*
X101435248Y-87715813D01*
X101217243Y-87188200D01*
X101135000Y-87105813D01*
X101135000Y-80764271D01*
X101233379Y-80617036D01*
X101335000Y-80106154D01*
X101335000Y-80053846D01*
X101233379Y-79542964D01*
X100943988Y-79109858D01*
X100510882Y-78820467D01*
X100000000Y-78718846D01*
X99489118Y-78820467D01*
X99056012Y-79109858D01*
X98766621Y-79542964D01*
X98665000Y-80053846D01*
X98665000Y-80106154D01*
X98766621Y-80617036D01*
X98865000Y-80764271D01*
X98865000Y-87105394D01*
X98784176Y-87186077D01*
X98565250Y-87713309D01*
X98564752Y-88284187D01*
X96710000Y-88284187D01*
X96710000Y-75264383D01*
X98664769Y-75264383D01*
X98867582Y-75755229D01*
X99242796Y-76131098D01*
X99733287Y-76334768D01*
X100264383Y-76335231D01*
X100755229Y-76132418D01*
X101131098Y-75757204D01*
X101334768Y-75266713D01*
X101335231Y-74735617D01*
X101135000Y-74251020D01*
X101135000Y-68145132D01*
X102145132Y-67135000D01*
X103252193Y-67135000D01*
X103733287Y-67334768D01*
X104264383Y-67335231D01*
X104755229Y-67132418D01*
X105131098Y-66757204D01*
X105334768Y-66266713D01*
X105335231Y-65735617D01*
X105132418Y-65244771D01*
X104757204Y-64868902D01*
X104266713Y-64665232D01*
X103735617Y-64664769D01*
X103251020Y-64865000D01*
X101675000Y-64865000D01*
X101240654Y-64951397D01*
X101135000Y-65021993D01*
X101135000Y-53720132D01*
X103670132Y-51185000D01*
X110522796Y-51185000D01*
X110637759Y-51300164D01*
X110522722Y-51415000D01*
X105700000Y-51415000D01*
X105265654Y-51501397D01*
X104953883Y-51709716D01*
X104897434Y-51747434D01*
X103197434Y-53447434D01*
X102951397Y-53815654D01*
X102865000Y-54250000D01*
X102865000Y-60252193D01*
X102665232Y-60733287D01*
X102664769Y-61264383D01*
X102867582Y-61755229D01*
X103242796Y-62131098D01*
X103727043Y-62332175D01*
X105865000Y-64470132D01*
X105865000Y-79252193D01*
X105665232Y-79733287D01*
X105664769Y-80264383D01*
X105867582Y-80755229D01*
X106242796Y-81131098D01*
X106733287Y-81334768D01*
X107264383Y-81335231D01*
X107755229Y-81132418D01*
X108131098Y-80757204D01*
X108334768Y-80266713D01*
X108335231Y-79735617D01*
X108135000Y-79251020D01*
X108135000Y-66960787D01*
X108542964Y-67233379D01*
X109053846Y-67335000D01*
X109106154Y-67335000D01*
X109617036Y-67233379D01*
X109764271Y-67135000D01*
X111252193Y-67135000D01*
X111733287Y-67334768D01*
X112264383Y-67335231D01*
X112755229Y-67132418D01*
X112865000Y-67022838D01*
X112865000Y-74252193D01*
X112665232Y-74733287D01*
X112664769Y-75264383D01*
X112867582Y-75755229D01*
X113242796Y-76131098D01*
X113733287Y-76334768D01*
X114264383Y-76335231D01*
X114755229Y-76132418D01*
X115131098Y-75757204D01*
X115334768Y-75266713D01*
X115335231Y-74735617D01*
X115135000Y-74251020D01*
X115135000Y-64550132D01*
X117410713Y-62274419D01*
X117617036Y-62233379D01*
X118050142Y-61943988D01*
X118339533Y-61510882D01*
X118441154Y-61000000D01*
X118339533Y-60489118D01*
X118050142Y-60056012D01*
X117835000Y-59912259D01*
X117835000Y-53727204D01*
X118085278Y-53477363D01*
X118334716Y-52876648D01*
X118335284Y-52226205D01*
X118088835Y-51629754D01*
X119865000Y-53405919D01*
X119865000Y-65088811D01*
X119659346Y-64951397D01*
X119225000Y-64865000D01*
X117764271Y-64865000D01*
X117617036Y-64766621D01*
X117106154Y-64665000D01*
X117053846Y-64665000D01*
X116542964Y-64766621D01*
X116109858Y-65056012D01*
X115820467Y-65489118D01*
X115718846Y-66000000D01*
X115820467Y-66510882D01*
X116109858Y-66943988D01*
X116542964Y-67233379D01*
X117053846Y-67335000D01*
X117106154Y-67335000D01*
X117617036Y-67233379D01*
X117764271Y-67135000D01*
X118754868Y-67135000D01*
X119865000Y-68245132D01*
X119865000Y-79252193D01*
X119665232Y-79733287D01*
X119664769Y-80264383D01*
X119867582Y-80755229D01*
X120242796Y-81131098D01*
X120733287Y-81334768D01*
X121264383Y-81335231D01*
X121755229Y-81132418D01*
X122131098Y-80757204D01*
X122334768Y-80266713D01*
X122335231Y-79735617D01*
X122135000Y-79251020D01*
X122135000Y-77275000D01*
X124313846Y-77275000D01*
X124415467Y-77785882D01*
X124540000Y-77972260D01*
X124540000Y-80348437D01*
X124403569Y-80548110D01*
X124352560Y-80800000D01*
X124352560Y-82300000D01*
X124396838Y-82535317D01*
X124535910Y-82751441D01*
X124748110Y-82896431D01*
X125000000Y-82947440D01*
X126500000Y-82947440D01*
X126735317Y-82903162D01*
X126951441Y-82764090D01*
X127004588Y-82686307D01*
X127026077Y-82762460D01*
X127545171Y-82947201D01*
X128095448Y-82919230D01*
X128473923Y-82762460D01*
X128541912Y-82521517D01*
X127750000Y-81729605D01*
X127735858Y-81743748D01*
X127556253Y-81564143D01*
X127570395Y-81550000D01*
X127556253Y-81535858D01*
X127735858Y-81356253D01*
X127750000Y-81370395D01*
X127764143Y-81356253D01*
X127943748Y-81535858D01*
X127929605Y-81550000D01*
X128721517Y-82341912D01*
X128962460Y-82273923D01*
X129147201Y-81754829D01*
X129122969Y-81278101D01*
X131840000Y-83995132D01*
X131840000Y-86460982D01*
X131723559Y-86535910D01*
X131578569Y-86748110D01*
X131530354Y-86986201D01*
X131482745Y-86971861D01*
X130654605Y-87800000D01*
X131482745Y-88628139D01*
X131530167Y-88613855D01*
X131571838Y-88835317D01*
X131710910Y-89051441D01*
X131840000Y-89139644D01*
X131840000Y-91728342D01*
X131690154Y-91877927D01*
X131440794Y-92478453D01*
X131440226Y-93128694D01*
X131688538Y-93729655D01*
X132147927Y-94189846D01*
X132748453Y-94439206D01*
X133398694Y-94439774D01*
X133999655Y-94191462D01*
X134459846Y-93732073D01*
X134709206Y-93131547D01*
X134709774Y-92481306D01*
X134461462Y-91880345D01*
X134110000Y-91528269D01*
X134110000Y-89139018D01*
X134226441Y-89064090D01*
X134371431Y-88851890D01*
X134422440Y-88600000D01*
X134422440Y-87000000D01*
X134378162Y-86764683D01*
X134239090Y-86548559D01*
X134110000Y-86460356D01*
X134110000Y-83525000D01*
X134023603Y-83090654D01*
X133777566Y-82722434D01*
X129385000Y-78329868D01*
X129385000Y-75449177D01*
X129336247Y-75204081D01*
X129554151Y-75160737D01*
X130019698Y-74849668D01*
X130275000Y-74467582D01*
X130410000Y-74669624D01*
X130410000Y-75973079D01*
X129999771Y-76142582D01*
X129623902Y-76517796D01*
X129420232Y-77008287D01*
X129419769Y-77539383D01*
X129622582Y-78030229D01*
X129997796Y-78406098D01*
X130488287Y-78609768D01*
X131019383Y-78610231D01*
X131503980Y-78410000D01*
X132228144Y-78410000D01*
X132337964Y-78483379D01*
X132848846Y-78585000D01*
X132901154Y-78585000D01*
X133412036Y-78483379D01*
X133845142Y-78193988D01*
X134134533Y-77760882D01*
X134236154Y-77250000D01*
X134134533Y-76739118D01*
X133845142Y-76306012D01*
X133412036Y-76016621D01*
X132901154Y-75915000D01*
X132848846Y-75915000D01*
X132680000Y-75948586D01*
X132680000Y-74669624D01*
X132815000Y-74467582D01*
X133070302Y-74849668D01*
X133535849Y-75160737D01*
X134085000Y-75269970D01*
X134634151Y-75160737D01*
X135099698Y-74849668D01*
X135355000Y-74467582D01*
X135610302Y-74849668D01*
X136075849Y-75160737D01*
X136625000Y-75269970D01*
X137174151Y-75160737D01*
X137639698Y-74849668D01*
X137816544Y-74585000D01*
X139979868Y-74585000D01*
X143165000Y-77770132D01*
X143165000Y-85275000D01*
X143251397Y-85709346D01*
X143418108Y-85958846D01*
X143497434Y-86077566D01*
X145722434Y-88302566D01*
X146090654Y-88548603D01*
X146525000Y-88635000D01*
X146985982Y-88635000D01*
X147060910Y-88751441D01*
X147190000Y-88839644D01*
X147190000Y-91578516D01*
X146940154Y-91827927D01*
X146690794Y-92428453D01*
X146690226Y-93078694D01*
X146872360Y-93519491D01*
X145924623Y-93519491D01*
X143127980Y-90722848D01*
X142968765Y-90563355D01*
X142551756Y-90390197D01*
X142100225Y-90389803D01*
X141682914Y-90562233D01*
X141363355Y-90881235D01*
X141346660Y-90921441D01*
X140189990Y-89764771D01*
X140189990Y-78349990D01*
X140103593Y-77915644D01*
X139857556Y-77547424D01*
X139286346Y-76976214D01*
X139087418Y-76494771D01*
X138712204Y-76118902D01*
X138221713Y-75915232D01*
X137690617Y-75914769D01*
X137199771Y-76117582D01*
X136823902Y-76492796D01*
X136620232Y-76983287D01*
X136619769Y-77514383D01*
X136822582Y-78005229D01*
X137197796Y-78381098D01*
X137682043Y-78582175D01*
X137919990Y-78820122D01*
X137919990Y-90234903D01*
X138006387Y-90669249D01*
X138148032Y-90881235D01*
X138252424Y-91037469D01*
X143729955Y-96515000D01*
X143285750Y-96515000D01*
X143127000Y-96673750D01*
X143127000Y-97873000D01*
X144326250Y-97873000D01*
X144485000Y-97714250D01*
X144485000Y-97172998D01*
X144560751Y-97223613D01*
X144995097Y-97310010D01*
X163393123Y-97310010D01*
X163573244Y-97384803D01*
X164024775Y-97385197D01*
X164442086Y-97212767D01*
X164761645Y-96893765D01*
X164934803Y-96476756D01*
X164935197Y-96025225D01*
X164837793Y-95789491D01*
X168069359Y-95789491D01*
X168882241Y-96602373D01*
X168578076Y-96728355D01*
X168149817Y-97118642D01*
X167903514Y-97643108D01*
X168024181Y-97873000D01*
X169218000Y-97873000D01*
X169218000Y-97853000D01*
X169472000Y-97853000D01*
X169472000Y-97873000D01*
X169492000Y-97873000D01*
X169492000Y-98127000D01*
X169472000Y-98127000D01*
X169472000Y-99320155D01*
X169701890Y-99441476D01*
X170111924Y-99271645D01*
X170540183Y-98881358D01*
X170607298Y-98738447D01*
X170834946Y-99079147D01*
X171316715Y-99401054D01*
X171885000Y-99514093D01*
X172453285Y-99401054D01*
X172935054Y-99079147D01*
X172962850Y-99037548D01*
X172971838Y-99085317D01*
X173110910Y-99301441D01*
X173323110Y-99446431D01*
X173575000Y-99497440D01*
X175275000Y-99497440D01*
X175510317Y-99453162D01*
X175726441Y-99314090D01*
X175871431Y-99101890D01*
X175922440Y-98850000D01*
X175922440Y-97150000D01*
X175878162Y-96914683D01*
X175739090Y-96698559D01*
X175560000Y-96576192D01*
X175560000Y-96575000D01*
X175540064Y-96474775D01*
X175473604Y-96140655D01*
X175227566Y-95772434D01*
X171656346Y-92201214D01*
X171457418Y-91719771D01*
X171082204Y-91343902D01*
X170591713Y-91140232D01*
X170060617Y-91139769D01*
X169684928Y-91295000D01*
X167147807Y-91295000D01*
X166666713Y-91095232D01*
X166135617Y-91094769D01*
X165644771Y-91297582D01*
X165268902Y-91672796D01*
X165065232Y-92163287D01*
X165064769Y-92694383D01*
X165267582Y-93185229D01*
X165601262Y-93519491D01*
X163173187Y-93519491D01*
X163531098Y-93162204D01*
X163734768Y-92671713D01*
X163735231Y-92140617D01*
X163532418Y-91649771D01*
X163157204Y-91273902D01*
X162666713Y-91070232D01*
X162135617Y-91069769D01*
X161663121Y-91265000D01*
X159197807Y-91265000D01*
X158716713Y-91065232D01*
X158185617Y-91064769D01*
X157694771Y-91267582D01*
X157318902Y-91642796D01*
X157117825Y-92127043D01*
X156988734Y-92256134D01*
X156926926Y-92297433D01*
X155704868Y-93519491D01*
X149777356Y-93519491D01*
X149959206Y-93081547D01*
X149959774Y-92431306D01*
X149711462Y-91830345D01*
X149460000Y-91578444D01*
X149460000Y-88839018D01*
X149576441Y-88764090D01*
X149721431Y-88551890D01*
X149730370Y-88507745D01*
X149996861Y-88507745D01*
X150070995Y-88753864D01*
X150608223Y-88946965D01*
X151178454Y-88919778D01*
X151579005Y-88753864D01*
X151653139Y-88507745D01*
X150825000Y-87679605D01*
X149996861Y-88507745D01*
X149730370Y-88507745D01*
X149769646Y-88313799D01*
X149817255Y-88328139D01*
X150645395Y-87500000D01*
X151004605Y-87500000D01*
X151832745Y-88328139D01*
X152078864Y-88254005D01*
X152271965Y-87716777D01*
X152251801Y-87293846D01*
X157115000Y-87293846D01*
X157115000Y-87346154D01*
X157216621Y-87857036D01*
X157506012Y-88290142D01*
X157939118Y-88579533D01*
X158450000Y-88681154D01*
X158960882Y-88579533D01*
X159393988Y-88290142D01*
X159683379Y-87857036D01*
X159785000Y-87346154D01*
X159785000Y-87293846D01*
X159683379Y-86782964D01*
X159393988Y-86349858D01*
X158960882Y-86060467D01*
X158450000Y-85958846D01*
X157939118Y-86060467D01*
X157506012Y-86349858D01*
X157216621Y-86782964D01*
X157115000Y-87293846D01*
X152251801Y-87293846D01*
X152244778Y-87146546D01*
X152078864Y-86745995D01*
X151832745Y-86671861D01*
X151004605Y-87500000D01*
X150645395Y-87500000D01*
X149817255Y-86671861D01*
X149769833Y-86686145D01*
X149733351Y-86492255D01*
X149996861Y-86492255D01*
X150825000Y-87320395D01*
X151653139Y-86492255D01*
X151579005Y-86246136D01*
X151041777Y-86053035D01*
X150471546Y-86080222D01*
X150070995Y-86246136D01*
X149996861Y-86492255D01*
X149733351Y-86492255D01*
X149728162Y-86464683D01*
X149589090Y-86248559D01*
X149376890Y-86103569D01*
X149125000Y-86052560D01*
X147525000Y-86052560D01*
X147289683Y-86096838D01*
X147073559Y-86235910D01*
X146989324Y-86359192D01*
X145435000Y-84804868D01*
X145435000Y-77300000D01*
X145348603Y-76865654D01*
X145102566Y-76497434D01*
X141252566Y-72647434D01*
X141166610Y-72590000D01*
X140972051Y-72460000D01*
X143254868Y-72460000D01*
X144647434Y-73852566D01*
X145015654Y-74098603D01*
X145450000Y-74185000D01*
X148701998Y-74185000D01*
X149136344Y-74098603D01*
X149504564Y-73852566D01*
X150199816Y-73157314D01*
X150310000Y-73423980D01*
X150310000Y-77010000D01*
X150396397Y-77444346D01*
X150543833Y-77665000D01*
X148864018Y-77665000D01*
X148789090Y-77548559D01*
X148576890Y-77403569D01*
X148325000Y-77352560D01*
X146725000Y-77352560D01*
X146489683Y-77396838D01*
X146273559Y-77535910D01*
X146128569Y-77748110D01*
X146077560Y-78000000D01*
X146077560Y-79600000D01*
X146121838Y-79835317D01*
X146260910Y-80051441D01*
X146473110Y-80196431D01*
X146725000Y-80247440D01*
X148325000Y-80247440D01*
X148560317Y-80203162D01*
X148776441Y-80064090D01*
X148864644Y-79935000D01*
X152925000Y-79935000D01*
X153079933Y-79904182D01*
X153080000Y-79904195D01*
X153115000Y-79897233D01*
X153115000Y-79939195D01*
X153209009Y-80411809D01*
X153476723Y-80812472D01*
X153877386Y-81080186D01*
X154350000Y-81174195D01*
X154822614Y-81080186D01*
X154867791Y-81050000D01*
X158544868Y-81050000D01*
X161265000Y-83770132D01*
X161265000Y-86640729D01*
X161166621Y-86787964D01*
X161065000Y-87298846D01*
X161065000Y-87351154D01*
X161166621Y-87862036D01*
X161456012Y-88295142D01*
X161889118Y-88584533D01*
X162400000Y-88686154D01*
X162910882Y-88584533D01*
X163343988Y-88295142D01*
X163633379Y-87862036D01*
X163735000Y-87351154D01*
X163735000Y-87298846D01*
X163633379Y-86787964D01*
X163535000Y-86640729D01*
X163535000Y-83300000D01*
X163448603Y-82865654D01*
X163202566Y-82497434D01*
X160490277Y-79785145D01*
X160589383Y-79785231D01*
X161073980Y-79585000D01*
X162307026Y-79585000D01*
X162410910Y-79746441D01*
X162623110Y-79891431D01*
X162875000Y-79942440D01*
X164475000Y-79942440D01*
X164710317Y-79898162D01*
X164926441Y-79759090D01*
X165014644Y-79630000D01*
X169334828Y-79630000D01*
X169432386Y-79695186D01*
X169905000Y-79789195D01*
X169940000Y-79782233D01*
X169940000Y-79824195D01*
X170034009Y-80296809D01*
X170040000Y-80305775D01*
X170040000Y-80404868D01*
X165597434Y-84847434D01*
X165351397Y-85215654D01*
X165265000Y-85650000D01*
X165265000Y-86665729D01*
X165166621Y-86812964D01*
X165065000Y-87323846D01*
X165065000Y-87376154D01*
X165166621Y-87887036D01*
X165456012Y-88320142D01*
X165889118Y-88609533D01*
X166400000Y-88711154D01*
X166910882Y-88609533D01*
X167343988Y-88320142D01*
X167633379Y-87887036D01*
X167735000Y-87376154D01*
X167735000Y-87368846D01*
X168990000Y-87368846D01*
X168990000Y-87421154D01*
X169091621Y-87932036D01*
X169381012Y-88365142D01*
X169814118Y-88654533D01*
X170325000Y-88756154D01*
X170835882Y-88654533D01*
X171268988Y-88365142D01*
X171558379Y-87932036D01*
X171660000Y-87421154D01*
X171660000Y-87368846D01*
X171558379Y-86857964D01*
X171268988Y-86424858D01*
X170835882Y-86135467D01*
X170325000Y-86033846D01*
X169814118Y-86135467D01*
X169381012Y-86424858D01*
X169091621Y-86857964D01*
X168990000Y-87368846D01*
X167735000Y-87368846D01*
X167735000Y-87323846D01*
X167633379Y-86812964D01*
X167535000Y-86665729D01*
X167535000Y-86120132D01*
X171977566Y-81677566D01*
X171995052Y-81651397D01*
X172223603Y-81309346D01*
X172310000Y-80875000D01*
X172310000Y-80305775D01*
X172315991Y-80296809D01*
X172410000Y-79824195D01*
X172410000Y-79775805D01*
X172315991Y-79303191D01*
X172048277Y-78902528D01*
X171647614Y-78634814D01*
X171633261Y-78631959D01*
X171647614Y-78629104D01*
X172048277Y-78361390D01*
X172315991Y-77960727D01*
X172410000Y-77488113D01*
X172410000Y-77031887D01*
X172315991Y-76559273D01*
X172048277Y-76158610D01*
X171647614Y-75890896D01*
X171601944Y-75881812D01*
X168287566Y-72567434D01*
X168237349Y-72533880D01*
X167919346Y-72321397D01*
X167485000Y-72235000D01*
X164193384Y-72235000D01*
X164224151Y-72228880D01*
X164689698Y-71917811D01*
X165000767Y-71452264D01*
X165110000Y-70903113D01*
X165110000Y-70846887D01*
X165000767Y-70297736D01*
X164810000Y-70012233D01*
X164810000Y-68610757D01*
X164851441Y-68584090D01*
X164996431Y-68371890D01*
X165047440Y-68120000D01*
X165047440Y-66520000D01*
X165003162Y-66284683D01*
X164864090Y-66068559D01*
X164651890Y-65923569D01*
X164400000Y-65872560D01*
X162800000Y-65872560D01*
X162564683Y-65916838D01*
X162348559Y-66055910D01*
X162203569Y-66268110D01*
X162152560Y-66520000D01*
X162152560Y-68120000D01*
X162196838Y-68355317D01*
X162335910Y-68571441D01*
X162540000Y-68710890D01*
X162540000Y-69740000D01*
X150876998Y-69740000D01*
X150444045Y-69826120D01*
X150442652Y-69826397D01*
X150074431Y-70072434D01*
X148960000Y-71186866D01*
X148960000Y-71151887D01*
X148850767Y-70602736D01*
X148660000Y-70317233D01*
X148660000Y-68514018D01*
X148776441Y-68439090D01*
X148921431Y-68226890D01*
X148972440Y-67975000D01*
X148972440Y-66375000D01*
X148928162Y-66139683D01*
X148789090Y-65923559D01*
X148576890Y-65778569D01*
X148325000Y-65727560D01*
X146725000Y-65727560D01*
X146489683Y-65771838D01*
X146273559Y-65910910D01*
X146128569Y-66123110D01*
X146077560Y-66375000D01*
X146077560Y-67115000D01*
X137716317Y-67115000D01*
X137950767Y-66764121D01*
X138060000Y-66214970D01*
X138060000Y-65445030D01*
X137950767Y-64895879D01*
X137760000Y-64610376D01*
X137760000Y-63832130D01*
X139209816Y-62382314D01*
X139322582Y-62655229D01*
X139697796Y-63031098D01*
X140188287Y-63234768D01*
X140719383Y-63235231D01*
X141210229Y-63032418D01*
X141586098Y-62657204D01*
X141789768Y-62166713D01*
X141790231Y-61635617D01*
X141587418Y-61144771D01*
X141212204Y-60768902D01*
X140721713Y-60565232D01*
X140619456Y-60565143D01*
X140635000Y-60486998D01*
X140635000Y-57770132D01*
X142545132Y-55860000D01*
X143859868Y-55860000D01*
X143172434Y-56547434D01*
X142926397Y-56915654D01*
X142840000Y-57350000D01*
X142840000Y-65749010D01*
X142839803Y-65974775D01*
X143012233Y-66392086D01*
X143331235Y-66711645D01*
X143748244Y-66884803D01*
X144199775Y-66885197D01*
X144617086Y-66712767D01*
X144936645Y-66393765D01*
X145109803Y-65976756D01*
X145110197Y-65525225D01*
X145110000Y-65524748D01*
X145110000Y-57820132D01*
X145160142Y-57769990D01*
X152407013Y-57769990D01*
X152340000Y-58106887D01*
X152340000Y-58352767D01*
X152305000Y-58345805D01*
X151931997Y-58420000D01*
X148401728Y-58420000D01*
X148074151Y-58201120D01*
X147525000Y-58091887D01*
X146975849Y-58201120D01*
X146510302Y-58512189D01*
X146199233Y-58977736D01*
X146090000Y-59526887D01*
X146090000Y-59583113D01*
X146199233Y-60132264D01*
X146510302Y-60597811D01*
X146975849Y-60908880D01*
X147525000Y-61018113D01*
X148074151Y-60908880D01*
X148401728Y-60690000D01*
X150090000Y-60690000D01*
X150090000Y-66477740D01*
X149965467Y-66664118D01*
X149863846Y-67175000D01*
X149965467Y-67685882D01*
X150254858Y-68118988D01*
X150687964Y-68408379D01*
X151198846Y-68510000D01*
X151251154Y-68510000D01*
X151762036Y-68408379D01*
X152195142Y-68118988D01*
X152484533Y-67685882D01*
X152586154Y-67175000D01*
X152484533Y-66664118D01*
X152360000Y-66477740D01*
X152360000Y-61155132D01*
X152385781Y-61129351D01*
X152434009Y-61371809D01*
X152440000Y-61380775D01*
X152440000Y-64445000D01*
X152526397Y-64879346D01*
X152717266Y-65165001D01*
X152772434Y-65247566D01*
X154973654Y-67448786D01*
X155172582Y-67930229D01*
X155547796Y-68306098D01*
X156038287Y-68509768D01*
X156569383Y-68510231D01*
X157053980Y-68310000D01*
X157530000Y-68310000D01*
X157964346Y-68223603D01*
X158332566Y-67977566D01*
X160248786Y-66061346D01*
X160730229Y-65862418D01*
X161106098Y-65487204D01*
X161239889Y-65165001D01*
X167694999Y-65165001D01*
X168129345Y-65078604D01*
X168497565Y-64832567D01*
X170931834Y-62398298D01*
X170972614Y-62390186D01*
X171373277Y-62122472D01*
X171640991Y-61721809D01*
X171735000Y-61249195D01*
X171735000Y-61200805D01*
X171640991Y-60728191D01*
X171373277Y-60327528D01*
X170972614Y-60059814D01*
X170958261Y-60056959D01*
X170972614Y-60054104D01*
X171373277Y-59786390D01*
X171640991Y-59385727D01*
X171735000Y-58913113D01*
X171735000Y-58456887D01*
X171640991Y-57984273D01*
X171373277Y-57583610D01*
X170972614Y-57315896D01*
X170500000Y-57221887D01*
X170027386Y-57315896D01*
X169626723Y-57583610D01*
X169359009Y-57984273D01*
X169265000Y-58456887D01*
X169265000Y-58622685D01*
X168975000Y-58565000D01*
X164476728Y-58565000D01*
X164149151Y-58346120D01*
X163600000Y-58236887D01*
X163050849Y-58346120D01*
X162723272Y-58565000D01*
X160747090Y-58565000D01*
X160485882Y-58390467D01*
X159975000Y-58288846D01*
X159464118Y-58390467D01*
X159031012Y-58679858D01*
X158741621Y-59112964D01*
X158640000Y-59623846D01*
X158640000Y-59676154D01*
X158741621Y-60187036D01*
X159031012Y-60620142D01*
X159464118Y-60909533D01*
X159975000Y-61011154D01*
X160485882Y-60909533D01*
X160597429Y-60835000D01*
X162723272Y-60835000D01*
X163050849Y-61053880D01*
X163600000Y-61163113D01*
X164149151Y-61053880D01*
X164476728Y-60835000D01*
X168345049Y-60835000D01*
X168356723Y-60852472D01*
X168757386Y-61120186D01*
X168959482Y-61160386D01*
X167224867Y-62895001D01*
X160674999Y-62895001D01*
X160240653Y-62981398D01*
X159917333Y-63197434D01*
X159872433Y-63227435D01*
X159701214Y-63398654D01*
X159219771Y-63597582D01*
X158843902Y-63972796D01*
X158642825Y-64457043D01*
X157059868Y-66040000D01*
X157052807Y-66040000D01*
X156577957Y-65842825D01*
X154710000Y-63974868D01*
X154710000Y-61380775D01*
X154715991Y-61371809D01*
X154810000Y-60899195D01*
X154810000Y-60850805D01*
X154715991Y-60378191D01*
X154448277Y-59977528D01*
X154047614Y-59709814D01*
X154033261Y-59706959D01*
X154047614Y-59704104D01*
X154448277Y-59436390D01*
X154715991Y-59035727D01*
X154810000Y-58563113D01*
X154810000Y-58106887D01*
X154742987Y-57769990D01*
X161190010Y-57769990D01*
X161624356Y-57683593D01*
X161992576Y-57437556D01*
X164227566Y-55202566D01*
X164327793Y-55052566D01*
X164473603Y-54834346D01*
X164560000Y-54400000D01*
X164560000Y-48450000D01*
X164473603Y-48015654D01*
X164227566Y-47647434D01*
X163202566Y-46622434D01*
X162834346Y-46376397D01*
X162400000Y-46290000D01*
X158310787Y-46290000D01*
X157876441Y-46376397D01*
X157508221Y-46622434D01*
X156272434Y-47858221D01*
X156026397Y-48226441D01*
X155940000Y-48660787D01*
X155940000Y-48897796D01*
X155824836Y-49012759D01*
X155502363Y-48689722D01*
X154901648Y-48440284D01*
X154251205Y-48439716D01*
X153650057Y-48688106D01*
X153189722Y-49147637D01*
X152940284Y-49748352D01*
X152939716Y-50398795D01*
X153188106Y-50999943D01*
X153512759Y-51325164D01*
X153189722Y-51647637D01*
X152940284Y-52248352D01*
X152939716Y-52898795D01*
X153188106Y-53499943D01*
X153278006Y-53590000D01*
X142075000Y-53590000D01*
X141640654Y-53676397D01*
X141432240Y-53815655D01*
X141272434Y-53922434D01*
X138697434Y-56497434D01*
X138451397Y-56865654D01*
X138365000Y-57300000D01*
X138365000Y-60016866D01*
X136693965Y-61687901D01*
X136634533Y-61389118D01*
X136345142Y-60956012D01*
X135912036Y-60666621D01*
X135401154Y-60565000D01*
X135348846Y-60565000D01*
X134837964Y-60666621D01*
X134690729Y-60765000D01*
X133727807Y-60765000D01*
X133246713Y-60565232D01*
X132715617Y-60564769D01*
X132224771Y-60767582D01*
X131848902Y-61142796D01*
X131645232Y-61633287D01*
X131644769Y-62164383D01*
X131847582Y-62655229D01*
X132222796Y-63031098D01*
X132713287Y-63234768D01*
X132950000Y-63234974D01*
X132950000Y-64610376D01*
X132815000Y-64812418D01*
X132559698Y-64430332D01*
X132094151Y-64119263D01*
X131545000Y-64010030D01*
X130995849Y-64119263D01*
X130530302Y-64430332D01*
X130275000Y-64812418D01*
X130019698Y-64430332D01*
X129554151Y-64119263D01*
X129005000Y-64010030D01*
X128455849Y-64119263D01*
X127990302Y-64430332D01*
X127813456Y-64695000D01*
X127205000Y-64695000D01*
X126770654Y-64781397D01*
X126451898Y-64994383D01*
X126402434Y-65027434D01*
X125722434Y-65707434D01*
X125476397Y-66075654D01*
X125390000Y-66510000D01*
X125390000Y-73725000D01*
X125476397Y-74159346D01*
X125722434Y-74527566D01*
X125724914Y-74529223D01*
X127115000Y-75919310D01*
X127115000Y-78800000D01*
X127201397Y-79234346D01*
X127431422Y-79578603D01*
X127447434Y-79602566D01*
X128021336Y-80176468D01*
X127954829Y-80152799D01*
X127404552Y-80180770D01*
X127026077Y-80337540D01*
X127005019Y-80412165D01*
X126964090Y-80348559D01*
X126810000Y-80243274D01*
X126810000Y-77972260D01*
X126934533Y-77785882D01*
X127036154Y-77275000D01*
X126934533Y-76764118D01*
X126645142Y-76331012D01*
X126212036Y-76041621D01*
X125701154Y-75940000D01*
X125648846Y-75940000D01*
X125137964Y-76041621D01*
X124704858Y-76331012D01*
X124415467Y-76764118D01*
X124313846Y-77275000D01*
X122135000Y-77275000D01*
X122135000Y-57395171D01*
X124527799Y-57395171D01*
X124555770Y-57945448D01*
X124712540Y-58323923D01*
X124953483Y-58391912D01*
X125745395Y-57600000D01*
X124953483Y-56808088D01*
X124712540Y-56876077D01*
X124527799Y-57395171D01*
X122135000Y-57395171D01*
X122135000Y-56628483D01*
X125133088Y-56628483D01*
X125925000Y-57420395D01*
X125939143Y-57406253D01*
X126118748Y-57585858D01*
X126104605Y-57600000D01*
X126118748Y-57614143D01*
X125939143Y-57793748D01*
X125925000Y-57779605D01*
X125133088Y-58571517D01*
X125201077Y-58812460D01*
X125720171Y-58997201D01*
X126270448Y-58969230D01*
X126648923Y-58812460D01*
X126669981Y-58737835D01*
X126710910Y-58801441D01*
X126790000Y-58855481D01*
X126790000Y-61165325D01*
X126640467Y-61389118D01*
X126538846Y-61900000D01*
X126640467Y-62410882D01*
X126929858Y-62843988D01*
X127362964Y-63133379D01*
X127873846Y-63235000D01*
X127926154Y-63235000D01*
X128437036Y-63133379D01*
X128870142Y-62843988D01*
X129159533Y-62410882D01*
X129261154Y-61900000D01*
X129159533Y-61389118D01*
X129060000Y-61240156D01*
X129060000Y-58856844D01*
X129126441Y-58814090D01*
X129271431Y-58601890D01*
X129322440Y-58350000D01*
X129322440Y-56850000D01*
X129278162Y-56614683D01*
X129139090Y-56398559D01*
X128926890Y-56253569D01*
X128675000Y-56202560D01*
X127175000Y-56202560D01*
X126939683Y-56246838D01*
X126723559Y-56385910D01*
X126670412Y-56463693D01*
X126648923Y-56387540D01*
X126129829Y-56202799D01*
X125579552Y-56230770D01*
X125201077Y-56387540D01*
X125133088Y-56628483D01*
X122135000Y-56628483D01*
X122135000Y-52935787D01*
X122048603Y-52501441D01*
X121802566Y-52133221D01*
X118916779Y-49247434D01*
X118548559Y-49001397D01*
X118114213Y-48915000D01*
X117877204Y-48915000D01*
X117627363Y-48664722D01*
X117026648Y-48415284D01*
X116376205Y-48414716D01*
X115775057Y-48663106D01*
X115358248Y-49079187D01*
X115352532Y-49077073D01*
X114379605Y-50050000D01*
X115352532Y-51022927D01*
X115358722Y-51020639D01*
X115637759Y-51300164D01*
X115358248Y-51579187D01*
X115352532Y-51577073D01*
X114379605Y-52550000D01*
X115352532Y-53522927D01*
X115358722Y-53520639D01*
X115565000Y-53727278D01*
X115565000Y-60620000D01*
X115613092Y-60861776D01*
X113197434Y-63277434D01*
X112951397Y-63645654D01*
X112865000Y-64080000D01*
X112865000Y-64976886D01*
X112757204Y-64868902D01*
X112266713Y-64665232D01*
X111735617Y-64664769D01*
X111251020Y-64865000D01*
X109764271Y-64865000D01*
X109617036Y-64766621D01*
X109106154Y-64665000D01*
X109053846Y-64665000D01*
X108542964Y-64766621D01*
X108135000Y-65039213D01*
X108135000Y-64000000D01*
X108071626Y-63681397D01*
X108048604Y-63565655D01*
X107802566Y-63197434D01*
X105605132Y-61000000D01*
X107718846Y-61000000D01*
X107820467Y-61510882D01*
X108109858Y-61943988D01*
X108542964Y-62233379D01*
X109053846Y-62335000D01*
X109106154Y-62335000D01*
X109617036Y-62233379D01*
X109764271Y-62135000D01*
X111252193Y-62135000D01*
X111733287Y-62334768D01*
X112264383Y-62335231D01*
X112755229Y-62132418D01*
X113131098Y-61757204D01*
X113334768Y-61266713D01*
X113335231Y-60735617D01*
X113132418Y-60244771D01*
X112757204Y-59868902D01*
X112266713Y-59665232D01*
X111735617Y-59664769D01*
X111251020Y-59865000D01*
X109764271Y-59865000D01*
X109617036Y-59766621D01*
X109106154Y-59665000D01*
X109053846Y-59665000D01*
X108542964Y-59766621D01*
X108109858Y-60056012D01*
X107820467Y-60489118D01*
X107718846Y-61000000D01*
X105605132Y-61000000D01*
X105331346Y-60726214D01*
X105135000Y-60251020D01*
X105135000Y-54720132D01*
X106170132Y-53685000D01*
X110522796Y-53685000D01*
X110772637Y-53935278D01*
X111373352Y-54184716D01*
X112023795Y-54185284D01*
X112624943Y-53936894D01*
X112859715Y-53702532D01*
X113227073Y-53702532D01*
X113325736Y-53969387D01*
X113935461Y-54195908D01*
X114585460Y-54171856D01*
X115074264Y-53969387D01*
X115172927Y-53702532D01*
X114200000Y-52729605D01*
X113227073Y-53702532D01*
X112859715Y-53702532D01*
X113041752Y-53520813D01*
X113047468Y-53522927D01*
X114020395Y-52550000D01*
X113047468Y-51577073D01*
X113041278Y-51579361D01*
X112762241Y-51299836D01*
X112859715Y-51202532D01*
X113227073Y-51202532D01*
X113263109Y-51300000D01*
X113227073Y-51397468D01*
X114200000Y-52370395D01*
X115172927Y-51397468D01*
X115136891Y-51300000D01*
X115172927Y-51202532D01*
X114200000Y-50229605D01*
X113227073Y-51202532D01*
X112859715Y-51202532D01*
X113041752Y-51020813D01*
X113047468Y-51022927D01*
X114020395Y-50050000D01*
X113047468Y-49077073D01*
X113041278Y-49079361D01*
X112859703Y-48897468D01*
X113227073Y-48897468D01*
X114200000Y-49870395D01*
X115172927Y-48897468D01*
X115074264Y-48630613D01*
X114464539Y-48404092D01*
X113814540Y-48428144D01*
X113325736Y-48630613D01*
X113227073Y-48897468D01*
X112859703Y-48897468D01*
X112627363Y-48664722D01*
X112026648Y-48415284D01*
X111376205Y-48414716D01*
X110775057Y-48663106D01*
X110522722Y-48915000D01*
X103200000Y-48915000D01*
X102765654Y-49001397D01*
X102397434Y-49247434D01*
X99197434Y-52447434D01*
X98951397Y-52815654D01*
X98865000Y-53250000D01*
X98865000Y-74252193D01*
X98665232Y-74733287D01*
X98664769Y-75264383D01*
X96710000Y-75264383D01*
X96710000Y-45710000D01*
X178290000Y-45710000D01*
X178290000Y-103290000D01*
G36*
X162290000Y-48920132D02*
X162290000Y-53929868D01*
X160719878Y-55499990D01*
X156067144Y-55499990D01*
X157356887Y-54210247D01*
X157398795Y-54210284D01*
X157999943Y-53961894D01*
X158234715Y-53727532D01*
X158602073Y-53727532D01*
X158700736Y-53994387D01*
X159310461Y-54220908D01*
X159960460Y-54196856D01*
X160449264Y-53994387D01*
X160547927Y-53727532D01*
X159575000Y-52754605D01*
X158602073Y-53727532D01*
X158234715Y-53727532D01*
X158416752Y-53545813D01*
X158422468Y-53547927D01*
X159395395Y-52575000D01*
X159754605Y-52575000D01*
X160727532Y-53547927D01*
X160994387Y-53449264D01*
X161220908Y-52839539D01*
X161196856Y-52189540D01*
X160994387Y-51700736D01*
X160727532Y-51602073D01*
X159754605Y-52575000D01*
X159395395Y-52575000D01*
X158422468Y-51602073D01*
X158416278Y-51604361D01*
X158137241Y-51324836D01*
X158234715Y-51227532D01*
X158602073Y-51227532D01*
X158638109Y-51325000D01*
X158602073Y-51422468D01*
X159575000Y-52395395D01*
X160547927Y-51422468D01*
X160511891Y-51325000D01*
X160547927Y-51227532D01*
X159575000Y-50254605D01*
X158602073Y-51227532D01*
X158234715Y-51227532D01*
X158416752Y-51045813D01*
X158422468Y-51047927D01*
X159395395Y-50075000D01*
X159754605Y-50075000D01*
X160727532Y-51047927D01*
X160994387Y-50949264D01*
X161220908Y-50339539D01*
X161196856Y-49689540D01*
X160994387Y-49200736D01*
X160727532Y-49102073D01*
X159754605Y-50075000D01*
X159395395Y-50075000D01*
X159381253Y-50060858D01*
X159560858Y-49881253D01*
X159575000Y-49895395D01*
X160547927Y-48922468D01*
X160449264Y-48655613D01*
X160191903Y-48560000D01*
X161929868Y-48560000D01*
X162290000Y-48920132D01*
X162290000Y-48920132D01*
G37*
X162290000Y-48920132D02*
X162290000Y-53929868D01*
X160719878Y-55499990D01*
X156067144Y-55499990D01*
X157356887Y-54210247D01*
X157398795Y-54210284D01*
X157999943Y-53961894D01*
X158234715Y-53727532D01*
X158602073Y-53727532D01*
X158700736Y-53994387D01*
X159310461Y-54220908D01*
X159960460Y-54196856D01*
X160449264Y-53994387D01*
X160547927Y-53727532D01*
X159575000Y-52754605D01*
X158602073Y-53727532D01*
X158234715Y-53727532D01*
X158416752Y-53545813D01*
X158422468Y-53547927D01*
X159395395Y-52575000D01*
X159754605Y-52575000D01*
X160727532Y-53547927D01*
X160994387Y-53449264D01*
X161220908Y-52839539D01*
X161196856Y-52189540D01*
X160994387Y-51700736D01*
X160727532Y-51602073D01*
X159754605Y-52575000D01*
X159395395Y-52575000D01*
X158422468Y-51602073D01*
X158416278Y-51604361D01*
X158137241Y-51324836D01*
X158234715Y-51227532D01*
X158602073Y-51227532D01*
X158638109Y-51325000D01*
X158602073Y-51422468D01*
X159575000Y-52395395D01*
X160547927Y-51422468D01*
X160511891Y-51325000D01*
X160547927Y-51227532D01*
X159575000Y-50254605D01*
X158602073Y-51227532D01*
X158234715Y-51227532D01*
X158416752Y-51045813D01*
X158422468Y-51047927D01*
X159395395Y-50075000D01*
X159754605Y-50075000D01*
X160727532Y-51047927D01*
X160994387Y-50949264D01*
X161220908Y-50339539D01*
X161196856Y-49689540D01*
X160994387Y-49200736D01*
X160727532Y-49102073D01*
X159754605Y-50075000D01*
X159395395Y-50075000D01*
X159381253Y-50060858D01*
X159560858Y-49881253D01*
X159575000Y-49895395D01*
X160547927Y-48922468D01*
X160449264Y-48655613D01*
X160191903Y-48560000D01*
X161929868Y-48560000D01*
X162290000Y-48920132D01*
M02*
